<svg width="50" height="50" viewBox="0 0 50 50" fill="none" xmlns="http://www.w3.org/2000/svg">
<g filter="url(#filter0_d_156_9643)">
<circle cx="25" cy="21" r="20" fill="white"/>
</g>
<path d="M19.9232 24.6785L19.9232 24.6786C19.286 25.9711 18.709 27.2482 18.4006 28.4318C18.2071 29.2755 18.3144 29.9167 18.5883 30.3542C18.8584 30.7856 19.3382 31.0954 20.0545 31.1886L20.0549 31.1886C20.8124 31.2876 21.5599 31.1035 22.3396 30.8039L22.3397 30.8038C23.8544 30.2221 25.2269 29.3729 26.6453 28.4954C26.7865 28.4081 26.9282 28.3204 27.0705 28.2327C27.0653 28.2245 27.0595 28.2156 27.0529 28.206L27.0522 28.205C26.6708 27.6472 26.2861 27.0916 25.8981 26.5382L25.8981 26.5381C25.8924 26.5301 25.8871 26.5228 25.8822 26.5162C25.8721 26.5216 25.8608 26.528 25.8484 26.5354C25.5006 26.7449 25.1548 26.9574 24.8111 27.1729L24.8103 27.1734C24.6739 27.2585 24.488 27.3479 24.2673 27.3577C24.0261 27.3684 23.804 27.2816 23.6201 27.1188C23.4384 26.9579 23.3221 26.7481 23.3047 26.5037C23.2886 26.2786 23.3607 26.0806 23.4367 25.9324L23.4371 25.9317C23.6618 25.4952 23.8866 25.0588 24.1114 24.6226C24.8977 23.0966 25.6834 21.5719 26.4611 20.0453L19.9232 24.6785ZM19.9232 24.6785C20.4913 23.5255 21.0799 22.3854 21.6709 21.2407C21.9202 20.7579 22.1699 20.2743 22.4187 19.7885C22.4826 19.6911 22.5319 19.5847 22.5648 19.4727L22.5761 19.4343M19.9232 24.6785L22.5761 19.4343M22.5761 19.4343L22.5811 19.3945M22.5761 19.4343L22.5811 19.3945M22.5811 19.3945C22.5875 19.3439 22.5986 19.2494 22.5965 19.1545C22.5955 19.1083 22.5911 19.0372 22.5703 18.9607C22.553 18.8973 22.5005 18.7382 22.3366 18.6297L22.3193 18.6182M22.5811 19.3945L22.3193 18.6182M22.3193 18.6182L22.3012 18.6083M22.3193 18.6182L22.3012 18.6083M22.3012 18.6083C22.1872 18.5457 22.0605 18.5098 21.9307 18.5031C21.8009 18.4964 21.6712 18.5192 21.5512 18.5699L21.5258 18.5806M22.3012 18.6083L21.5258 18.5806M21.5258 18.5806L21.5018 18.5941M21.5258 18.5806L21.5018 18.5941M21.5018 18.5941C21.1384 18.7974 20.7906 19.0265 20.4604 19.2443L20.4597 19.2447M21.5018 18.5941L20.4597 19.2447M20.4597 19.2447C20.4557 19.2474 20.4519 19.2499 20.4483 19.252M20.4597 19.2447L20.4483 19.252M27.127 14.8497L27.1268 14.8496C26.4353 14.5869 25.7052 14.6063 24.9054 14.747L27.127 14.8497ZM27.127 14.8497C27.6019 15.0299 27.9114 15.3326 28.0612 15.6706C28.2097 16.0056 28.2214 16.4191 28.0209 16.8677L28.0206 16.8683M27.127 14.8497L28.0206 16.8683M28.0206 16.8683C27.6095 17.7911 27.1498 18.6932 26.6837 19.6079M28.0206 16.8683L26.6837 19.6079M20.4483 19.252C20.4479 19.2516 20.4476 19.2512 20.4472 19.2508M20.4483 19.252L20.4472 19.2508M20.4472 19.2508C19.9846 18.7318 19.5259 18.2118 19.0754 17.6859C20.8967 16.32 22.7091 15.1347 24.9051 14.747L20.4472 19.2508ZM19.0093 17.7279L19.013 17.7328C19.0024 17.7408 18.9984 17.7453 18.9984 17.7453C18.9984 17.7453 19.0009 17.7425 19.0046 17.7364C19.0061 17.7341 19.0075 17.7314 19.009 17.7286L18.9931 17.7076L18.6705 17.9817M19.0093 17.7279L19.051 17.6574C19.0394 17.6437 19.0317 17.6329 19.0268 17.6252C19.022 17.6176 19.0204 17.6138 19.0204 17.6138L19.0204 17.6138C19.0209 17.615 19.0278 17.6329 19.0261 17.663C19.0258 17.6684 19.0253 17.6737 19.0245 17.6787L18.9928 17.7059L18.7119 17.3337M19.0093 17.7279L18.9937 17.7071L19.0241 17.6812C19.0211 17.6998 19.0154 17.7157 19.0093 17.7279ZM18.6705 17.9817L18.9922 17.7064L18.7119 17.3337M18.6705 17.9817C18.4685 17.7441 18.4757 17.5119 18.7119 17.3337M18.6705 17.9817C19.1321 18.5212 19.6018 19.0537 20.074 19.5835L18.7119 17.3337M26.6837 19.6079C26.6096 19.7533 26.5354 19.8991 26.4611 20.0452L26.6837 19.6079Z" fill="#60C4E7" stroke="white"/>
<path d="M30.4146 10.8512L30.4146 10.8512C30.1533 12.0917 29.0292 12.9834 27.8518 12.9418C26.8991 12.9059 26.1654 12.2187 26.0716 11.2751L26.0716 11.2748C25.9263 9.82387 27.1647 8.50168 28.6244 8.55061L28.6246 8.55062C29.8591 8.59168 30.6722 9.62861 30.4146 10.8512Z" fill="#60C4E7" stroke="white"/>
<defs>
<filter id="filter0_d_156_9643" x="0" y="0" width="50" height="50" filterUnits="userSpaceOnUse" color-interpolation-filters="sRGB">
<feFlood flood-opacity="0" result="BackgroundImageFix"/>
<feColorMatrix in="SourceAlpha" type="matrix" values="0 0 0 0 0 0 0 0 0 0 0 0 0 0 0 0 0 0 127 0" result="hardAlpha"/>
<feOffset dy="4"/>
<feGaussianBlur stdDeviation="2.5"/>
<feComposite in2="hardAlpha" operator="out"/>
<feColorMatrix type="matrix" values="0 0 0 0 0.0238889 0 0 0 0 0.147522 0 0 0 0 0.358333 0 0 0 0.15 0"/>
<feBlend mode="normal" in2="BackgroundImageFix" result="effect1_dropShadow_156_9643"/>
<feBlend mode="normal" in="SourceGraphic" in2="effect1_dropShadow_156_9643" result="shape"/>
</filter>
</defs>
</svg>
