<svg width="50" height="50" viewBox="0 0 50 50" fill="none" xmlns="http://www.w3.org/2000/svg">
<g filter="url(#filter0_d_156_9744)">
<circle cx="25" cy="21" r="20" fill="white"/>
</g>
<path d="M22.8603 25.0272C23.2257 25.6543 23.5554 26.2739 23.9381 26.8579C24.204 27.2546 24.5093 27.6233 24.8492 27.9581C25.9334 29.0358 26.0388 30.5326 25.0824 31.5386C24.1865 32.4807 22.8329 32.4395 22.0022 31.4278C21.467 30.779 21.1399 30.0144 20.9104 29.218C20.578 28.0623 19.8518 27.1613 19.1133 26.2625C19.0785 26.23 19.0376 26.2048 18.9929 26.1887C18.9483 26.1725 18.901 26.1656 18.8538 26.1685C18.3147 26.2042 17.8488 26.043 17.4862 25.6378C17.3406 25.4763 17.2253 25.537 17.0883 25.5992C16.4866 25.8712 15.8662 25.9401 15.2266 25.7442C14.7278 25.5926 14.286 25.2909 13.9606 24.8798C13.6351 24.4686 13.4417 23.9678 13.4064 23.4447C13.3727 22.9166 13.5011 22.3922 13.7741 21.9426C14.0471 21.4931 14.4515 21.1404 14.9322 20.9323C15.0233 20.8886 15.1173 20.8509 15.2134 20.8197C15.3847 20.7716 15.4323 20.6753 15.4383 20.4901C15.4614 19.7998 15.7904 19.3031 16.4109 18.9965C17.3239 18.5451 18.2302 18.0805 19.1392 17.6207C19.2112 17.584 19.2793 17.5389 19.3534 17.5039C19.6227 17.3763 19.8392 17.4281 19.9587 17.6449C20.0838 17.8727 20.0074 18.1006 19.7365 18.252C19.3758 18.4545 19.008 18.6441 18.6439 18.8413C18.3876 18.9803 18.1335 19.123 17.8668 19.27C17.9029 19.375 17.9293 19.4621 17.9628 19.5457C18.2429 20.2453 18.5231 20.9448 18.8126 21.6676C18.9276 21.6289 19.0237 21.6016 19.1142 21.5653C20.3048 21.0885 21.4953 20.6117 22.6872 20.1384C22.8734 20.0638 22.9666 19.9902 22.9676 19.7548C22.9713 18.9396 23.5512 18.2791 24.3431 18.1381C24.627 18.0897 24.9189 18.1157 25.191 18.2137C25.4631 18.3117 25.7062 18.4785 25.8969 18.6979C26.0875 18.9173 26.2194 19.182 26.2798 19.4666C26.3402 19.7512 26.3271 20.0462 26.2417 20.3231C26.1564 20.5999 26.0016 20.8495 25.7924 21.0477C25.5832 21.246 25.3265 21.3862 25.047 21.455C24.7675 21.5238 24.4745 21.5189 24.1963 21.4406C23.9182 21.3624 23.664 21.2134 23.4584 21.0082C23.3498 20.8999 23.2741 20.7989 23.0805 20.8791C21.8199 21.3978 20.5523 21.8988 19.2866 22.4064C19.25 22.421 19.2167 22.4436 19.1601 22.4735L20.1215 24.8741C20.7041 24.7173 21.2874 24.5623 21.8699 24.4036C23.8371 23.8665 25.8065 23.3352 27.7704 22.7869C28.3772 22.6172 28.9517 22.789 29.536 22.8922C29.6057 22.9032 29.6704 22.9262 29.7851 22.9568L26.2688 14.1768C26.2256 14.2007 26.186 14.2308 26.1512 14.2661C25.6359 14.9819 24.9562 15.4812 24.1659 15.8591C23.538 16.1587 22.9391 16.5193 22.3239 16.8455C22.0252 17.0041 21.7853 16.951 21.6694 16.7203C21.5535 16.4895 21.6383 16.2774 21.9431 16.1098C22.7745 15.6521 23.6098 15.2007 24.4424 14.7459C25.0582 14.4095 25.4227 13.8253 25.8298 13.2874C25.8721 13.2302 25.8475 13.0922 25.8153 13.0068C25.6573 12.5864 25.4812 12.1725 25.3198 11.7534C24.9906 10.8953 25.338 10.0421 26.138 9.73561C26.9298 9.43168 27.7413 9.81217 28.0837 10.6557C28.6014 11.9333 29.1139 13.2129 29.6211 14.4946C29.6963 14.6823 29.78 14.7544 29.9924 14.7518C31.2216 14.74 32.2704 15.4425 32.7161 16.5522C33.178 17.7056 32.9121 18.9301 31.9888 19.7875C31.837 19.9282 31.839 20.0343 31.9086 20.2064C32.4381 21.5122 32.9659 22.8187 33.4802 24.1306C33.6356 24.4972 33.6408 24.9098 33.4944 25.2779C33.3481 25.6459 33.0623 25.9391 32.6999 26.093C32.3375 26.2468 31.9282 26.2488 31.562 26.0984C31.1958 25.948 30.9028 25.6576 30.7473 25.2911C30.598 24.977 30.4729 24.6521 30.373 24.319C30.2809 23.9976 30.0798 23.859 29.7757 23.8053C29.5765 23.7689 29.3821 23.6989 29.1851 23.665C28.7084 23.5761 28.2471 23.5127 27.753 23.6591C26.2026 24.1124 24.6375 24.5161 23.0782 24.9373C23.0234 24.9553 22.9739 24.9817 22.8603 25.0272ZM28.7715 18.1445L30.4221 22.2661C30.771 23.1374 31.1143 24.011 31.4732 24.8809C31.6734 25.3663 32.2182 25.4979 32.557 25.1543C32.7921 24.917 32.8014 24.642 32.6788 24.3374C32.1097 22.9279 31.5486 21.5154 30.9833 20.1038C30.8179 19.6909 30.8459 19.5978 31.2138 19.3449C31.5945 19.0885 31.877 18.7091 32.0151 18.2684C32.1533 17.8277 32.1392 17.3516 31.9749 16.9177C31.8107 16.4838 31.506 16.1176 31.1106 15.8786C30.7151 15.6396 30.2521 15.542 29.7969 15.6016C29.2219 15.6715 29.2034 15.6611 28.9888 15.1254C28.4349 13.7422 27.8807 12.3583 27.3262 10.9736C27.2089 10.6807 27.0194 10.4913 26.6992 10.477C26.1789 10.4537 25.892 10.9481 26.1094 11.4926C26.9954 13.7103 27.8827 15.9276 28.7715 18.1445ZM19.9121 25.808C19.9177 25.8658 19.9119 25.8906 19.9222 25.9049C19.9997 26.0116 20.0791 26.1173 20.1602 26.2221C20.8224 27.0788 21.4007 27.9737 21.7296 29.0312C21.9203 29.6458 22.2272 30.2396 22.5674 30.789C22.9668 31.4362 23.5896 31.5491 24.1941 31.1862C24.748 30.8535 25.0669 30.1444 24.8403 29.5296C24.7016 29.1523 24.4256 28.82 24.1792 28.4897C23.9743 28.2128 23.6943 27.9896 23.5088 27.7023C23.0798 27.0353 22.683 26.3475 22.2827 25.6624C22.033 25.2345 22.0443 25.2299 21.5592 25.3582C21.0062 25.5025 20.4563 25.658 19.9121 25.808ZM19.2842 25.1282L17.0977 19.6685C16.4187 19.7655 16.1103 20.281 16.3573 20.9027C16.8545 22.1555 17.3595 23.4051 17.8606 24.6563C18.1338 25.3435 18.6126 25.5107 19.2842 25.1282ZM15.699 21.5531C14.8956 21.768 14.3694 22.2255 14.254 23.0419C14.1502 23.7605 14.4309 24.3457 15.0391 24.7416C15.6743 25.1544 16.3169 25.0759 16.9654 24.7153L15.699 21.5531ZM24.3221 19.0111C24.1662 19.0728 24.0323 19.1797 23.9373 19.3186C23.8422 19.4574 23.7904 19.6218 23.7882 19.791C23.786 19.9602 23.8337 20.1267 23.9251 20.2694C24.0165 20.4121 24.1477 20.5246 24.3019 20.5927C24.4561 20.6608 24.6266 20.6814 24.7917 20.652C24.9568 20.6226 25.1092 20.5445 25.2296 20.4274C25.35 20.3104 25.433 20.1598 25.4682 19.9945C25.5034 19.8293 25.4891 19.6569 25.4272 19.4991C25.3428 19.2879 25.1795 19.1182 24.9727 19.0268C24.7659 18.9354 24.5323 18.9297 24.3226 19.0109L24.3221 19.0111Z" fill="#33A6D8"/>
<path d="M34.6619 18.9266C34.8419 18.9244 34.9453 18.918 35.0466 18.9278C35.9018 19.0156 36.7567 19.1053 37.6112 19.1967C37.9577 19.2348 38.137 19.4113 38.1207 19.6864C38.1043 19.9615 37.9014 20.105 37.5627 20.0714C36.6767 19.9829 35.7907 19.8915 34.9046 19.7973C34.6675 19.7727 34.4876 19.6377 34.487 19.3946C34.4864 19.2311 34.6068 19.0703 34.6619 18.9266Z" fill="#33A6D8"/>
<path d="M30.0342 11.7767C29.8574 11.7362 29.6673 11.7402 29.5859 11.6602C29.5372 11.6064 29.5025 11.5428 29.4839 11.4735C29.4654 11.4043 29.4635 11.3309 29.4784 11.258C29.5924 10.8986 29.7586 10.5501 29.9106 10.1957C30.1037 9.73955 30.2973 9.28446 30.4913 8.83042C30.6281 8.51205 30.834 8.3874 31.0969 8.45091C31.3598 8.51441 31.4398 8.72824 31.3124 9.03307C30.9854 9.81418 30.6583 10.5953 30.3196 11.3737C30.2631 11.5034 30.1492 11.6169 30.0342 11.7767Z" fill="#33A6D8"/>
<path d="M37.8352 23.344C37.7691 23.4758 37.7375 23.6685 37.6239 23.7349C37.481 23.8178 37.2285 23.8645 37.0965 23.8083C36.5451 23.5734 36.021 23.294 35.4869 23.0307C35.2173 22.8937 34.9407 22.7675 34.6746 22.6266C34.4263 22.4946 34.3668 22.2673 34.5281 22.0661C34.7033 21.8477 34.9253 21.8072 35.161 21.9204C35.9679 22.3151 36.7718 22.714 37.5726 23.1172C37.6601 23.1588 37.7182 23.2396 37.8352 23.344Z" fill="#33A6D8"/>
<path d="M34.178 11.2121C34.1475 11.2761 34.1198 11.4319 34.0205 11.5262C33.3817 12.1308 32.7303 12.7254 32.0757 13.3167C31.8692 13.5033 31.6163 13.5139 31.4686 13.3553C31.3068 13.1811 31.3361 12.9919 31.5219 12.8204C32.1692 12.2223 32.8166 11.6241 33.4743 11.0356C33.723 10.8142 34.0554 10.8718 34.178 11.2121Z" fill="#33A6D8"/>
<path d="M35.0965 15.749C34.8089 15.8642 34.5234 15.9833 34.233 16.0949C33.9575 16.2 33.7552 16.1639 33.6967 16.0069C33.6383 15.85 33.7613 15.6896 34.0366 15.5781C34.6018 15.3483 35.1678 15.1216 35.7346 14.898C36.0148 14.7859 36.2135 14.8161 36.2809 14.9673C36.3484 15.1184 36.2235 15.293 35.932 15.4127C35.6547 15.529 35.3734 15.6382 35.0965 15.749Z" fill="#33A6D8"/>
<defs>
<filter id="filter0_d_156_9744" x="0" y="0" width="50" height="50" filterUnits="userSpaceOnUse" color-interpolation-filters="sRGB">
<feFlood flood-opacity="0" result="BackgroundImageFix"/>
<feColorMatrix in="SourceAlpha" type="matrix" values="0 0 0 0 0 0 0 0 0 0 0 0 0 0 0 0 0 0 127 0" result="hardAlpha"/>
<feOffset dy="4"/>
<feGaussianBlur stdDeviation="2.5"/>
<feComposite in2="hardAlpha" operator="out"/>
<feColorMatrix type="matrix" values="0 0 0 0 0.0238889 0 0 0 0 0.147522 0 0 0 0 0.358333 0 0 0 0.15 0"/>
<feBlend mode="normal" in2="BackgroundImageFix" result="effect1_dropShadow_156_9744"/>
<feBlend mode="normal" in="SourceGraphic" in2="effect1_dropShadow_156_9744" result="shape"/>
</filter>
</defs>
</svg>
