<svg width="50" height="50" viewBox="0 0 50 50" fill="none" xmlns="http://www.w3.org/2000/svg">
<g filter="url(#filter0_d_156_9623)">
<circle cx="25" cy="21" r="20" fill="white"/>
</g>
<g clip-path="url(#clip0_156_9623)">
<path d="M20.9335 15.7837C20.4935 14.9779 20.2346 14.1316 20.2223 13.2071C20.2014 11.6157 21.1867 10.4284 22.7051 10.2226C22.8494 10.2024 23.0247 10.1596 23.1242 10.0604C23.9696 9.22382 24.9787 9.03383 26.0694 9.28391C27.4132 9.59181 28.5681 10.2196 29.1372 11.6262C29.596 12.758 29.4524 13.9055 29.117 15.0425C29.0542 15.2565 28.9727 15.4661 28.8934 15.7101C29.4842 16.0338 29.6097 16.5881 29.5592 17.2294C29.5181 17.7551 29.3002 18.1494 28.8314 18.3919C28.7108 18.4586 28.6192 18.5706 28.5753 18.7051C28.3473 19.595 27.9694 20.3888 27.292 21.0046C27.2633 21.0273 27.2378 21.0541 27.2163 21.0842C27.005 21.4214 27.4074 22.5817 27.7804 22.7011C28.3199 22.8731 28.8624 23.0323 29.4012 23.2088C29.5224 23.2486 29.7063 23.3154 29.7272 23.4041C29.7951 23.6932 29.9956 23.6429 30.1781 23.6564C32.06 23.7953 33.5979 25.1636 33.9853 27.0817C34.0689 27.4932 34.0776 27.9258 34.0834 28.3493C34.0963 29.3504 34.0891 30.3515 34.0834 31.3533C34.0834 31.8332 34.0112 31.9068 33.569 31.9068C27.8595 31.9068 22.1504 31.9068 16.4418 31.9068C16.1829 31.9068 15.9304 31.8925 15.9304 31.5418C15.9304 30.2156 15.8582 28.8818 15.9686 27.5653C16.1576 25.3807 17.6926 23.8787 19.7917 23.6601C19.9843 23.6399 20.1588 23.6511 20.2461 23.3988C20.2793 23.3049 20.4538 23.2486 20.5743 23.2058C21.0893 23.0361 21.6044 22.8618 22.1273 22.7237C22.4101 22.6486 22.5601 22.4886 22.6258 22.2085C22.6481 22.1108 22.6726 22.014 22.6979 21.9178C22.8335 21.4545 22.8422 21.079 22.418 20.6982C21.8597 20.2018 21.608 19.4734 21.4082 18.7411C21.3757 18.6217 21.3079 18.4768 21.2141 18.419C20.2504 17.8182 20.1033 16.6617 20.9335 15.7837ZM24.9917 21.2187C26.1083 21.2187 27.098 20.6224 27.5885 19.577C27.7861 19.1564 27.8684 18.6758 28.0292 18.2372C28.0819 18.0938 28.206 17.8903 28.3178 17.8738C28.9251 17.7874 28.9915 17.2354 28.9107 16.7135C28.8739 16.4747 28.7376 16.3282 28.4916 16.338C28.1973 16.3515 28.1172 16.1833 28.0588 15.9084C27.9708 15.4728 27.877 15.023 27.6895 14.6317C27.406 14.0309 26.9198 13.7523 26.2468 13.8109C25.2471 13.8972 24.318 13.6299 23.4654 13.0802C22.8443 12.6806 22.8162 12.6844 22.3942 13.3205C22.3188 13.4332 22.2504 13.5509 22.1894 13.6727C21.8518 14.3486 21.7645 15.0733 21.8172 15.822C21.8345 16.0684 21.8078 16.3042 21.5228 16.326C21.1622 16.353 21.054 16.573 21.0396 16.896C21.0158 17.4217 21.1405 17.7446 21.4839 17.8107C21.8446 17.8783 21.9304 18.0803 21.9939 18.4115C22.3307 20.1598 23.4704 21.2149 24.9917 21.2187ZM31.1728 24.5065C31.3171 25.1884 31.4613 25.7892 31.558 26.3983C31.5948 26.6341 31.6582 26.761 31.8703 26.8744C32.3269 27.117 32.5462 27.536 32.5195 28.076C32.4921 28.5852 32.2411 28.9494 31.8047 29.1627C31.5168 29.2998 31.1892 29.3157 30.8903 29.2071C30.5915 29.0985 30.3445 28.8737 30.2012 28.5799C30.0553 28.2877 30.0241 27.9479 30.1143 27.6322C30.2044 27.3165 30.4089 27.0496 30.6844 26.8879C30.8287 26.8 31.0119 26.7505 30.947 26.5124C30.7782 25.8921 30.6152 25.2695 30.4284 24.6545C30.3195 24.2955 30.0244 24.303 29.7208 24.2962C29.4322 24.2902 29.4034 24.5103 29.3118 24.6883C29.2591 24.8144 29.1986 24.9368 29.1307 25.0547C28.9013 25.3837 28.9295 25.6593 29.2396 25.9169C29.5282 26.1549 29.508 26.4118 29.3118 26.7317C28.5003 28.0632 27.7119 29.409 26.9155 30.7495C26.8297 30.8937 26.7489 31.0416 26.6378 31.2354H33.4248C33.4396 31.1689 33.4498 31.1014 33.4551 31.0334C33.4551 29.9572 33.481 28.8803 33.4457 27.8041C33.4082 26.6776 32.9328 25.7569 32.0752 25.069C31.8076 24.8572 31.4945 24.707 31.1728 24.5065V24.5065ZM18.4175 24.7566C18.3316 24.7998 18.248 24.8479 18.1672 24.9008C17.14 25.627 16.5926 26.6371 16.5637 27.9288C16.5413 28.9051 16.5724 29.8814 16.55 30.8577C16.5421 31.1971 16.6481 31.2745 16.959 31.2729C18.9542 31.2587 20.9494 31.2662 22.946 31.2647C23.0593 31.2647 23.1725 31.2512 23.3456 31.2407C23.2302 31.0409 23.1523 30.9027 23.0715 30.7668C22.2627 29.4045 21.4529 28.0429 20.6421 26.6821C20.4978 26.4441 20.4178 26.2143 20.6616 26.019C21.085 25.6803 21.0706 25.3161 20.7741 24.9075C20.7363 24.8437 20.7042 24.7763 20.6782 24.7063C20.4582 24.2414 19.8126 24.1205 19.4678 24.5028C18.9347 25.0923 18.7789 25.8177 18.8042 26.6198C18.8922 26.6281 18.9484 26.6348 19.0076 26.6386C19.2716 26.6544 19.5298 26.7263 19.7661 26.8498C20.0025 26.9734 20.212 27.146 20.3819 27.3571C20.5518 27.5681 20.6784 27.8131 20.7539 28.077C20.8294 28.3409 20.8522 28.6181 20.821 28.8916C20.8044 29.0312 20.6522 29.2603 20.562 29.261C20.3413 29.261 20.1134 29.1679 19.9063 29.0718C19.8768 29.0575 19.9237 28.8052 19.9785 28.6835C20.0102 28.6084 20.1227 28.5754 20.1906 28.5333C20.0679 27.6967 19.4541 27.1815 18.7638 27.3115C18.129 27.4309 17.6991 28.1706 17.852 28.866C17.8996 29.0823 17.9544 29.222 18.2249 29.1942C18.4615 29.1702 18.6375 29.4616 18.4933 29.6215C18.3336 29.7846 18.131 29.8947 17.9112 29.9377C17.7972 29.9602 17.6003 29.8213 17.5224 29.6989C16.9453 28.7902 17.1401 27.6712 17.9645 26.9848C18.0424 26.9195 18.134 26.8263 18.1478 26.734C18.2466 26.0768 18.3288 25.416 18.4175 24.7566V24.7566ZM28.5161 14.8322C28.5811 14.5882 28.6287 14.4342 28.6604 14.2773C29.0975 12.2578 28.4353 10.8572 26.7034 10.1566C26.4244 10.0378 26.1343 9.94946 25.8378 9.89296C24.9217 9.73525 24.0951 9.89972 23.4394 10.662C23.3195 10.7772 23.1639 10.844 23.0009 10.8505C22.1547 10.8918 21.5106 11.2462 21.0886 12.0378C20.6803 12.8053 20.8441 14.2209 21.1939 14.7504C21.2379 14.5604 21.2754 14.3937 21.3173 14.2247C21.507 13.4156 21.9505 12.6955 22.5774 12.1782C22.8551 11.9484 23.073 11.9251 23.3709 12.1842C24.1846 12.9007 25.149 13.2431 26.2086 13.1605C27.1615 13.0854 27.7919 13.5233 28.2557 14.3261C28.338 14.4642 28.4036 14.6099 28.5169 14.8322H28.5161ZM23.4178 25.8335C23.4445 26.0378 23.4647 26.209 23.4899 26.3825C23.7063 27.9017 23.9227 29.4218 24.1557 30.9395C24.1737 31.0559 24.2906 31.2399 24.3721 31.2474C24.8352 31.2775 25.3012 31.2624 25.783 31.2624C26.0492 29.4195 26.3089 27.6254 26.5678 25.8335H23.4178ZM23.4813 21.5318C23.3218 22.0215 23.174 22.4668 23.0355 22.9159C23.0137 22.9999 23.0102 23.0879 23.0254 23.1735C23.1047 23.742 23.179 24.312 23.2836 24.8753C23.3024 24.9759 23.4517 25.1208 23.5455 25.1246C24.3476 25.1576 25.1526 25.1929 25.954 25.1666C26.6674 25.1434 26.6248 25.0983 26.7958 24.3691C27.0259 23.3823 26.8823 22.4631 26.4914 21.5408C25.493 21.9779 24.4875 21.9712 23.4813 21.5326V21.5318ZM20.9566 23.772C20.9948 23.8772 21.0078 23.9222 21.0287 23.9696C21.1983 24.3278 21.3685 24.6868 21.5402 25.0435C21.8215 25.627 21.8287 25.6353 21.4089 26.1069C21.2401 26.2954 21.2213 26.4328 21.3577 26.6551C21.9686 27.6569 22.5616 28.6708 23.161 29.6793C23.2245 29.7649 23.2932 29.8462 23.3666 29.9227C23.0376 27.6697 22.7239 25.5113 22.4043 23.3139L20.9566 23.772ZM26.6262 29.8138L26.7215 29.8393C27.3332 28.8097 27.9333 27.7718 28.5652 26.7557C28.7491 26.4598 28.7686 26.2503 28.4988 26.0295C28.1858 25.7742 28.1944 25.4896 28.3849 25.1426C28.62 24.716 28.8104 24.2617 29.0405 23.7758L27.5669 23.3214L26.6262 29.8138ZM31.8977 27.9926C31.8975 27.9112 31.8819 27.8306 31.8516 27.7556C31.8214 27.6805 31.7771 27.6124 31.7215 27.5552C31.6658 27.498 31.5998 27.4529 31.5273 27.4224C31.4548 27.3919 31.3772 27.3767 31.299 27.3776C31.2179 27.3745 31.137 27.3891 31.0616 27.4205C30.9862 27.4519 30.9179 27.4995 30.8613 27.56C30.8046 27.6206 30.7607 27.6929 30.7325 27.7722C30.7043 27.8514 30.6923 27.936 30.6974 28.0204C30.7021 28.1845 30.7692 28.3399 30.8839 28.4525C30.9986 28.5652 31.1515 28.6258 31.3091 28.6212C31.4667 28.6177 31.6166 28.5499 31.7266 28.4325C31.8367 28.3151 31.8981 28.1574 31.8977 27.9934V27.9926Z" fill="#33A6D8"/>
<path d="M24.9917 21.2185C23.4704 21.2185 22.3307 20.1596 21.9982 18.4121C21.9347 18.0794 21.846 17.8774 21.4882 17.8113C21.1448 17.7452 21.02 17.4238 21.0438 16.8966C21.0583 16.5736 21.165 16.3536 21.5271 16.3266C21.8121 16.3048 21.8387 16.069 21.8214 15.8226C21.7688 15.0716 21.8561 14.3492 22.1936 13.6733C22.2547 13.5515 22.3231 13.4338 22.3985 13.3211C22.8219 12.685 22.8486 12.6812 23.4697 13.0808C24.3223 13.6305 25.2514 13.8978 26.2511 13.8115C26.927 13.7529 27.4132 14.0368 27.6938 14.6323C27.8813 15.0266 27.9751 15.4764 28.0631 15.909C28.1179 16.1839 28.198 16.3521 28.4959 16.3386C28.7419 16.3266 28.8782 16.473 28.915 16.7141C28.9958 17.2398 28.9294 17.788 28.3221 17.8743C28.2095 17.8909 28.0855 18.0944 28.0335 18.2378C27.8727 18.6794 27.7904 19.157 27.5928 19.5776C27.098 20.6222 26.1083 21.2215 24.9917 21.2185Z" fill="white"/>
<path d="M31.1724 24.506C31.4941 24.7043 31.8072 24.8567 32.0741 25.0707C32.9325 25.7587 33.4078 26.6809 33.4446 27.8059C33.48 28.8813 33.4547 29.9582 33.454 31.0351C33.4487 31.1032 33.4386 31.1707 33.4237 31.2371H26.6367C26.7478 31.0434 26.8286 30.8954 26.9144 30.7513C27.7079 29.4107 28.5014 28.0649 29.3107 26.7334C29.5054 26.4135 29.5228 26.1567 29.2386 25.9186C28.9284 25.661 28.9002 25.3854 29.1296 25.0565C29.1975 24.9385 29.258 24.8161 29.3107 24.69C29.4023 24.512 29.4319 24.292 29.7197 24.298C30.0234 24.3047 30.3184 24.298 30.4273 24.6562C30.6141 25.2713 30.7771 25.8938 30.9459 26.5142C31.0109 26.7507 30.8305 26.8003 30.6834 26.8896C30.4078 27.0514 30.2034 27.3182 30.1132 27.6339C30.023 27.9496 30.0542 28.2894 30.2001 28.5816C30.3434 28.8755 30.5904 29.1002 30.8892 29.2088C31.1881 29.3174 31.5157 29.3015 31.8036 29.1644C32.2364 28.9511 32.491 28.5869 32.5184 28.0777C32.5466 27.5378 32.3273 27.1187 31.8692 26.8761C31.6572 26.7627 31.5937 26.6358 31.5569 26.4C31.4617 25.7887 31.3153 25.1879 31.1724 24.506Z" fill="white"/>
<path d="M18.417 24.7562C18.3282 25.4155 18.246 26.0764 18.145 26.7335C18.1313 26.8259 18.0397 26.919 17.9618 26.9844C17.1373 27.6715 16.944 28.7867 17.5196 29.6984C17.5975 29.8208 17.7945 29.9598 17.9084 29.9373C18.1283 29.8942 18.3309 29.7842 18.4905 29.6211C18.6348 29.4611 18.4588 29.1705 18.2222 29.1938C17.9517 29.2216 17.8969 29.0819 17.8493 28.8656C17.6964 28.1702 18.1263 27.4304 18.761 27.311C19.4514 27.1819 20.0652 27.6963 20.1878 28.5329C20.1207 28.578 20.0075 28.6125 19.9758 28.6831C19.9224 28.8048 19.8755 29.0586 19.9036 29.0714C20.1107 29.1675 20.3364 29.2614 20.5593 29.2606C20.6495 29.2606 20.8017 29.0308 20.8183 28.8911C20.8495 28.6177 20.8267 28.3405 20.7512 28.0766C20.6757 27.8127 20.5491 27.5677 20.3792 27.3566C20.2093 27.1456 19.9998 26.973 19.7634 26.8494C19.527 26.7258 19.2689 26.6539 19.0048 26.6381C18.9471 26.6344 18.8894 26.6276 18.8014 26.6194C18.7762 25.8173 18.932 25.0919 19.4651 24.5023C19.8106 24.1201 20.4554 24.241 20.6754 24.7058C20.7014 24.7758 20.7335 24.8432 20.7714 24.9071C21.0678 25.3156 21.0823 25.6799 20.6589 26.0186C20.4151 26.2138 20.4966 26.4436 20.6394 26.6817C21.4535 28.04 22.2633 29.4015 23.0688 30.7664C23.1496 30.9023 23.2275 31.0405 23.3429 31.2402C23.1698 31.2507 23.0544 31.2643 22.9433 31.2643C20.9474 31.2643 18.9522 31.2583 16.9563 31.2725C16.6454 31.2725 16.5394 31.1974 16.5473 30.8572C16.5696 29.8809 16.5386 28.9046 16.561 27.9284C16.5898 26.6366 17.1381 25.6266 18.1645 24.9004C18.246 24.8474 18.3303 24.7993 18.417 24.7562V24.7562Z" fill="white"/>
<path d="M28.5173 14.832C28.404 14.6067 28.3384 14.464 28.259 14.3273C27.7952 13.5245 27.1648 13.0859 26.2119 13.1618C25.1523 13.2459 24.1878 12.9035 23.3742 12.1855C23.0799 11.9264 22.862 11.9497 22.5807 12.1795C21.9538 12.6968 21.5103 13.4169 21.3206 14.226C21.2787 14.3919 21.2412 14.5586 21.1972 14.7516C20.8474 14.2259 20.6836 12.8066 21.0919 12.0391C21.5139 11.2475 22.158 10.893 23.0041 10.8517C23.1672 10.8453 23.3227 10.7784 23.4427 10.6632C24.0984 9.90099 24.925 9.73652 25.8411 9.89423C26.1376 9.95073 26.4277 10.0391 26.7067 10.1578C28.4379 10.8585 29.1008 12.2606 28.6637 14.2785C28.6298 14.434 28.5851 14.5879 28.5173 14.832Z" fill="white"/>
<path d="M23.418 25.8335H26.5651C26.3062 27.6254 26.0465 29.4195 25.7803 31.2624C25.2985 31.2624 24.8325 31.2774 24.3694 31.2474C24.2893 31.2429 24.1725 31.0559 24.153 30.9395C23.9222 29.4217 23.7065 27.9017 23.4872 26.3825C23.4634 26.209 23.4447 26.0385 23.418 25.8335Z" fill="white"/>
<path d="M23.4808 21.5327C24.4906 21.9713 25.4926 21.9781 26.4909 21.5417C26.8818 22.4639 27.0254 23.3832 26.7953 24.37C26.6243 25.0992 26.6669 25.1442 25.9535 25.1675C25.1521 25.1938 24.3471 25.1585 23.545 25.1255C23.4512 25.1217 23.3019 24.9753 23.2831 24.8761C23.1785 24.3129 23.1042 23.7429 23.0249 23.1744C23.0097 23.0888 23.0132 23.0008 23.035 22.9168C23.1742 22.4677 23.3185 22.0224 23.4808 21.5327Z" fill="white"/>
<path d="M20.958 23.773L22.4086 23.3179C22.7281 25.5123 23.0419 27.6676 23.3708 29.9266C23.2974 29.8501 23.2288 29.7688 23.1653 29.6833C22.563 28.6747 21.97 27.6609 21.362 26.659C21.2256 26.4337 21.2444 26.2993 21.4132 26.1108C21.8359 25.6392 21.8258 25.6309 21.5444 25.0474C21.3728 24.6907 21.2025 24.3317 21.033 23.9735C21.0107 23.9262 20.9962 23.8811 20.958 23.773Z" fill="white"/>
<path d="M26.626 29.8136L27.5637 23.3213L29.0374 23.7756C28.8073 24.2615 28.6168 24.7159 28.3817 25.1424C28.1913 25.4894 28.1826 25.774 28.4957 26.0294C28.7654 26.2502 28.746 26.4597 28.562 26.7556C27.9301 27.7717 27.33 28.8095 26.7183 29.8392L26.626 29.8136Z" fill="white"/>
<path d="M31.8977 27.9934C31.8987 28.1578 31.8375 28.3161 31.7274 28.4339C31.6173 28.5518 31.467 28.6199 31.3091 28.6234C31.1515 28.6281 30.9986 28.5674 30.8839 28.4548C30.7692 28.3422 30.7021 28.1867 30.6974 28.0227C30.6923 27.9383 30.7043 27.8537 30.7325 27.7744C30.7607 27.6951 30.8046 27.6229 30.8613 27.5623C30.9179 27.5017 30.9862 27.4542 31.0616 27.4228C31.137 27.3913 31.2179 27.3767 31.299 27.3798C31.3771 27.3789 31.4546 27.3941 31.527 27.4245C31.5994 27.4549 31.6653 27.4999 31.721 27.5569C31.7766 27.6139 31.8209 27.6819 31.8512 27.7568C31.8815 27.8317 31.8974 27.9121 31.8977 27.9934Z" fill="white"/>
</g>
<defs>
<filter id="filter0_d_156_9623" x="0" y="0" width="50" height="50" filterUnits="userSpaceOnUse" color-interpolation-filters="sRGB">
<feFlood flood-opacity="0" result="BackgroundImageFix"/>
<feColorMatrix in="SourceAlpha" type="matrix" values="0 0 0 0 0 0 0 0 0 0 0 0 0 0 0 0 0 0 127 0" result="hardAlpha"/>
<feOffset dy="4"/>
<feGaussianBlur stdDeviation="2.5"/>
<feComposite in2="hardAlpha" operator="out"/>
<feColorMatrix type="matrix" values="0 0 0 0 0.0238889 0 0 0 0 0.147522 0 0 0 0 0.358333 0 0 0 0.15 0"/>
<feBlend mode="normal" in2="BackgroundImageFix" result="effect1_dropShadow_156_9623"/>
<feBlend mode="normal" in="SourceGraphic" in2="effect1_dropShadow_156_9623" result="shape"/>
</filter>
<clipPath id="clip0_156_9623">
<rect width="18.1818" height="22.7273" fill="white" transform="translate(15.9092 9.18164)"/>
</clipPath>
</defs>
</svg>
