<svg width="50" height="50" viewBox="0 0 50 50" fill="none" xmlns="http://www.w3.org/2000/svg">
<g filter="url(#filter0_d_156_10163)">
<circle cx="25" cy="21" r="20" fill="white"/>
</g>
<path d="M25.993 31.6276L25.9928 31.6273L25.985 31.634C25.822 31.7734 25.6145 31.85 25.4 31.85C25.1855 31.85 24.978 31.7734 24.815 31.634L24.814 31.6331C24.647 31.4884 22.7325 29.8293 20.8576 27.4935C18.9704 25.1423 17.1503 22.1382 17.15 19.3167C17.1719 17.1433 18.0507 15.0663 19.5953 13.5371C21.1402 12.0078 23.2262 11.1499 25.4 11.15H25.4C27.5738 11.1499 29.6598 12.0078 31.2046 13.5371C32.7493 15.0663 33.628 17.1433 33.65 19.3167C33.6497 22.1385 31.8424 25.1428 29.9619 27.4937C28.0852 29.8398 26.1649 31.4999 25.993 31.6276ZM25.2966 29.6411L25.4 29.7396L25.5034 29.6411C26.3829 28.8038 27.9653 27.2138 29.3288 25.3434C30.6878 23.4792 31.85 21.3091 31.85 19.316C31.85 17.6053 31.1704 15.9648 29.9608 14.7552C28.7512 13.5455 27.1106 12.866 25.4 12.866C23.6893 12.866 22.0488 13.5455 20.8392 14.7552C19.6295 15.9648 18.95 17.6053 18.95 19.316C18.95 21.3247 20.1121 23.4948 21.4713 25.3553C22.8349 27.2218 24.4173 28.804 25.2966 29.6411Z" fill="#33A6D8" stroke="white" stroke-width="0.3"/>
<path d="M23.4412 15.9443C24.0209 15.5569 24.7024 15.3502 25.3996 15.3502C26.3345 15.3502 27.2311 15.7216 27.8922 16.3826C28.5532 17.0437 28.9246 17.9403 28.9246 18.8752C28.9246 19.5724 28.7179 20.2539 28.3305 20.8336C27.9432 21.4133 27.3927 21.8651 26.7486 22.1319C26.1045 22.3987 25.3957 22.4685 24.7119 22.3325C24.0281 22.1964 23.4 21.8607 22.9071 21.3677C22.4141 20.8748 22.0784 20.2467 21.9423 19.5629C21.8063 18.8791 21.8761 18.1703 22.1429 17.5262C22.4097 16.8821 22.8615 16.3316 23.4412 15.9443ZM24.4413 20.3095C24.7249 20.499 25.0584 20.6002 25.3996 20.6002C25.8571 20.6002 26.2959 20.4185 26.6194 20.095C26.9429 19.7715 27.1246 19.3327 27.1246 18.8752C27.1246 18.534 27.0234 18.2005 26.8339 17.9168C26.6443 17.6332 26.3749 17.4121 26.0597 17.2815C25.7445 17.1509 25.3977 17.1168 25.0631 17.1833C24.7285 17.2499 24.4211 17.4142 24.1798 17.6554C23.9386 17.8967 23.7743 18.204 23.7078 18.5387C23.6412 18.8733 23.6754 19.2201 23.8059 19.5353C23.9365 19.8505 24.1576 20.1199 24.4413 20.3095Z" fill="#33A6D8" stroke="white" stroke-width="0.3"/>
<defs>
<filter id="filter0_d_156_10163" x="0" y="0" width="50" height="50" filterUnits="userSpaceOnUse" color-interpolation-filters="sRGB">
<feFlood flood-opacity="0" result="BackgroundImageFix"/>
<feColorMatrix in="SourceAlpha" type="matrix" values="0 0 0 0 0 0 0 0 0 0 0 0 0 0 0 0 0 0 127 0" result="hardAlpha"/>
<feOffset dy="4"/>
<feGaussianBlur stdDeviation="2.5"/>
<feComposite in2="hardAlpha" operator="out"/>
<feColorMatrix type="matrix" values="0 0 0 0 0.0238889 0 0 0 0 0.147522 0 0 0 0 0.358333 0 0 0 0.15 0"/>
<feBlend mode="normal" in2="BackgroundImageFix" result="effect1_dropShadow_156_10163"/>
<feBlend mode="normal" in="SourceGraphic" in2="effect1_dropShadow_156_10163" result="shape"/>
</filter>
</defs>
</svg>
