<svg width="28" height="23" viewBox="0 0 28 23" fill="none" xmlns="http://www.w3.org/2000/svg">
<path d="M1.96815 0.75C1.29539 0.75 0.75 1.29538 0.75 1.96815C0.75 2.64092 1.29539 3.1863 1.96815 3.1863H26.0318C26.7046 3.1863 27.25 2.64092 27.25 1.96815C27.25 1.29539 26.7046 0.75 26.0318 0.75H1.96815Z" fill="#ED766C" stroke="#ED766C" stroke-width="0.5"/>
<path d="M2.73819 9.31396C1.92114 9.31396 1.25879 9.97631 1.25879 10.7934C1.25879 11.6104 1.92114 12.2728 2.73819 12.2728H15.0322C15.8492 12.2728 16.5116 11.6104 16.5116 10.7934C16.5116 9.97631 15.8492 9.31396 15.0322 9.31396H2.73819Z" fill="#ED766C" stroke="#ED766C" stroke-width="0.5"/>
<path d="M2.73819 19.1489C1.92114 19.1489 1.25879 19.8113 1.25879 20.6283C1.25879 21.4454 1.92114 22.1077 2.73819 22.1077H15.0322C15.8492 22.1077 16.5116 21.4454 16.5116 20.6283C16.5116 19.8113 15.8492 19.1489 15.0322 19.1489H2.73819Z" fill="#ED766C" stroke="#ED766C" stroke-width="0.5"/>
</svg>
