<svg width="25" height="26" viewBox="0 0 25 26" fill="none" xmlns="http://www.w3.org/2000/svg">
<path d="M17.5959 22.8457C16.8696 22.8457 16.1482 22.8506 15.4219 22.8407C15.2589 22.8407 15.1798 22.8804 15.1255 23.0493C14.5573 24.8276 12.9614 26.0099 11.158 25.9999C9.27064 25.99 7.70935 24.8326 7.14116 23.0195C7.08681 22.8506 7.0127 22.8059 6.84965 22.8059C5.45635 22.8109 4.06799 22.8109 2.67468 22.8109C1.37031 22.8009 0.416737 21.9664 0.258631 20.665C0.169697 19.9497 0.406855 19.3288 0.891053 18.8022C1.25667 18.3999 1.64205 18.0124 2.00273 17.6001C2.09167 17.5008 2.16084 17.3418 2.16084 17.2127C2.17072 15.7622 2.14107 14.3167 2.17072 12.8662C2.25965 8.96184 4.04822 6.13541 7.54137 4.41173C7.68465 4.34219 7.74394 4.26767 7.74888 4.09878C7.7637 3.61198 7.73406 3.11028 7.84275 2.64334C8.21331 1.00411 9.70543 -0.0887119 11.3804 0.00566817C13.0108 0.0950809 14.3646 1.38163 14.5622 3.0457C14.6018 3.36361 14.5869 3.69146 14.5721 4.00937C14.5622 4.22794 14.6265 4.33722 14.834 4.43657C17.5317 5.73305 19.2165 7.85909 19.9082 10.7749C20.1355 11.7436 20.1305 12.7271 20.1256 13.7107C20.1206 14.8879 20.1206 16.0602 20.1305 17.2375C20.1305 17.3617 20.1898 17.5107 20.2738 17.6051C20.6938 18.072 21.1483 18.5042 21.5535 18.986C22.5466 20.1633 22.0772 22.036 20.6345 22.637C20.338 22.7612 19.9971 22.8208 19.676 22.8308C18.9793 22.8655 18.2876 22.8457 17.5959 22.8457ZM11.1284 21.0673C13.9693 21.0673 16.8103 21.0673 19.6513 21.0723C19.9279 21.0723 20.1355 20.973 20.2442 20.7146C20.3529 20.4563 20.2886 20.2378 20.0959 20.0341C19.6167 19.5225 19.1473 18.9959 18.6631 18.4893C18.4161 18.2359 18.3123 17.9478 18.3172 17.5951C18.3271 16.393 18.337 15.1959 18.3172 13.9938C18.3074 13.1692 18.337 12.3297 18.2036 11.52C17.339 6.23476 11.158 3.71133 6.87436 6.89045C5.00674 8.27635 3.98893 10.154 3.91976 12.4936C3.87035 14.2124 3.9 15.936 3.9 17.6597C3.9 17.9776 3.80612 18.2359 3.58873 18.4644C3.09959 18.981 2.62033 19.5026 2.14602 20.0292C1.87921 20.3272 1.88415 20.7196 2.1806 20.9183C2.31894 21.0127 2.51658 21.0574 2.68456 21.0574C5.49588 21.0673 8.31213 21.0673 11.1284 21.0673ZM12.744 3.77094C12.8922 3.304 12.6353 2.5589 12.0968 2.18635C11.5187 1.78399 10.7628 1.77405 10.1995 2.15654C9.66097 2.52909 9.36452 3.20466 9.50286 3.7759C10.58 3.57224 11.662 3.58218 12.744 3.77094ZM13.3073 22.8904C11.8497 22.8904 10.4169 22.8904 8.9742 22.8904C9.2163 23.6206 10.1501 24.2415 11.0049 24.2514C12.0177 24.2663 13.0108 23.6851 13.3073 22.8904Z" fill="#33A6D8"/>
<circle cx="19.9998" cy="7.28012" r="4.16" fill="#FF6A66"/>
<circle cx="19.9998" cy="7.28012" r="3.66" stroke="#2D82BF"/>
</svg>
