<svg width="50" height="50" viewBox="0 0 50 50" fill="none" xmlns="http://www.w3.org/2000/svg">
<g filter="url(#filter0_d_156_10162)">
<circle cx="25" cy="21" r="20" fill="white"/>
</g>
<path d="M22.538 12.2758H22.488V12.3258V16.9659C22.488 17.3042 22.2134 17.5788 21.8751 17.5788H17.2349H17.1849V17.6288V23.4621V23.5121H17.2349H21.8751C22.2134 23.5121 22.488 23.7867 22.488 24.125V28.7652V28.8151H22.538H28.3713H28.4213V28.7652V24.125C28.4213 23.7867 28.6959 23.5121 29.0342 23.5121H33.6743H33.7243V23.4621V17.6288V17.5788H33.6743H29.0342C28.6959 17.5788 28.4213 17.3042 28.4213 16.9659V12.3258V12.2758H28.3713H22.538ZM29.6471 16.303V16.353H29.6971H33.8069C34.1101 16.353 34.4009 16.4735 34.6153 16.6879C34.8296 16.9022 34.9501 17.193 34.9501 17.4962V23.5947C34.9501 23.8979 34.8296 24.1887 34.6153 24.403C34.4009 24.6174 34.1101 24.7379 33.8069 24.7379H29.6971H29.6471V24.7879V28.8977C29.6471 29.2009 29.5266 29.4917 29.3122 29.7061C29.0978 29.9205 28.8071 30.0409 28.5039 30.0409H22.4054C22.1022 30.0409 21.8114 29.9205 21.597 29.7061C21.3827 29.4917 21.2622 29.2009 21.2622 28.8977V24.7879V24.7379H21.2122H17.1024C16.7992 24.7379 16.5084 24.6174 16.294 24.403C16.0796 24.1887 15.9592 23.8979 15.9592 23.5947V17.4962C15.9592 17.193 16.0796 16.9022 16.294 16.6879C16.5084 16.4735 16.7992 16.353 17.1024 16.353H21.2122H21.2622V16.303V12.1932C21.2622 11.89 21.3827 11.5992 21.597 11.3848C21.8114 11.1704 22.1022 11.05 22.4054 11.05H28.5039C28.8071 11.05 29.0978 11.1704 29.3122 11.3848C29.5266 11.5992 29.6471 11.89 29.6471 12.1932V16.303Z" fill="#33A6D8" stroke="white" stroke-width="0.1"/>
<defs>
<filter id="filter0_d_156_10162" x="0" y="0" width="50" height="50" filterUnits="userSpaceOnUse" color-interpolation-filters="sRGB">
<feFlood flood-opacity="0" result="BackgroundImageFix"/>
<feColorMatrix in="SourceAlpha" type="matrix" values="0 0 0 0 0 0 0 0 0 0 0 0 0 0 0 0 0 0 127 0" result="hardAlpha"/>
<feOffset dy="4"/>
<feGaussianBlur stdDeviation="2.5"/>
<feComposite in2="hardAlpha" operator="out"/>
<feColorMatrix type="matrix" values="0 0 0 0 0.0238889 0 0 0 0 0.147522 0 0 0 0 0.358333 0 0 0 0.15 0"/>
<feBlend mode="normal" in2="BackgroundImageFix" result="effect1_dropShadow_156_10162"/>
<feBlend mode="normal" in="SourceGraphic" in2="effect1_dropShadow_156_10162" result="shape"/>
</filter>
</defs>
</svg>
