<svg width="28" height="28" viewBox="0 0 28 28" fill="none" xmlns="http://www.w3.org/2000/svg">
<g filter="url(#filter0_d_73_1224)">
<path d="M23.2307 7.69256H21.6922C21.6906 6.26493 21.1227 4.89623 20.1132 3.88674C19.1038 2.87725 17.735 2.3094 16.3074 2.30777V0.769262C18.143 0.771298 19.9028 1.50137 21.2007 2.7993C22.4986 4.09723 23.2287 5.85701 23.2307 7.69256ZM17.3328 14.2174L19.056 12.4943C19.2866 12.2635 19.5799 12.1056 19.8995 12.04C20.219 11.9743 20.5508 12.0039 20.8537 12.125L22.9523 12.965C23.2616 13.0888 23.5267 13.3024 23.7134 13.5783C23.9002 13.8541 24 14.1796 24 14.5128V18.3291C24.0005 18.5559 23.9548 18.7804 23.8655 18.989C23.7763 19.1975 23.6454 19.3856 23.4809 19.5418C23.3165 19.698 23.1218 19.819 22.909 19.8973C22.6961 19.9757 22.4695 20.0098 22.243 19.9976C7.53324 19.0822 4.56236 6.6233 4.0108 1.85237C3.98409 1.61913 4.00706 1.38288 4.0782 1.15915C4.14934 0.935422 4.26704 0.729291 4.42356 0.554314C4.58008 0.379337 4.77188 0.239481 4.98633 0.143943C5.20077 0.0484046 5.43302 -0.000649584 5.66779 6.49516e-06H9.41638C9.74953 -4.20214e-06 10.075 0.0998032 10.3509 0.286554C10.6268 0.473304 10.8404 0.738431 10.9641 1.04773L11.8034 3.14626C11.9245 3.44917 11.9541 3.78097 11.8885 4.10053C11.8228 4.42008 11.6649 4.71336 11.4342 4.94401L9.71101 6.66714C9.71101 6.66714 10.6664 13.3843 17.3328 14.2174Z" fill="#FF6A66"/>
</g>
<defs>
<filter id="filter0_d_73_1224" x="0" y="0" width="28" height="28" filterUnits="userSpaceOnUse" color-interpolation-filters="sRGB">
<feFlood flood-opacity="0" result="BackgroundImageFix"/>
<feColorMatrix in="SourceAlpha" type="matrix" values="0 0 0 0 0 0 0 0 0 0 0 0 0 0 0 0 0 0 127 0" result="hardAlpha"/>
<feOffset dy="4"/>
<feGaussianBlur stdDeviation="2"/>
<feComposite in2="hardAlpha" operator="out"/>
<feColorMatrix type="matrix" values="0 0 0 0 0.504167 0 0 0 0 0.504167 0 0 0 0 0.504167 0 0 0 0.2 0"/>
<feBlend mode="normal" in2="BackgroundImageFix" result="effect1_dropShadow_73_1224"/>
<feBlend mode="normal" in="SourceGraphic" in2="effect1_dropShadow_73_1224" result="shape"/>
</filter>
</defs>
</svg>
