<svg width="46" height="41" viewBox="0 0 46 41" fill="none" xmlns="http://www.w3.org/2000/svg">
<g filter="url(#filter0_d_25_493)">
<g filter="url(#filter1_d_25_493)">
<path fill-rule="evenodd" clip-rule="evenodd" d="M32.0724 0.0115915C29.6588 -0.000929576 27.3215 0.822091 25.4902 2.32939C23.6769 3.76643 22.3109 3.76643 20.5762 2.32939C18.7268 0.857484 16.3977 0.0537245 13.994 0.0579486C12.1699 0.0278677 10.3728 0.48305 8.80219 1.37296C7.23161 2.26287 5.94903 3.55268 5.09687 5.09916C4.11165 7.03453 4.22649 10.5228 4.92158 12.5741C5.2511 13.6843 5.69661 14.7598 6.25133 15.7842C6.38139 15.7413 6.51904 15.7236 6.6563 15.7321H12.0296L14.9188 10.4707C14.9989 10.3341 15.1157 10.2207 15.2571 10.1422C15.3985 10.0637 15.5593 10.0231 15.7227 10.0245C15.88 10.0466 16.0299 10.1031 16.1609 10.1895C16.2919 10.2759 16.4004 10.3899 16.4782 10.5228L22.722 24.3311L24.4567 20.1707C24.5337 20.0308 24.651 19.915 24.7945 19.837C24.938 19.7589 25.1018 19.7219 25.2666 19.7303H36.1825C36.4058 19.7277 36.6218 19.8064 36.787 19.9505C37.071 19.6202 37.3612 19.232 37.6573 18.8437C38.9931 17.2752 40.0638 15.5154 40.8306 13.6287C41.4708 12.0723 41.8424 10.4264 41.9306 8.75549C41.9306 3.87652 37.5364 0 32.1026 0L32.0724 0.0115915Z" fill="white"/>
</g>
<g filter="url(#filter2_d_25_493)">
<path fill-rule="evenodd" clip-rule="evenodd" d="M25.8343 21.2252L23.5254 26.6547C23.4534 26.8027 23.3391 26.928 23.1957 27.0162C23.0524 27.1044 22.8858 27.1519 22.7155 27.153C22.5532 27.1501 22.3954 27.1013 22.262 27.0126C22.1287 26.9239 22.0257 26.7994 21.966 26.6547L15.6074 12.6436L13.2985 16.7982C13.2405 16.9289 13.1436 17.0403 13.02 17.1186C12.8964 17.1969 12.7516 17.2386 12.6034 17.2386H7.11523C7.17568 17.3487 7.23008 17.4066 7.29052 17.5167L8.73509 19.3999C9.14006 19.8403 9.54502 20.2286 9.94395 20.6747C14.8519 25.3799 18.2609 28.9261 20.3401 31.1396C20.6749 31.5181 21.0916 31.8222 21.5613 32.0307C22.031 32.2393 22.5424 32.3473 23.06 32.3473C23.5776 32.3473 24.0891 32.2393 24.5588 32.0307C25.0285 31.8222 25.4452 31.5181 25.7799 31.1396C27.7987 28.9783 30.978 25.658 35.5414 21.2252H25.8343Z" fill="white"/>
</g>
<path fill-rule="evenodd" clip-rule="evenodd" d="M28.5548 8.52961C29.9389 8.52961 31.039 9.41618 31.039 10.4708C31.0428 10.5469 31.0623 10.6215 31.0963 10.6904C31.1303 10.7593 31.1782 10.8211 31.2371 10.8722C31.2961 10.9234 31.365 10.9629 31.4399 10.9884C31.5148 11.014 31.5942 11.0252 31.6736 11.0213C31.8414 11.0343 32.0079 10.9841 32.1377 10.8813C32.2675 10.7785 32.3504 10.6312 32.3687 10.4708C32.3687 8.73243 30.6279 7.37071 28.5548 7.37071C28.4749 7.36602 28.3948 7.37658 28.3192 7.40179C28.2436 7.427 28.174 7.46635 28.1144 7.51757C28.0548 7.56878 28.0064 7.63083 27.972 7.70012C27.9376 7.76941 27.9179 7.84455 27.9141 7.92119C27.9172 8.08261 27.9859 8.2365 28.1055 8.35012C28.2252 8.46374 28.3864 8.52813 28.5548 8.52961Z" fill="#78B3ED"/>
<path fill-rule="evenodd" clip-rule="evenodd" d="M30.0541 6.60591C31.7283 6.60591 33.1125 7.71267 33.1125 9.03961C33.1163 9.13831 33.1406 9.23528 33.1838 9.32494C33.227 9.4146 33.2883 9.49517 33.3642 9.56198C33.44 9.62879 33.529 9.68052 33.6258 9.71419C33.7227 9.74786 33.8255 9.76279 33.9284 9.75812C34.1409 9.76654 34.3487 9.69686 34.5093 9.5633C34.67 9.42975 34.7714 9.24243 34.7928 9.03961C34.7928 6.93621 32.6531 5.16309 30.0541 5.16309C29.8488 5.164 29.6514 5.23907 29.5013 5.37332C29.3512 5.50756 29.2593 5.69113 29.2441 5.8874C29.248 5.98558 29.2721 6.08207 29.3149 6.17134C29.3577 6.26061 29.4185 6.3409 29.4937 6.40764C29.5689 6.47437 29.6571 6.52623 29.7533 6.56025C29.8494 6.59428 29.9517 6.60979 30.0541 6.60591Z" fill="#78B3ED"/>
<path fill-rule="evenodd" clip-rule="evenodd" d="M31.2616 4.00985C33.8066 4.00985 35.9719 5.14242 35.9719 6.56911C35.9873 6.78416 36.1284 6.98694 36.3656 7.13502C36.6028 7.28311 36.9177 7.36504 37.2444 7.36366C37.5665 7.35505 37.8729 7.26979 38.1069 7.1237C38.3409 6.9776 38.4865 6.78056 38.5169 6.56911C38.5169 4.29958 35.2723 2.45586 31.2616 2.45586C31.1023 2.44993 30.9428 2.46478 30.7922 2.49955C30.6417 2.53431 30.503 2.58831 30.3842 2.65846C30.2653 2.7286 30.1687 2.8135 30.0997 2.9083C30.0308 3.0031 29.9909 3.10593 29.9824 3.21091C29.9841 3.31926 30.0187 3.42629 30.0844 3.52562C30.1502 3.62495 30.2455 3.71456 30.3649 3.7891C30.4842 3.86365 30.6251 3.92161 30.7792 3.95953C30.9332 3.99745 31.0973 4.01457 31.2616 4.00985Z" fill="#78B3ED"/>
</g>
<defs>
<filter id="filter0_d_25_493" x="0.378906" y="0" width="45.5518" height="40.3472" filterUnits="userSpaceOnUse" color-interpolation-filters="sRGB">
<feFlood flood-opacity="0" result="BackgroundImageFix"/>
<feColorMatrix in="SourceAlpha" type="matrix" values="0 0 0 0 0 0 0 0 0 0 0 0 0 0 0 0 0 0 127 0" result="hardAlpha"/>
<feOffset dy="4"/>
<feGaussianBlur stdDeviation="2"/>
<feComposite in2="hardAlpha" operator="out"/>
<feColorMatrix type="matrix" values="0 0 0 0 0.121073 0 0 0 0 0.373248 0 0 0 0 0.7375 0 0 0 0.4 0"/>
<feBlend mode="normal" in2="BackgroundImageFix" result="effect1_dropShadow_25_493"/>
<feBlend mode="normal" in="SourceGraphic" in2="effect1_dropShadow_25_493" result="shape"/>
</filter>
<filter id="filter1_d_25_493" x="0.378906" y="0" width="45.5518" height="32.3311" filterUnits="userSpaceOnUse" color-interpolation-filters="sRGB">
<feFlood flood-opacity="0" result="BackgroundImageFix"/>
<feColorMatrix in="SourceAlpha" type="matrix" values="0 0 0 0 0 0 0 0 0 0 0 0 0 0 0 0 0 0 127 0" result="hardAlpha"/>
<feOffset dy="4"/>
<feGaussianBlur stdDeviation="2"/>
<feComposite in2="hardAlpha" operator="out"/>
<feColorMatrix type="matrix" values="0 0 0 0 0.089323 0 0 0 0 0.489225 0 0 0 0 0.729167 0 0 0 0.6 0"/>
<feBlend mode="normal" in2="BackgroundImageFix" result="effect1_dropShadow_25_493"/>
<feBlend mode="normal" in="SourceGraphic" in2="effect1_dropShadow_25_493" result="shape"/>
</filter>
<filter id="filter2_d_25_493" x="3.11523" y="12.6436" width="36.4263" height="27.7036" filterUnits="userSpaceOnUse" color-interpolation-filters="sRGB">
<feFlood flood-opacity="0" result="BackgroundImageFix"/>
<feColorMatrix in="SourceAlpha" type="matrix" values="0 0 0 0 0 0 0 0 0 0 0 0 0 0 0 0 0 0 127 0" result="hardAlpha"/>
<feOffset dy="4"/>
<feGaussianBlur stdDeviation="2"/>
<feComposite in2="hardAlpha" operator="out"/>
<feColorMatrix type="matrix" values="0 0 0 0 0.089323 0 0 0 0 0.489225 0 0 0 0 0.729167 0 0 0 0.6 0"/>
<feBlend mode="normal" in2="BackgroundImageFix" result="effect1_dropShadow_25_493"/>
<feBlend mode="normal" in="SourceGraphic" in2="effect1_dropShadow_25_493" result="shape"/>
</filter>
</defs>
</svg>
