<svg width="49" height="52" viewBox="0 0 49 52" fill="none" xmlns="http://www.w3.org/2000/svg">
<g filter="url(#filter0_d_25_618)">
<path d="M26.572 37.8389C26.6264 39.5795 26.2162 41.3033 25.3835 42.8328C25.1981 43.1657 24.9672 43.4711 24.6976 43.7403C24.3691 44.0672 24.0223 44.11 23.813 43.5875C22.5054 40.3275 21.4299 37.0185 21.8454 33.43C22.183 30.5274 24.3905 29.0456 27.1923 29.9072C28.0798 30.1791 28.9155 30.6496 29.7389 31.0957C30.628 31.5785 31.0435 31.5189 31.2742 30.5733C31.7233 28.7309 32.9455 27.7883 34.6855 27.3651C35.402 27.194 35.6464 26.7953 35.4707 26.0804C35.3648 25.6347 35.2923 25.1818 35.2538 24.7253C35.0858 22.8921 35.8557 21.5493 37.4796 20.7427C38.2266 20.3699 38.4588 19.9483 38.2221 19.1172C37.957 18.222 37.8745 17.2827 37.9795 16.3551C38.0845 15.4274 38.3747 14.5302 38.8331 13.7169C39.102 13.2219 39.1249 12.7911 38.5673 12.4948C36.8563 11.5675 36.3216 10.026 36.3308 8.20505C36.3308 7.77119 36.3995 7.33886 36.395 6.90805C36.395 6.21907 35.7839 5.83869 35.2599 6.24658C32.7851 8.19283 30.1254 7.85369 27.4352 6.8989C26.6163 6.60864 25.9778 6.63766 25.2292 7.12193C23.477 8.25852 21.5887 8.33492 19.6868 7.49469C19.0253 7.20291 18.4204 7.12347 17.7008 7.3572C15.9837 7.92091 14.3995 7.52067 12.9039 6.55976C12.5801 6.35047 11.9629 6.12284 11.7857 6.2695C11.5168 6.49101 11.4053 7.04249 11.4236 7.44427C11.4832 8.70002 11.086 9.68232 10.009 10.3744C9.16112 10.9197 9.13361 11.0603 9.63163 11.9815C10.4535 13.5 10.9577 15.0811 10.4994 16.8181C10.3588 17.3528 10.093 17.8569 9.85775 18.3626C9.58429 18.9507 9.7401 19.3204 10.342 19.5618C13.075 20.6587 14.4881 23.4069 13.8221 26.308C13.8037 26.4861 13.7469 26.6581 13.6555 26.8121C12.5205 28.1718 12.8352 29.7269 13.0154 31.2714C13.075 31.7755 13.1499 32.3056 13.0521 32.7884C12.9849 33.1138 12.6121 33.6286 12.4013 33.6179C12.0255 33.5965 11.5229 33.3231 11.3442 33.0068C11.1456 32.6494 11.1914 32.1177 11.2281 31.6717C11.2999 30.888 11.4648 30.1119 11.5672 29.3297C11.72 28.1901 11.2617 27.741 10.151 27.8907C9.53681 27.9782 8.91047 27.9135 8.32707 27.7024C7.74367 27.4912 7.22106 27.14 6.80516 26.6796C6.38925 26.2192 6.09278 25.6637 5.94179 25.0619C5.79081 24.4601 5.78995 23.8304 5.93926 23.2282C6.03038 22.8591 6.20027 22.5141 6.43728 22.2169C6.85586 21.699 6.77489 21.3385 6.27687 20.9352C5.36026 20.1973 4.44365 19.4579 4.19006 18.2067C3.88453 16.6913 3.83107 15.2171 4.92947 13.9461C5.29458 13.5214 5.24722 13.1089 5.03946 12.6078C4.67831 11.7967 4.3984 10.9519 4.20382 10.0856C3.86926 8.36852 4.56129 6.95999 6.10883 6.12283C6.37088 5.99967 6.60072 5.81729 6.78021 5.59008C6.95969 5.36287 7.08391 5.09706 7.14307 4.81362C7.25573 4.36939 7.42086 3.94015 7.63497 3.53496C8.74559 1.36108 10.5376 0.594189 12.8505 1.38094C13.628 1.64523 14.1979 1.61467 14.8777 1.08915C16.4329 -0.111602 18.4478 0.0197789 19.9083 1.37635C20.4766 1.90646 20.9288 1.94465 21.5887 1.60856C22.7589 1.01735 24.0055 0.614043 25.3392 0.87833C25.8863 0.988255 26.4094 1.19521 26.8837 1.4894C27.5406 1.90034 28.0585 1.87132 28.5504 1.28011C28.6026 1.22457 28.6593 1.17348 28.7199 1.12734C30.4798 -0.400332 32.4734 -0.400332 34.4426 1.28011C35.2324 1.95992 35.8343 2.04396 36.7341 1.55816C37.7912 0.972881 39.0045 0.732027 40.205 0.869174C40.7162 0.913083 41.2067 1.09173 41.6264 1.38693C42.0461 1.68212 42.3801 2.08332 42.5943 2.54961C43.5017 4.39657 43.7003 6.30615 42.9624 8.24783C42.7088 8.91542 42.7562 9.39511 43.2053 9.98632C44.8124 12.0945 44.8216 14.441 44.0883 16.8777C43.9631 17.2917 43.8729 17.7805 43.9692 18.1869C44.6536 21.0813 43.8617 23.4747 41.5936 25.3669C41.0055 25.8589 40.7702 26.3217 40.8512 27.1177C41.1995 30.5519 39.3235 32.8419 35.8847 33.291C35.2737 33.3704 34.8658 33.6072 34.6076 34.2076C33.4236 36.9696 31.3093 37.7656 28.5137 36.5404C26.5934 35.6894 26.5583 35.7124 26.572 37.8389Z" fill="white"/>
</g>
<g filter="url(#filter1_d_25_618)">
<path d="M31.7956 9.20685C31.9015 9.64926 31.8818 10.1124 31.7388 10.5443C31.5957 10.9761 31.335 11.3594 30.986 11.6511C30.0694 12.4394 28.9847 13.026 28.0376 13.7899C27.6129 14.1275 27.1867 14.6164 27.0431 15.1159C26.8109 15.9332 27.2798 16.5611 28.1842 16.9277C29.3147 17.386 30.3123 18.0169 31.0562 19.0023C32.0446 20.3115 32.1256 21.7659 31.0562 22.9987C30.2924 23.8817 29.3086 24.5722 28.3645 25.4017C27.0675 23.7839 25.5307 22.8536 23.8884 22.0714C23.6608 21.9629 23.398 21.7872 23.1842 21.827C22.9046 21.8789 22.5486 22.0576 22.4325 22.2853C22.3409 22.4655 22.4829 22.8963 22.6632 23.0491C22.9825 23.3256 23.4362 23.4371 23.7845 23.6877C24.8539 24.4515 25.9584 25.1848 26.9208 26.0724C27.6404 26.7354 27.6755 27.4137 27.4204 28.2111C26.684 28.2111 25.9523 28.1775 25.2251 28.2111C23.9266 28.286 22.8465 28.8466 21.8856 29.7189C21.5707 29.9863 21.1713 30.1335 20.7582 30.1345C18.835 30.0791 16.9753 29.4338 15.4312 28.286C15.0585 28.0095 14.8873 27.7391 15.06 27.2579C15.778 25.2474 15.4877 23.3027 14.6475 21.3901C14.5467 21.1609 14.6078 20.8584 14.5925 20.5896C14.8614 20.6934 15.2464 20.7179 15.3762 20.9134C15.8238 21.5564 16.2026 22.2446 16.5067 22.9666C17.5226 25.5499 19.5116 26.9172 22.292 26.8591C22.8496 26.8484 23.4484 26.8209 23.4286 26.0647C23.4102 25.3574 22.8389 25.3605 22.3073 25.3498C19.7224 25.2933 18.1443 24.0375 17.8098 21.7842C17.5669 20.145 18.4209 18.9549 20.0784 18.9458C21.0874 18.9562 22.0859 19.1525 23.0237 19.5248C24.3238 20.0258 25.5398 20.7469 26.791 21.3717C27.2722 21.6116 27.7809 21.83 28.1109 21.2052C28.4409 20.5804 27.978 20.2779 27.4998 20.0396C26.0149 19.3109 24.53 18.5807 23.039 17.8657C22.0292 17.383 21.3204 14.9509 22.0307 14.0924C22.3027 13.7639 22.8267 13.5516 23.2712 13.4706C24.9853 13.1528 26.6795 12.7633 28.1277 11.755C28.8671 11.2402 29.5958 10.6169 30.1014 9.88513C30.5475 9.23129 31.0013 9.03423 31.7956 9.20685Z" fill="white"/>
</g>
<g filter="url(#filter2_d_25_618)">
<path d="M28.3535 15.3377C28.6957 15.1376 28.9126 15.0322 29.1174 14.8931C30.034 14.2561 30.9811 13.6603 31.8412 12.9545C32.7013 12.2487 33.2955 11.2237 33.2665 10.1039C33.236 8.94591 33.8226 8.61593 34.5971 8.49219L36.0942 12.8583C35.6573 13.4846 34.7392 13.807 33.8654 14.2087C32.521 14.8275 32.2308 16.042 33.126 17.2045C33.2647 17.353 33.3918 17.5118 33.5064 17.6796C33.8784 18.311 34.2145 18.9628 34.5131 19.632C34.8186 20.3668 34.7545 21.0863 34.3328 21.8211C33.6836 22.947 33.653 24.2028 33.8501 25.457C33.9127 25.8512 33.8501 26.036 33.4514 26.1979C31.525 26.9954 31.0239 27.4888 30.0324 29.4641L29.0165 28.9447C29.0165 28.2053 28.989 27.5514 29.0333 26.9022C29.0795 26.6773 29.2074 26.4775 29.3923 26.3415C30.1653 25.7305 31.0437 25.2248 31.7327 24.5297C33.8593 22.391 33.8623 19.6152 31.7083 17.5024C30.9628 16.7707 29.982 16.2803 29.1006 15.6891C28.8593 15.5561 28.6098 15.4387 28.3535 15.3377Z" fill="white"/>
</g>
<g filter="url(#filter3_d_25_618)">
<path d="M28.9297 8.95479C28.3803 9.8753 27.5289 10.5771 26.5205 10.9408C25.3568 11.3762 24.1625 11.725 22.9473 11.9842C20.9277 12.4241 19.9897 13.6646 20.2876 15.7102C20.3686 16.2571 20.5351 16.7902 20.671 17.3662C18.876 17.4426 17.3254 17.9238 16.5311 19.7646C16.2484 19.6118 16.0055 19.4881 15.7672 19.3476C15.1256 18.9595 14.4595 18.9076 13.8164 19.2941C13.4482 19.5156 13.2053 19.4881 12.8876 19.2055C12.5102 18.877 12.0565 18.6357 11.5967 18.3301L11.971 17.331C12.6401 17.4838 13.2679 17.6763 13.9126 17.771C15.6572 18.0292 17.0444 17.273 17.7028 15.6414C17.9732 14.9692 18.1932 14.2192 18.1947 13.5027C18.1947 11.121 19.8354 10.044 21.5693 9.6728C23.181 9.32755 24.8462 9.26949 26.2792 8.31011C26.4105 8.22151 26.6733 8.28109 26.8581 8.3315C27.5242 8.51635 28.1765 8.72869 28.9297 8.95479Z" fill="white"/>
</g>
<g filter="url(#filter4_d_25_618)">
<path d="M12.7647 9.49281C13.282 10.5573 13.4617 11.7545 13.2795 12.924C13.2001 13.4281 13.1787 13.9506 13.8447 14.0483C14.5108 14.1461 14.6513 13.645 14.7476 13.147C15.0256 11.6988 14.7369 10.3162 14.2526 9.07729L19.1259 8.86035L19.1702 9.01312C18.9609 9.17964 18.7532 9.34921 18.5439 9.51267C18.0105 9.90929 17.573 10.4206 17.2636 11.0089C16.9542 11.5972 16.7809 12.2475 16.7565 12.9117C16.7277 13.5463 16.6251 14.1753 16.4509 14.7862C16.0858 16.0007 15.2471 16.488 13.9914 16.2818C13.6675 16.2283 13.3544 16.1031 13.0335 16.0267C12.4515 15.8877 12.2147 15.6111 12.146 14.9329C12.0467 13.9643 11.6877 13.0141 11.3669 12.0822C11.2294 11.6835 11.1698 11.4421 11.5196 11.0999C11.9718 10.6477 12.3201 10.0779 12.7647 9.49281Z" fill="white"/>
</g>
<g filter="url(#filter5_d_25_618)">
<path d="M36.8302 14.3921C36.4232 15.9151 36.3569 17.5091 36.6362 19.0607C36.6728 19.2654 36.4498 19.519 36.352 19.7374C35.5882 18.3717 34.887 17.1251 34.1445 15.7991L36.8302 14.3921Z" fill="white"/>
</g>
<defs>
<filter id="filter0_d_25_618" x="0" y="0" width="48.5571" height="51.9839" filterUnits="userSpaceOnUse" color-interpolation-filters="sRGB">
<feFlood flood-opacity="0" result="BackgroundImageFix"/>
<feColorMatrix in="SourceAlpha" type="matrix" values="0 0 0 0 0 0 0 0 0 0 0 0 0 0 0 0 0 0 127 0" result="hardAlpha"/>
<feOffset dy="4"/>
<feGaussianBlur stdDeviation="2"/>
<feComposite in2="hardAlpha" operator="out"/>
<feColorMatrix type="matrix" values="0 0 0 0 0.089323 0 0 0 0 0.489225 0 0 0 0 0.729167 0 0 0 0.6 0"/>
<feBlend mode="normal" in2="BackgroundImageFix" result="effect1_dropShadow_25_618"/>
<feBlend mode="normal" in="SourceGraphic" in2="effect1_dropShadow_25_618" result="shape"/>
</filter>
<filter id="filter1_d_25_618" x="11.5879" y="9.14746" width="23.2749" height="27.9868" filterUnits="userSpaceOnUse" color-interpolation-filters="sRGB">
<feFlood flood-opacity="0" result="BackgroundImageFix"/>
<feColorMatrix in="SourceAlpha" type="matrix" values="0 0 0 0 0 0 0 0 0 0 0 0 0 0 0 0 0 0 127 0" result="hardAlpha"/>
<feOffset dy="4"/>
<feGaussianBlur stdDeviation="1.5"/>
<feComposite in2="hardAlpha" operator="out"/>
<feColorMatrix type="matrix" values="0 0 0 0 0.084198 0 0 0 0 0.493812 0 0 0 0 0.570833 0 0 0 0.4 0"/>
<feBlend mode="normal" in2="BackgroundImageFix" result="effect1_dropShadow_25_618"/>
<feBlend mode="normal" in="SourceGraphic" in2="effect1_dropShadow_25_618" result="shape"/>
</filter>
<filter id="filter2_d_25_618" x="25.3535" y="8.49219" width="13.7407" height="27.9717" filterUnits="userSpaceOnUse" color-interpolation-filters="sRGB">
<feFlood flood-opacity="0" result="BackgroundImageFix"/>
<feColorMatrix in="SourceAlpha" type="matrix" values="0 0 0 0 0 0 0 0 0 0 0 0 0 0 0 0 0 0 127 0" result="hardAlpha"/>
<feOffset dy="4"/>
<feGaussianBlur stdDeviation="1.5"/>
<feComposite in2="hardAlpha" operator="out"/>
<feColorMatrix type="matrix" values="0 0 0 0 0.084198 0 0 0 0 0.493812 0 0 0 0 0.570833 0 0 0 0.4 0"/>
<feBlend mode="normal" in2="BackgroundImageFix" result="effect1_dropShadow_25_618"/>
<feBlend mode="normal" in="SourceGraphic" in2="effect1_dropShadow_25_618" result="shape"/>
</filter>
<filter id="filter3_d_25_618" x="8.59668" y="8.26465" width="23.333" height="18.5" filterUnits="userSpaceOnUse" color-interpolation-filters="sRGB">
<feFlood flood-opacity="0" result="BackgroundImageFix"/>
<feColorMatrix in="SourceAlpha" type="matrix" values="0 0 0 0 0 0 0 0 0 0 0 0 0 0 0 0 0 0 127 0" result="hardAlpha"/>
<feOffset dy="4"/>
<feGaussianBlur stdDeviation="1.5"/>
<feComposite in2="hardAlpha" operator="out"/>
<feColorMatrix type="matrix" values="0 0 0 0 0.084198 0 0 0 0 0.493812 0 0 0 0 0.570833 0 0 0 0.4 0"/>
<feBlend mode="normal" in2="BackgroundImageFix" result="effect1_dropShadow_25_618"/>
<feBlend mode="normal" in="SourceGraphic" in2="effect1_dropShadow_25_618" result="shape"/>
</filter>
<filter id="filter4_d_25_618" x="8.25879" y="8.86035" width="13.9116" height="14.4673" filterUnits="userSpaceOnUse" color-interpolation-filters="sRGB">
<feFlood flood-opacity="0" result="BackgroundImageFix"/>
<feColorMatrix in="SourceAlpha" type="matrix" values="0 0 0 0 0 0 0 0 0 0 0 0 0 0 0 0 0 0 127 0" result="hardAlpha"/>
<feOffset dy="4"/>
<feGaussianBlur stdDeviation="1.5"/>
<feComposite in2="hardAlpha" operator="out"/>
<feColorMatrix type="matrix" values="0 0 0 0 0.084198 0 0 0 0 0.493812 0 0 0 0 0.570833 0 0 0 0.4 0"/>
<feBlend mode="normal" in2="BackgroundImageFix" result="effect1_dropShadow_25_618"/>
<feBlend mode="normal" in="SourceGraphic" in2="effect1_dropShadow_25_618" result="shape"/>
</filter>
<filter id="filter5_d_25_618" x="31.1445" y="14.3921" width="8.68555" height="12.3452" filterUnits="userSpaceOnUse" color-interpolation-filters="sRGB">
<feFlood flood-opacity="0" result="BackgroundImageFix"/>
<feColorMatrix in="SourceAlpha" type="matrix" values="0 0 0 0 0 0 0 0 0 0 0 0 0 0 0 0 0 0 127 0" result="hardAlpha"/>
<feOffset dy="4"/>
<feGaussianBlur stdDeviation="1.5"/>
<feComposite in2="hardAlpha" operator="out"/>
<feColorMatrix type="matrix" values="0 0 0 0 0.084198 0 0 0 0 0.493812 0 0 0 0 0.570833 0 0 0 0.4 0"/>
<feBlend mode="normal" in2="BackgroundImageFix" result="effect1_dropShadow_25_618"/>
<feBlend mode="normal" in="SourceGraphic" in2="effect1_dropShadow_25_618" result="shape"/>
</filter>
</defs>
</svg>
