<svg width="54" height="55" viewBox="0 0 54 55" fill="none" xmlns="http://www.w3.org/2000/svg">
<g filter="url(#filter0_d_29_1012)">
<path d="M29.4539 33.267H20.0582V34.2048H20.3138L31.1387 34.1982C31.6188 34.1982 32.0989 34.2043 32.5795 34.2029C32.6976 34.2029 32.7705 34.2249 32.7701 34.367C32.7659 35.0778 32.7673 35.7881 32.7654 36.4984C32.7599 36.5295 32.751 36.5598 32.7389 36.5889C32.6632 36.5931 32.5814 36.6011 32.5 36.6011C28.4888 36.6011 24.4775 36.6011 20.4663 36.6011C18.0374 36.5978 15.9008 34.8321 15.4073 32.4339C14.7422 29.2044 17.1934 26.1465 20.4732 26.1301C22.7576 26.1188 25.0419 26.1273 27.3258 26.1301C27.4819 26.1301 27.619 26.1488 27.6897 25.9425C27.7403 25.7944 27.8946 25.7517 28.0397 25.8422C28.1451 25.9064 28.2312 25.9983 28.2888 26.108C28.2223 26.0518 28.1586 25.9918 28.0889 25.9402C27.9797 25.8591 27.8626 25.8159 27.7636 25.9519C27.6558 26.1024 27.785 26.1699 27.8854 26.2168C28.3538 26.4348 28.8237 26.6491 29.2996 26.8498C29.4154 26.8967 29.4721 26.9407 29.4721 27.0767C29.4674 29.0919 29.4657 31.1069 29.467 33.1217C29.467 33.1564 29.4604 33.1948 29.4539 33.267Z" fill="white"/>
<path d="M42.377 22.4943L40.1043 22.9861C39.7617 22.1637 39.8166 21.309 39.8133 20.4467H38.9028C38.8987 20.5185 38.8912 20.593 38.8908 20.6676C38.8908 21.4646 38.8856 22.2617 38.8908 23.0588C38.8908 23.2036 38.8522 23.2627 38.7076 23.2932C38.0179 23.4348 37.3299 23.584 36.6436 23.7409C36.4958 23.7747 36.4293 23.7363 36.3601 23.6003C36.117 23.1155 35.7136 22.8318 35.1763 22.8267C33.9763 22.815 32.7763 22.8356 31.5762 22.8393C31.3936 22.8393 31.2109 22.8225 30.9581 22.8098L31.2746 23.1521C31.045 23.116 30.9177 22.6363 30.6309 23.04C30.65 22.9767 30.6695 22.9134 30.6955 22.83C30.5956 22.799 30.4938 22.7732 30.3962 22.7362C29.7869 22.5018 29.4406 21.9832 29.4402 21.301V20.4435H28.5385C28.4865 21.3516 28.4609 22.2354 29.1232 22.9687C29.4671 23.3504 30.2298 23.7395 30.5761 23.7081C30.5091 23.5567 30.4366 23.4038 30.3795 23.2444C30.3697 23.2163 30.439 23.1596 30.4831 23.1253C30.4046 23.4212 30.6383 23.7419 30.9428 23.7442C31.2216 23.7466 31.4977 23.7442 31.7975 23.7442V26.1242C30.709 26.1987 29.64 26.1462 28.664 25.5868C26.9323 24.5933 26.0939 23.0841 26.1566 21.0741C26.199 19.549 26.6829 18.0697 27.5486 16.8187C28.5976 15.2794 30.0118 14.2283 31.778 13.6572C31.8486 13.6342 31.9834 13.645 32.0145 13.6905C32.5132 14.4261 33.2471 14.6751 34.0781 14.7079C34.779 14.7342 35.4301 14.564 35.9795 14.0956C36.0557 14.0304 36.143 13.961 36.1839 13.8743C36.309 13.608 36.4814 13.6169 36.7263 13.706C39.1639 14.5899 40.8343 16.2545 41.7374 18.6998C42.0502 19.5489 42.1715 20.4346 42.1952 21.3404C42.2041 21.715 42.3096 22.0873 42.377 22.4943Z" fill="white"/>
<path d="M46.768 22.5015C47.0934 23.7674 47.4145 25.0047 47.7441 26.2763L30.4082 30.9428V27.0654C30.6164 27.0654 30.8144 27.0654 31.0124 27.0654C32.3677 27.0675 33.7229 27.0697 35.0782 27.0719C35.9032 27.0719 36.4976 26.4826 36.5153 25.6475C36.5204 25.4131 36.5227 25.1787 36.5153 24.9442C36.5092 24.7801 36.5487 24.7037 36.7318 24.6629C39.54 24.0646 42.3469 23.4598 45.1525 22.8484L46.768 22.5015Z" fill="white"/>
<path d="M34.4783 1.81836C35.5937 3.23666 37.0345 4.03794 38.8215 4.23861C38.8452 4.4932 38.8806 4.73936 38.8899 4.98879C38.9322 6.12437 38.9238 7.25573 38.506 8.33786C38.011 9.61878 37.2474 10.6822 36.0427 11.3742C34.5884 12.2069 32.8823 12.0151 31.5777 10.8556C30.1922 9.62488 29.4746 8.06779 29.4467 6.19798C29.4425 5.91666 29.4393 5.63535 29.4565 5.35403C29.4602 5.29214 29.5457 5.19087 29.6033 5.18337C31.7617 4.90768 33.3667 3.81039 34.4183 1.8915C34.4363 1.8655 34.4563 1.84103 34.4783 1.81836Z" fill="white"/>
<path d="M6.40137 30.1835C6.65606 29.8839 6.91261 29.574 7.17799 29.2721C7.90194 28.4501 8.3915 27.4455 8.5946 26.3651C8.6276 26.1935 8.69035 26.1387 8.86092 26.1284C12.1031 25.9268 14.7328 28.7413 14.3419 31.9999C14.057 34.3733 12.1719 36.2834 9.84436 36.5572C9.77 36.5656 9.69471 36.568 9.59153 36.575C9.75281 35.2472 9.58177 33.9916 8.97386 32.812C8.36594 31.6323 7.47033 30.7485 6.40137 30.1835Z" fill="white"/>
<path d="M30.4062 33.2723V31.855L47.361 32.7547V36.5994H37.4614C37.4614 35.9828 37.4614 35.3855 37.4614 34.7882C37.4614 33.8655 36.8777 33.2756 35.9653 33.2747C34.2079 33.2728 32.4506 33.2728 30.6935 33.2747L30.4062 33.2723Z" fill="white"/>
<path d="M8.64397 36.5721C7.39839 36.4254 6.35313 35.9246 5.50446 35.0441C4.33232 33.8283 3.85361 32.365 4.03859 30.6767C4.06183 30.461 4.14084 30.4272 4.33557 30.461C7.11489 30.9383 8.97163 33.3876 8.69835 36.228C8.68813 36.333 8.66535 36.4394 8.64397 36.5721Z" fill="white"/>
<path d="M35.0762 34.0469H39.0458C39.0506 34.2786 39.0591 34.5032 39.0596 34.7279C39.066 37.1317 39.0715 39.536 39.0762 41.9407C39.0788 43.3448 38.8098 44.0469 38.2814 44.0469C37.51 44.0385 36.7366 44.0384 35.9679 44.0342C35.5567 44.0342 35.3399 43.5863 35.2802 42.5094C35.2381 41.7498 35.2328 40.9747 35.2147 40.2053C35.1678 38.1777 35.123 36.1516 35.0762 34.0469Z" fill="white"/>
<path d="M32.0762 35.0469H29.099C29.0954 35.2554 29.089 35.4576 29.0886 35.6598C29.0838 37.8232 29.0796 39.9871 29.0762 42.1513C29.0742 43.415 29.2759 44.0469 29.6723 44.0469C30.2508 44.0393 30.8309 44.0393 31.4074 44.0355C31.7158 44.0355 31.8784 43.6324 31.9232 42.6631C31.9547 41.9795 31.9587 41.2819 31.9723 40.5894C32.0075 38.7647 32.041 36.9411 32.0762 35.0469Z" fill="white"/>
<path d="M29.5596 4.22463C29.8384 2.04912 31.8067 -0.0560612 34.0613 0.00113973C33.8694 1.8025 32.08 4.01692 29.5596 4.22463Z" fill="white"/>
<path d="M32.7588 26.1368V23.7456H33.4634C33.9821 23.7456 34.5007 23.7456 35.0194 23.7456C35.4131 23.7484 35.585 23.9224 35.5883 24.3181C35.592 24.7557 35.592 25.1933 35.5883 25.6309C35.5855 25.9122 35.4228 26.1284 35.17 26.1326C34.3729 26.1452 33.5763 26.1368 32.7588 26.1368Z" fill="white"/>
<path d="M38.2622 44.6606C38.8966 44.6606 39.5314 44.6606 40.1677 44.6606C40.6069 44.6606 40.7719 44.8312 40.7775 45.2701C40.7775 45.2781 40.7775 45.286 40.7775 45.2935C40.7826 46.0071 40.6813 46.1112 39.9818 46.1112C38.8664 46.1112 37.7518 46.1112 36.6383 46.1112C36.2125 46.1112 36.048 45.9452 36.0443 45.5153C36.0443 45.2968 36.0503 45.0779 36.0415 44.8589C36.035 44.7056 36.0931 44.6568 36.2437 44.6582C36.9157 44.6643 37.5873 44.6606 38.2622 44.6606Z" fill="white"/>
<path d="M32.2843 44.6611C32.2843 45.0236 32.3019 45.3588 32.2787 45.6926C32.261 45.9496 32.0653 46.1113 31.8009 46.1122C30.5544 46.1163 29.3079 46.1163 28.0613 46.1122C27.7602 46.1122 27.5752 45.913 27.5645 45.6092C27.5594 45.461 27.5566 45.3119 27.5645 45.1637C27.5771 44.867 27.7504 44.6897 28.0474 44.6668C28.1013 44.6625 28.1557 44.6668 28.2101 44.6668H32.0426L32.2843 44.6611Z" fill="white"/>
<path d="M33.6895 36.5999C33.6895 35.9051 33.6895 35.2431 33.6895 34.5806C33.6895 34.2008 33.6918 34.2017 34.0715 34.2022C34.6985 34.2022 35.3264 34.2022 35.9533 34.2045C36.353 34.2045 36.5352 34.3921 36.5362 34.792C36.5362 35.206 36.5362 35.62 36.5362 36.034C36.5324 36.4152 36.3502 36.5967 35.9831 36.5995C35.2311 36.6009 34.481 36.5999 33.6895 36.5999Z" fill="white"/>
<path d="M35.0263 0.0820312C36.6111 0.324432 38.1058 1.80697 38.5167 3.24543C38.0013 3.1759 37.5016 3.01729 37.0396 2.77657C36.2552 2.37678 35.5817 1.78642 35.0797 1.05867C34.9403 0.856589 34.8422 0.665763 34.9505 0.415391C34.9933 0.316931 34.9998 0.203935 35.0263 0.0820312Z" fill="white"/>
<path d="M4.32812 29.5059C4.96253 27.9507 6.04776 26.9225 7.62472 26.3589C7.62449 26.4186 7.61937 26.4782 7.60938 26.5371C7.24686 27.8367 6.51067 28.8616 5.38175 29.5893C5.2888 29.6507 5.14007 29.6625 5.02295 29.6484C4.80265 29.6226 4.58839 29.5607 4.32812 29.5059Z" fill="white"/>
<path d="M38.8763 29.9375V31.3704L34.8625 31.1589C34.85 31.0487 34.8203 30.954 34.8351 30.8673C34.8463 30.8012 34.9034 30.7055 34.9588 30.6905C35.8822 30.4331 36.8034 30.1612 37.7376 29.9502C38.0903 29.8705 38.4756 29.9375 38.8763 29.9375Z" fill="white"/>
<path d="M28.5299 5.22707C28.5127 6.17463 28.4778 7.11188 28.7813 8.05616C28.2557 8.12227 27.8411 7.99052 27.5023 7.6431C27.2998 7.44134 27.1639 7.18152 27.1131 6.89903C27.0622 6.61654 27.099 6.32511 27.2183 6.06445C27.4651 5.52479 27.9577 5.20081 28.5299 5.22707Z" fill="white"/>
<path d="M48.2974 33.2577C48.6431 33.2577 48.9513 33.2492 49.259 33.2577C49.3212 33.2571 49.3829 33.2691 49.4405 33.2931C49.4981 33.317 49.5502 33.3524 49.594 33.3971C49.6377 33.4418 49.6721 33.4949 49.6951 33.5533C49.7181 33.6116 49.7293 33.674 49.7279 33.7368C49.7363 34.2116 49.7341 34.6867 49.7214 35.1622C49.7135 35.4571 49.5243 35.6367 49.2325 35.6474C48.9782 35.6568 48.7212 35.6578 48.4689 35.6442C48.4094 35.6409 48.3053 35.5649 48.3043 35.5213C48.2941 34.7777 48.2974 34.0322 48.2974 33.2577Z" fill="white"/>
<path d="M32.7719 12.5986C33.6936 12.8757 34.6217 12.8889 35.5429 12.6038C35.6544 13.0004 35.5745 13.2457 35.2794 13.4627C34.7286 13.8678 33.694 13.8847 33.1177 13.5096C32.7877 13.2935 32.6794 13.0047 32.7719 12.5986Z" fill="white"/>
<path d="M48.4167 25.1833L47.8213 22.8718C48.0425 22.8249 48.2368 22.7752 48.4339 22.7513C48.6918 22.7204 48.8935 22.861 48.9516 23.117C49.057 23.5809 49.1535 24.0468 49.2412 24.5147C49.2955 24.8063 49.1519 25.022 48.8693 25.0965C48.7308 25.134 48.5854 25.1523 48.4167 25.1833Z" fill="white"/>
</g>
<defs>
<filter id="filter0_d_29_1012" x="0" y="0" width="53.7329" height="54.1152" filterUnits="userSpaceOnUse" color-interpolation-filters="sRGB">
<feFlood flood-opacity="0" result="BackgroundImageFix"/>
<feColorMatrix in="SourceAlpha" type="matrix" values="0 0 0 0 0 0 0 0 0 0 0 0 0 0 0 0 0 0 127 0" result="hardAlpha"/>
<feOffset dy="4"/>
<feGaussianBlur stdDeviation="2"/>
<feComposite in2="hardAlpha" operator="out"/>
<feColorMatrix type="matrix" values="0 0 0 0 0.089323 0 0 0 0 0.489225 0 0 0 0 0.729167 0 0 0 0.6 0"/>
<feBlend mode="normal" in2="BackgroundImageFix" result="effect1_dropShadow_29_1012"/>
<feBlend mode="normal" in="SourceGraphic" in2="effect1_dropShadow_29_1012" result="shape"/>
</filter>
</defs>
</svg>
