<svg width="46" height="47" viewBox="0 0 46 47" fill="none" xmlns="http://www.w3.org/2000/svg">
<g filter="url(#filter0_d_25_881)">
<path d="M4.0057 17.9328C4.06902 17.4262 4.12665 16.9126 4.19568 16.4035C4.65037 13.037 5.91818 10.0074 8.0143 7.33822C11.0027 3.5386 14.8802 1.1119 19.6494 0.308917C26.034 -0.763209 31.6384 0.956119 36.3221 5.45487C39.1395 8.16083 40.8816 11.4849 41.6517 15.3111C41.7885 15.9906 41.8417 16.6872 41.9367 17.3755C41.9512 17.4775 41.9804 17.5769 42 17.6776V20.3373C41.9737 20.4253 41.9525 20.5148 41.9367 20.6052C41.8619 21.1796 41.8208 21.7597 41.7163 22.3283C40.912 26.6916 38.8564 30.3588 35.5248 33.2884C32.6709 35.7969 29.3551 37.3069 25.5774 37.8181C25.0581 37.8884 24.5363 37.9448 24.0164 38.0081H21.9899C21.8892 37.9872 21.7898 37.9581 21.6879 37.9448C21.0609 37.872 20.427 37.8365 19.8064 37.7263C15.4647 36.9556 11.7981 34.9444 8.85085 31.6615C6.269 28.7833 4.71749 25.4136 4.18998 21.5786C4.12159 21.0814 4.06333 20.5818 4 20.0834L4.0057 17.9328ZM5.31024 18.9929C5.31911 28.756 13.1495 36.4534 22.5478 36.6972C32.3002 36.9506 40.7081 29.181 40.7107 19.0018C40.7182 16.6794 40.2674 14.3784 39.3839 12.2306C38.5005 10.0829 37.2018 8.1306 35.5623 6.48574C33.9229 4.84087 31.9749 3.53576 29.8301 2.64523C27.6852 1.7547 25.3857 1.29626 23.0633 1.29619C13.0824 1.27212 5.30771 9.35898 5.31024 18.9929Z" fill="white"/>
</g>
<g filter="url(#filter1_d_25_881)">
<path d="M23.7223 34.3452C22.8842 34.3476 22.0543 34.18 21.2828 33.8526C20.5113 33.5252 19.8142 33.0447 19.2337 32.4402C18.6532 31.8357 18.2013 31.1198 17.9053 30.3357C17.6094 29.5516 17.4755 28.7156 17.5118 27.8783C17.5283 27.4913 17.6296 27.1082 17.6638 26.7206C17.6745 26.594 17.6391 26.4205 17.5561 26.3356C16.648 25.4068 15.73 24.489 14.802 23.5822C14.721 23.5024 14.5399 23.4682 14.4221 23.4922C10.984 24.1964 7.77273 22.2067 6.96278 18.8573C6.10913 15.3389 8.49466 11.804 12.0771 11.2802C15.5556 10.7736 18.7156 13.137 19.1798 16.6098C19.2851 17.3319 19.2498 18.0676 19.076 18.7763C19.0234 18.9814 19.0563 19.1208 19.214 19.2753C20.1099 20.1547 20.9986 21.0413 21.8801 21.935C22.02 22.0769 22.141 22.1174 22.3481 22.0724C25.9387 21.2897 29.3419 23.6322 29.884 27.2513C30.4457 30.9775 27.5194 34.3446 23.7223 34.3452ZM19.6377 23.408L17.7556 21.538L17.1299 22.1294L18.9886 24.0178L19.6377 23.408Z" fill="white"/>
</g>
<g filter="url(#filter2_d_25_881)">
<path d="M24.6549 8.33974C24.2116 8.19345 23.7683 8.0421 23.3212 7.90595C23.2135 7.87302 23.0723 7.84769 22.9792 7.88948C22.5283 8.09403 22.0838 8.31314 21.6494 8.54935C21.5392 8.61753 21.4606 8.72662 21.4309 8.85269C21.1915 10.2281 20.1257 11.1749 18.7711 11.1958C18.1314 11.2071 17.5088 10.9891 17.0157 10.5814C16.5227 10.1736 16.1918 9.60286 16.0829 8.97237C15.8929 7.90975 16.2267 6.99974 17.0885 6.3386C17.9504 5.67747 18.9288 5.57868 19.9167 6.0511C20.2017 6.18725 20.4157 6.19802 20.6678 6.03527C20.8007 5.94924 20.9425 5.8779 21.0908 5.82249C21.6418 5.61541 21.9698 5.30384 22.1408 4.66487C22.4948 3.3445 23.9139 2.59851 25.2375 2.89615C26.6383 3.21278 27.5172 4.45969 27.3583 5.90671C27.2145 7.22012 26.0404 8.24981 24.6808 8.24981L24.6549 8.33974ZM21.2732 7.47342L22.3421 6.94654C22.2548 6.78443 22.2009 6.685 22.13 6.55518L21.0762 7.0789L21.2732 7.47342Z" fill="white"/>
</g>
<g filter="url(#filter3_d_25_881)">
<path d="M24.4522 15.2308C24.4522 14.5971 24.6749 13.9837 25.0813 13.4975C25.4877 13.0113 26.052 12.6834 26.6756 12.5711C27.2993 12.4574 27.943 12.567 28.494 12.8806C29.0449 13.1941 29.4679 13.6917 29.6887 14.2859C29.7773 14.5304 29.9078 14.633 30.1415 14.6893C30.5512 14.7875 30.9565 14.9034 31.3586 15.0281C31.5397 15.0845 31.6626 15.0497 31.812 14.9293C32.1735 14.6307 32.6065 14.4313 33.0685 14.3508C33.5304 14.2703 34.0053 14.3114 34.4466 14.4701C34.8878 14.6288 35.2801 14.8997 35.5849 15.256C35.8896 15.6124 36.0964 16.0419 36.1848 16.5024C36.4615 17.8582 35.6395 19.2337 34.3192 19.6206C32.9393 20.0259 31.4834 19.3166 30.9996 17.9855C30.9185 17.7632 30.814 17.6435 30.5772 17.591C30.1668 17.4992 29.7628 17.375 29.3619 17.2484C29.1605 17.1851 29.0212 17.2243 28.8502 17.356C27.9592 18.0431 26.9815 18.1426 25.967 17.6727C25.0183 17.2338 24.4471 16.2807 24.4522 15.2308ZM29.7191 16.1921L30.859 16.5049L30.9723 16.08C30.7494 16.0167 30.5696 15.9584 30.3878 15.9084C30.2061 15.8584 30.0294 15.814 29.8305 15.7621C29.7887 15.916 29.759 16.035 29.7191 16.1921Z" fill="white"/>
</g>
<g filter="url(#filter4_d_25_881)">
<path d="M34.7145 25.3521C34.7145 25.6364 34.7221 25.922 34.7145 26.2051C34.6879 27.1006 34.0058 27.7478 33.068 27.7737C32.1592 27.7991 31.4069 27.1493 31.3676 26.2646C31.3398 25.6352 31.341 25.0025 31.3714 24.3737C31.4132 23.5068 32.1586 22.9058 33.1167 22.9273C33.9938 22.9469 34.6853 23.5973 34.7126 24.4358C34.7221 24.741 34.7138 25.0462 34.7145 25.3521ZM32.0262 25.3198C32.0528 25.6428 32.056 25.9822 32.1124 26.3121C32.1877 26.7554 32.5918 27.0632 33.0382 27.0626C33.5024 27.0626 33.9292 26.7459 33.9634 26.2786C34.0077 25.6602 34.0077 25.0395 33.9634 24.4212C33.9305 23.9475 33.5157 23.6328 33.049 23.6283C32.5823 23.6239 32.1865 23.9254 32.1054 24.394C32.0554 24.6929 32.0528 25.0006 32.0262 25.3198Z" fill="white"/>
</g>
<path d="M35.0195 27.3216C35.2019 27.3811 35.3653 27.3849 35.4432 27.4704C35.6047 27.6452 35.8035 27.7237 35.972 27.5971C36.0955 27.5071 36.1784 27.2874 36.1809 27.124C36.1841 26.8884 35.9859 26.7979 35.7611 26.7903C35.7289 26.7859 35.6971 26.7789 35.6661 26.7694C35.5819 26.5756 35.6534 26.5091 35.8466 26.4369C35.9214 26.4029 35.988 26.3531 36.0418 26.2909C36.0956 26.2287 36.1353 26.1556 36.1581 26.0766C36.1784 25.9734 36.0315 25.7517 35.927 25.7308C35.7877 25.7023 35.6173 25.8106 35.4654 25.872C35.3387 25.9227 35.2222 25.9911 35.0537 26.0747C35.1088 25.6238 35.288 25.4091 35.6053 25.33C35.759 25.2882 35.922 25.2964 36.0708 25.3533C36.2195 25.4102 36.3464 25.5129 36.433 25.6466C36.623 25.9354 36.5869 26.2621 36.3171 26.6263C36.6261 26.9429 36.6926 27.3159 36.4393 27.6971C36.2538 27.977 35.9656 28.0695 35.6363 28.0093C35.2969 27.9517 35.112 27.737 35.0195 27.3216Z" fill="white"/>
<defs>
<filter id="filter0_d_25_881" x="0" y="0" width="46" height="46.0083" filterUnits="userSpaceOnUse" color-interpolation-filters="sRGB">
<feFlood flood-opacity="0" result="BackgroundImageFix"/>
<feColorMatrix in="SourceAlpha" type="matrix" values="0 0 0 0 0 0 0 0 0 0 0 0 0 0 0 0 0 0 127 0" result="hardAlpha"/>
<feOffset dy="4"/>
<feGaussianBlur stdDeviation="2"/>
<feComposite in2="hardAlpha" operator="out"/>
<feColorMatrix type="matrix" values="0 0 0 0 0.089323 0 0 0 0 0.489225 0 0 0 0 0.729167 0 0 0 0.6 0"/>
<feBlend mode="normal" in2="BackgroundImageFix" result="effect1_dropShadow_25_881"/>
<feBlend mode="normal" in="SourceGraphic" in2="effect1_dropShadow_25_881" result="shape"/>
</filter>
<filter id="filter1_d_25_881" x="2.78906" y="11.2119" width="31.1641" height="31.1333" filterUnits="userSpaceOnUse" color-interpolation-filters="sRGB">
<feFlood flood-opacity="0" result="BackgroundImageFix"/>
<feColorMatrix in="SourceAlpha" type="matrix" values="0 0 0 0 0 0 0 0 0 0 0 0 0 0 0 0 0 0 127 0" result="hardAlpha"/>
<feOffset dy="4"/>
<feGaussianBlur stdDeviation="2"/>
<feComposite in2="hardAlpha" operator="out"/>
<feColorMatrix type="matrix" values="0 0 0 0 0.089323 0 0 0 0 0.489225 0 0 0 0 0.729167 0 0 0 0.6 0"/>
<feBlend mode="normal" in2="BackgroundImageFix" result="effect1_dropShadow_25_881"/>
<feBlend mode="normal" in="SourceGraphic" in2="effect1_dropShadow_25_881" result="shape"/>
</filter>
<filter id="filter2_d_25_881" x="12.0312" y="2.83105" width="19.3457" height="16.3652" filterUnits="userSpaceOnUse" color-interpolation-filters="sRGB">
<feFlood flood-opacity="0" result="BackgroundImageFix"/>
<feColorMatrix in="SourceAlpha" type="matrix" values="0 0 0 0 0 0 0 0 0 0 0 0 0 0 0 0 0 0 127 0" result="hardAlpha"/>
<feOffset dy="4"/>
<feGaussianBlur stdDeviation="2"/>
<feComposite in2="hardAlpha" operator="out"/>
<feColorMatrix type="matrix" values="0 0 0 0 0.089323 0 0 0 0 0.489225 0 0 0 0 0.729167 0 0 0 0.6 0"/>
<feBlend mode="normal" in2="BackgroundImageFix" result="effect1_dropShadow_25_881"/>
<feBlend mode="normal" in="SourceGraphic" in2="effect1_dropShadow_25_881" result="shape"/>
</filter>
<filter id="filter3_d_25_881" x="20.4521" y="12.5273" width="19.7861" height="15.207" filterUnits="userSpaceOnUse" color-interpolation-filters="sRGB">
<feFlood flood-opacity="0" result="BackgroundImageFix"/>
<feColorMatrix in="SourceAlpha" type="matrix" values="0 0 0 0 0 0 0 0 0 0 0 0 0 0 0 0 0 0 127 0" result="hardAlpha"/>
<feOffset dy="4"/>
<feGaussianBlur stdDeviation="2"/>
<feComposite in2="hardAlpha" operator="out"/>
<feColorMatrix type="matrix" values="0 0 0 0 0.089323 0 0 0 0 0.489225 0 0 0 0 0.729167 0 0 0 0.6 0"/>
<feBlend mode="normal" in2="BackgroundImageFix" result="effect1_dropShadow_25_881"/>
<feBlend mode="normal" in="SourceGraphic" in2="effect1_dropShadow_25_881" result="shape"/>
</filter>
<filter id="filter4_d_25_881" x="27.3477" y="22.9268" width="11.3701" height="12.8477" filterUnits="userSpaceOnUse" color-interpolation-filters="sRGB">
<feFlood flood-opacity="0" result="BackgroundImageFix"/>
<feColorMatrix in="SourceAlpha" type="matrix" values="0 0 0 0 0 0 0 0 0 0 0 0 0 0 0 0 0 0 127 0" result="hardAlpha"/>
<feOffset dy="4"/>
<feGaussianBlur stdDeviation="2"/>
<feComposite in2="hardAlpha" operator="out"/>
<feColorMatrix type="matrix" values="0 0 0 0 0.089323 0 0 0 0 0.489225 0 0 0 0 0.729167 0 0 0 0.6 0"/>
<feBlend mode="normal" in2="BackgroundImageFix" result="effect1_dropShadow_25_881"/>
<feBlend mode="normal" in="SourceGraphic" in2="effect1_dropShadow_25_881" result="shape"/>
</filter>
</defs>
</svg>
