<svg width="52" height="50" viewBox="0 0 52 50" fill="none" xmlns="http://www.w3.org/2000/svg">
<g filter="url(#filter0_d_25_701)">
<path d="M4.0045 38.9298C4.33106 37.4992 4.66984 36.0712 4.98098 34.6374C5.61032 31.7385 7.48806 30.1378 10.3037 29.4477C12.607 28.883 14.8859 28.2199 17.1982 27.698C19.1319 27.2619 19.8904 25.8594 20.3674 24.1903C20.4375 23.9453 20.2697 23.5789 20.1103 23.332C18.8497 21.3674 17.5338 19.4374 16.3066 17.453C15.955 16.8838 15.6907 16.1791 15.6554 15.5223C15.6258 14.9621 15.8103 14.1505 16.205 13.8595C16.9122 13.3409 16.8594 12.7724 16.8588 12.0798C16.8588 10.3077 16.6994 8.49847 16.9944 6.77178C17.6456 2.95771 20.8811 0.297962 24.8519 0.0351207C26.7567 -0.0927825 28.608 0.109944 30.3527 0.954105C33.4384 2.44865 35.0551 4.87626 35.0455 8.31557C35.0455 9.79541 34.9773 11.2753 34.9748 12.7551C34.9748 13.0499 35.039 13.4835 35.2319 13.6152C36.1679 14.2477 36.085 15.113 35.8529 15.9942C35.7126 16.5346 35.4936 17.0517 35.203 17.5291C33.7373 19.8991 32.2369 22.2487 30.6934 24.6917C32.3134 28.1629 36.0689 27.9762 39.2471 29.0755C38.9295 29.715 38.6396 30.3239 38.3278 30.9218C36.6867 34.0676 35.0288 37.2044 33.4062 40.3598C33.1362 40.8848 32.8534 41.1483 32.2144 41.1317C30.3984 41.085 28.581 41.1151 26.6332 41.1151V31.9111H24.931V41.1016H4L4.0045 38.9298ZM20.6239 18.7493C24.1004 17.421 27.4959 17.1639 30.9004 18.7007C31.5375 17.3008 32.118 16.0205 32.7004 14.7421C33.4287 13.1497 33.2905 12.6509 31.695 11.8969C29.0702 10.6562 26.2739 10.2085 23.419 10.6677C22.1648 10.8698 20.9119 11.4108 19.8004 12.0484C18.9827 12.5178 18.4158 13.449 18.8111 14.5003C19.3408 15.9047 19.9849 17.2662 20.6239 18.7493ZM21.3407 24.7518C20.9601 25.5569 20.5693 26.3141 20.2517 27.0994C20.208 27.228 20.1905 27.364 20.2003 27.4994C20.2101 27.6348 20.2471 27.7669 20.3089 27.888C22.4837 31.5748 28.808 31.6611 31.1003 28.0389C31.2386 27.8208 31.3035 27.3923 31.1807 27.2075C30.7371 26.5296 30.1984 25.9125 29.6848 25.2576C26.7573 27.0815 23.9854 26.8922 21.3407 24.7518ZM24.7857 4.98753C24.3357 5.49019 23.2859 4.54563 23.1715 5.80355C23.0327 7.3256 24.3588 6.44755 24.7542 6.78201C25.1643 7.42153 24.364 8.46714 25.6844 8.52533C27.1436 8.58928 26.3272 7.39275 26.6699 6.86259C27.1674 6.42836 28.3368 7.33839 28.3496 5.95C28.3625 4.56161 27.1925 5.43199 26.6834 5.01311C26.3047 4.52068 27.1674 3.31072 25.6863 3.37403C24.3434 3.43159 25.1939 4.49063 24.7857 4.98753ZM9.97844 34.4181C9.99773 34.8337 10.0125 35.1484 10.0286 35.4892H18.4215V34.4181H9.97844ZM31.4668 21.7384C32.613 19.7891 33.6524 18.0522 34.6533 16.2967C34.8351 15.9836 34.9298 15.628 34.9278 15.2665C34.9169 15.0068 34.6906 14.5752 34.5055 14.5438C34.1841 14.4901 33.5991 14.5886 33.5072 14.7932C32.55 16.9273 31.1775 18.9437 31.4668 21.7384ZM20.1849 21.7045C20.2492 18.9705 18.9879 16.9529 18.1001 14.8194C18.0031 14.5854 17.5608 14.2503 17.4676 14.3021C17.1609 14.4703 16.7939 14.7632 16.727 15.0695C16.6501 15.4887 16.7195 15.9215 16.9237 16.2961C17.9356 18.0484 19.0078 19.7667 20.1849 21.7045Z" fill="white"/>
</g>
<g filter="url(#filter1_d_25_701)">
<path d="M46.2983 33.1348C46.7187 35.7338 47.1392 38.3334 47.5757 41.0334H42.2773L45.912 33.1776L46.2983 33.1348Z" fill="white"/>
</g>
<path d="M45.4312 28.9854C45.2499 29.4823 45.1785 29.7604 45.0532 30.0086C43.0064 34.1232 40.9559 38.2362 38.9018 42.3474C38.5161 43.127 37.9439 43.59 37.026 43.4985C36.1536 43.4103 35.4863 42.9748 35.2999 42.1242C35.2062 41.619 35.2736 41.0974 35.4928 40.6322C37.2606 37.0055 39.0721 33.3993 40.8927 29.7982C41.0212 29.5462 41.3202 29.236 41.5657 29.2117C42.7717 29.0934 43.9886 29.0608 45.4312 28.9854ZM44.526 29.6364C43.6029 29.6863 42.8739 29.6786 42.1616 29.7854C41.8634 29.8308 41.4725 30.054 41.344 30.3066C39.544 33.8406 37.7684 37.3862 36.0173 40.9437C35.6316 41.7283 35.8733 42.4293 36.5734 42.7663C37.2844 43.1084 37.8925 42.8616 38.329 42.018C38.8709 40.9718 39.391 39.9147 39.9181 38.8614C41.4237 35.8486 42.9286 32.8352 44.526 29.6364Z" fill="white"/>
<path d="M42.0635 28.2959C42.9962 26.4515 43.7509 24.6692 44.7634 23.0467C45.63 21.6584 47.2467 21.345 48.904 20.8628C48.7754 21.2465 48.7272 21.4806 48.6237 21.689C47.68 23.5974 46.7067 25.4916 45.7875 27.4114C45.5413 27.923 45.2417 28.1373 44.6702 28.1379C43.8557 28.1379 43.0425 28.2313 42.0635 28.2959Z" fill="white"/>
<path d="M9.97852 34.418H18.4216V35.4924H10.0287C10.0126 35.1483 10.0004 34.8337 9.97852 34.418Z" fill="#8BCDF2"/>
<path d="M20.6233 18.749C19.9843 17.2654 19.3376 15.9045 18.8124 14.5001C18.4171 13.4487 18.984 12.5176 19.8017 12.0482C20.9113 11.4087 22.1661 10.8696 23.4203 10.6675C26.2752 10.2083 29.0716 10.656 31.6963 11.8966C33.2918 12.6506 33.432 13.1494 32.7017 14.7418C32.1173 16.0209 31.5369 17.2999 30.9017 18.7004C27.4953 17.1637 24.0998 17.4208 20.6233 18.749ZM27.7659 13.4724H31.1852C30.7487 12.3366 28.9327 12.2528 27.7659 13.4724ZM20.3771 13.4724H23.7842C23.0693 12.3027 21.2591 12.2707 20.3771 13.4743V13.4724ZM20.7467 14.7386C21.8505 15.7932 23.3432 15.673 23.5894 14.7386H20.7467ZM30.6362 14.7297H27.8997C28.5624 15.7683 30.0834 15.7344 30.6349 14.7316L30.6362 14.7297Z" fill="#4EB7E1"/>
<path d="M21.3403 24.7515C23.985 26.8919 26.7569 27.0812 29.6844 25.2548C30.1987 25.9096 30.7368 26.5268 31.1803 27.2047C31.3031 27.392 31.2382 27.8205 31.1 28.036C28.8076 31.6614 22.4859 31.5719 20.3086 27.8851C20.2467 27.7641 20.2097 27.632 20.1999 27.4966C20.1901 27.3612 20.2076 27.2252 20.2513 27.0966C20.5702 26.3138 20.9598 25.5566 21.3403 24.7515Z" fill="#4EB7E1"/>
<path d="M24.7851 4.98755C25.1953 4.49257 24.3448 3.43353 25.6851 3.37597C27.1636 3.31202 26.3035 4.52263 26.6821 5.01505C27.1906 5.43394 28.3619 4.55716 28.3484 5.95194C28.3349 7.34673 27.1662 6.4303 26.6687 6.86453C26.3292 7.39277 27.1424 8.59123 25.6832 8.52728C24.3628 8.46908 25.1631 7.42411 24.753 6.78395C24.3576 6.44949 23.0314 7.32754 23.1703 5.8055C23.2834 4.54373 24.3351 5.4883 24.7851 4.98755Z" fill="#4EB7E1"/>
<path d="M31.467 21.7383C31.1777 18.9436 32.5502 16.9273 33.5074 14.7932C33.5993 14.5885 34.1843 14.4901 34.5057 14.5438C34.6909 14.5751 34.9171 15.0068 34.9281 15.2664C34.93 15.628 34.8353 15.9836 34.6536 16.2967C33.6501 18.0522 32.6132 19.7891 31.467 21.7383Z" fill="#4EB7E1"/>
<path d="M20.1847 21.7043C19.0076 19.7666 17.9347 18.0482 16.9235 16.2953C16.7193 15.9207 16.6499 15.4879 16.7268 15.0687C16.7911 14.763 17.1607 14.4701 17.4674 14.3013C17.5606 14.2495 18.0029 14.5846 18.0999 14.8186C18.9877 16.9527 20.2522 18.9704 20.1847 21.7043Z" fill="#4EB7E1"/>
<path d="M44.5259 29.6362C42.9284 32.8338 41.4235 35.8485 39.918 38.8612C39.3909 39.9145 38.8708 40.9716 38.3289 42.0179C37.8924 42.8614 37.2843 43.1083 36.5733 42.7661C35.8732 42.4291 35.629 41.7282 36.0172 40.9435C37.7743 37.3891 39.5499 33.8434 41.3438 30.3064C41.4724 30.0538 41.8632 29.8306 42.1615 29.7852C42.8738 29.6784 43.6028 29.6861 44.5259 29.6362Z" fill="#4EB7E1"/>
<path d="M27.7666 13.4724C28.9334 12.2528 30.7494 12.3366 31.1859 13.4724H27.7666Z" fill="white"/>
<path d="M20.3779 13.4747C21.2599 12.2711 23.0702 12.3031 23.785 13.4747H20.3779Z" fill="white"/>
<path d="M20.748 14.7407H23.5907C23.3445 15.6751 21.8518 15.7953 20.748 14.7407Z" fill="white"/>
<path d="M30.635 14.7319C30.0822 15.7347 28.5612 15.7686 27.8984 14.7319H30.635Z" fill="white"/>
<defs>
<filter id="filter0_d_25_701" x="0" y="0" width="43.2471" height="49.1323" filterUnits="userSpaceOnUse" color-interpolation-filters="sRGB">
<feFlood flood-opacity="0" result="BackgroundImageFix"/>
<feColorMatrix in="SourceAlpha" type="matrix" values="0 0 0 0 0 0 0 0 0 0 0 0 0 0 0 0 0 0 127 0" result="hardAlpha"/>
<feOffset dy="4"/>
<feGaussianBlur stdDeviation="2"/>
<feComposite in2="hardAlpha" operator="out"/>
<feColorMatrix type="matrix" values="0 0 0 0 0.089323 0 0 0 0 0.489225 0 0 0 0 0.729167 0 0 0 0.6 0"/>
<feBlend mode="normal" in2="BackgroundImageFix" result="effect1_dropShadow_25_701"/>
<feBlend mode="normal" in="SourceGraphic" in2="effect1_dropShadow_25_701" result="shape"/>
</filter>
<filter id="filter1_d_25_701" x="38.2773" y="33.1348" width="13.2983" height="15.8984" filterUnits="userSpaceOnUse" color-interpolation-filters="sRGB">
<feFlood flood-opacity="0" result="BackgroundImageFix"/>
<feColorMatrix in="SourceAlpha" type="matrix" values="0 0 0 0 0 0 0 0 0 0 0 0 0 0 0 0 0 0 127 0" result="hardAlpha"/>
<feOffset dy="4"/>
<feGaussianBlur stdDeviation="2"/>
<feComposite in2="hardAlpha" operator="out"/>
<feColorMatrix type="matrix" values="0 0 0 0 0.089323 0 0 0 0 0.489225 0 0 0 0 0.729167 0 0 0 0.6 0"/>
<feBlend mode="normal" in2="BackgroundImageFix" result="effect1_dropShadow_25_701"/>
<feBlend mode="normal" in="SourceGraphic" in2="effect1_dropShadow_25_701" result="shape"/>
</filter>
</defs>
</svg>
