<svg width="47" height="49" viewBox="0 0 47 49" fill="none" xmlns="http://www.w3.org/2000/svg">
<g filter="url(#filter0_d_25_667)">
<path d="M13.6215 22.855C13.0029 23.4953 12.5234 24.1414 12.2735 24.8956C12.0816 25.4738 11.9964 26.0828 11.851 26.6756C11.8161 26.7834 11.7577 26.8832 11.6795 26.9689C11.6121 27.052 11.4908 27.1023 11.4406 27.1908C11.2523 27.5217 10.9229 27.6961 10.616 27.9063C9.63714 28.5744 9.01439 29.5001 8.52445 30.5133C8.49514 30.5638 8.47884 30.6201 8.47686 30.6776C8.52915 31.2992 8.18248 31.8369 8.05856 32.4214C7.8332 33.4713 7.77568 34.5231 7.97908 35.5758C8.11241 36.2674 8.59085 36.6472 9.29726 36.8877C9.84314 37.0734 10.3786 37.0876 10.9323 37.0832C11.5205 37.0792 11.9451 36.7073 11.9394 36.2034C11.9336 35.7254 11.5174 35.3701 10.9459 35.3725C10.5381 35.375 10.1302 35.3965 9.72236 35.414C9.52524 35.4224 9.51321 35.2782 9.5085 35.1663C9.4834 34.6707 9.43007 34.1712 9.47295 33.6795C9.51583 33.1878 9.65178 32.702 9.76263 32.2191C9.82433 31.9493 9.9195 31.701 10.1987 31.5299C10.3305 31.4483 10.4079 31.2743 10.4842 31.1306C10.7613 30.6101 11.0813 30.1179 11.5258 29.7054C12.2855 29.0001 12.9517 28.9835 13.6769 29.7255C14.0539 30.1106 14.3258 30.5857 14.65 31.0167C14.7786 31.1873 14.9214 31.3481 15.0563 31.5143C15.1078 31.5676 15.1513 31.6273 15.1854 31.6917C15.6367 32.7841 15.7606 33.917 15.6471 35.0763C15.6152 35.3965 15.6022 35.3857 15.256 35.3754C14.8816 35.3642 14.5062 35.3627 14.1318 35.3754C13.9119 35.3858 13.7035 35.4703 13.5452 35.6133C13.3869 35.7562 13.2893 35.948 13.2706 36.153C13.2293 36.567 13.5321 37.001 13.9859 37.0406C14.5909 37.0939 15.2199 37.2156 15.792 36.8803C15.7994 36.876 15.8075 36.8729 15.816 36.871C16.8518 36.6413 17.1703 35.9311 17.2492 35.0382C17.3631 33.7433 17.1763 32.4407 16.7018 31.2196C16.6605 31.112 16.673 30.9859 16.6605 30.8686C16.6432 30.7083 16.6688 30.5299 16.6019 30.3901C16.1125 29.374 15.4835 28.4352 14.4539 27.8355C14.0084 27.5764 13.7668 27.1576 13.3559 26.8917C13.3187 26.8677 13.3062 26.7905 13.3083 26.7387C13.3721 25.3012 14.2693 23.684 15.9886 22.859C16.0524 22.8287 16.1977 22.878 16.2652 22.9337C17.2686 23.8028 18.2652 24.6791 19.2634 25.5534L23.4035 29.1805C23.6472 28.9693 23.8893 28.7626 24.1282 28.5534C26.2198 26.7206 28.3102 24.8866 30.3997 23.0515C30.5471 22.922 30.6454 22.9049 30.818 23.0105C32.1691 23.834 32.9492 24.989 33.1751 26.4997C33.0867 26.5295 33.0083 26.5578 32.9288 26.5833C31.379 27.0774 30.488 28.6086 30.8959 30.0774C31.3069 31.5573 32.8739 32.5045 34.4708 32.2386C36.0881 31.9693 37.2368 30.5739 37.0402 29.0485C36.8797 27.8007 36.1241 26.9655 34.8441 26.5632C34.6674 26.5075 34.6068 26.4386 34.5827 26.2666C34.4294 25.0694 33.8918 23.9438 33.0407 23.0378C32.9727 22.9645 32.9058 22.8912 32.8389 22.815C32.8342 22.8096 32.8352 22.7993 32.83 22.7749C33.7087 22.9447 34.5621 23.2139 35.3712 23.5765C39.4293 25.4239 41.8805 28.4239 42.6821 32.5788C42.9213 33.7921 42.9213 35.036 42.6821 36.2493C42.2722 38.306 40.9524 39.5821 38.828 40.1691C37.5056 40.5347 36.1451 40.6623 34.7767 40.696C33.1918 40.7351 31.6054 40.7366 30.0185 40.738C24.659 40.7433 19.2996 40.7433 13.9404 40.738C12.3117 40.7351 10.6798 40.7063 9.07347 40.4086C8.55297 40.3134 8.04032 40.1838 7.53934 40.021C5.56024 39.3725 4.37591 38.048 4.12231 36.1252C3.47028 31.1775 5.43527 27.291 9.77465 24.4406C10.9145 23.6937 12.194 23.2021 13.6215 22.855ZM27.0187 36.0103C27.0187 36.5788 27.0187 37.1071 27.0187 37.6359C27.0187 37.937 27.1233 38.0318 27.437 38.0328C27.9249 38.0328 28.4127 38.0328 28.9011 38.0328C29.3717 38.0328 29.424 37.9839 29.424 37.5391V36.0103C30.0289 36.0103 30.602 36.0103 31.1751 36.0103C31.4888 36.0103 31.5981 35.9092 31.6002 35.613C31.6033 35.1731 31.6002 34.7332 31.6002 34.2933C31.6002 33.8124 31.5479 33.7626 31.0329 33.7621H29.424C29.424 33.1951 29.424 32.6599 29.424 32.1243C29.424 31.8256 29.3194 31.7303 29.001 31.7284C28.5215 31.7254 28.0425 31.7284 27.5636 31.7284C27.0846 31.7284 27.0203 31.7934 27.0203 32.2371C27.0203 32.7391 27.0203 33.2411 27.0203 33.763C26.4122 33.763 25.8391 33.763 25.266 33.763C24.9523 33.763 24.8587 33.854 24.8566 34.1418C24.854 34.6223 24.8566 35.1027 24.8566 35.5837C24.8566 35.9292 24.9455 36.0094 25.3225 36.0099C25.8788 36.0103 26.432 36.0103 27.0187 36.0103Z" fill="white"/>
</g>
<g filter="url(#filter1_d_25_667)">
<path d="M23.418 1.86694e-05C29.5425 0.00979374 34.4988 4.65929 34.4905 10.3865C34.4816 16.123 29.5038 20.7442 23.3531 20.7271C17.2354 20.7104 12.3052 16.0575 12.3203 10.3112C12.336 4.62459 17.3217 -0.0107339 23.418 1.86694e-05Z" fill="white"/>
</g>
<path d="M32.4865 29.3632C32.484 29.1861 32.519 29.0103 32.5894 28.8459C32.6599 28.6815 32.7645 28.5317 32.8971 28.4052C33.0297 28.2787 33.1877 28.178 33.3622 28.1088C33.5366 28.0396 33.7239 28.0033 33.9134 28.002C34.1051 28.0003 34.2953 28.0342 34.4729 28.1016C34.6505 28.1691 34.8121 28.2688 34.9482 28.3949C35.0843 28.5211 35.1924 28.6713 35.2661 28.8367C35.3397 29.0022 35.3776 29.1796 35.3775 29.3588C35.3772 29.5359 35.3396 29.7111 35.2668 29.8746C35.194 30.038 35.0874 30.1865 34.9532 30.3114C34.8189 30.4363 34.6597 30.5353 34.4845 30.6026C34.3093 30.67 34.1216 30.7044 33.9322 30.7039C33.7427 30.7059 33.5547 30.6728 33.379 30.6062C33.2033 30.5397 33.0436 30.4412 32.909 30.3165C32.7745 30.1917 32.6678 30.0432 32.5953 29.8795C32.5227 29.7159 32.4857 29.5403 32.4865 29.3632Z" fill="white"/>
<path d="M27.0184 36.0105C26.4317 36.0105 25.8759 36.0105 25.3206 36.0105C24.9436 36.0105 24.8557 35.9298 24.8547 35.5843C24.8547 35.1034 24.8521 34.6229 24.8547 34.1425C24.8547 33.8546 24.953 33.7651 25.2641 33.7637C25.8393 33.7607 26.4102 33.7637 27.0184 33.7637C27.0184 33.2417 27.0184 32.7373 27.0184 32.2378C27.0184 31.794 27.0879 31.729 27.5616 31.729C28.0354 31.729 28.5195 31.729 28.999 31.729C29.3185 31.729 29.421 31.8268 29.422 32.1249C29.422 32.6625 29.422 33.1957 29.422 33.7627H31.0309C31.5449 33.7627 31.5983 33.8116 31.5983 34.294C31.5983 34.7339 31.6014 35.1737 31.5983 35.6136C31.5983 35.9098 31.4895 36.0095 31.1732 36.011C30.598 36.0139 30.027 36.011 29.422 36.011V37.5398C29.422 37.9836 29.3697 38.033 28.8992 38.0334C28.4113 38.0334 27.9235 38.0334 27.4351 38.0334C27.1214 38.0334 27.0168 37.9357 27.0168 37.6366C27.0163 37.1082 27.0184 36.5799 27.0184 36.0105Z" fill="#8BCCF2"/>
<defs>
<filter id="filter0_d_25_667" x="0" y="22.7749" width="46.8613" height="25.9673" filterUnits="userSpaceOnUse" color-interpolation-filters="sRGB">
<feFlood flood-opacity="0" result="BackgroundImageFix"/>
<feColorMatrix in="SourceAlpha" type="matrix" values="0 0 0 0 0 0 0 0 0 0 0 0 0 0 0 0 0 0 127 0" result="hardAlpha"/>
<feOffset dy="4"/>
<feGaussianBlur stdDeviation="2"/>
<feComposite in2="hardAlpha" operator="out"/>
<feColorMatrix type="matrix" values="0 0 0 0 0.089323 0 0 0 0 0.489225 0 0 0 0 0.729167 0 0 0 0.6 0"/>
<feBlend mode="normal" in2="BackgroundImageFix" result="effect1_dropShadow_25_667"/>
<feBlend mode="normal" in="SourceGraphic" in2="effect1_dropShadow_25_667" result="shape"/>
</filter>
<filter id="filter1_d_25_667" x="8.32031" y="0" width="30.1699" height="28.7271" filterUnits="userSpaceOnUse" color-interpolation-filters="sRGB">
<feFlood flood-opacity="0" result="BackgroundImageFix"/>
<feColorMatrix in="SourceAlpha" type="matrix" values="0 0 0 0 0 0 0 0 0 0 0 0 0 0 0 0 0 0 127 0" result="hardAlpha"/>
<feOffset dy="4"/>
<feGaussianBlur stdDeviation="2"/>
<feComposite in2="hardAlpha" operator="out"/>
<feColorMatrix type="matrix" values="0 0 0 0 0.089323 0 0 0 0 0.489225 0 0 0 0 0.729167 0 0 0 0.6 0"/>
<feBlend mode="normal" in2="BackgroundImageFix" result="effect1_dropShadow_25_667"/>
<feBlend mode="normal" in="SourceGraphic" in2="effect1_dropShadow_25_667" result="shape"/>
</filter>
</defs>
</svg>
