<svg width="74" height="77" viewBox="0 0 74 77" fill="none" xmlns="http://www.w3.org/2000/svg">
<g filter="url(#filter0_d_25_674)">
<path d="M41.8425 28.9113C43.461 22.9659 47.9997 19.4448 53.5624 19.7425C57.6091 19.9734 59.7966 23.5105 58.1684 27.2321C56.1088 31.951 50.4959 34.8657 45.8288 33.6126C45.222 33.4662 44.6446 33.217 44.1218 32.8758C37.814 28.5293 28.8551 31.6953 26.6873 39.0326C26.596 39.3988 26.468 39.756 26.3877 40.125C24.9965 46.5627 20.651 50.0581 14.6235 51.7803C14.0404 51.95 13.261 51.4406 12.5725 51.2378C13.0399 50.7046 13.4103 49.9839 13.9942 49.6705C15.4301 48.9042 16.9962 48.396 18.4496 47.6691C21.8816 45.9339 23.4451 42.7992 24.2412 39.2786C26.0507 31.2724 33.3508 28.253 39.0838 28.5854C40.0113 28.626 40.9351 28.7901 41.8425 28.9113ZM46.6807 31.4754C50.1985 32.3292 55.3061 29.3193 56.2835 25.8205C56.7795 24.0341 55.8831 22.4957 54.105 22.0757C50.6173 21.2567 45.4668 24.3453 44.5031 27.8203C43.9963 29.7596 44.7248 31.0033 46.6807 31.4754Z" fill="white"/>
</g>
<path d="M46.6806 31.475C44.7358 30.9901 43.9962 29.7593 44.5214 27.8245C45.4667 24.345 50.6172 21.2563 54.1232 22.0799C55.9014 22.4999 56.7977 24.0383 56.3017 25.8247C55.306 29.3189 50.1985 32.3288 46.6806 31.475Z" fill="#3DACDB"/>
<g filter="url(#filter1_d_25_674)">
<path d="M46.7962 49.2973C48.7826 43.0935 53.1017 39.7667 58.6004 40.0562C62.2671 40.2507 64.513 43.4287 63.456 46.9193C61.9887 51.7586 55.6529 55.2947 50.8082 53.9584C50.2612 53.8232 49.7365 53.6099 49.2505 53.3249C44.706 50.4724 39.896 50.6036 35.6592 53.6787C34.8539 54.256 33.9246 55.5804 32.9827 54.3496C31.9482 53.0063 33.5518 52.4102 34.3717 51.8054C38.0705 49.0786 42.2411 48.4378 46.7962 49.2973ZM51.6299 51.8485C55.1194 52.6913 60.2452 49.7173 61.3013 46.2149C61.4345 45.8253 61.4828 45.4116 61.4429 45.0018C61.4029 44.592 61.2757 44.1956 61.0697 43.8391C60.8638 43.4826 60.5839 43.1744 60.2488 42.935C59.9138 42.6957 59.5314 42.5308 59.1274 42.4516C55.5747 41.5658 50.3382 44.7496 49.4918 48.3316C49.0572 50.1683 49.8105 51.4065 51.6299 51.8485Z" fill="white"/>
</g>
<path d="M51.6299 51.8485C49.7986 51.3919 49.0572 50.1684 49.4918 48.3316C50.3382 44.7496 55.5774 41.5549 59.1274 42.4517C59.5314 42.5309 59.9138 42.6958 60.2488 42.9351C60.5839 43.1744 60.8638 43.4827 61.0697 43.8392C61.2757 44.1957 61.4029 44.5921 61.4429 45.0018C61.4828 45.4116 61.4345 45.8253 61.3013 46.2149C60.2479 49.7064 55.1194 52.6913 51.6299 51.8485Z" fill="#3DACDB"/>
<defs>
<filter id="filter0_d_25_674" x="8.57227" y="19.7251" width="54.1382" height="40.0894" filterUnits="userSpaceOnUse" color-interpolation-filters="sRGB">
<feFlood flood-opacity="0" result="BackgroundImageFix"/>
<feColorMatrix in="SourceAlpha" type="matrix" values="0 0 0 0 0 0 0 0 0 0 0 0 0 0 0 0 0 0 127 0" result="hardAlpha"/>
<feOffset dy="4"/>
<feGaussianBlur stdDeviation="2"/>
<feComposite in2="hardAlpha" operator="out"/>
<feColorMatrix type="matrix" values="0 0 0 0 0.089323 0 0 0 0 0.489225 0 0 0 0 0.729167 0 0 0 0.6 0"/>
<feBlend mode="normal" in2="BackgroundImageFix" result="effect1_dropShadow_25_674"/>
<feBlend mode="normal" in="SourceGraphic" in2="effect1_dropShadow_25_674" result="shape"/>
</filter>
<filter id="filter1_d_25_674" x="28.646" y="40.0386" width="39.0718" height="22.8179" filterUnits="userSpaceOnUse" color-interpolation-filters="sRGB">
<feFlood flood-opacity="0" result="BackgroundImageFix"/>
<feColorMatrix in="SourceAlpha" type="matrix" values="0 0 0 0 0 0 0 0 0 0 0 0 0 0 0 0 0 0 127 0" result="hardAlpha"/>
<feOffset dy="4"/>
<feGaussianBlur stdDeviation="2"/>
<feComposite in2="hardAlpha" operator="out"/>
<feColorMatrix type="matrix" values="0 0 0 0 0.089323 0 0 0 0 0.489225 0 0 0 0 0.729167 0 0 0 0.6 0"/>
<feBlend mode="normal" in2="BackgroundImageFix" result="effect1_dropShadow_25_674"/>
<feBlend mode="normal" in="SourceGraphic" in2="effect1_dropShadow_25_674" result="shape"/>
</filter>
</defs>
</svg>
