<svg width="36" height="43" viewBox="0 0 36 43" fill="none" xmlns="http://www.w3.org/2000/svg">
<g filter="url(#filter0_d_40_2224)">
<path d="M10.4338 17.3763V4.92022C10.4338 3.36751 10.4374 1.81525 10.4297 0.261634C10.4297 0.0761948 10.4749 0.0210348 10.6654 0.0214871C13.772 0.0266131 16.8774 0.0266131 19.9815 0.0214871C23.3596 0.0214871 26.7364 0.0214871 30.112 0.0214871C30.4554 0.0214871 30.7906 0.0431847 31.0983 0.212341C31.7136 0.550654 31.9859 1.08663 31.9868 1.77502C31.9892 4.05094 31.9913 6.3267 31.9932 8.60232C31.9956 10.5387 31.9978 12.4753 31.9999 14.412C31.9999 17.2524 31.998 20.0929 31.9941 22.9336C31.9941 26.2718 31.9941 29.61 31.9941 32.9482C31.9941 33.6719 31.6995 34.2291 31.0395 34.5647C30.8225 34.6717 30.5829 34.7249 30.3409 34.7198C28.5394 34.7198 26.7381 34.7198 24.9368 34.7198C22.3731 34.7198 19.8107 34.7198 17.2494 34.7198C15.0778 34.7198 12.9073 34.7198 10.7378 34.7198C10.4175 34.7198 10.4324 34.78 10.4324 34.4204C10.4324 30.9613 10.4324 27.5023 10.4324 24.0435V17.3758L10.4338 17.3763ZM16.6006 19.1592V19.1615C17.3842 19.1615 18.1682 19.1665 18.9532 19.1574C19.1274 19.1574 19.1821 19.1981 19.1817 19.3795C19.1758 20.9241 19.1866 22.4682 19.1758 24.0127C19.1758 24.2601 19.2577 24.3144 19.4807 24.3126C20.4899 24.3054 21.4994 24.3066 22.5092 24.3162C22.715 24.3162 22.7571 24.2497 22.7562 24.058C22.749 22.5962 22.7521 21.1348 22.7517 19.6735C22.7542 19.6129 22.75 19.5522 22.739 19.4926C22.6648 19.1705 22.6748 19.1574 22.996 19.1574C24.5559 19.1574 26.1176 19.1574 27.6758 19.1624C27.8309 19.1624 27.902 19.142 27.8997 18.9588C27.8901 17.9119 27.8901 16.8649 27.8997 15.8177C27.8997 15.6305 27.8504 15.5803 27.6622 15.5812C26.1099 15.5884 24.5573 15.5812 23.005 15.5888C22.8042 15.5888 22.7557 15.5359 22.7566 15.3387C22.7639 13.7792 22.7566 12.2202 22.7621 10.6607C22.7621 10.4834 22.7168 10.4318 22.5359 10.4346C21.4884 10.4424 20.4409 10.4424 19.3934 10.4346C19.2233 10.4346 19.1762 10.483 19.1767 10.6512C19.1839 12.2107 19.1798 13.772 19.1889 15.3292C19.1889 15.5287 19.1477 15.5956 18.9328 15.5943C17.3729 15.5834 15.8112 15.5884 14.253 15.5852C14.1205 15.5852 14.0314 15.5816 14.0332 15.7661C14.0427 16.8363 14.0418 17.9059 14.0368 18.9774C14.0368 19.1294 14.087 19.1656 14.2309 19.1647C15.0181 19.1561 15.8094 19.1592 16.6006 19.1592Z" fill="white"/>
</g>
<g filter="url(#filter1_d_40_2224)">
<path d="M4 17.3878V7.17105C4 5.37064 4 3.56992 4 1.7689C4 0.711446 4.72115 -0.000910764 5.77437 0.00496901C6.91265 0.00919039 8.05062 0.00753817 9.1883 0C9.35207 0 9.39188 0.041616 9.39143 0.197656C9.38691 2.27819 9.38585 4.35782 9.38826 6.43655C9.38826 10.0531 9.38826 13.6696 9.38826 17.2861C9.38826 19.6968 9.38977 22.1077 9.39279 24.5187C9.39279 27.1799 9.39143 29.8409 9.38872 32.5016C9.38872 33.1873 9.38329 33.8729 9.39143 34.5586C9.39143 34.7151 9.35162 34.7612 9.19146 34.7603C8.03826 34.7535 6.88415 34.7576 5.7323 34.7567C4.7397 34.7567 4.00407 34.0231 4.00362 33.0312C4.00181 27.8929 4.0009 22.7543 4.0009 17.6154V17.3892L4 17.3878Z" fill="white"/>
</g>
<path d="M16.6008 19.1591C15.8095 19.1591 15.0174 19.1559 14.227 19.1623C14.0831 19.1623 14.032 19.127 14.0329 18.975C14.0379 17.9049 14.0388 16.8352 14.0293 15.7637C14.0293 15.5788 14.1166 15.5828 14.2492 15.5828C15.8091 15.586 17.3708 15.5828 18.9289 15.5919C19.1438 15.5919 19.1859 15.5263 19.185 15.3268C19.176 13.7674 19.18 12.2083 19.1728 10.6488C19.1728 10.4806 19.218 10.4308 19.3895 10.4322C20.437 10.4403 21.4845 10.4403 22.532 10.4322C22.7129 10.4322 22.7582 10.4824 22.7582 10.6583C22.7528 12.2178 22.7582 13.7768 22.7528 15.3363C22.7528 15.5335 22.8003 15.5874 23.0011 15.5864C24.5534 15.5779 26.1061 15.5865 27.6583 15.5788C27.8465 15.5788 27.8976 15.6281 27.8958 15.8153C27.8877 16.8625 27.8877 17.9096 27.8958 18.9565C27.8958 19.1397 27.827 19.1605 27.6719 19.16C26.1119 19.1546 24.5502 19.1564 22.9921 19.155C22.6709 19.155 22.6609 19.1681 22.7351 19.4902C22.7461 19.5498 22.7503 19.6105 22.7478 19.6711C22.7478 21.1324 22.7451 22.5938 22.7523 24.0556C22.7523 24.2473 22.7111 24.3161 22.5053 24.3138C21.4958 24.3027 20.4863 24.3015 19.4768 24.3102C19.2538 24.3102 19.1701 24.2578 19.1719 24.0103C19.1828 22.4658 19.1719 20.9217 19.1778 19.3771C19.1778 19.1962 19.1235 19.1532 18.9493 19.155C18.1657 19.1641 17.3817 19.1591 16.5968 19.1591H16.6008Z" fill="#F38B74"/>
<defs>
<filter id="filter0_d_40_2224" x="6.42969" y="0.0214844" width="29.5703" height="42.7021" filterUnits="userSpaceOnUse" color-interpolation-filters="sRGB">
<feFlood flood-opacity="0" result="BackgroundImageFix"/>
<feColorMatrix in="SourceAlpha" type="matrix" values="0 0 0 0 0 0 0 0 0 0 0 0 0 0 0 0 0 0 127 0" result="hardAlpha"/>
<feOffset dy="4"/>
<feGaussianBlur stdDeviation="2"/>
<feComposite in2="hardAlpha" operator="out"/>
<feColorMatrix type="matrix" values="0 0 0 0 0.695833 0 0 0 0 0.377158 0 0 0 0 0.322983 0 0 0 0.5 0"/>
<feBlend mode="normal" in2="BackgroundImageFix" result="effect1_dropShadow_40_2224"/>
<feBlend mode="normal" in="SourceGraphic" in2="effect1_dropShadow_40_2224" result="shape"/>
</filter>
<filter id="filter1_d_40_2224" x="0" y="0" width="13.3926" height="42.7603" filterUnits="userSpaceOnUse" color-interpolation-filters="sRGB">
<feFlood flood-opacity="0" result="BackgroundImageFix"/>
<feColorMatrix in="SourceAlpha" type="matrix" values="0 0 0 0 0 0 0 0 0 0 0 0 0 0 0 0 0 0 127 0" result="hardAlpha"/>
<feOffset dy="4"/>
<feGaussianBlur stdDeviation="2"/>
<feComposite in2="hardAlpha" operator="out"/>
<feColorMatrix type="matrix" values="0 0 0 0 0.695833 0 0 0 0 0.377158 0 0 0 0 0.322983 0 0 0 0.5 0"/>
<feBlend mode="normal" in2="BackgroundImageFix" result="effect1_dropShadow_40_2224"/>
<feBlend mode="normal" in="SourceGraphic" in2="effect1_dropShadow_40_2224" result="shape"/>
</filter>
</defs>
</svg>
