<svg width="46" height="49" viewBox="0 0 46 49" fill="none" xmlns="http://www.w3.org/2000/svg">
<g filter="url(#filter0_d_25_720)">
<path d="M25.7636 40.3162H18.9531C18.4099 40.3162 18.3267 40.1998 18.4819 39.6763C19.0181 37.8658 19.083 36.0554 18.4819 34.2559C17.8484 32.3541 16.5908 31.0128 14.7195 30.254C13.892 29.9187 13.1309 29.4779 12.5069 28.8371C11.0371 27.3297 10.7354 25.5011 11.0529 23.5096C11.0672 23.4191 11.0933 23.3301 11.1052 23.2396C11.1583 22.846 11.3071 22.5839 11.7546 22.4729C12.3477 22.3257 12.5679 21.729 12.2662 21.2323C12.1788 21.1029 12.0615 20.9963 11.9241 20.9214C11.456 20.6506 11.2303 20.2618 11.3911 19.7407C11.6334 18.9535 11.4346 18.3734 10.7164 17.9247C10.3077 17.6696 9.96168 17.3115 9.59581 16.9911C8.97495 16.448 8.86408 15.7443 9.31943 15.0539C9.50221 14.7821 9.72208 14.5367 9.97276 14.325C11.6669 12.8834 13.369 11.4518 15.0791 10.0302C15.2581 9.88914 15.4061 9.71287 15.5136 9.51243C15.6211 9.31199 15.6858 9.09169 15.7039 8.86525C16.179 4.76257 19.0355 1.36363 22.9103 0.319063C23.6111 0.135858 24.3319 0.0390848 25.0564 0.0309501C26.7702 0.00418661 28.4926 -0.0438317 30.1984 0.0884113C33.3661 0.334005 35.9105 1.79891 37.8752 4.27531C42.7923 10.4687 43.3751 18.8937 39.2896 25.6617C38.6783 26.6732 37.8436 27.5588 37.0619 28.4601C35.1312 30.6869 33.6844 33.1736 32.8466 35.9987C32.4546 37.3227 32.4506 38.6404 32.9978 39.9274C33.1562 40.2926 32.982 40.321 32.6882 40.321C30.3789 40.3173 28.0697 40.3173 25.7605 40.321L25.7636 40.3162ZM26.4193 20.7876C26.7586 20.7991 27.0887 20.6766 27.3374 20.447C27.5861 20.2173 27.7332 19.8992 27.7466 19.562C27.764 18.8669 27.2841 18.286 26.6862 18.2781C25.7921 18.2663 25.2172 18.7583 25.2077 19.5447C25.1974 20.2917 25.6646 20.7703 26.4193 20.7876ZM23.0022 26.77C23.7569 26.77 24.2598 26.2544 24.2503 25.4995C24.2453 25.1688 24.1096 24.8533 23.8725 24.6212C23.6354 24.389 23.316 24.2589 22.9832 24.259C22.6506 24.2604 22.3318 24.3918 22.0958 24.6248C21.8598 24.8577 21.7254 25.1736 21.7217 25.5042C21.7204 25.6716 21.7527 25.8375 21.8166 25.9923C21.8806 26.147 21.9749 26.2876 22.0941 26.4057C22.2134 26.5238 22.3551 26.6172 22.511 26.6803C22.6669 26.7434 22.8339 26.7749 23.0022 26.7732V26.77ZM27.4251 12.6798C27.4251 11.9297 26.8779 11.3543 26.158 11.3511C25.4841 11.3511 24.8791 11.9084 24.8799 12.5319C24.8799 13.282 25.4287 13.8574 26.1469 13.8606C26.8208 13.8669 27.4251 13.308 27.4251 12.6814V12.6798ZM23.3071 10.9174C23.3016 10.2782 22.8193 9.78071 22.1984 9.77598C21.5926 9.77126 21.0676 10.2751 21.0771 10.8521C21.0768 10.9992 21.1058 11.1448 21.1623 11.2808C21.2188 11.4167 21.3018 11.5403 21.4064 11.6443C21.511 11.7483 21.6352 11.8308 21.7719 11.8871C21.9086 11.9434 22.0552 11.9723 22.2032 11.9722C22.8019 11.9667 23.3134 11.4763 23.3087 10.9189L23.3071 10.9174ZM21.4065 16.5905C21.4118 16.2935 21.2992 16.0063 21.093 15.7913C20.8868 15.5764 20.6036 15.4508 20.3049 15.442C19.7252 15.4325 19.1796 15.9292 19.1709 16.4724C19.1658 16.6228 19.191 16.7726 19.245 16.9132C19.299 17.0537 19.3807 17.1821 19.4853 17.2909C19.5899 17.3996 19.7153 17.4865 19.8542 17.5464C19.993 17.6063 20.1425 17.6381 20.2938 17.6398C20.8815 17.6398 21.4017 17.1517 21.4097 16.592L21.4065 16.5905ZM31.2263 20.3397C31.2242 20.0422 31.1038 19.7576 30.8913 19.548C30.6788 19.3384 30.3916 19.2209 30.0923 19.2211C29.5316 19.2306 28.9883 19.7336 28.9836 20.2445C28.978 20.8907 29.4833 21.4189 30.1049 21.4165C30.7266 21.4142 31.2374 20.923 31.2295 20.3413L31.2263 20.3397ZM19.6564 22.0549C19.3633 22.0564 19.0827 22.1731 18.876 22.3796C18.6693 22.5861 18.5532 22.8656 18.5532 23.1569C18.5543 23.4485 18.6715 23.7278 18.8793 23.9337C19.0871 24.1395 19.3685 24.2551 19.6619 24.2551C19.9554 24.2534 20.2365 24.1367 20.444 23.9304C20.6516 23.7241 20.7689 23.4448 20.7706 23.153C20.766 22.8623 20.6473 22.5848 20.4397 22.3799C20.2321 22.175 19.9521 22.0589 19.6595 22.0565L19.6564 22.0549ZM25.1847 10.083C25.6924 10.0917 26.143 9.67523 26.1517 9.19034C26.1611 8.93929 26.0702 8.69473 25.8988 8.51007C25.7275 8.32541 25.4895 8.21566 25.237 8.20481C24.712 8.18592 24.2503 8.61259 24.2503 9.11559C24.2456 9.3676 24.3417 9.61116 24.5175 9.79282C24.6933 9.97448 24.9344 10.0794 25.1879 10.0846L25.1847 10.083ZM29.6329 16.9974C29.6263 16.746 29.5196 16.5075 29.3362 16.3343C29.1529 16.161 28.9078 16.0671 28.6549 16.0733C28.1481 16.0898 27.7189 16.5228 27.7276 17.0092C27.7329 17.2601 27.8364 17.4991 28.016 17.6754C28.1956 17.8518 28.4373 17.9516 28.6898 17.9538C28.8151 17.9533 28.9391 17.9282 29.0546 17.8798C29.1701 17.8315 29.2749 17.7609 29.3628 17.6722C29.4508 17.5834 29.5202 17.4782 29.5671 17.3627C29.614 17.2472 29.6375 17.1236 29.6361 16.999L29.6329 16.9974ZM20.4467 26.4685C20.4467 26.2175 20.3467 25.9767 20.1687 25.7987C19.9906 25.6206 19.7489 25.5199 19.4964 25.5184C19.2443 25.5217 19.0038 25.6238 18.827 25.8025C18.6502 25.9811 18.5516 26.2219 18.5524 26.4725C18.5574 26.7163 18.6566 26.9488 18.8294 27.1218C19.0022 27.2949 19.2353 27.3953 19.4805 27.4021C19.7332 27.4059 19.9771 27.3099 20.1587 27.1352C20.3403 26.9605 20.4447 26.7213 20.4491 26.4701L20.4467 26.4685Z" fill="white"/>
</g>
<g filter="url(#filter1_d_25_720)">
<path d="M8.15301 17.7034C8.28447 18.234 8.42306 18.7638 8.54897 19.2967C8.62262 19.6115 8.72003 19.9351 8.72478 20.2562C8.73507 20.9647 8.25834 21.422 7.57016 21.4236C6.75211 21.4236 6.20727 20.9513 6.2041 20.22C6.2041 19.4234 6.56759 18.7583 7.00869 18.1277C7.20429 17.8483 7.40465 17.5697 7.62322 17.3107C7.723 17.1926 7.87901 17.1226 8.00968 17.0312C8.08332 17.1847 8.1641 17.3351 8.22666 17.4925C8.2367 17.5572 8.23455 17.6231 8.22033 17.6869L8.15301 17.7034Z" fill="white"/>
</g>
<g filter="url(#filter2_d_25_720)">
<path d="M5.44629 22.0398C5.56429 22.5609 5.68387 23.0812 5.79632 23.6047C5.84822 23.8202 5.87479 24.0411 5.87551 24.2627C5.85888 24.8279 5.51519 25.1916 5.02262 25.201C4.45402 25.2112 4.00659 24.8476 4.00104 24.284C3.99055 23.9067 4.05933 23.5313 4.20298 23.1819C4.45244 22.6246 4.79454 22.1075 5.10814 21.5801C5.14695 21.5139 5.27999 21.4305 5.31721 21.4502C5.40039 21.5026 5.46041 21.5845 5.4851 21.6793C5.50179 21.7956 5.50418 21.9135 5.49223 22.0303L5.44629 22.0398Z" fill="white"/>
</g>
<g filter="url(#filter3_d_25_720)">
<path d="M6.518 25.6823C6.518 24.9943 6.90683 24.2552 7.21726 23.4932C7.24577 23.4232 7.34872 23.3358 7.41207 23.3405C7.47543 23.3452 7.56571 23.4397 7.59263 23.5137C7.85238 24.2371 8.12322 24.9589 8.34892 25.6933C8.60866 26.5387 8.08917 27.2039 7.29883 27.0827C6.78012 27.0024 6.50533 26.5695 6.518 25.6823Z" fill="white"/>
</g>
<path d="M26.4188 20.7875C25.6641 20.7702 25.1969 20.2916 25.2072 19.5446C25.2167 18.7574 25.7916 18.2662 26.6857 18.278C27.2836 18.2859 27.7635 18.8668 27.7461 19.5619C27.7327 19.8991 27.5856 20.2172 27.3369 20.4469C27.0881 20.6765 26.7581 20.799 26.4188 20.7875ZM27.1031 19.5139C27.1031 19.1864 26.8164 18.9235 26.4561 18.9188C26.3743 18.9179 26.2932 18.9334 26.2176 18.9642C26.1419 18.9951 26.0733 19.0407 26.0157 19.0984C25.9581 19.1561 25.9127 19.2247 25.8823 19.3001C25.8518 19.3755 25.8369 19.4562 25.8384 19.5375C25.8395 19.7021 25.905 19.8598 26.021 19.9774C26.137 20.0949 26.2944 20.1629 26.46 20.1672C26.5456 20.1671 26.6304 20.1501 26.7093 20.117C26.7882 20.084 26.8597 20.0356 26.9196 19.9748C26.9795 19.9139 27.0265 19.8418 27.058 19.7627C27.0895 19.6835 27.1048 19.599 27.1031 19.5139Z" fill="#47B3DE"/>
<path d="M23.0024 26.7732C22.8344 26.7749 22.6678 26.7434 22.5122 26.6804C22.3566 26.6175 22.2151 26.5244 22.096 26.4066C21.9769 26.2889 21.8826 26.1487 21.8185 25.9943C21.7544 25.84 21.7218 25.6745 21.7227 25.5075C21.7264 25.1769 21.8608 24.861 22.0968 24.628C22.3328 24.395 22.6516 24.2636 22.9842 24.2622C23.317 24.2622 23.6364 24.3923 23.8735 24.6244C24.1106 24.8565 24.2463 25.172 24.2513 25.5028C24.26 26.2576 23.7571 26.7693 23.0024 26.7732ZM22.3546 25.4878C22.3468 25.6525 22.4043 25.8138 22.5148 25.9368C22.6252 26.0599 22.7798 26.1349 22.9454 26.1459C23.1107 26.1539 23.2728 26.0982 23.3979 25.9905C23.523 25.8827 23.6014 25.7311 23.6169 25.5673C23.6235 25.4826 23.6128 25.3975 23.5854 25.317C23.558 25.2366 23.5145 25.1625 23.4575 25.0991C23.4006 25.0358 23.3313 24.9846 23.2539 24.9486C23.1765 24.9126 23.0926 24.8925 23.0072 24.8896C22.8412 24.8844 22.6799 24.9442 22.5579 25.0561C22.4358 25.168 22.3628 25.323 22.3546 25.4878Z" fill="#47B3DE"/>
<path d="M27.4253 12.6813C27.4253 13.311 26.8211 13.8667 26.1479 13.862C25.4312 13.862 24.8809 13.2835 24.8809 12.5333C24.8809 11.9083 25.4851 11.3486 26.159 11.3526C26.8781 11.3557 27.4261 11.9311 27.4253 12.6813ZM25.5247 12.6089C25.5247 12.7743 25.5901 12.933 25.7069 13.0508C25.8236 13.1687 25.9823 13.2361 26.1487 13.2386C26.3145 13.2403 26.4743 13.1774 26.5939 13.0634C26.7135 12.9493 26.7834 12.7932 26.7886 12.6285C26.7908 12.5437 26.7758 12.4592 26.7444 12.3803C26.7129 12.3013 26.6658 12.2295 26.6057 12.1691C26.5456 12.1088 26.4739 12.0611 26.3948 12.0289C26.3158 11.9968 26.231 11.981 26.1456 11.9823C25.9799 11.985 25.8218 12.052 25.7053 12.1692C25.5888 12.2863 25.5231 12.4442 25.5223 12.6089H25.5247Z" fill="#47B3DE"/>
<path d="M23.3088 10.9188C23.3136 11.4761 22.802 11.9665 22.2073 11.9736C22.0593 11.9737 21.9128 11.9448 21.776 11.8885C21.6393 11.8322 21.5151 11.7497 21.4105 11.6457C21.3059 11.5417 21.223 11.4181 21.1665 11.2822C21.11 11.1462 21.081 11.0005 21.0812 10.8535C21.0717 10.2765 21.5967 9.77265 22.2025 9.77738C22.821 9.7821 23.3033 10.2835 23.3088 10.9188ZM22.6753 10.8771C22.6381 10.5976 22.4971 10.411 22.2002 10.4118C21.9032 10.4126 21.7345 10.5874 21.7321 10.8747C21.7298 11.162 21.9008 11.3399 22.1946 11.3399C22.4884 11.3399 22.6357 11.162 22.6721 10.8771H22.6753Z" fill="#47B3DE"/>
<path d="M21.41 16.592C21.4021 17.1517 20.885 17.6397 20.3013 17.6413C20.15 17.6396 20.0005 17.6078 19.8616 17.5479C19.7228 17.488 19.5974 17.4011 19.4928 17.2924C19.3882 17.1837 19.3065 17.0552 19.2525 16.9147C19.1985 16.7741 19.1733 16.6243 19.1784 16.4739C19.1871 15.9308 19.7327 15.434 20.3124 15.4435C20.6104 15.4534 20.8925 15.5793 21.0979 15.7942C21.3033 16.0091 21.4154 16.2957 21.41 16.592ZM20.3013 17.0202C20.5508 16.9801 20.7551 16.8549 20.759 16.5589C20.763 16.263 20.6007 16.0866 20.3076 16.0795C20.0146 16.0724 19.838 16.2425 19.8262 16.5298C19.8143 16.8171 19.9917 16.9745 20.3029 17.0202H20.3013Z" fill="#47B3DE"/>
<path d="M31.2291 20.3411C31.237 20.9228 30.7231 21.4172 30.1077 21.4195C29.4924 21.4219 28.9808 20.8937 28.9864 20.2474C28.9911 19.735 29.5344 19.232 30.0951 19.2241C30.3941 19.2239 30.6811 19.3412 30.8936 19.5504C31.106 19.7596 31.2266 20.0439 31.2291 20.3411ZM30.5797 20.312C30.5615 20.0333 30.4071 19.8593 30.1109 19.8578C29.8361 19.8578 29.6635 20.0152 29.6508 20.2915C29.6365 20.5875 29.8044 20.7717 30.0974 20.7788C30.3904 20.7858 30.5631 20.6323 30.5797 20.312Z" fill="#47B3DE"/>
<path d="M19.6595 22.0566C19.9517 22.0597 20.2312 22.1761 20.4384 22.3811C20.6455 22.5861 20.7638 22.8634 20.7682 23.1539C20.7665 23.4457 20.6491 23.7251 20.4416 23.9314C20.234 24.1377 19.953 24.2543 19.6595 24.256C19.3661 24.256 19.0847 24.1404 18.8769 23.9346C18.6691 23.7287 18.5518 23.4495 18.5508 23.1579C18.551 22.8657 18.6679 22.5856 18.8758 22.3791C19.0837 22.1726 19.3656 22.0566 19.6595 22.0566ZM19.6595 22.6816C19.3696 22.7163 19.1891 22.8658 19.1938 23.1587C19.1986 23.4515 19.368 23.6215 19.6634 23.6199C19.9588 23.6184 20.1267 23.4405 20.1275 23.1539C20.1283 22.8674 19.939 22.721 19.6595 22.6816Z" fill="#47B3DE"/>
<path d="M25.188 10.0845C24.9346 10.0791 24.6937 9.97408 24.5181 9.79244C24.3425 9.6108 24.2465 9.36735 24.2511 9.11547C24.2511 8.61248 24.7128 8.18581 25.2379 8.20471C25.4911 8.21494 25.7299 8.32466 25.9018 8.50973C26.0738 8.6948 26.1648 8.94009 26.1549 9.19181C26.1462 9.6767 25.6956 10.0931 25.188 10.0845ZM25.2054 9.58224C25.3495 9.38702 25.5127 9.25952 25.4953 9.16663C25.4715 9.04226 25.3068 8.94385 25.203 8.83443C25.1001 8.94464 24.9362 9.04384 24.9132 9.16821C24.8958 9.26031 25.0597 9.38781 25.2054 9.58224Z" fill="#47B3DE"/>
<path d="M29.636 16.9992C29.6378 17.1238 29.6149 17.2476 29.5684 17.3634C29.522 17.4792 29.4529 17.5847 29.3652 17.6738C29.2775 17.7629 29.173 17.8339 29.0576 17.8827C28.9422 17.9314 28.8182 17.957 28.6928 17.958C28.4403 17.9558 28.1987 17.8559 28.019 17.6795C27.8394 17.5032 27.7359 17.2643 27.7306 17.0134C27.7219 16.5269 28.1511 16.094 28.6579 16.0774C28.9105 16.0713 29.1551 16.1648 29.3384 16.3376C29.5217 16.5103 29.6287 16.7482 29.636 16.9992ZM29.1402 17.0236C28.9335 16.8725 28.8052 16.7087 28.7102 16.7276C28.5851 16.7496 28.4861 16.9142 28.376 17.0173C28.4734 17.1196 28.5677 17.3007 28.6698 17.3054C28.7918 17.3101 28.9201 17.1645 29.1402 17.0236Z" fill="#47B3DE"/>
<path d="M20.4493 26.4701C20.4454 26.7209 20.3417 26.9599 20.1609 27.1348C19.9802 27.3098 19.7371 27.4064 19.4848 27.4037C19.2396 27.3969 19.0064 27.2965 18.8336 27.1234C18.6608 26.9504 18.5616 26.7179 18.5566 26.4741C18.5558 26.2235 18.6545 25.9827 18.8312 25.8041C19.008 25.6254 19.2486 25.5233 19.5006 25.52C19.7529 25.5219 19.9942 25.6228 20.1719 25.8008C20.3496 25.9788 20.4493 26.2193 20.4493 26.4701ZM19.9465 26.456C19.7461 26.3143 19.6154 26.1521 19.522 26.1702C19.3961 26.1954 19.2987 26.3615 19.1886 26.4662C19.3011 26.5685 19.4032 26.7315 19.5299 26.7535C19.6242 26.77 19.7509 26.6039 19.9465 26.456Z" fill="#47B3DE"/>
<path d="M27.1037 19.5138C27.105 19.5986 27.0894 19.6829 27.0577 19.7616C27.026 19.8404 26.9789 19.9122 26.919 19.9727C26.8592 20.0332 26.7879 20.0813 26.7092 20.1141C26.6305 20.1469 26.546 20.1639 26.4606 20.164C26.2951 20.1597 26.1376 20.0916 26.0217 19.9741C25.9057 19.8566 25.8401 19.6989 25.839 19.5343C25.8375 19.453 25.8524 19.3723 25.8829 19.2968C25.9133 19.2214 25.9587 19.1529 26.0163 19.0952C26.0739 19.0375 26.1425 18.9918 26.2182 18.961C26.2938 18.9301 26.3749 18.9147 26.4567 18.9156C26.8209 18.9234 27.1029 19.1863 27.1037 19.5138Z" fill="white"/>
<path d="M22.3542 25.4877C22.3624 25.3229 22.4354 25.1679 22.5575 25.056C22.6795 24.9441 22.8408 24.8843 23.0068 24.8895C23.0922 24.8924 23.1761 24.9125 23.2535 24.9485C23.3309 24.9845 23.4002 25.0357 23.4571 25.0991C23.5141 25.1624 23.5576 25.2365 23.585 25.3169C23.6124 25.3974 23.6231 25.4825 23.6165 25.5672C23.601 25.7311 23.5226 25.8826 23.3975 25.9904C23.2724 26.0981 23.1103 26.1538 22.945 26.1458C22.7794 26.1348 22.6248 26.0598 22.5144 25.9367C22.4039 25.8137 22.3464 25.6524 22.3542 25.4877Z" fill="white"/>
<path d="M25.5225 12.6088C25.5224 12.444 25.5874 12.2857 25.7035 12.1679C25.8196 12.0502 25.9775 11.9824 26.1433 11.9791C26.2287 11.9778 26.3135 11.9936 26.3926 12.0257C26.4717 12.0578 26.5434 12.1055 26.6035 12.1659C26.6635 12.2263 26.7107 12.2981 26.7421 12.377C26.7736 12.456 26.7886 12.5405 26.7864 12.6253C26.7812 12.79 26.7113 12.9461 26.5917 13.0602C26.4721 13.1742 26.3122 13.2371 26.1465 13.2354C25.9807 13.2329 25.8224 13.1659 25.7058 13.0487C25.5891 12.9316 25.5233 12.7737 25.5225 12.6088Z" fill="white"/>
<path d="M22.6717 10.8773C22.6353 11.1623 22.4841 11.3402 22.191 11.3402C21.898 11.3402 21.7254 11.1646 21.7286 10.875C21.7317 10.5853 21.9028 10.4129 22.1966 10.4121C22.4904 10.4113 22.6345 10.5987 22.6717 10.8773Z" fill="white"/>
<path d="M20.3029 17.02C19.9916 16.9767 19.8158 16.8217 19.8277 16.5296C19.8396 16.2376 20.0162 16.0715 20.3092 16.0794C20.6022 16.0872 20.7653 16.2722 20.7606 16.5588C20.7558 16.8453 20.5523 16.9799 20.3029 17.02Z" fill="white"/>
<path d="M30.5801 20.3121C30.5635 20.6325 30.3821 20.7844 30.0978 20.7789C29.8135 20.7734 29.6369 20.5876 29.6512 20.2917C29.6639 20.0154 29.8365 19.8563 30.1113 19.8579C30.4075 19.8595 30.5619 20.0335 30.5801 20.3121Z" fill="white"/>
<path d="M19.6601 22.6816C19.9396 22.7171 20.1281 22.8611 20.1281 23.1539C20.1281 23.4468 19.9586 23.6184 19.664 23.6199C19.3694 23.6215 19.1992 23.446 19.1944 23.1587C19.1897 22.8714 19.3702 22.7163 19.6601 22.6816Z" fill="white"/>
<path d="M25.2056 9.58228C25.0599 9.38785 24.896 9.26113 24.9134 9.16825C24.9364 9.04388 25.1003 8.94468 25.2032 8.83447C25.307 8.94389 25.4717 9.0423 25.4954 9.16667C25.5129 9.26034 25.3497 9.38706 25.2056 9.58228Z" fill="white"/>
<path d="M29.1412 17.0233C28.921 17.1642 28.7927 17.3099 28.6708 17.3052C28.5686 17.3004 28.4744 17.1194 28.377 17.017C28.487 16.9139 28.586 16.7494 28.7111 16.7273C28.8062 16.71 28.9345 16.8722 29.1412 17.0233Z" fill="white"/>
<path d="M19.9463 26.4561C19.7507 26.6041 19.624 26.771 19.5298 26.7536C19.4031 26.7316 19.3009 26.5687 19.1885 26.4663C19.2986 26.3616 19.396 26.1955 19.5219 26.1703C19.6145 26.1522 19.746 26.3144 19.9463 26.4561Z" fill="white"/>
<defs>
<filter id="filter0_d_25_720" x="5.04102" y="0" width="40.959" height="48.3208" filterUnits="userSpaceOnUse" color-interpolation-filters="sRGB">
<feFlood flood-opacity="0" result="BackgroundImageFix"/>
<feColorMatrix in="SourceAlpha" type="matrix" values="0 0 0 0 0 0 0 0 0 0 0 0 0 0 0 0 0 0 127 0" result="hardAlpha"/>
<feOffset dy="4"/>
<feGaussianBlur stdDeviation="2"/>
<feComposite in2="hardAlpha" operator="out"/>
<feColorMatrix type="matrix" values="0 0 0 0 0.089323 0 0 0 0 0.489225 0 0 0 0 0.729167 0 0 0 0.6 0"/>
<feBlend mode="normal" in2="BackgroundImageFix" result="effect1_dropShadow_25_720"/>
<feBlend mode="normal" in="SourceGraphic" in2="effect1_dropShadow_25_720" result="shape"/>
</filter>
<filter id="filter1_d_25_720" x="2.2041" y="17.0312" width="10.521" height="12.3926" filterUnits="userSpaceOnUse" color-interpolation-filters="sRGB">
<feFlood flood-opacity="0" result="BackgroundImageFix"/>
<feColorMatrix in="SourceAlpha" type="matrix" values="0 0 0 0 0 0 0 0 0 0 0 0 0 0 0 0 0 0 127 0" result="hardAlpha"/>
<feOffset dy="4"/>
<feGaussianBlur stdDeviation="2"/>
<feComposite in2="hardAlpha" operator="out"/>
<feColorMatrix type="matrix" values="0 0 0 0 0.089323 0 0 0 0 0.489225 0 0 0 0 0.729167 0 0 0 0.6 0"/>
<feBlend mode="normal" in2="BackgroundImageFix" result="effect1_dropShadow_25_720"/>
<feBlend mode="normal" in="SourceGraphic" in2="effect1_dropShadow_25_720" result="shape"/>
</filter>
<filter id="filter2_d_25_720" x="0" y="21.4473" width="9.87549" height="11.7539" filterUnits="userSpaceOnUse" color-interpolation-filters="sRGB">
<feFlood flood-opacity="0" result="BackgroundImageFix"/>
<feColorMatrix in="SourceAlpha" type="matrix" values="0 0 0 0 0 0 0 0 0 0 0 0 0 0 0 0 0 0 127 0" result="hardAlpha"/>
<feOffset dy="4"/>
<feGaussianBlur stdDeviation="2"/>
<feComposite in2="hardAlpha" operator="out"/>
<feColorMatrix type="matrix" values="0 0 0 0 0.089323 0 0 0 0 0.489225 0 0 0 0 0.729167 0 0 0 0.6 0"/>
<feBlend mode="normal" in2="BackgroundImageFix" result="effect1_dropShadow_25_720"/>
<feBlend mode="normal" in="SourceGraphic" in2="effect1_dropShadow_25_720" result="shape"/>
</filter>
<filter id="filter3_d_25_720" x="2.51758" y="23.3403" width="9.89893" height="11.7568" filterUnits="userSpaceOnUse" color-interpolation-filters="sRGB">
<feFlood flood-opacity="0" result="BackgroundImageFix"/>
<feColorMatrix in="SourceAlpha" type="matrix" values="0 0 0 0 0 0 0 0 0 0 0 0 0 0 0 0 0 0 127 0" result="hardAlpha"/>
<feOffset dy="4"/>
<feGaussianBlur stdDeviation="2"/>
<feComposite in2="hardAlpha" operator="out"/>
<feColorMatrix type="matrix" values="0 0 0 0 0.089323 0 0 0 0 0.489225 0 0 0 0 0.729167 0 0 0 0.6 0"/>
<feBlend mode="normal" in2="BackgroundImageFix" result="effect1_dropShadow_25_720"/>
<feBlend mode="normal" in="SourceGraphic" in2="effect1_dropShadow_25_720" result="shape"/>
</filter>
</defs>
</svg>
