<svg width="39" height="39" viewBox="0 0 39 39" fill="none" xmlns="http://www.w3.org/2000/svg">
<g filter="url(#filter0_d_25_745)">
<path d="M13.6944 0H25.3281C25.3281 1.00752 25.3042 1.98273 25.3281 2.95091C25.373 4.46149 26.4986 5.62776 28.0204 5.78374C29.3371 5.92426 30.776 4.92659 31.0331 3.55793C31.1919 2.71481 31.1104 1.83233 31.1343 0.96813C31.1343 0.78686 31.1343 0.604226 31.1343 0.413119C32.9512 0.834678 34.6571 2.84406 34.9073 4.82679C34.9665 5.29284 34.996 5.76219 34.9958 6.23199C35.0014 12.3933 35.0014 18.5546 34.9958 24.7159C34.9958 28.5226 32.5718 30.9452 28.7637 30.9452C22.5069 30.9452 16.25 30.9452 9.99316 30.9452C7.10127 30.9452 4.82907 29.2055 4.17987 26.4991C4.06251 25.9743 4.00592 25.4378 4.01123 24.9C3.99999 18.5045 3.99719 12.109 4.00281 5.71348C4.00281 3.33589 5.60192 1.0932 7.87833 0.373735C7.87833 1.27868 7.84742 2.15276 7.87833 3.02398C7.91287 3.74524 8.21406 4.4279 8.72348 4.93966C9.23289 5.45142 9.91424 5.75578 10.6353 5.79362C11.9675 5.88636 13.3769 4.86196 13.6003 3.49892C13.7408 2.65581 13.6621 1.77054 13.679 0.904937C13.6987 0.626709 13.6944 0.348488 13.6944 0ZM7.88396 9.65084V10.3956C7.88396 15.1733 7.88396 19.951 7.88396 24.7286C7.88396 26.398 8.55986 27.0767 10.2194 27.0767C16.4023 27.0767 22.5889 27.0767 28.7792 27.0767C30.4331 27.0767 31.1371 26.3811 31.1385 24.7454C31.1385 19.9425 31.1385 15.14 31.1385 10.338C31.1385 10.1146 31.1146 9.88975 31.0992 9.64665L7.88396 9.65084Z" fill="white"/>
</g>
<path d="M27.2972 0.00830078H29.1605C29.1605 1.02426 29.1858 1.99948 29.1507 2.97328C29.131 3.53535 28.7291 3.81642 28.2106 3.80658C27.6921 3.79674 27.3169 3.50022 27.3042 2.93815C27.2888 1.98542 27.2972 1.02566 27.2972 0.00830078Z" fill="white"/>
<path d="M9.86388 0.00683594H11.7159C11.7159 1.0242 11.7454 2.01906 11.7033 3.01113C11.6822 3.52543 11.2902 3.80368 10.8012 3.8093C10.3121 3.81492 9.90182 3.55493 9.87793 3.03782C9.83296 2.04294 9.86388 1.04527 9.86388 0.00683594Z" fill="white"/>
<path d="M7.88379 9.65088H31.099C31.1145 9.89398 31.1384 10.1188 31.1384 10.3422C31.1384 15.1452 31.1384 19.9477 31.1384 24.7497C31.1384 26.3854 30.4358 27.0809 28.779 27.0809C22.5962 27.0809 16.4096 27.0809 10.2192 27.0809C8.55969 27.0809 7.88379 26.4022 7.88379 24.7328C7.88379 19.9552 7.88379 15.1775 7.88379 10.3999V9.65088ZM11.8183 13.5784V17.3261H15.5969V13.5841L11.8183 13.5784ZM27.215 13.5784H23.4126V17.3261H27.215V13.5784ZM17.6358 19.3482V23.1422H21.368V19.3482H17.6358ZM21.3666 17.3359V13.5967H17.6513V17.3359H21.3666ZM11.8492 19.3439V23.1253H15.5857V19.3439H11.8492ZM27.1799 23.1379V19.3594H23.4224V23.1379H27.1799Z" fill="#51B9E2"/>
<path d="M11.8184 13.5781H15.5969V17.3258H11.8184V13.5781Z" fill="white"/>
<path d="M27.2146 13.5796V17.3259H23.4121V13.5852L27.2146 13.5796Z" fill="white"/>
<path d="M17.6367 19.3496H21.3689V23.1436H17.6367V19.3496Z" fill="white"/>
<path d="M21.3667 17.3369H17.6514V13.5977H21.3667V17.3369Z" fill="white"/>
<path d="M11.8496 19.3452H15.586V23.1265H11.8496V19.3452Z" fill="white"/>
<path d="M27.1803 23.135H23.4229V19.3564H27.1803V23.135Z" fill="white"/>
<defs>
<filter id="filter0_d_25_745" x="0" y="0" width="39" height="38.9453" filterUnits="userSpaceOnUse" color-interpolation-filters="sRGB">
<feFlood flood-opacity="0" result="BackgroundImageFix"/>
<feColorMatrix in="SourceAlpha" type="matrix" values="0 0 0 0 0 0 0 0 0 0 0 0 0 0 0 0 0 0 127 0" result="hardAlpha"/>
<feOffset dy="4"/>
<feGaussianBlur stdDeviation="2"/>
<feComposite in2="hardAlpha" operator="out"/>
<feColorMatrix type="matrix" values="0 0 0 0 0.089323 0 0 0 0 0.489225 0 0 0 0 0.729167 0 0 0 0.6 0"/>
<feBlend mode="normal" in2="BackgroundImageFix" result="effect1_dropShadow_25_745"/>
<feBlend mode="normal" in="SourceGraphic" in2="effect1_dropShadow_25_745" result="shape"/>
</filter>
</defs>
</svg>
