<svg width="31" height="31" viewBox="0 0 31 31" fill="none" xmlns="http://www.w3.org/2000/svg">
<path d="M9.69444 0H21.3281C21.3281 1.00752 21.3042 1.98273 21.3281 2.95091C21.373 4.46149 22.4986 5.62776 24.0204 5.78374C25.3371 5.92426 26.776 4.92659 27.0331 3.55793C27.1919 2.71481 27.1104 1.83233 27.1343 0.96813C27.1343 0.78686 27.1343 0.604226 27.1343 0.413119C28.9512 0.834678 30.6571 2.84406 30.9073 4.82679C30.9665 5.29284 30.996 5.76219 30.9958 6.23199C31.0014 12.3933 31.0014 18.5546 30.9958 24.7159C30.9958 28.5226 28.5718 30.9452 24.7637 30.9452C18.5069 30.9452 12.25 30.9452 5.99316 30.9452C3.10127 30.9452 0.829069 29.2055 0.179869 26.4991C0.0625141 25.9743 0.00592393 25.4378 0.011235 24.9C-6.60522e-06 18.5045 -0.00280808 12.109 0.0028127 5.71348C0.0028127 3.33589 1.60192 1.0932 3.87833 0.373735C3.87833 1.27868 3.84742 2.15276 3.87833 3.02398C3.91287 3.74524 4.21406 4.4279 4.72348 4.93966C5.23289 5.45142 5.91424 5.75578 6.63533 5.79362C7.96745 5.88636 9.37686 4.86196 9.60028 3.49892C9.7408 2.65581 9.66212 1.77054 9.67898 0.904937C9.69866 0.626709 9.69444 0.348488 9.69444 0ZM3.88396 9.65084V10.3956C3.88396 15.1733 3.88396 19.951 3.88396 24.7286C3.88396 26.398 4.55986 27.0767 6.21939 27.0767C12.4023 27.0767 18.5889 27.0767 24.7792 27.0767C26.4331 27.0767 27.1371 26.3811 27.1385 24.7454C27.1385 19.9425 27.1385 15.14 27.1385 10.338C27.1385 10.1146 27.1146 9.88975 27.0992 9.64665L3.88396 9.65084Z" fill="white"/>
<path d="M23.2972 0.00830078H25.1605C25.1605 1.02426 25.1858 1.99948 25.1507 2.97328C25.131 3.53535 24.7291 3.81642 24.2106 3.80658C23.6921 3.79674 23.3169 3.50022 23.3042 2.93815C23.2888 1.98542 23.2972 1.02566 23.2972 0.00830078Z" fill="white"/>
<path d="M5.86388 0.00683594H7.71593C7.71593 1.0242 7.74543 2.01906 7.70328 3.01113C7.6822 3.52543 7.29016 3.80368 6.80115 3.8093C6.31214 3.81492 5.90182 3.55493 5.87793 3.03782C5.83296 2.04294 5.86388 1.04527 5.86388 0.00683594Z" fill="white"/>
<path d="M3.88379 9.65088H27.099C27.1145 9.89398 27.1384 10.1188 27.1384 10.3422C27.1384 15.1452 27.1384 19.9477 27.1384 24.7497C27.1384 26.3854 26.4358 27.0809 24.779 27.0809C18.5962 27.0809 12.4096 27.0809 6.21922 27.0809C4.55969 27.0809 3.88379 26.4022 3.88379 24.7328C3.88379 19.9552 3.88379 15.1775 3.88379 10.3999V9.65088ZM7.81834 13.5784V17.3261H11.5969V13.5841L7.81834 13.5784ZM23.215 13.5784H19.4126V17.3261H23.215V13.5784ZM13.6358 19.3482V23.1422H17.368V19.3482H13.6358ZM17.3666 17.3359V13.5967H13.6513V17.3359H17.3666ZM7.84925 19.3439V23.1253H11.5857V19.3439H7.84925ZM23.1799 23.1379V19.3594H19.4224V23.1379H23.1799Z" fill="#FA7985"/>
<path d="M7.81836 13.5781H11.5969V17.3258H7.81836V13.5781Z" fill="white"/>
<path d="M23.2146 13.5796V17.3259H19.4121V13.5852L23.2146 13.5796Z" fill="white"/>
<path d="M13.6367 19.3496H17.3689V23.1436H13.6367V19.3496Z" fill="white"/>
<path d="M17.3667 17.3369H13.6514V13.5977H17.3667V17.3369Z" fill="white"/>
<path d="M7.84961 19.3452H11.586V23.1265H7.84961V19.3452Z" fill="white"/>
<path d="M23.1803 23.135H19.4229V19.3564H23.1803V23.135Z" fill="white"/>
</svg>
