<svg width="48" height="46" viewBox="0 0 48 46" fill="none" xmlns="http://www.w3.org/2000/svg">
<path d="M20.7959 34.841C18.9356 34.3344 17.2122 33.4202 15.7516 32.1651C14.8244 33.0201 14.2036 34.1542 13.9843 35.3941C13.8902 35.9045 13.8695 36.4346 13.7266 36.9301C13.2914 38.4323 11.8272 39.3089 10.2275 39.0702C8.8376 38.8669 7.65499 37.5244 7.63434 36.1275C7.61039 34.4813 8.64271 33.2219 10.225 32.9561C10.7528 32.8672 11.283 32.7832 11.8074 32.6754C12.881 32.4548 13.7456 31.863 14.5541 31.123L12.3243 27.5499C11.9841 27.982 11.6885 28.373 11.3788 28.75C10.5727 29.7377 9.5371 30.1806 8.27437 29.9196C7.05955 29.6727 6.22133 28.9319 5.89099 27.726C5.56065 26.5201 5.86126 25.4262 6.79942 24.5792C7.73759 23.7323 8.81531 23.5668 9.99132 23.9817C10.4307 24.1364 10.8585 24.3249 11.349 24.5216C11.3977 23.9776 11.4489 23.4656 11.4869 22.9577C11.5227 22.4792 11.5502 22.0002 11.5695 21.5206C11.6001 20.8201 11.2953 20.2859 10.6611 20.1213C9.58747 19.8455 8.49818 19.5994 7.40393 19.4076C6.37079 19.2257 5.43924 19.6463 4.49942 20.0135C4.02291 20.1995 3.49767 20.3427 2.9906 20.355C1.57922 20.3863 0.143069 19.0685 0.0175398 17.7062C-0.14763 15.9579 0.868166 14.5093 2.45545 14.2146C3.84453 13.9561 4.93301 14.385 5.73904 15.5629C6.59678 16.8439 7.90656 17.7565 9.40826 18.1194C9.8344 18.2281 10.2564 18.3524 10.6826 18.4586C11.591 18.6841 12.1988 18.4265 12.6596 17.619C13.1205 16.8116 13.5763 15.9966 14.0685 15.1233C13.6251 15.0591 13.2154 14.9924 12.8042 14.9414C11.003 14.7184 9.82285 13.4376 9.8501 11.7313C9.8757 10.1369 11.1715 8.81744 12.8232 8.71208C14.3691 8.61413 15.8177 9.78214 16.044 11.3131C16.1266 11.8539 16.1951 12.3955 16.2793 13.0055C17.661 12.0251 19.0823 11.2448 20.7224 10.8152C20.4044 8.93599 19.7776 7.23956 18.2308 6.00983C18.059 5.8732 17.8765 5.74889 17.6957 5.6246C16.6584 4.90767 16.1902 3.68536 16.4652 2.40706C16.7129 1.24977 17.7328 0.260361 18.9088 0.0586978C20.155 -0.155312 21.208 0.212625 21.9777 1.216C22.7474 2.21938 22.8614 3.3306 22.308 4.46814C21.5932 5.89436 21.4526 7.53898 21.9149 9.0652C22.0058 9.38045 22.0669 9.70397 22.1478 10.0225C22.2205 10.3065 22.3997 10.4949 22.702 10.4801C23.3445 10.4488 23.9862 10.3912 24.6551 10.3427C24.5469 9.89408 24.4189 9.45041 24.3338 8.99852C23.7987 6.14808 26.5884 4.96527 28.3103 5.56532C30.2147 6.22381 31.0018 8.71208 29.7869 10.3616C29.5516 10.6818 29.2815 10.9756 29.0007 11.3131L32.3215 13.4006C33.4776 12.2746 34.0037 10.9049 34.1309 9.34754C34.2589 7.76634 35.4812 6.61975 37.1386 6.49217C38.4683 6.3901 39.9416 7.50458 40.2818 8.86931C40.7526 10.7567 39.456 12.5149 37.4178 12.7223C35.9056 12.8754 34.5661 13.3956 33.4438 14.5175C34.1441 15.6254 34.8494 16.7426 35.5596 17.8692C37.2485 16.2732 38.7664 15.9876 40.1505 16.9877C40.7498 17.4148 41.1773 18.0405 41.3564 18.7528C41.5355 19.4651 41.4547 20.2177 41.1283 20.8761C40.3322 22.5223 39.1297 22.8515 36.4771 22.1313C36.4771 22.9544 36.4449 23.7693 36.4903 24.5792C36.5047 24.7819 36.5805 24.9755 36.7076 25.1344C36.8347 25.2932 37.0072 25.4099 37.2022 25.469C38.4922 25.8979 39.7888 26.3226 41.1803 26.2444C42.0615 26.195 42.8626 25.8756 43.6579 25.5308C45.3757 24.79 47.3833 25.7349 47.8763 27.5062C48.0834 28.218 48.0291 28.98 47.7234 29.6555C47.4177 30.331 46.8805 30.8758 46.2081 31.1922C45.546 31.5163 44.7887 31.5913 44.0756 31.4033C43.3624 31.2153 42.7414 30.777 42.3266 30.169C41.3447 28.7467 40.0365 27.8305 38.346 27.4527C37.9174 27.3564 37.497 27.2198 37.0676 27.1301C36.3764 26.9844 35.8074 27.219 35.4431 27.8165C34.7825 28.9055 34.1342 30.0052 33.4611 31.1288C33.9707 31.7321 34.5934 32.1758 35.3408 32.3947C36.0801 32.6051 36.8302 32.7757 37.5879 32.9059C39.5443 33.2565 40.7418 34.9999 40.2504 36.819C39.8746 38.2075 38.4443 39.2406 37.0676 39.1179C35.401 38.9689 34.2647 37.889 34.1243 36.3111C33.9889 34.79 33.4925 33.4302 32.3991 32.319C32.3619 32.2811 32.3165 32.249 32.2579 32.1972L30.0438 33.7553C30.4625 34.0261 30.8489 34.2615 31.2214 34.5183C32.6088 35.4756 33.0152 37.121 32.2413 38.6216C31.5897 39.8859 29.8621 40.5477 28.4746 40.0645C27.7328 39.8063 27.1159 39.2787 26.7472 38.587C26.3786 37.8954 26.2853 37.0905 26.486 36.3333C26.595 35.9127 26.7395 35.5012 26.8799 35.0452C25.4083 35.1275 23.982 35.2007 22.5558 35.2921C22.5007 35.3064 22.4496 35.3332 22.4066 35.3705C22.3636 35.4078 22.3299 35.4545 22.308 35.5069C21.6102 37.4437 21.4467 39.3756 22.3757 41.2975C23.1 42.7948 22.5822 44.4575 21.1527 45.2756C20.4697 45.6783 19.6585 45.8064 18.8842 45.6339C18.1098 45.4614 17.4306 45.0012 16.9846 44.3471C16.0762 43.0244 16.2827 41.137 17.6073 40.22C19.3201 39.0306 20.302 37.4503 20.6778 35.446C20.7108 35.2715 20.7654 35.1019 20.8075 34.9299C20.8298 34.9134 20.8182 34.8986 20.7959 34.841ZM14.9596 20.7658C14.959 21.562 15.2748 22.326 15.8381 22.8906C16.4013 23.4552 17.1661 23.7744 17.9649 23.7783C18.7713 23.7775 19.5444 23.4575 20.1141 22.8887C20.6838 22.3199 21.0036 21.5489 21.0032 20.7452C20.9925 19.9488 20.6677 19.1886 20.0989 18.6291C19.5302 18.0696 18.7632 17.7558 17.9641 17.7556C17.1656 17.7574 16.4006 18.0751 15.8372 18.639C15.2738 19.2029 14.9581 19.9667 14.9596 20.7625V20.7658ZM27.8718 27.7894C27.872 27.0199 27.5666 26.2817 27.0224 25.736C26.4781 25.1903 25.7392 24.8816 24.9672 24.8772C24.2025 24.878 23.469 25.1792 22.9254 25.7153C22.3819 26.2515 22.0723 26.9795 22.0636 27.7417C22.0565 28.5109 22.3551 29.2517 22.8942 29.8023C23.4333 30.3529 24.1691 30.6685 24.9408 30.6802C25.7141 30.6809 26.4563 30.3771 27.0059 29.8351C27.5556 29.2931 27.8683 28.5567 27.8759 27.7861L27.8718 27.7894ZM29.0081 17.7565C28.5429 17.7535 28.0949 17.9317 27.7596 18.2532C27.4244 18.5748 27.2284 19.0141 27.2136 19.4776C27.188 20.4266 28.0229 21.2786 28.9809 21.281C29.9389 21.2835 30.7449 20.4728 30.7507 19.5262C30.7521 19.0618 30.5701 18.6155 30.244 18.2837C29.918 17.952 29.474 17.7614 29.0081 17.7532V17.7565Z" fill="white"/>
</svg>
