<svg width="46" height="48" viewBox="0 0 46 48" fill="none" xmlns="http://www.w3.org/2000/svg">
<g filter="url(#filter0_d_25_517)">
<path fill-rule="evenodd" clip-rule="evenodd" d="M30.2924 22.7601C32.8038 22.4132 35.0979 21.1494 36.7331 19.212C36.8687 19.0571 36.9671 18.8731 37.0206 18.6743C37.0741 18.4755 37.0815 18.2671 37.042 18.065C39.6258 14.914 41.195 10.6537 41.195 7.35143C41.195 2.23412 38.7876 1.67953 34.6912 0.847648V0.790932C34.5491 0.549907 34.3464 0.350331 34.1031 0.21211C33.8598 0.073889 33.5846 0.00185168 33.3048 0.00316779C33.1068 -0.00990693 32.9083 0.0177923 32.7214 0.0845598C32.5346 0.151327 32.3635 0.255733 32.2187 0.391318C32.0738 0.526904 31.9584 0.690787 31.8794 0.872804C31.8005 1.05482 31.7598 1.2511 31.7598 1.44949C31.7598 1.64789 31.8005 1.84418 31.8794 2.0262C31.9584 2.20821 32.0738 2.37208 32.2187 2.50766C32.3635 2.64325 32.5346 2.74767 32.7214 2.81444C32.9083 2.88121 33.1068 2.90891 33.3048 2.89583C33.4716 2.90062 33.6376 2.87122 33.7925 2.80944C33.9475 2.74766 34.0882 2.65481 34.206 2.53661L34.269 2.59333C38.2456 3.43781 39.2666 3.62058 39.2666 7.35143C39.2666 10.2441 37.8234 14.1577 35.5357 16.9937C35.3449 16.9909 35.1554 17.0269 34.9788 17.0995C34.8023 17.1721 34.6423 17.2797 34.5085 17.4159C33.3678 18.6763 31.4961 20.1825 29.3281 20.1825C27.1602 20.1825 25.2948 18.6826 24.1478 17.4726C23.8808 17.1853 23.5123 17.0135 23.1206 16.9937C20.8329 14.1577 19.3393 10.2441 19.3393 7.35143C19.3393 3.62058 20.4233 3.43781 24.381 2.59333V2.53661C24.6437 2.77673 24.9894 2.90552 25.3452 2.89583C25.5983 2.87918 25.8425 2.79642 26.0536 2.65583C26.2646 2.51525 26.4351 2.32175 26.548 2.09467C26.6608 1.86758 26.7122 1.61486 26.6968 1.36173C26.6815 1.10861 26.6 0.863928 26.4605 0.65215C26.321 0.440371 26.1284 0.268903 25.9019 0.154855C25.6754 0.0408066 25.4229 -0.0118203 25.1697 0.0022254C24.9165 0.0162711 24.6714 0.0965003 24.4589 0.2349C24.2464 0.3733 24.074 0.565024 23.9588 0.790932H23.902C19.8687 1.69213 17.3983 2.1711 17.3983 7.35143C17.3983 10.6663 18.9612 14.9455 21.6081 18.1343C21.57 18.3271 21.5776 18.526 21.6301 18.7153C21.6826 18.9046 21.7787 19.079 21.9106 19.2246C23.5399 21.0979 25.766 22.3513 28.2127 22.7727L28.1496 29.2828C28.1496 33.7384 24.2361 37.3558 19.478 37.3558C14.7199 37.3558 10.863 33.7384 10.863 29.2828V23.5605C13.6359 23.1382 15.7408 20.9703 15.7408 18.2604C15.7408 15.248 13.0939 12.8343 9.83572 12.8343C6.57753 12.8343 4 15.248 4 18.2604C4 20.9703 6.16161 23.1382 8.87152 23.5605V29.2828C8.87152 34.7026 13.6359 39.1014 19.478 39.1014C25.32 39.1014 30.1348 34.69 30.1348 29.2828V22.7601H30.2924Z" fill="white"/>
</g>
<path fill-rule="evenodd" clip-rule="evenodd" d="M9.68033 15.7386C10.0224 15.7313 10.3625 15.7936 10.6812 15.922C10.9999 16.0503 11.291 16.2422 11.5378 16.4867C11.7846 16.7311 11.9824 17.0233 12.1197 17.3466C12.257 17.6699 12.3313 18.018 12.3382 18.3709C12.3273 19.089 12.0419 19.7737 11.5441 20.2758C11.0464 20.7779 10.3765 21.0569 9.68033 21.052C9.33433 21.0593 8.99037 20.9954 8.66858 20.864C8.34679 20.7326 8.05361 20.5364 7.80616 20.2868C7.55871 20.0371 7.36195 19.7392 7.22739 19.4102C7.09283 19.0813 7.02318 18.7279 7.02246 18.3709C7.02381 18.0162 7.09427 17.6655 7.22967 17.3396C7.36507 17.0136 7.56263 16.7191 7.8106 16.4735C8.05857 16.2279 8.35189 16.0363 8.6731 15.9101C8.9943 15.7838 9.33684 15.7255 9.68033 15.7386Z" fill="#67CDFD"/>
<defs>
<filter id="filter0_d_25_517" x="0" y="0" width="45.1948" height="47.1016" filterUnits="userSpaceOnUse" color-interpolation-filters="sRGB">
<feFlood flood-opacity="0" result="BackgroundImageFix"/>
<feColorMatrix in="SourceAlpha" type="matrix" values="0 0 0 0 0 0 0 0 0 0 0 0 0 0 0 0 0 0 127 0" result="hardAlpha"/>
<feOffset dy="4"/>
<feGaussianBlur stdDeviation="2"/>
<feComposite in2="hardAlpha" operator="out"/>
<feColorMatrix type="matrix" values="0 0 0 0 0.089323 0 0 0 0 0.489225 0 0 0 0 0.729167 0 0 0 0.6 0"/>
<feBlend mode="normal" in2="BackgroundImageFix" result="effect1_dropShadow_25_517"/>
<feBlend mode="normal" in="SourceGraphic" in2="effect1_dropShadow_25_517" result="shape"/>
</filter>
</defs>
</svg>
