<svg width="42" height="45" viewBox="0 0 42 45" fill="none" xmlns="http://www.w3.org/2000/svg">
<path d="M23.2923 0.971348C23.708 1.05795 24.1315 1.11165 24.5372 1.23116C27.0921 1.97553 28.893 4.31472 28.9073 6.96958C28.9298 11.1047 28.9298 15.2396 28.9073 19.3744C28.8857 22.6844 26.1624 25.3731 22.845 25.3809C17.2446 25.3947 11.6441 25.3947 6.0437 25.3809C2.92118 25.3713 0.294453 22.9295 0.0307417 19.8243C0.0112556 19.5948 0.00129907 19.3636 0.00129907 19.1315C-0.000433023 15.1188 -0.000433023 11.1061 0.00129907 7.09343C-0.00209517 5.58393 0.553523 4.12663 1.56102 3.00256C2.56851 1.87848 3.95653 1.16724 5.45739 1.00599C5.51376 0.996729 5.56956 0.984294 5.62453 0.96875L23.2923 0.971348ZM14.4586 22.8542C16.6451 22.8542 18.8316 22.8542 21.0181 22.8542C21.66 22.8573 22.2962 22.7332 22.8899 22.4892C23.4836 22.2452 24.0232 21.8861 24.4774 21.4325C24.9317 20.979 25.2916 20.4399 25.5365 19.8466C25.7814 19.2532 25.9064 18.6172 25.9043 17.9753C25.9075 14.7709 25.9068 11.5666 25.9021 8.36219C25.904 8.05928 25.8765 7.75691 25.8199 7.45933C25.3535 5.11711 23.375 3.49761 20.9817 3.49024C19.7623 3.48635 18.5429 3.49024 17.3235 3.49024C14.2135 3.49024 11.1034 3.49024 7.99316 3.49024C5.15253 3.49024 3.00474 5.63891 3.00431 8.47477C3.00431 11.628 2.99868 14.7813 3.00431 17.9342C3.0108 20.7111 5.16942 22.8529 7.94077 22.8533L14.4586 22.8542ZM22.276 1.97726C25.3409 2.6229 27.2558 4.49269 28.1378 7.53814C28.1378 7.42729 28.1409 7.38442 28.1378 7.34155C27.9737 5.12534 26.9094 3.53095 24.8659 2.6164C24.0462 2.25518 23.1701 2.03893 22.2764 1.97726H22.276Z" fill="white"/>
<path d="M7.22597 44.2738C6.81114 44.1872 6.38505 44.1344 5.98407 44.0053C3.64574 43.2519 2.08686 41.722 1.56723 39.2949C1.01729 36.7401 2.19901 34.2121 4.47931 32.8528C5.44864 32.2709 6.55332 31.9526 7.68368 31.9296C7.76206 31.9274 7.84043 31.9296 7.92747 31.9296C7.94479 31.8694 7.95908 31.8226 7.97077 31.7754C8.25224 30.7258 9.11829 30.0464 10.2065 30.0434C13.0428 30.039 15.8791 30.039 18.7154 30.0434C20.0049 30.0468 21.0048 31.054 21.0009 32.3202C20.997 33.5863 19.9924 34.578 18.6985 34.578C15.9271 34.5814 13.1558 34.5576 10.3845 34.5897C9.25859 34.6022 8.22453 33.9778 7.93267 32.7125C7.41626 32.6818 6.89842 32.7404 6.40193 32.8857C4.15757 33.5422 2.671 34.9608 2.28821 37.3026C1.93097 39.5014 2.81651 41.2392 4.61312 42.5092C5.58829 43.1986 6.69942 43.5 7.89499 43.4987C10.912 43.4955 13.9287 43.4955 16.9452 43.4987C21.9324 43.4987 26.9193 43.4987 31.9057 43.4987C33.071 43.4987 34.1358 43.1709 35.1127 42.5391C35.2473 42.4525 35.3049 42.3594 35.3045 42.1927C35.2981 39.9773 35.2981 37.7618 35.3045 35.5462C35.3045 35.3882 35.2711 35.3115 35.1066 35.2544C34.631 35.0937 34.2174 34.7885 33.9237 34.3814C33.63 33.9743 33.4709 33.4856 33.4685 32.9836C33.4594 30.5227 33.4481 28.0618 33.4823 25.6014C33.488 25.1996 33.3888 24.9952 33.0792 24.7561C31.6138 23.6303 30.9738 21.7116 31.4982 19.9556C32.0659 18.0542 33.3654 16.9184 35.3257 16.6188C37.3973 16.3022 39.4394 17.5346 40.2046 19.4897C40.5854 20.4547 40.6267 21.5205 40.3216 22.5121C40.0165 23.5036 39.3832 24.3618 38.5257 24.9458C38.369 25.0532 38.3183 25.1489 38.3595 25.3264C38.3832 25.4549 38.3928 25.5856 38.3881 25.7162C38.3881 28.0972 38.3881 30.4788 38.3881 32.861C38.3881 34.0761 37.6653 35.0318 36.5369 35.3262C36.3702 35.3695 36.1974 35.3886 35.9952 35.4245V35.6887C35.9952 38.027 35.9952 40.3653 35.9952 42.7036C35.9952 42.8206 35.9765 42.8937 35.8596 42.9782C34.8853 43.6836 33.8084 44.1127 32.612 44.2452C32.592 44.2516 32.5733 44.2615 32.557 44.2747L7.22597 44.2738ZM36.8881 29.0747C36.8881 29.7459 36.8881 30.4171 36.8881 31.0882C36.8881 31.2316 36.9123 31.3649 37.0855 31.3615C37.2587 31.358 37.2791 31.2238 37.2786 31.0813C37.2786 29.7389 37.2786 28.3966 37.2786 27.0542C37.2786 26.9161 37.2674 26.7762 37.0898 26.7719C36.8963 26.7675 36.8885 26.9148 36.8885 27.0611C36.8879 27.7323 36.8872 28.4035 36.8863 29.0747H36.8881ZM36.0454 17.82C37.7156 18.3145 38.5465 19.6686 39.3992 21.0464C39.0709 18.7969 37.5644 17.8395 36.0454 17.82ZM17.748 31.4169C18.1078 31.4169 18.4677 31.4143 18.8275 31.4169C19.0007 31.4169 19.1194 31.3442 19.1198 31.1735C19.1203 31.0029 18.9973 30.9306 18.8271 30.9311C18.1143 30.9311 17.4016 30.9311 16.6893 30.9311C16.4896 30.9311 16.3697 31.0311 16.3861 31.1835C16.4048 31.3619 16.5234 31.4173 16.6893 31.4156C17.0422 31.4126 17.3942 31.4169 17.748 31.4169Z" fill="white"/>
<path d="M41.9997 13.4426C41.7533 13.6093 41.6585 13.6062 41.397 13.4187C40.2352 12.5882 38.9842 11.9465 37.5738 11.6633C34.922 11.1324 32.5793 11.8205 30.4952 13.495C30.4474 13.5387 30.3973 13.5801 30.3454 13.6188C30.2704 13.6705 30.1791 13.693 30.0887 13.6822C29.9983 13.6714 29.9149 13.6279 29.8543 13.5599C29.7917 13.4933 29.7563 13.4057 29.7549 13.3143C29.7536 13.2229 29.7864 13.1343 29.8469 13.0658C29.9249 12.9807 30.0105 12.903 30.1029 12.8337C31.8925 11.4208 33.9135 10.6621 36.2085 10.7253C38.0077 10.7751 39.6354 11.3848 41.1449 12.3349C41.4372 12.5189 41.7152 12.7246 42.0002 12.9229L41.9997 13.4426Z" fill="white"/>
<path d="M11.2607 29.1083V26.3867H17.6552V29.1083H11.2607ZM16.0976 27.5104C16.3358 27.5104 16.5739 27.5052 16.8117 27.5104C17.0394 27.5169 17.0676 27.3606 17.0754 27.1952C17.0858 26.9739 16.9966 26.8669 16.8069 26.8661C16.3236 26.8661 15.8404 26.8695 15.3576 26.8635C15.1298 26.8609 15.1012 27.0107 15.0952 27.1783C15.0869 27.4056 15.1692 27.5057 15.3623 27.5082C15.6074 27.513 15.8525 27.5104 16.0963 27.5104H16.0976Z" fill="white"/>
<path d="M35.9308 12.5659C37.6118 12.5689 39.1023 13.1483 40.4802 14.0694C40.594 14.1456 40.7075 14.2231 40.8153 14.3071C41.0162 14.4626 41.0548 14.6734 40.9223 14.854C40.7898 15.0346 40.5715 15.0614 40.3676 14.9159C39.7548 14.4794 39.1153 14.0906 38.4116 13.8187C35.894 12.8448 33.6051 13.2653 31.5374 14.9714C31.3248 15.1446 31.0961 15.1537 30.9463 14.9753C30.7965 14.7969 30.8398 14.5747 31.0485 14.3894C32.3125 13.267 34.1892 12.5668 35.9308 12.5659Z" fill="white"/>
<path d="M39.5659 16.0912C39.4754 16.2064 39.4144 16.351 39.3096 16.3987C39.2048 16.4463 39.0385 16.4312 38.9281 16.3805C38.7748 16.3099 38.6514 16.1765 38.5102 16.0774C37.7083 15.5123 36.8362 15.149 35.8363 15.168C34.7659 15.1866 33.8522 15.5976 33.0463 16.2844C32.9493 16.3671 32.8034 16.4576 32.6926 16.4415C32.5748 16.4268 32.4362 16.3142 32.3708 16.206C32.2816 16.0575 32.3388 15.8838 32.4812 15.7834C32.8805 15.5019 33.265 15.1858 33.6985 14.9701C35.5345 14.0565 37.2822 14.2976 38.938 15.4465C39.0882 15.5461 39.2306 15.6568 39.3641 15.7777C39.4421 15.8518 39.4858 15.9626 39.5659 16.0912Z" fill="white"/>
<path d="M36.8872 29.0744C36.8872 28.4032 36.8872 27.732 36.8872 27.0608C36.8872 26.9145 36.895 26.7672 37.0885 26.7716C37.2661 26.7759 37.2777 26.9158 37.2773 27.0539C37.2773 28.3963 37.2773 29.7387 37.2773 31.081C37.2773 31.2235 37.2544 31.3577 37.0842 31.3612C36.914 31.3647 36.8863 31.2313 36.8867 31.088C36.8885 30.4168 36.8872 29.7456 36.8872 29.0744Z" fill="white"/>
<path d="M36.0459 17.8203C37.5649 17.8385 39.0714 18.7959 39.3997 21.0468C38.547 19.6702 37.7161 18.3161 36.0459 17.8203Z" fill="white"/>
<path d="M17.7486 31.4167C17.3957 31.4167 17.0428 31.4136 16.6903 31.4167C16.5236 31.4167 16.4049 31.363 16.3872 31.1846C16.3711 31.0321 16.4911 30.9325 16.6903 30.9321C17.4026 30.9299 18.1154 30.9321 18.8281 30.9321C18.9983 30.9321 19.1213 31.0023 19.1209 31.1746C19.1204 31.347 19.0009 31.4197 18.8286 31.418C18.4683 31.4123 18.1084 31.4167 17.7486 31.4167Z" fill="white"/>
<path d="M16.0957 27.51C15.8506 27.51 15.6055 27.5126 15.3595 27.51C15.1664 27.5074 15.0841 27.4074 15.0924 27.1801C15.0984 27.0125 15.127 26.8627 15.3548 26.8653C15.8376 26.8713 16.3208 26.8653 16.8041 26.8679C16.9938 26.8679 17.083 26.9757 17.0726 27.197C17.0648 27.3624 17.0366 27.5187 16.8089 27.5122C16.572 27.5048 16.3351 27.51 16.0957 27.51Z" fill="white"/>
<path d="M25.3088 9.86368L19.7812 4.04558C20.6153 3.84726 22.7583 4.71764 23.7218 5.61962C24.9611 6.77796 25.4002 8.59362 25.3088 9.86368Z" fill="white"/>
</svg>
