<svg width="44" height="44" viewBox="0 0 44 44" fill="none" xmlns="http://www.w3.org/2000/svg">
<path d="M14.7191 14.776C15.8125 16.0519 16.9077 17.3292 18.0046 18.6081C18.118 18.5446 18.2323 18.4788 18.3475 18.4123C18.7401 18.186 19.144 17.9532 19.5614 17.7888L19.5616 17.7887C21.5963 16.9891 23.6119 17.0977 25.5306 18.1743L25.5308 18.1745C25.6854 18.2614 25.766 18.2735 25.8167 18.2673C25.8662 18.2613 25.9377 18.2317 26.0592 18.1143C26.0595 18.114 26.0598 18.1137 26.0601 18.1134L14.7191 14.776ZM14.7191 14.776C14.9753 14.8533 15.2407 14.9246 15.5072 14.9634C15.5073 14.9634 15.5073 14.9634 15.5074 14.9634L14.7191 14.776ZM12.3274 16.5818C12.3558 16.7496 12.4619 16.9207 12.5688 17.0435C12.6252 17.1084 12.691 17.1704 12.762 17.2193C12.8291 17.2655 12.9213 17.3141 13.0275 17.3227L13.0881 12.8148C12.7641 12.7214 12.4335 12.7106 12.1987 12.9143C11.966 13.1161 11.9246 13.445 11.9628 13.7809L11.9628 13.7809L11.9628 13.7814C11.9789 13.9207 11.9948 14.0605 12.0108 14.2005C12.1007 14.9913 12.1916 15.7906 12.3274 16.5818ZM12.3274 16.5818C12.3274 16.5816 12.3274 16.5815 12.3274 16.5813L12.5739 16.5398L12.3275 16.5821C12.3275 16.582 12.3275 16.5819 12.3274 16.5818ZM16.6977 24.1729C16.6055 21.2868 19.0166 18.7543 21.954 18.6674L21.9541 18.6674C25.0346 18.5758 27.5083 20.9134 27.6079 24.0154L27.6079 24.0154C27.701 26.8917 25.3012 29.3407 22.2357 29.4431C19.3039 29.54 16.7937 27.157 16.6977 24.1729ZM16.6977 24.1729L16.4478 24.1808M16.6977 24.1729L16.4478 24.1808M16.4478 24.1808C16.3511 21.1532 18.8744 18.5084 21.9466 18.4175L22.2441 29.6929C19.1706 29.7946 16.5481 27.2995 16.4478 24.1808ZM15.8663 13.6738C14.9824 13.3604 14.079 13.1002 13.1866 12.8431C13.1537 12.8337 13.1209 12.8242 13.0881 12.8148L15.8663 13.6738Z" fill="#FEFEFE" stroke="white" stroke-width="0.5"/>
<path d="M25.5477 43.2421H25.5476C23.1814 43.2526 20.8143 43.2526 18.4464 43.2421C15.7535 43.2309 13.7696 41.2387 13.764 38.5486C13.7595 36.8277 13.761 35.1063 13.7625 33.3859C13.7632 32.5261 13.764 31.6665 13.764 30.8073V30.2588C13.7373 30.2573 13.7111 30.2558 13.6854 30.2543C13.5113 30.2443 13.3575 30.2354 13.1976 30.2354H13.1827H13.1678H13.1529H13.138H13.1231H13.1082H13.0933H13.0784H13.0635H13.0486H13.0337H13.0188H13.0038H12.9889H12.974H12.9591H12.9442H12.9293H12.9144H12.8995H12.8846H12.8697H12.8548H12.8399H12.825H12.8101H12.7952H12.7803H12.7654H12.7505H12.7356H12.7207H12.7058H12.6909H12.676H12.6611H12.6462H12.6313H12.6164H12.6015H12.5866H12.5717H12.5568H12.5419H12.527H12.5121H12.4972H12.4823H12.4674H12.4525H12.4375H12.4226H12.4077H12.3928H12.3779H12.363H12.3481H12.3332H12.3183H12.3034H12.2885H12.2736H12.2587H12.2438H12.2289H12.214H12.1991H12.1842H12.1693H12.1544H12.1395H12.1246H12.1097H12.0948H12.0799H12.065H12.0501H12.0352H12.0203H12.0054H11.9905H11.9756H11.9607H11.9458H11.9308H11.9159H11.901H11.8861H11.8712H11.8563H11.8414H11.8265H11.8116H11.7967H11.7818H11.7669H11.752H11.7371H11.7222H11.7073H11.6924H11.6775H11.6626H11.6477H11.6328H11.6179H11.603H11.5881H11.5732H11.5583H11.5434H11.5285H11.5136H11.4987H11.4837H11.4688H11.4539H11.439H11.4241H11.4092H11.3943H11.3794H11.3645H11.3496H11.3347H11.3198H11.3049H11.29H11.2751H11.2602H11.2453H11.2304H11.2155H11.2006H11.1857H11.1708H11.1559H11.141H11.1261H11.1112H11.0963H11.0814H11.0664H11.0515H11.0366H11.0217H11.0068H10.9919H10.977H10.9621H10.9472H10.9323H10.9174H10.9025H10.8876H10.8727H10.8578H10.8429H10.828H10.8131H10.7982H10.7833H10.7684H10.7535H10.7386H10.7237H10.7088H10.6939H10.6789H10.664H10.6491H10.6342H10.6193H10.6044H10.5895H10.5746H10.5597H10.5448H10.5299H10.515H10.5001H10.4852H10.4703H10.4554H10.4405H10.4256H10.4107H10.3958H10.3809H10.366H10.3511H10.3362H10.3212H10.3063H10.2914H10.2765H10.2616H10.2467H10.2318H10.2169H10.202H10.1871H10.1722H10.1573H10.1424H10.1275H10.1126H10.0977H10.0828H10.0679H10.053H10.0381H10.0232H10.0083H9.99335H9.97845H9.96354H9.94864H9.93374H9.91883H9.90393H9.88902H9.87412H9.85921H9.84431H9.8294H9.8145H9.79959H9.78469H9.76979H9.75488H9.73998H9.72507H9.71017H9.69526H9.68036H9.66545H9.65055H9.63564H9.62074H9.60583H9.59093H9.57603H9.56112H9.54622H9.53131H9.51641H9.5015H9.4866H9.47169H9.45679H9.44188H9.42698H9.41207H9.39717H9.38226H9.36736H9.35245H9.33755H9.32264H9.30774H9.29283H9.27793H9.26302H9.24812H9.23321H9.21831H9.2034H9.1885H9.17359H9.15869H9.14378H9.12888H9.11397H9.09907H9.08416H9.06926H9.05435H9.03945H9.02454H9.00964H8.99473H8.97983H8.96492H8.95002H8.93511H8.92021H8.9053H8.8904H8.87549H8.86059H8.84568H8.83078H8.81587H8.80096H8.78606H8.77115H8.75625H8.74134H8.72644H8.71153H8.69663H8.68172H8.66682H8.65191H8.63701H8.6221H8.6072H8.59229H8.57738H8.56248H8.54757H8.53267H8.51776H8.50286H8.48795H8.47305H8.45814H8.44324H8.42833H8.41342H8.39852H8.38361H8.36871H8.3538H8.3389H8.32399H8.30909H8.29418H8.27927H8.26437H8.24946H8.23456H8.21965H8.20475H8.18984H8.17493H8.16003H8.14512H8.13022H8.11531H8.10041H8.0855H8.07059H8.05569H8.04078H8.02588H8.01097H7.99607H7.98116H7.96625H7.95135H7.93644H7.92154H7.90663H7.89172H7.87682H7.86191H7.84701H7.8321H7.81719H7.80229H7.78738H7.77248H7.75757H7.74267H7.72776H7.71285H7.69795H7.68304H7.66814H7.65323H7.63832H7.62342H7.60851H7.5936H7.5787H7.56379H7.54889H7.53398H7.51907H7.50417H7.48926H7.47436H7.45945H7.44454H7.42964H7.41473H7.39982H7.38492H7.37001H7.35511H7.3402H7.32529H7.31039H7.29548H7.28057H7.26567H7.25076H7.23586H7.22095H7.20604H7.19114H7.17623H7.16132H7.14642H7.13151H7.1166H7.1017H7.08679H7.07189H7.05698H7.04207H7.02717H7.01226H6.99735H6.98245H6.96754H6.95263H6.93773H6.92282H6.90791H6.89301H6.8781H6.86319H6.84829H6.83338H6.81847H6.80357H6.78866H6.77375H6.75885H6.74394H6.72903H6.71413H6.69922H6.68431H6.66941H6.6545H6.63959H6.62469H6.60978H6.59487H6.57997H6.56506H6.55015H6.53525H6.52034H6.50543H6.49053H6.47562H6.46071H6.44581H6.4309H6.41599H6.40108H6.38618H6.37127H6.35636H6.34146H6.32655H6.31164H6.29674H6.28183H6.26692H6.25202H6.23711H6.2222H6.20729H6.19239H6.17748H6.16257H6.14767H6.13276H6.11785H6.10294H6.08804H6.07313H6.05822H6.04332H6.02841H6.0135H5.9986H5.98369H5.96878H5.95387H5.93897H5.92406H5.90915H5.89424H5.87934H5.86443H5.84952H5.83462H5.81971H5.8048H5.78989H5.77499H5.76008H5.74517H5.73026H5.71536H5.70045H5.68554H5.67063H5.65573H5.64082H5.62591H5.61101H5.5961H5.58119H5.56628C2.77436 30.2354 0.763691 28.2414 0.755311 25.4482C0.74823 23.1537 0.74823 20.8592 0.755311 18.5648L0.755312 18.5644C0.76788 15.7996 2.74973 13.8091 5.50852 13.7868M25.5477 43.2421L5.56681 15.29C6.52402 15.2829 7.48021 15.2853 8.43783 15.2876C8.91733 15.2888 9.39719 15.29 9.87772 15.29C9.88516 15.29 9.89275 15.29 9.90047 15.29C10.079 15.2901 10.3302 15.2904 10.5337 15.2039C10.6499 15.1545 10.7609 15.0736 10.8378 14.9449C10.9135 14.8185 10.9427 14.6683 10.9373 14.5024L10.9373 14.5023C10.9321 14.346 10.8934 14.2061 10.8124 14.0904C10.7309 13.9741 10.6211 13.9031 10.5101 13.8603C10.3175 13.786 10.0857 13.7865 9.92065 13.7868C9.91051 13.7868 9.90062 13.7868 9.891 13.7868C9.40576 13.7868 8.91978 13.7855 8.4334 13.7842C7.45912 13.7815 6.48326 13.7789 5.50852 13.7868M25.5477 43.2421C28.2371 43.2295 30.2208 41.2314 30.2208 38.5374V38.5221V38.5069V38.4916V38.4764V38.4611V38.4459V38.4306V38.4154V38.4001V38.3848V38.3696V38.3543V38.3391V38.3238V38.3086V38.2933V38.2781V38.2628V38.2475V38.2323V38.217V38.2018V38.1865V38.1713V38.156V38.1408V38.1255V38.1102V38.095V38.0797V38.0645V38.0492V38.034V38.0187V38.0035V37.9882V37.973V37.9577V37.9424V37.9272V37.9119V37.8967V37.8814V37.8662V37.8509V37.8357V37.8204V37.8052V37.7899V37.7746V37.7594V37.7441V37.7289V37.7136V37.6984V37.6831V37.6679V37.6526V37.6374V37.6221V37.6068V37.5916V37.5763V37.5611V37.5458V37.5306V37.5153V37.5001V37.4848V37.4696V37.4543V37.439V37.4238V37.4085V37.3933V37.378V37.3628V37.3475V37.3323V37.317V37.3018V37.2865V37.2713V37.256V37.2407V37.2255V37.2102V37.195V37.1797V37.1645V37.1492V37.134V37.1187V37.1035V37.0882V37.073V37.0577V37.0424V37.0272V37.0119V36.9967V36.9814V36.9662V36.9509V36.9357V36.9204V36.9052V36.8899V36.8747V36.8594V36.8442V36.8289V36.8136V36.7984V36.7831V36.7679V36.7526V36.7374V36.7221V36.7069V36.6916V36.6764V36.6611V36.6459V36.6306V36.6154V36.6001V36.5848V36.5696V36.5543V36.5391V36.5238V36.5086V36.4933V36.4781V36.4628V36.4476V36.4323V36.4171V36.4018V36.3866V36.3713V36.3561V36.3408V36.3255V36.3103V36.295V36.2798V36.2645V36.2493V36.234V36.2188V36.2035V36.1883V36.173V36.1578V36.1425V36.1273V36.112V36.0968V36.0815V36.0663V36.051V36.0358V36.0205V36.0052V35.99V35.9747V35.9595V35.9442V35.929V35.9137V35.8985V35.8832V35.868V35.8527V35.8375V35.8222V35.807V35.7917V35.7765V35.7612V35.746V35.7307V35.7155V35.7002V35.685V35.6697V35.6545V35.6392V35.6239V35.6087V35.5934V35.5782V35.5629V35.5477V35.5324V35.5172V35.5019V35.4867V35.4714V35.4562V35.4409V35.4257V35.4104V35.3952V35.3799V35.3647V35.3494V35.3342V35.3189V35.3037V35.2884V35.2732V35.2579V35.2427V35.2274V35.2122V35.1969V35.1817V35.1664V35.1512V35.1359V35.1207V35.1054V35.0901V35.0749V35.0596V35.0444V35.0291V35.0139V34.9986V34.9834V34.9681V34.9529V34.9376V34.9224V34.9071V34.8919V34.8766V34.8614V34.8461V34.8309V34.8156V34.8004V34.7851V34.7699V34.7546V34.7394V34.7241V34.7089V34.6936V34.6784V34.6631V34.6479V34.6326V34.6174V34.6021V34.5869V34.5716V34.5564V34.5411V34.5259V34.5106V34.4954V34.4801V34.4649V34.4496V34.4344V34.4191V34.4039V34.3886V34.3734V34.3581V34.3429V34.3276V34.3124V34.2971V34.2819V34.2666V34.2514V34.2361V34.2209V34.2056V34.1904V34.1751V34.1599V34.1446V34.1294V34.1141V34.0989V34.0836V34.0684V34.0531V34.0379V34.0226V34.0074V33.9921V33.9769V33.9616V33.9464V33.9311V33.9159V33.9006V33.8854V33.8701V33.8549V33.8396V33.8244V33.8091V33.7939V33.7786V33.7634V33.7481V33.7329V33.7176V33.7024V33.6871V33.6719V33.6566V33.6414V33.6261V33.6109V33.5956V33.5804V33.5651V33.5499V33.5346V33.5194V33.5042V33.4889V33.4737V33.4584V33.4432V33.4279V33.4127V33.3974V33.3822V33.3669V33.3517V33.3364V33.3212V33.3059V33.2907V33.2754V33.2602V33.2449V33.2297V33.2144V33.1992V33.1839V33.1687V33.1534V33.1382V33.1229V33.1077V33.0924V33.0772V33.0619V33.0467V33.0314V33.0162V33.0009V32.9857V32.9705V32.9552V32.94V32.9247V32.9095V32.8942V32.879V32.8637V32.8485V32.8332V32.818V32.8027V32.7875V32.7722V32.757V32.7417V32.7265V32.7112V32.696V32.6807V32.6655V32.6502V32.635V32.6197V32.6045V32.5893V32.574V32.5588V32.5435V32.5283V32.513V32.4978V32.4825V32.4673V32.452V32.4368V32.4215V32.4063V32.391V32.3758V32.3605V32.3453V32.33V32.3148V32.2995V32.2843V32.2691V32.2538V32.2386V32.2233V32.2081V32.1928V32.1776V32.1623V32.1471V32.1318V32.1166V32.1013V32.0861V32.0708V32.0556V32.0403V32.0251V32.0099V31.9946V31.9794V31.9641V31.9489V31.9336V31.9184V31.9031V31.8879V31.8726V31.8574V31.8421V31.8269V31.8116V31.7964V31.7812V31.7659V31.7507V31.7354V31.7202V31.7049V31.6897V31.6744V31.6592V31.6439V31.6287V31.6134V31.5982V31.5829V31.5677V31.5525V31.5372V31.522V31.5067V31.4915V31.4762V31.461V31.4457V31.4305V31.4152V31.4V31.3847V31.3695V31.3543V31.339V31.3238V31.3085V31.2933V31.278V31.2628V31.2475V31.2323V31.217V31.2018V31.1865V31.1713V31.1561V31.1408V31.1256V31.1103V31.0951V31.0798V31.0646V31.0493V31.0341V31.0188V31.0036V30.9884V30.9731V30.9579V30.9426V30.9274V30.9121V30.8969V30.8816V30.8664V30.8511V30.8359V30.8207V30.8054V30.7902V30.7749V30.7597V30.7444V30.7292V29.9141L25.5477 43.2421ZM5.50852 13.7868L5.51054 14.0368M5.50852 13.7868L5.51054 14.0368M5.51054 14.0368C2.8889 14.058 1.01726 15.9372 1.00531 18.5656L10.6875 14.5106C10.6717 14.0366 10.2671 14.0367 9.90568 14.0368L9.891 14.0368C9.40429 14.0368 8.91757 14.0355 8.43085 14.0342C7.45741 14.0315 6.48398 14.0289 5.51054 14.0368ZM2.22299 18.6152L2.22299 18.6153C2.20441 20.8854 2.19732 23.156 2.20174 25.427L2.20174 25.4275C2.20174 27.3796 3.58761 28.7508 5.55303 28.7508H5.56949H5.58594H5.6024H5.61886H5.63532H5.65178H5.66823H5.68469H5.70115H5.71761H5.73406H5.75052H5.76698H5.78344H5.7999H5.81635H5.83281H5.84927H5.86573H5.88218H5.89864H5.9151H5.93156H5.94802H5.96447H5.98093H5.99739H6.01385H6.03031H6.04676H6.06322H6.07968H6.09614H6.1126H6.12905H6.14551H6.16197H6.17843H6.19488H6.21134H6.2278H6.24426H6.26072H6.27717H6.29363H6.31009H6.32655H6.343H6.35946H6.37592H6.39238H6.40884H6.42529H6.44175H6.45821H6.47467H6.49113H6.50758H6.52404H6.5405H6.55696H6.57341H6.58987H6.60633H6.62279H6.63925H6.6557H6.67216H6.68862H6.70508H6.72154H6.73799H6.75445H6.77091H6.78737H6.80382H6.82028H6.83674H6.8532H6.86966H6.88611H6.90257H6.91903H6.93549H6.95194H6.9684H6.98486H7.00132H7.01778H7.03423H7.05069H7.06715H7.08361H7.10007H7.11652H7.13298H7.14944H7.1659H7.18235H7.19881H7.21527H7.23173H7.24819H7.26464H7.2811H7.29756H7.31402H7.33048H7.34693H7.36339H7.37985H7.39631H7.41276H7.42922H7.44568H7.46214H7.4786H7.49505H7.51151H7.52797H7.54443H7.56088H7.57734H7.5938H7.61026H7.62672H7.64317H7.65963H7.67609H7.69255H7.70901H7.72546H7.74192H7.75838H7.77484H7.7913H7.80775H7.82421H7.84067H7.85713H7.87358H7.89004H7.9065H7.92296H7.93942H7.95587H7.97233H7.98879H8.00525H8.0217H8.03816H8.05462H8.07108H8.08754H8.10399H8.12045H8.13691H8.15337H8.16983H8.18628H8.20274H8.2192H8.23566H8.25211H8.26857H8.28503H8.30149H8.31795H8.3344H8.35086H8.36732H8.38378H8.40024H8.41669H8.43315H8.44961H8.46607H8.48252H8.49898H8.51544H8.5319H8.54836H8.56481H8.58127H8.59773H8.61419H8.63064H8.6471H8.66356H8.68002H8.69648H8.71293H8.72939H8.74585H8.76231H8.77877H8.79522H8.81168H8.82814H8.8446H8.86105H8.87751H8.89397H8.91043H8.92689H8.94334H8.9598H8.97626H8.99272H9.00918H9.02563H9.04209H9.05855H9.07501H9.09146H9.10792H9.12438H9.14084H9.1573H9.17375H9.19021H9.20667H9.22313H9.23958H9.25604H9.2725H9.28896H9.30542H9.32187H9.33833H9.35479H9.37125H9.38771H9.40416H9.42062H9.43708H9.45354H9.46999H9.48645H9.50291H9.51937H9.53583H9.55228H9.56874H9.5852H9.60166H9.61812H9.63457H9.65103H9.66749H9.68395H9.7004H9.71686H9.73332H9.74978H9.76624H9.78269H9.79915H9.81561H9.83207H9.84853H9.86498H9.88144H9.8979H9.91436H9.93081H9.94727H9.96373H9.98019H9.99664H10.0131H10.0296H10.046H10.0625H10.0789H10.0954H10.1119H10.1283H10.1448H10.1612H10.1777H10.1941H10.2106H10.2271H10.2435H10.26H10.2764H10.2929H10.3093H10.3258H10.3423H10.3587H10.3752H10.3916H10.4081H10.4245H10.441H10.4575H10.4739H10.4904H10.5068H10.5233H10.5398H10.5562H10.5727H10.5891H10.6056H10.622H10.6385H10.655H10.6714H10.6879H10.7043H10.7208H10.7372H10.7537H10.7702H10.7866H10.8031H10.8195H10.836H10.8525H10.8689H10.8854H10.9018H10.9183H10.9347H10.9512H10.9677H10.9841H11.0006H11.017H11.0335H11.0499H11.0664H11.0829H11.0993H11.1158H11.1322H11.1487H11.1652H11.1816H11.1981H11.2145H11.231H11.2474H11.2639H11.2804H11.2968H11.3133H11.3297H11.3462H11.3626H11.3791H11.3956H11.412H11.4285H11.4449H11.4614H11.4779H11.4943H11.5108H11.5272H11.5437H11.5601H11.5766H11.5931H11.6095H11.626H11.6424H11.6589H11.6753H11.6918H11.7083H11.7247H11.7412H11.7576H11.7741H11.7906H11.807H11.8235H11.8399H11.8564H11.8728H11.8893H11.9058H11.9222H11.9387H11.9551H11.9716H11.988H12.0045H12.021H12.0374H12.0539H12.0703H12.0868H12.1032H12.1197H12.1362H12.1526H12.1691H12.1855H12.202H12.2185H12.2349H12.2514H12.2678H12.2843H12.3007H12.3172H12.3337H12.3501H12.3666H12.383H12.3995H12.4159H12.4324H12.4489H12.4653H12.4818H12.4982H12.5147H12.5312H12.5476H12.5641H12.5805H12.597H12.6134H12.6299H12.6464H12.6628H12.6793H12.6957H12.7122H12.7286H12.7451H12.7616H12.778H12.7945H12.8109H12.8274H12.8439H12.8603H12.8768H12.8932H12.9097H12.9261H12.9426H12.9591H12.9755H12.992H13.0084H13.0249H13.0413H13.0578H13.0743H13.0907H13.1072H13.1236H13.1401H13.1566H13.173H13.1895H13.2059H13.2224H13.2388H13.2553H13.2718H13.2882H13.3047H13.3211H13.3376H13.354H13.3705H13.387H13.4034H13.4199H13.4363H13.4528H13.4693H13.4857H13.5022H13.5186H13.5351H13.5515H13.568H13.5845H13.6009H13.6174H13.6338H13.6503H13.6667H13.6832H13.6997H13.7161H13.7326H13.749H13.7655H13.7819H13.7984H13.8149H13.8313H13.8478H13.8642H13.8807H13.8972H13.9136H13.9301H13.9465H13.963H13.9794C14.2092 28.7508 14.4046 28.7538 14.5613 28.7758C14.7181 28.7979 14.8752 28.8438 14.997 28.9608C15.1202 29.0791 15.1702 29.2344 15.1944 29.3901C15.2183 29.5442 15.222 29.7359 15.2223 29.9599V29.9603L2.22299 18.6152ZM2.22299 18.6152C2.23116 17.6077 2.57409 16.7843 3.1503 16.2113M2.22299 18.6152L3.1503 16.2113M3.1503 16.2113C3.72662 15.6382 4.5547 15.2975 5.5668 15.29L3.1503 16.2113ZM15.2223 38.4137V38.4302V38.4137ZM15.2223 38.4137V38.3971M15.2223 38.4137V38.3971M15.2223 38.3971V38.3806M15.2223 38.3971V38.3806M15.2223 38.3806V38.364M15.2223 38.3806V38.364M15.2223 38.364V38.3475M15.2223 38.364V38.3475M15.2223 38.3475V38.3309M15.2223 38.3475V38.3309M15.2223 38.3309V38.3144M15.2223 38.3309V38.3144M15.2223 38.3144V38.2978M15.2223 38.3144V38.2978M15.2223 38.2978V38.2813M15.2223 38.2978V38.2813M15.2223 38.2813V38.2648M15.2223 38.2813V38.2648M15.2223 38.2648V38.2482M15.2223 38.2648V38.2482M15.2223 38.2482V38.2317M15.2223 38.2482V38.2317M15.2223 38.2317V38.2151M15.2223 38.2317V38.2151M15.2223 38.2151V38.1986M15.2223 38.2151V38.1986M15.2223 38.1986V38.1821M15.2223 38.1986V38.1821M15.2223 38.1821V38.1655M15.2223 38.1821V38.1655M15.2223 38.1655V38.149M15.2223 38.1655V38.149M15.2223 38.149V38.1324M15.2223 38.149V38.1324M15.2223 38.1324V38.1159M15.2223 38.1324V38.1159M15.2223 38.1159V38.0993M15.2223 38.1159V38.0993M15.2223 38.0993V38.0828M15.2223 38.0993V38.0828M15.2223 38.0828V38.0662M15.2223 38.0828V38.0662M15.2223 38.0662V38.0497M15.2223 38.0662V38.0497M15.2223 38.0497V38.0332M15.2223 38.0497V38.0332M15.2223 38.0332V38.0166M15.2223 38.0332V38.0166M15.2223 38.0166V38.0001M15.2223 38.0166V38.0001M15.2223 38.0001V37.9835M15.2223 38.0001V37.9835M15.2223 37.9835V37.967M15.2223 37.9835V37.967M15.2223 37.967V37.9505M15.2223 37.967V37.9505M15.2223 37.9505V37.9339M15.2223 37.9505V37.9339M15.2223 37.9339V37.9174M15.2223 37.9339V37.9174M15.2223 37.9174V37.9008M15.2223 37.9174V37.9008M15.2223 37.9008V37.8843M15.2223 37.9008V37.8843M15.2223 37.8843V37.8677M15.2223 37.8843V37.8677M15.2223 37.8677V37.8512M15.2223 37.8677V37.8512M15.2223 37.8512V37.8347M15.2223 37.8512V37.8347M15.2223 37.8347V37.8181M15.2223 37.8347V37.8181M15.2223 37.8181V37.8016M15.2223 37.8181V37.8016M15.2223 37.8016V37.785M15.2223 37.8016V37.785M15.2223 37.785V37.7685M15.2223 37.785V37.7685M15.2223 37.7685V37.7519M15.2223 37.7685V37.7519M15.2223 37.7519V37.7354M15.2223 37.7519V37.7354M15.2223 37.7354V37.7189M15.2223 37.7354V37.7189M15.2223 37.7189V37.7023M15.2223 37.7189V37.7023M15.2223 37.7023V37.6858M15.2223 37.7023V37.6858M15.2223 37.6858V37.6692M15.2223 37.6858V37.6692M15.2223 37.6692V37.6527M15.2223 37.6692V37.6527M15.2223 37.6527V37.6361M15.2223 37.6527V37.6361M15.2223 37.6361V37.6196M15.2223 37.6361V37.6196M15.2223 37.6196V37.6031M15.2223 37.6196V37.6031M15.2223 37.6031V37.5865M15.2223 37.6031V37.5865M15.2223 37.5865V37.57M15.2223 37.5865V37.57M15.2223 37.57V37.5534M15.2223 37.57V37.5534M15.2223 37.5534V37.5369M15.2223 37.5534V37.5369M15.2223 37.5369V37.5203M15.2223 37.5369V37.5203M15.2223 37.5203V37.5038M15.2223 37.5203V37.5038M15.2223 37.5038V37.4873M15.2223 37.5038V37.4873M15.2223 37.4873V37.4707M15.2223 37.4873V37.4707M15.2223 37.4707V37.4542M15.2223 37.4707V37.4542M15.2223 37.4542V37.4376M15.2223 37.4542V37.4376M15.2223 37.4376V37.4211M15.2223 37.4376V37.4211M15.2223 37.4211V37.4045M15.2223 37.4211V37.4045M15.2223 37.4045V37.388M15.2223 37.4045V37.388M15.2223 37.388V37.3715M15.2223 37.388V37.3715M15.2223 37.3715V37.3549M15.2223 37.3715V37.3549M15.2223 37.3549V37.3384M15.2223 37.3549V37.3384M15.2223 37.3384V37.3218M15.2223 37.3384V37.3218M15.2223 37.3218V37.3053M15.2223 37.3218V37.3053M15.2223 37.3053V37.2887M15.2223 37.3053V37.2887M15.2223 37.2887V37.2722M15.2223 37.2887V37.2722M15.2223 37.2722V37.2557M15.2223 37.2722V37.2557M15.2223 37.2557V37.2391M15.2223 37.2557V37.2391M15.2223 37.2391V37.2226M15.2223 37.2391V37.2226M15.2223 37.2226V37.206M15.2223 37.2226V37.206M15.2223 37.206V37.1895M15.2223 37.206V37.1895M15.2223 37.1895V37.1729M15.2223 37.1895V37.1729M15.2223 37.1729V37.1564M15.2223 37.1729V37.1564M15.2223 37.1564V37.1399M15.2223 37.1564V37.1399M15.2223 37.1399V37.1233M15.2223 37.1399V37.1233M15.2223 37.1233V37.1068M15.2223 37.1233V37.1068M15.2223 37.1068V37.0902M15.2223 37.1068V37.0902M15.2223 37.0902V37.0737M15.2223 37.0902V37.0737M15.2223 37.0737V37.0571M15.2223 37.0737V37.0571M15.2223 37.0571V37.0406M15.2223 37.0571V37.0406M15.2223 37.0406V37.0241M15.2223 37.0406V37.0241M15.2223 37.0241V37.0075M15.2223 37.0241V37.0075M15.2223 37.0075V36.991M15.2223 37.0075V36.991M15.2223 36.991V36.9744M15.2223 36.991V36.9744M15.2223 36.9744V36.9579M15.2223 36.9744V36.9579M15.2223 36.9579V36.9413M15.2223 36.9579V36.9413M15.2223 36.9413V36.9248M15.2223 36.9413V36.9248M15.2223 36.9248V36.9083M15.2223 36.9248V36.9083M15.2223 36.9083V36.8917M15.2223 36.9083V36.8917M15.2223 36.8917V36.8752M15.2223 36.8917V36.8752M15.2223 36.8752V36.8586M15.2223 36.8752V36.8586M15.2223 36.8586V36.8421M15.2223 36.8586V36.8421M15.2223 36.8421V36.8255M15.2223 36.8421V36.8255M15.2223 36.8255V36.809M15.2223 36.8255V36.809M15.2223 36.809V36.7925M15.2223 36.809V36.7925M15.2223 36.7925V36.7759M15.2223 36.7925V36.7759M15.2223 36.7759V36.7594M15.2223 36.7759V36.7594M15.2223 36.7594V36.7428M15.2223 36.7594V36.7428M15.2223 36.7428V36.7263M15.2223 36.7428V36.7263M15.2223 36.7263V36.7097M15.2223 36.7263V36.7097M15.2223 36.7097V36.6932M15.2223 36.7097V36.6932M15.2223 36.6932V36.6767M15.2223 36.6932V36.6767M15.2223 36.6767V36.6601M15.2223 36.6767V36.6601M15.2223 36.6601V36.6436M15.2223 36.6601V36.6436M15.2223 36.6436V36.627M15.2223 36.6436V36.627M15.2223 36.627V36.6105M15.2223 36.627V36.6105M15.2223 36.6105V36.5939M15.2223 36.6105V36.5939M15.2223 36.5939V36.5774M15.2223 36.5939V36.5774M15.2223 36.5774V36.5609M15.2223 36.5774V36.5609M15.2223 36.5609V36.5443M15.2223 36.5609V36.5443M15.2223 36.5443V36.5278M15.2223 36.5443V36.5278M15.2223 36.5278V36.5112M15.2223 36.5278V36.5112M15.2223 36.5112V36.4947M15.2223 36.5112V36.4947M15.2223 36.4947V36.4781M15.2223 36.4947V36.4781M15.2223 36.4781V36.4616M15.2223 36.4781V36.4616M15.2223 36.4616V36.4451M15.2223 36.4616V36.4451M15.2223 36.4451V36.4285M15.2223 36.4451V36.4285M15.2223 36.4285V36.412M15.2223 36.4285V36.412M15.2223 36.412V36.3954M15.2223 36.412V36.3954M15.2223 36.3954V36.3789M15.2223 36.3954V36.3789M15.2223 36.3789V36.3623M15.2223 36.3789V36.3623M15.2223 36.3623V36.3458M15.2223 36.3623V36.3458M15.2223 36.3458V36.3293M15.2223 36.3458V36.3293M15.2223 36.3293V36.3127M15.2223 36.3293V36.3127M15.2223 36.3127V36.2962M15.2223 36.3127V36.2962M15.2223 36.2962V36.2796M15.2223 36.2962V36.2796M15.2223 36.2796V36.2631M15.2223 36.2796V36.2631M15.2223 36.2631V36.2465M15.2223 36.2631V36.2465M15.2223 36.2465V36.23M15.2223 36.2465V36.23M15.2223 36.23V36.2135M15.2223 36.23V36.2135M15.2223 36.2135V36.1969M15.2223 36.2135V36.1969M15.2223 36.1969V36.1804M15.2223 36.1969V36.1804M15.2223 36.1804V36.1638M15.2223 36.1804V36.1638M15.2223 36.1638V36.1473M15.2223 36.1638V36.1473M15.2223 36.1473V36.1307M15.2223 36.1473V36.1307M15.2223 36.1307V36.1142M15.2223 36.1307V36.1142M15.2223 36.1142V36.0977M15.2223 36.1142V36.0977M15.2223 36.0977V36.0811M15.2223 36.0977V36.0811M15.2223 36.0811V36.0646M15.2223 36.0811V36.0646M15.2223 36.0646V36.048M15.2223 36.0646V36.048M15.2223 36.048V36.0315M15.2223 36.048V36.0315M15.2223 36.0315V36.0149M15.2223 36.0315V36.0149M15.2223 36.0149V35.9984M15.2223 36.0149V35.9984M15.2223 35.9984V35.9819M15.2223 35.9984V35.9819M15.2223 35.9819V35.9653M15.2223 35.9819V35.9653M15.2223 35.9653V35.9488M15.2223 35.9653V35.9488M15.2223 35.9488V35.9322M15.2223 35.9488V35.9322M15.2223 35.9322V35.9157M15.2223 35.9322V35.9157M15.2223 35.9157V35.8991M15.2223 35.9157V35.8991M15.2223 35.8991V35.8826M15.2223 35.8991V35.8826M15.2223 35.8826V35.8661M15.2223 35.8826V35.8661M15.2223 35.8661V35.8495M15.2223 35.8661V35.8495M15.2223 35.8495V35.833M15.2223 35.8495V35.833M15.2223 35.833V35.8164M15.2223 35.833V35.8164M15.2223 35.8164V35.7999M15.2223 35.8164V35.7999M15.2223 35.7999V35.7833M15.2223 35.7999V35.7833M15.2223 35.7833V35.7668M15.2223 35.7833V35.7668M15.2223 35.7668V35.7503M15.2223 35.7668V35.7503M15.2223 35.7503V35.7337M15.2223 35.7503V35.7337M15.2223 35.7337V35.7172M15.2223 35.7337V35.7172M15.2223 35.7172V35.7006M15.2223 35.7172V35.7006M15.2223 35.7006V35.6841M15.2223 35.7006V35.6841M15.2223 35.6841V35.6675M15.2223 35.6841V35.6675M15.2223 35.6675V35.651M15.2223 35.6675V35.651M15.2223 35.651V35.6345M15.2223 35.651V35.6345M15.2223 35.6345V35.6179M15.2223 35.6345V35.6179M15.2223 35.6179V35.6014M15.2223 35.6179V35.6014M15.2223 35.6014V35.5848M15.2223 35.6014V35.5848M15.2223 35.5848V35.5683M15.2223 35.5848V35.5683M15.2223 35.5683V35.5517M15.2223 35.5683V35.5517M15.2223 35.5517V35.5352M15.2223 35.5517V35.5352M15.2223 35.5352V35.5187M15.2223 35.5352V35.5187M15.2223 35.5187V35.5021M15.2223 35.5187V35.5021M15.2223 35.5021V35.4856M15.2223 35.5021V35.4856M15.2223 35.4856V35.469M15.2223 35.4856V35.469M15.2223 35.469V35.4525M15.2223 35.469V35.4525M15.2223 35.4525V35.4359M15.2223 35.4525V35.4359M15.2223 35.4359V35.4194M15.2223 35.4359V35.4194M15.2223 35.4194V35.4029M15.2223 35.4194V35.4029M15.2223 35.4029V35.3863M15.2223 35.4029V35.3863M15.2223 35.3863V35.3698M15.2223 35.3863V35.3698M15.2223 35.3698V35.3532M15.2223 35.3698V35.3532M15.2223 35.3532V35.3367M15.2223 35.3532V35.3367M15.2223 35.3367V35.3201M15.2223 35.3367V35.3201M15.2223 35.3201V35.3036M15.2223 35.3201V35.3036M15.2223 35.3036V35.2871M15.2223 35.3036V35.2871M15.2223 35.2871V35.2705M15.2223 35.2871V35.2705M15.2223 35.2705V35.254M15.2223 35.2705V35.254M15.2223 35.254V35.2374M15.2223 35.254V35.2374M15.2223 35.2374V35.2209M15.2223 35.2374V35.2209M15.2223 35.2209V35.2043M15.2223 35.2209V35.2043M15.2223 35.2043V35.1878M15.2223 35.2043V35.1878M15.2223 35.1878V35.1713M15.2223 35.1878V35.1713M15.2223 35.1713V35.1547M15.2223 35.1713V35.1547M15.2223 35.1547V35.1382M15.2223 35.1547V35.1382M15.2223 35.1382V35.1216M15.2223 35.1382V35.1216M15.2223 35.1216V35.1051M15.2223 35.1216V35.1051M15.2223 35.1051V35.0885M15.2223 35.1051V35.0885M15.2223 35.0885V35.072M15.2223 35.0885V35.072M15.2223 35.072V35.0555M15.2223 35.072V35.0555M15.2223 35.0555V35.0389M15.2223 35.0555V35.0389M15.2223 35.0389V35.0224M15.2223 35.0389V35.0224M15.2223 35.0224V35.0058M15.2223 35.0224V35.0058M15.2223 35.0058V34.9893M15.2223 35.0058V34.9893M15.2223 34.9893V34.9727M15.2223 34.9893V34.9727M15.2223 34.9727V34.9562M15.2223 34.9727V34.9562M15.2223 34.9562V34.9397M15.2223 34.9562V34.9397M15.2223 34.9397V34.9231M15.2223 34.9397V34.9231M15.2223 34.9231V34.9066M15.2223 34.9231V34.9066M15.2223 34.9066V34.89M15.2223 34.9066V34.89M15.2223 34.89V34.8735M15.2223 34.89V34.8735M15.2223 34.8735V34.8569M15.2223 34.8735V34.8569M15.2223 34.8569V34.8404M15.2223 34.8569V34.8404M15.2223 34.8404V34.8239M15.2223 34.8404V34.8239M15.2223 34.8239V34.8073M15.2223 34.8239V34.8073M15.2223 34.8073V34.7908M15.2223 34.8073V34.7908M15.2223 34.7908V34.7742M15.2223 34.7908V34.7742M15.2223 34.7742V34.7577M15.2223 34.7742V34.7577M15.2223 34.7577V34.7411M15.2223 34.7577V34.7411M15.2223 34.7411V34.7246M15.2223 34.7411V34.7246M15.2223 34.7246V34.7081M15.2223 34.7246V34.7081M15.2223 34.7081V34.6915M15.2223 34.7081V34.6915M15.2223 34.6915V34.675M15.2223 34.6915V34.675M15.2223 34.675V34.6584M15.2223 34.675V34.6584M15.2223 34.6584V34.6419M15.2223 34.6584V34.6419M15.2223 34.6419V34.6253M15.2223 34.6419V34.6253M15.2223 34.6253V34.6088M15.2223 34.6253V34.6088M15.2223 34.6088V34.5923M15.2223 34.6088V34.5923M15.2223 34.5923V34.5757M15.2223 34.5923V34.5757M15.2223 34.5757V34.5592M15.2223 34.5757V34.5592M15.2223 34.5592V34.5426M15.2223 34.5592V34.5426M15.2223 34.5426V34.5261M15.2223 34.5426V34.5261M15.2223 34.5261V34.5095M15.2223 34.5261V34.5095M15.2223 34.5095V34.493M15.2223 34.5095V34.493M15.2223 34.493V34.4765M15.2223 34.493V34.4765M15.2223 34.4765V34.4599M15.2223 34.4765V34.4599M15.2223 34.4599V34.4434M15.2223 34.4599V34.4434M15.2223 34.4434V34.4268M15.2223 34.4434V34.4268M15.2223 34.4268V34.4103M15.2223 34.4268V34.4103M15.2223 34.4103V34.3937M15.2223 34.4103V34.3937M15.2223 34.3937V34.3772M15.2223 34.3937V34.3772M15.2223 34.3772V34.3607M15.2223 34.3772V34.3607M15.2223 34.3607V34.3441M15.2223 34.3607V34.3441M15.2223 34.3441V34.3276M15.2223 34.3441V34.3276M15.2223 34.3276V34.311M15.2223 34.3276V34.311M15.2223 34.311V34.2945M15.2223 34.311V34.2945M15.2223 34.2945V34.2779M15.2223 34.2945V34.2779M15.2223 34.2779V34.2614M15.2223 34.2779V34.2614M15.2223 34.2614V34.2449M15.2223 34.2614V34.2449M15.2223 34.2449V34.2283M15.2223 34.2449V34.2283M15.2223 34.2283V34.2118M15.2223 34.2283V34.2118M15.2223 34.2118V34.1952M15.2223 34.2118V34.1952M15.2223 34.1952V34.1787M15.2223 34.1952V34.1787M15.2223 34.1787V34.1621M15.2223 34.1787V34.1621M15.2223 34.1621V34.1456M15.2223 34.1621V34.1456M15.2223 34.1456V34.1291M15.2223 34.1456V34.1291M15.2223 34.1291V34.1125M15.2223 34.1291V34.1125M15.2223 34.1125V34.096M15.2223 34.1125V34.096M15.2223 34.096V34.0794M15.2223 34.096V34.0794M15.2223 34.0794V34.0629M15.2223 34.0794V34.0629M15.2223 34.0629V34.0463M15.2223 34.0629V34.0463M15.2223 34.0463V34.0298M15.2223 34.0463V34.0298M15.2223 34.0298V34.0133M15.2223 34.0298V34.0133M15.2223 34.0133V33.9967M15.2223 34.0133V33.9967M15.2223 33.9967V33.9802M15.2223 33.9967V33.9802M15.2223 33.9802V33.9636M15.2223 33.9802V33.9636M15.2223 33.9636V33.9471M15.2223 33.9636V33.9471M15.2223 33.9471V33.9305M15.2223 33.9471V33.9305M15.2223 33.9305V33.914M15.2223 33.9305V33.914M15.2223 33.914V33.8975M15.2223 33.914V33.8975M15.2223 33.8975V33.8809M15.2223 33.8975V33.8809M15.2223 33.8809V33.8644M15.2223 33.8809V33.8644M15.2223 33.8644V33.8478M15.2223 33.8644V33.8478M15.2223 33.8478V33.8313M15.2223 33.8478V33.8313M15.2223 33.8313V33.8147M15.2223 33.8313V33.8147M15.2223 33.8147V33.7982M15.2223 33.8147V33.7982M15.2223 33.7982V33.7817M15.2223 33.7982V33.7817M15.2223 33.7817V33.7651M15.2223 33.7817V33.7651M15.2223 33.7651V33.7486M15.2223 33.7651V33.7486M15.2223 33.7486V33.732M15.2223 33.7486V33.732M15.2223 33.732V33.7155M15.2223 33.732V33.7155M15.2223 33.7155V33.6989M15.2223 33.7155V33.6989M15.2223 33.6989V33.6824M15.2223 33.6989V33.6824M15.2223 33.6824V33.6659M15.2223 33.6824V33.6659M15.2223 33.6659V33.6493M15.2223 33.6659V33.6493M15.2223 33.6493V33.6328M15.2223 33.6493V33.6328M15.2223 33.6328V33.6162M15.2223 33.6328V33.6162M15.2223 33.6162V33.5997M15.2223 33.6162V33.5997M15.2223 33.5997V33.5831M15.2223 33.5997V33.5831M15.2223 33.5831V33.5666M15.2223 33.5831V33.5666M15.2223 33.5666V33.5501M15.2223 33.5666V33.5501M15.2223 33.5501V33.5335M15.2223 33.5501V33.5335M15.2223 33.5335V33.517M15.2223 33.5335V33.517M15.2223 33.517V33.5004M15.2223 33.517V33.5004M15.2223 33.5004V33.4839M15.2223 33.5004V33.4839M15.2223 33.4839V33.4673M15.2223 33.4839V33.4673M15.2223 33.4673V33.4508M15.2223 33.4673V33.4508M15.2223 33.4508V33.4343M15.2223 33.4508V33.4343M15.2223 33.4343V33.4177M15.2223 33.4343V33.4177M15.2223 33.4177V33.4012M15.2223 33.4177V33.4012M15.2223 33.4012V33.3846M15.2223 33.4012V33.3846M15.2223 33.3846V33.3681M15.2223 33.3846V33.3681M15.2223 33.3681V33.3515M15.2223 33.3681V33.3515M15.2223 33.3515V33.335M15.2223 33.3515V33.335M15.2223 33.335V33.3185M15.2223 33.335V33.3185M15.2223 33.3185V33.3019M15.2223 33.3185V33.3019M15.2223 33.3019V33.2854M15.2223 33.3019V33.2854M15.2223 33.2854V33.2688M15.2223 33.2854V33.2688M15.2223 33.2688V33.2523M15.2223 33.2688V33.2523M15.2223 33.2523V33.2357M15.2223 33.2523V33.2357M15.2223 33.2357V33.2192M15.2223 33.2357V33.2192M15.2223 33.2192V33.2027M15.2223 33.2192V33.2027M15.2223 33.2027V33.1861M15.2223 33.2027V33.1861M15.2223 33.1861V33.1696M15.2223 33.1861V33.1696M15.2223 33.1696V33.153M15.2223 33.1696V33.153M15.2223 33.153V33.1365M15.2223 33.153V33.1365M15.2223 33.1365V33.1199M15.2223 33.1365V33.1199M15.2223 33.1199V33.1034M15.2223 33.1199V33.1034M15.2223 33.1034V33.0869M15.2223 33.1034V33.0869M15.2223 33.0869V33.0703M15.2223 33.0869V33.0703M15.2223 33.0703V33.0538M15.2223 33.0703V33.0538M15.2223 33.0538V33.0372V33.0538ZM25.3713 41.7958H25.3707L25.3713 42.0458V41.7958Z" fill="white" stroke="white" stroke-width="0.5"/>
<path d="M13.7504 5.48551H13.7504V5.48735V5.49409V5.50083V5.50756V5.5143V5.52104V5.52777V5.53451V5.54124V5.54798V5.55472V5.56145V5.56819V5.57493V5.58166V5.5884V5.59514V5.60187V5.60861V5.61535V5.62208V5.62882V5.63555V5.64229V5.64903V5.65576V5.6625V5.66924V5.67597V5.68271V5.68945V5.69618V5.70292V5.70965V5.71639V5.72313V5.72986V5.7366V5.74334V5.75007V5.75681V5.76355V5.77028V5.77702V5.78376V5.79049V5.79723V5.80396V5.8107V5.81744V5.82417V5.83091V5.83765V5.84438V5.85112V5.85786V5.86459V5.87133V5.87806V5.8848V5.89154V5.89827V5.90501V5.91175V5.91848V5.92522V5.93195V5.93869V5.94543V5.95216V5.9589V5.96564V5.97237V5.97911V5.98585V5.99258V5.99932V6.00605V6.01279V6.01953V6.02626V6.033V6.03974V6.04647V6.05321V6.05994V6.06668V6.07342V6.08015V6.08689V6.09363V6.10036V6.1071V6.11383V6.12057V6.12731V6.13404V6.14078V6.14751V6.15425V6.16099V6.16772V6.17446V6.1812V6.18793V6.19467V6.2014V6.20814V6.21488V6.22161V6.22835V6.23508V6.24182V6.24856V6.25529V6.26203V6.26876V6.2755V6.28224V6.28897V6.29571V6.30244V6.30918V6.31592V6.32265V6.32939V6.33612V6.34286V6.3496V6.35633V6.36307V6.3698V6.37654V6.38328V6.39001V6.39675V6.40348V6.41022V6.41696V6.42369V6.43043V6.43716V6.4439V6.45063V6.45737V6.46411V6.47084V6.47758V6.48431V6.49105V6.49779V6.50452V6.51126V6.51799V6.52473V6.53146V6.5382V6.54494V6.55167V6.55841V6.56514V6.57188V6.57861V6.58535V6.59209V6.59882V6.60556V6.61229V6.61903V6.62576V6.6325V6.63923V6.64597V6.65271V6.65944V6.66618V6.67291V6.67965V6.68638V6.69312V6.69985V6.70659V6.71333V6.72006V6.7268V6.73353V6.74027V6.747V6.75374V6.76047V6.76721V6.77394V6.78068V6.78741V6.79415V6.80089V6.80762V6.81436V6.82109V6.82783V6.83456V6.8413V6.84803V6.85477V6.8615V6.86824V6.87497V6.88171V6.88844V6.89518V6.90191V6.90865V6.91538V6.92212V6.92885V6.93559V6.94232V6.94906V6.95579V6.96253V6.96926V6.976V6.98273V6.98947V6.9962V7.00294V7.00967V7.01641V7.02314V7.02988V7.03661V7.04335V7.05008V7.05682V7.06355V7.07029V7.07702V7.08376V7.09049V7.09723V7.10396V7.1107V7.11743V7.12417V7.1309V7.13764V7.14437V7.1511V7.15784V7.16457V7.17131V7.17804V7.18478V7.19151V7.19825V7.20498V7.21172V7.21845V7.22518V7.23192V7.23865V7.24539V7.25212V7.25886V7.26559V7.27233V7.27906V7.28579V7.29253V7.29926V7.306V7.31273V7.31947V7.3262V7.33293V7.33967V7.3464V7.35314V7.35987V7.3666V7.37334V7.38007V7.38681V7.39354V7.40028V7.40701V7.41374V7.42048V7.42721V7.43395V7.44068V7.44741V7.45415V7.46088V7.46762V7.47435V7.48108V7.48782V7.49455V7.50128V7.50802V7.51475V7.52149V7.52822V7.53495V7.54169V7.54842V7.55515V7.56189V7.56862V7.57535V7.58209V7.58882V7.59556V7.60229V7.60902V7.61576V7.62249V7.62922V7.63596V7.64269V7.64942V7.65616V7.66289V7.66962V7.67636V7.68309V7.68982V7.69656V7.70329V7.71002V7.71676V7.72349V7.73022V7.73696V7.74369V7.75042V7.75715V7.76389V7.77062V7.77735V7.78409V7.79082V7.79755V7.80429V7.81102V7.81775V7.82448V7.83122V7.83795V7.84468V7.85142V7.85815V7.86488V7.87161V7.87835V7.88508V7.89181V7.89854V7.90528V7.91201V7.91874V7.92548V7.93221V7.93894V7.94567V7.95241V7.95914V7.96587V7.9726V7.97933V7.98607V7.9928V7.99953V8.00626V8.013V8.01973V8.02646V8.03319V8.03993V8.04666V8.05339V8.06012V8.06685V8.07359V8.08032V8.08705V8.09378V8.10051V8.10725V8.11398V8.12071V8.12744V8.13417V8.14091V8.14764V8.15437V8.1611V8.16783V8.17456V8.1813V8.18803V8.19476V8.20149V8.20822V8.21495V8.22169V8.22842V8.23515V8.24188V8.24861V8.25534V8.26207V8.26881V8.27554V8.28227V8.289V8.29573V8.30246V8.30919V8.31593V8.32266V8.32939V8.33612V8.34285V8.34958V8.35631V8.36304V8.36977V8.37651V8.38324V8.38997V8.3967V8.40343V8.41016V8.41689V8.42362V8.43035V8.43708V8.44381V8.45054V8.45728V8.46401V8.47074V8.47747V8.4842V8.49093V8.49766V8.50439V8.51112V8.51785V8.52458V8.53131V8.53804V8.54477V8.5515V8.55823V8.56496V8.57169V8.57842V8.58515V8.59188V8.59861V8.60534V8.61207V8.6188V8.62553V8.63226V8.63899V8.64572V8.65245V8.65918V8.66591V8.67264V8.67937V8.6861V8.69283V8.69956V8.70629V8.71302V8.71975V8.72648V8.73321V8.73994V8.74667V8.7534V8.76013V8.76686V8.77359V8.78032V8.78705V8.79378V8.8005V8.80723V8.81396V8.82069V8.82742V8.83415V8.84088V8.84761V8.85434V8.86107V8.8678V8.87452V8.88125V8.88798V8.89471V8.90144V8.90817V8.9149V8.92163V8.92836V8.93508C13.7504 8.95293 13.7503 8.97174 13.7502 8.99127C13.7498 9.06814 13.7494 9.1561 13.7541 9.24007C13.76 9.34625 13.7745 9.46687 13.816 9.58079C13.8589 9.69846 13.9333 9.81579 14.0599 9.89967C14.1845 9.98219 14.3352 10.0161 14.5026 10.0139C14.6599 10.0136 14.8023 9.97816 14.9203 9.89686C15.0392 9.81484 15.1099 9.70234 15.1515 9.59034C15.2218 9.40111 15.221 9.17134 15.2204 9.00816C15.2204 8.99435 15.2204 8.98102 15.2204 8.96824C15.2204 8.58164 15.2184 8.19672 15.2165 7.81272C15.2127 7.04814 15.2088 6.28724 15.2203 5.52427C15.2502 3.61348 16.5987 2.27845 18.5132 2.26443H18.5191H18.5258H18.5326H18.5394H18.5461H18.5529H18.5597H18.5664H18.5732H18.58H18.5867H18.5935H18.6003H18.607H18.6138H18.6206H18.6273H18.6341H18.6409H18.6476H18.6544H18.6612H18.6679H18.6747H18.6815H18.6882H18.695H18.7018H18.7085H18.7153H18.7221H18.7288H18.7356H18.7424H18.7491H18.7559H18.7627H18.7694H18.7762H18.783H18.7897H18.7965H18.8032H18.81H18.8168H18.8235H18.8303H18.8371H18.8438H18.8506H18.8574H18.8641H18.8709H18.8777H18.8844H18.8912H18.8979H18.9047H18.9115H18.9182H18.925H18.9318H18.9385H18.9453H18.9521H18.9588H18.9656H18.9723H18.9791H18.9859H18.9926H18.9994H19.0062H19.0129H19.0197H19.0264H19.0332H19.04H19.0467H19.0535H19.0603H19.067H19.0738H19.0806H19.0873H19.0941H19.1008H19.1076H19.1144H19.1211H19.1279H19.1346H19.1414H19.1482H19.1549H19.1617H19.1685H19.1752H19.182H19.1887H19.1955H19.2023H19.209H19.2158H19.2226H19.2293H19.2361H19.2428H19.2496H19.2564H19.2631H19.2699H19.2766H19.2834H19.2902H19.2969H19.3037H19.3104H19.3172H19.324H19.3307H19.3375H19.3443H19.351H19.3578H19.3645H19.3713H19.3781H19.3848H19.3916H19.3983H19.4051H19.4119H19.4186H19.4254H19.4321H19.4389H19.4457H19.4524H19.4592H19.4659H19.4727H19.4795H19.4862H19.493H19.4997H19.5065H19.5133H19.52H19.5268H19.5335H19.5403H19.547H19.5538H19.5606H19.5673H19.5741H19.5808H19.5876H19.5944H19.6011H19.6079H19.6146H19.6214H19.6282H19.6349H19.6417H19.6484H19.6552H19.662H19.6687H19.6755H19.6822H19.689H19.6957H19.7025H19.7093H19.716H19.7228H19.7295H19.7363H19.743H19.7498H19.7566H19.7633H19.7701H19.7768H19.7836H19.7904H19.7971H19.8039H19.8106H19.8174H19.8241H19.8309H19.8377H19.8444H19.8512H19.8579H19.8647H19.8714H19.8782H19.885H19.8917H19.8985H19.9052H19.912H19.9187H19.9255H19.9323H19.939H19.9458H19.9525H19.9593H19.966H19.9728H19.9796H19.9863H19.9931H19.9998H20.0066H20.0133H20.0201H20.0269H20.0336H20.0404H20.0471H20.0539H20.0606H20.0674H20.0742H20.0809H20.0877H20.0944H20.1012H20.1079H20.1147H20.1214H20.1282H20.135H20.1417H20.1485H20.1552H20.162H20.1687H20.1755H20.1822H20.189H20.1958H20.2025H20.2093H20.216H20.2228H20.2295H20.2363H20.243H20.2498H20.2566H20.2633H20.2701H20.2768H20.2836H20.2903H20.2971H20.3038H20.3106H20.3174H20.3241H20.3309H20.3376H20.3444H20.3511H20.3579H20.3646H20.3714H20.3782H20.3849H20.3917H20.3984H20.4052H20.4119H20.4187H20.4254H20.4322H20.4389H20.4457H20.4525H20.4592H20.466H20.4727H20.4795H20.4862H20.493H20.4997H20.5065H20.5132H20.52H20.5268H20.5335H20.5403H20.547H20.5538H20.5605H20.5673H20.574H20.5808H20.5875H20.5943H20.601H20.6078H20.6146H20.6213H20.6281H20.6348H20.6416H20.6483H20.6551H20.6618H20.6686H20.6753H20.6821H20.6888H20.6956H20.7024H20.7091H20.7159H20.7226H20.7294H20.7361H20.7429H20.7496H20.7564H20.7631H20.7699H20.7766H20.7834H20.7902H20.7969H20.8037H20.8104H20.8172H20.8239H20.8307H20.8374H20.8442H20.8509H20.8577H20.8644H20.8712H20.8779H20.8847H20.8915H20.8982H20.905H20.9117H20.9185H20.9252H20.932H20.9387H20.9455H20.9522H20.959H20.9657H20.9725H20.9792H20.986H20.9927H20.9995H21.0063H21.013H21.0198H21.0265H21.0333H21.04H21.0468H21.0535H21.0603H21.067H21.0738H21.0805H21.0873H21.094H21.1008H21.1075H21.1143H21.121H21.1278H21.1346H21.1413H21.1481H21.1548H21.1616H21.1683H21.1751H21.1818H21.1886H21.1953H21.2021H21.2088H21.2156H21.2223H21.2291H21.2358H21.2426H21.2493H21.2561H21.2628H21.2696H21.2764H21.2831H21.2899H21.2966H21.3034H21.3101H21.3169H21.3236H21.3304H21.3371H21.3439H21.3506H21.3574H21.3641H21.3709H21.3776H21.3844H21.3911H21.3979H21.4046H21.4114H21.4181H21.4249H21.4317H21.4384H21.4452H21.4519H21.4587H21.4654H21.4722H21.4789H21.4857H21.4924H21.4992H21.5059H21.5127H21.5194H21.5262H21.5329H21.5397H21.5464H21.5532H21.5599H21.5667H21.5734H21.5802H21.5869H21.5937H21.6004H21.6072H21.614H21.6207H21.6275H21.6342H21.641H21.6477H21.6545H21.6612H21.668H21.6747H21.6815H21.6882H21.695H21.7017H21.7085H21.7152H21.722H21.7287H21.7355H21.7422H21.749H21.7557H21.7625H21.7692H21.776H21.7827H21.7895H21.7962H21.803H21.8097H21.8165H21.8233H21.83H21.8368H21.8435H21.8503H21.857H21.8638H21.8705H21.8773H21.884H21.8908H21.8975H21.9043H21.911H21.9178H21.9245H21.9313H21.938H21.9448H21.9515H21.9583H21.965H21.9718C22.5488 2.26443 23.1255 2.26343 23.7015 2.26244L23.7027 2.26244C24.2781 2.26144 24.8527 2.26045 25.4266 2.26045C26.4351 2.26561 27.2659 2.60941 27.8463 3.18628C28.4267 3.76313 28.7736 4.5899 28.7831 5.59251C28.7884 6.41719 28.7867 7.24038 28.7849 8.06463C28.784 8.47729 28.7831 8.89022 28.7831 9.30373C28.7831 9.47079 28.784 9.70771 28.8795 9.89949C28.9321 10.0051 29.0137 10.0998 29.1337 10.1643C29.2503 10.227 29.386 10.2519 29.5342 10.2499C29.6848 10.2478 29.8214 10.2167 29.9363 10.1453C30.0539 10.0723 30.128 9.97007 30.1729 9.86277C30.2477 9.68372 30.247 9.46633 30.2465 9.31521C30.2465 9.30345 30.2465 9.29209 30.2465 9.28118C30.2465 8.86296 30.2473 8.44402 30.2482 8.02468C30.25 7.18447 30.2518 6.34264 30.2464 5.50169C30.2297 2.83467 28.3138 0.830906 25.6355 0.780543L25.6351 0.780535C23.2159 0.739822 20.7973 0.739822 18.3791 0.780534C15.7004 0.825283 13.77 2.82525 13.7504 5.48551Z" fill="white" stroke="white" stroke-width="0.5"/>
</svg>
