<svg width="32" height="47" viewBox="0 0 32 47" fill="none" xmlns="http://www.w3.org/2000/svg">
<path d="M30.4472 44.6376H1.55371V7.04631H5.18465V9.11729H26.7672V7.0415H30.4444L30.4472 44.6376ZM26.8327 29.9743H4.53699V30.6594H26.8288L26.8327 29.9743ZM4.52544 41.4262H26.8153V40.7372H4.52544V41.4262ZM23.2662 17.1048C22.8389 17.1048 22.4578 17.0903 22.0796 17.1144C21.9699 17.1211 21.7775 17.2347 21.7746 17.3069C21.7505 17.9093 21.7611 18.5127 21.7611 19.1642H23.2922V20.6077H25.3439V19.1257H26.8211V17.1048H25.3237V15.6382H23.2701L23.2662 17.1048ZM4.53026 34.2346H26.8211V33.5609H4.53026V34.2346ZM4.53026 23.4649H20.1395V22.8163H4.53026V23.4649ZM4.53026 37.8039H18.8144V37.1563H4.53026V37.8039ZM4.53026 27.0487H16.3431V26.3751H4.53026V27.0487ZM4.53026 16.3108H13.4291V15.6199H4.53026V16.3108ZM13.432 19.1979H4.54854V19.8956H13.432V19.1979Z" fill="#4AB5DF"/>
<path d="M0 5.47592H5.18224V2.80926H5.79622C8.0895 2.80926 10.3828 2.80926 12.676 2.80926C12.9571 2.80926 13.1322 2.80349 13.1851 2.43202C13.2762 1.75712 13.6095 1.13832 14.1229 0.69092C14.6364 0.243519 15.2949 -0.00197817 15.9759 0.00016666C16.6565 -0.00719392 17.3173 0.229472 17.8384 0.66729C18.3596 1.10511 18.7067 1.71511 18.8168 2.38679C18.8389 2.50997 18.8572 2.63411 18.8851 2.8006H26.7841V5.47111H32V46.139H0.000963288L0 5.47592ZM30.4468 44.6377V7.04359H26.7668V9.11745H5.17647V7.04455H1.55323V44.6377H30.4468Z" fill="white"/>
<path d="M26.8328 28.4658V29.151H4.53711V28.4658H26.8328Z" fill="white"/>
<path d="M4.52539 39.9229V39.2339H26.8153V39.9229H4.52539Z" fill="white"/>
<path d="M23.2662 15.5964V14.124H25.3237V15.5964H26.825V17.6173H25.3478V19.1051H23.2961V17.6616H21.7631C21.7631 17.0101 21.7525 16.4106 21.7765 15.8043C21.7765 15.734 21.969 15.6205 22.0816 15.6118C22.4579 15.5858 22.839 15.5964 23.2662 15.5964Z" fill="white"/>
<path d="M4.53027 32.7332V32.0596H26.8211V32.7332H4.53027Z" fill="white"/>
<path d="M4.52637 21.9631V21.3145H20.1356V21.9631H4.52637Z" fill="white"/>
<path d="M4.52441 36.3024V35.6548H18.8086V36.3024H4.52441Z" fill="white"/>
<path d="M4.52832 25.5472V24.8735H16.3411V25.5472H4.52832Z" fill="white"/>
<path d="M4.52637 14.8091V14.1182H13.4252V14.8091H4.52637Z" fill="white"/>
<path d="M13.4284 17.6982V18.3873H4.54492V17.7011L13.4284 17.6982Z" fill="white"/>
</svg>
