<svg width="42" height="44" viewBox="0 0 42 44" fill="none" xmlns="http://www.w3.org/2000/svg">
<g filter="url(#filter0_d_40_1763)">
<path fill-rule="evenodd" clip-rule="evenodd" d="M27.6028 20.4318C29.8572 20.1204 31.9167 18.9859 33.3846 17.2467C33.5064 17.1076 33.5947 16.9425 33.6427 16.764C33.6908 16.5855 33.6973 16.3984 33.6619 16.217C35.9814 13.3883 37.3901 9.5639 37.3901 6.59941C37.3901 2.00558 35.229 1.50772 31.5516 0.760937V0.710022C31.4241 0.493653 31.2421 0.314493 31.0237 0.190412C30.8053 0.0663305 30.5582 0.00166226 30.307 0.00284374C30.1293 -0.00889349 29.9511 0.0159722 29.7834 0.0759097C29.6156 0.135847 29.462 0.229572 29.332 0.351288C29.202 0.473004 29.0983 0.620122 29.0275 0.78352C28.9566 0.946918 28.9201 1.12311 28.9201 1.30121C28.9201 1.47931 28.9566 1.65553 29.0275 1.81893C29.0983 1.98232 29.202 2.12942 29.332 2.25114C29.462 2.37286 29.6156 2.4666 29.7834 2.52654C29.9511 2.58647 30.1293 2.61134 30.307 2.5996C30.4568 2.6039 30.6057 2.57751 30.7449 2.52205C30.884 2.46659 31.0103 2.38323 31.116 2.27712L31.1726 2.32804C34.7424 3.08613 35.6589 3.25021 35.6589 6.59941C35.6589 9.19617 34.3634 12.7094 32.3098 15.2553C32.1384 15.2528 31.9683 15.2851 31.8098 15.3503C31.6513 15.4154 31.5077 15.5121 31.3876 15.6343C30.3636 16.7658 28.6833 18.1179 26.7372 18.1179C24.791 18.1179 23.1164 16.7715 22.0868 15.6852C21.8471 15.4273 21.5163 15.2731 21.1646 15.2553C19.111 12.7094 17.7702 9.19617 17.7702 6.59941C17.7702 3.25021 18.7432 3.08613 22.2961 2.32804V2.27712C22.532 2.49268 22.8423 2.6083 23.1617 2.5996C23.3889 2.58465 23.6081 2.51035 23.7976 2.38415C23.987 2.25795 24.1401 2.08424 24.2414 1.88039C24.3427 1.67653 24.3888 1.44967 24.375 1.22243C24.3612 0.9952 24.2881 0.775552 24.1629 0.585437C24.0376 0.395323 23.8647 0.241395 23.6614 0.139014C23.4581 0.0366322 23.2314 -0.0106111 23.0041 0.00199775C22.7768 0.0146066 22.5568 0.0866287 22.3661 0.210871C22.1753 0.335113 22.0205 0.507224 21.9171 0.710022H21.8661C18.2454 1.51903 16.0277 1.949 16.0277 6.59941C16.0277 9.57522 17.4307 13.4166 19.8068 16.2793C19.7727 16.4523 19.7795 16.6309 19.8266 16.8008C19.8738 16.9708 19.96 17.1273 20.0784 17.258C21.541 18.9397 23.5394 20.0648 25.7358 20.4431L25.6792 26.2873C25.6792 30.2871 22.166 33.5344 17.8946 33.5344C13.6233 33.5344 10.1609 30.2871 10.1609 26.2873V21.1503C12.6502 20.7713 14.5398 18.8251 14.5398 16.3924C14.5398 13.6882 12.1636 11.5214 9.23875 11.5214C6.31386 11.5214 4 13.6882 4 16.3924C4 18.8251 5.94049 20.7713 8.37318 21.1503V26.2873C8.37318 31.1526 12.6502 35.1015 17.8946 35.1015C23.1391 35.1015 27.4613 31.1413 27.4613 26.2873V20.4318H27.6028Z" fill="white"/>
</g>
<path fill-rule="evenodd" clip-rule="evenodd" d="M9.09887 14.1291C9.40594 14.1225 9.71125 14.1784 9.99736 14.2937C10.2835 14.4089 10.5448 14.5811 10.7663 14.8006C10.9879 15.02 11.1654 15.2823 11.2887 15.5726C11.412 15.8628 11.4786 16.1752 11.4849 16.492C11.4751 17.1367 11.2189 17.7514 10.772 18.2021C10.3252 18.6529 9.72381 18.9033 9.09887 18.8989C8.78827 18.9055 8.47949 18.8481 8.19062 18.7301C7.90175 18.6122 7.63856 18.436 7.41642 18.2119C7.19428 17.9879 7.01765 17.7204 6.89686 17.4251C6.77606 17.1298 6.71353 16.8126 6.71289 16.492C6.71411 16.1737 6.77735 15.8589 6.8989 15.5662C7.02045 15.2736 7.1978 15.0092 7.42041 14.7888C7.64301 14.5683 7.90633 14.3963 8.19467 14.283C8.48302 14.1696 8.79052 14.1173 9.09887 14.1291Z" fill="#FA7883"/>
<defs>
<filter id="filter0_d_40_1763" x="0" y="0" width="41.3901" height="43.1016" filterUnits="userSpaceOnUse" color-interpolation-filters="sRGB">
<feFlood flood-opacity="0" result="BackgroundImageFix"/>
<feColorMatrix in="SourceAlpha" type="matrix" values="0 0 0 0 0 0 0 0 0 0 0 0 0 0 0 0 0 0 127 0" result="hardAlpha"/>
<feOffset dy="4"/>
<feGaussianBlur stdDeviation="2"/>
<feComposite in2="hardAlpha" operator="out"/>
<feColorMatrix type="matrix" values="0 0 0 0 0.695833 0 0 0 0 0.377158 0 0 0 0 0.322983 0 0 0 0.5 0"/>
<feBlend mode="normal" in2="BackgroundImageFix" result="effect1_dropShadow_40_1763"/>
<feBlend mode="normal" in="SourceGraphic" in2="effect1_dropShadow_40_1763" result="shape"/>
</filter>
</defs>
</svg>
