<svg width="48" height="40" viewBox="0 0 48 40" fill="none" xmlns="http://www.w3.org/2000/svg">
<g filter="url(#filter0_d_25_542)">
<path fill-rule="evenodd" clip-rule="evenodd" d="M38.0327 26.1288C40.2172 25.2113 41.8898 23.3005 42.8911 20.7818C46.2589 12.3152 41.6395 -2.77273 33.3066 0.442122C29.8817 1.76224 28.2147 5.9474 30.0512 9.19667C30.5395 10.0603 30.6877 10.737 29.6897 11.1992C25.3398 13.2098 24.9222 14.8281 24.9222 18.972V31.1295C24.9228 31.3604 25.0129 31.5816 25.1728 31.7448C25.3327 31.9079 25.5493 31.9997 25.7753 32C26.0013 31.9997 26.218 31.9079 26.3779 31.7448C26.5378 31.5816 26.6279 31.3604 26.6285 31.1295C26.6285 27.207 26.6285 24.8546 26.6532 20.9321C26.6644 19.2472 26.725 16.3054 28.3516 15.3029C29.3496 14.6882 30.7551 15.3179 29.976 16.4269C29.1969 17.536 28.8972 19.3941 29.0106 21.1775C29.2811 25.4315 34.3282 27.691 38.0349 26.1334L38.0327 26.1288ZM24.0006 5.63888C24.3785 5.63903 24.7528 5.71524 25.1019 5.86317C25.4511 6.01109 25.7683 6.22783 26.0355 6.50101C26.3026 6.77419 26.5145 7.09846 26.659 7.4553C26.8035 7.81215 26.8778 8.19458 26.8777 8.58076C26.8774 9.3603 26.5742 10.1078 26.0347 10.659C25.4952 11.2102 24.7635 11.52 24.0006 11.5204C23.2374 11.5204 22.5055 11.2107 21.9657 10.6594C21.426 10.1082 21.1226 9.3605 21.1223 8.58076C21.1221 8.19448 21.1965 7.81196 21.3411 7.45504C21.4856 7.09812 21.6976 6.7738 21.9649 6.50061C22.2322 6.22741 22.5495 6.0107 22.8988 5.86284C23.2481 5.71498 23.6225 5.63888 24.0006 5.63888ZM9.96844 26.1288C7.78392 25.2113 6.11017 23.3005 5.10884 20.7818C1.74114 12.3152 6.36051 -2.77273 14.6945 0.442122C18.1183 1.76224 19.7864 5.9474 17.9499 9.19667C17.4616 10.0603 17.3134 10.737 18.3114 11.1992C22.6602 13.2098 23.0778 14.8281 23.0778 18.972V31.1295C23.0772 31.3602 22.9873 31.5812 22.8276 31.7444C22.6679 31.9075 22.4516 31.9994 22.2258 32C21.9998 31.9997 21.7831 31.9079 21.6232 31.7448C21.4633 31.5816 21.3732 31.3604 21.3726 31.1295C21.3726 27.207 21.3726 24.8546 21.3479 20.9321C21.3367 19.2472 21.275 16.3054 19.6506 15.3029C18.6515 14.6882 17.2461 15.3179 18.024 16.4269C18.8019 17.536 19.0893 19.3849 18.9771 21.1729C18.7065 25.4269 13.6594 27.6864 9.95385 26.1288H9.96844Z" fill="white"/>
</g>
<defs>
<filter id="filter0_d_25_542" x="0" y="0" width="48" height="40" filterUnits="userSpaceOnUse" color-interpolation-filters="sRGB">
<feFlood flood-opacity="0" result="BackgroundImageFix"/>
<feColorMatrix in="SourceAlpha" type="matrix" values="0 0 0 0 0 0 0 0 0 0 0 0 0 0 0 0 0 0 127 0" result="hardAlpha"/>
<feOffset dy="4"/>
<feGaussianBlur stdDeviation="2"/>
<feComposite in2="hardAlpha" operator="out"/>
<feColorMatrix type="matrix" values="0 0 0 0 0.089323 0 0 0 0 0.489225 0 0 0 0 0.729167 0 0 0 0.6 0"/>
<feBlend mode="normal" in2="BackgroundImageFix" result="effect1_dropShadow_25_542"/>
<feBlend mode="normal" in="SourceGraphic" in2="effect1_dropShadow_25_542" result="shape"/>
</filter>
</defs>
</svg>
