<svg width="51" height="56" viewBox="0 0 51 56" fill="none" xmlns="http://www.w3.org/2000/svg">
<g filter="url(#filter0_d_25_568)">
<path d="M18.6762 11.3541C15.3601 11.1467 9.45995 18.136 6.50448 27.7002C3.54901 37.2645 3.54811 45.9587 4.76528 46.8287C5.98245 47.6988 12.7607 45.7856 15.3754 45.4375C17.99 45.0895 20.7661 45.0895 21.6361 44.0464C22.5062 43.0032 23.0147 34.2315 23.0291 31.3517C23.0616 24.651 22.6793 18.136 21.6361 16.2228C20.593 14.3096 21.4585 11.5272 18.6762 11.3541Z" fill="white"/>
</g>
<g filter="url(#filter1_d_25_568)">
<path d="M31.7565 11.3499C34.977 10.9189 41.1332 19.3534 43.5936 26.1362C46.0541 32.919 46.9089 46.0139 45.2986 47.0535C43.6883 48.093 40.2793 46.7415 37.8153 46.2204C35.3512 45.6993 33.0485 45.8219 31.944 44.7417C30.4329 43.264 33.4596 40.0471 32.6076 36.7427C31.7556 33.4383 26.9563 30.262 26.1043 24.8027C25.4119 20.3713 27.5469 17.2094 28.5711 15.7362C29.8667 13.8753 29.5998 11.6375 31.7565 11.3499Z" fill="white"/>
</g>
<path opacity="0.9" d="M22.8015 17.2542C22.4763 16.8225 22.1828 16.3678 21.9233 15.8937C21.9147 15.8765 21.9018 15.8617 21.886 15.8507C21.8701 15.8397 21.8517 15.8328 21.8325 15.8307C21.8133 15.8287 21.7939 15.8315 21.7761 15.8388C21.7582 15.8462 21.7425 15.858 21.7304 15.873C20.3672 17.6023 18.3557 20.5713 17.9364 20.8859C16.5912 21.8948 15.1748 21.747 14.816 21.352C14.5635 21.0753 14.385 19.3433 15.7843 17.6555C13.8116 19.126 14.1704 20.9914 14.0271 21.0635C13.8837 21.1357 12.8793 20.7759 12.9866 19.2693C12.085 21.7803 15.0603 22.1707 15.1027 22.5341C15.1387 22.8568 12.7351 24.4346 11.0139 24.0406C11.8749 24.6862 12.8793 24.221 12.9866 24.3274C13.0939 24.4337 12.4844 25.1884 12.9145 25.8339C12.7711 24.8656 13.9063 24.0307 14.5644 23.753C15.246 23.4663 16.7887 23.1435 16.8608 23.359C16.9329 23.5745 14.6771 29.9651 13.7755 30.9632C12.7711 32.0749 11.5873 32.6852 10.8345 32.7925C10.4847 32.843 9.25577 32.6852 9.00512 31.0714C8.64448 32.7925 10.1529 33.1514 10.0456 33.2587C9.93829 33.366 9.07635 33.6536 8.50293 33.7609C9.65067 33.9412 10.7624 33.5463 11.1933 33.4002C11.6243 33.2542 12.1977 33.1126 12.2689 33.256C12.3402 33.3993 11.6955 34.6192 11.1212 35.0853C10.5469 35.5515 9.00512 36.8435 8.96905 38.6728C9.54338 36.9507 11.1951 35.8778 11.8389 35.1935C12.8793 34.0809 13.7755 32.5031 14.0271 32.5788C14.2579 32.6456 13.6322 34.4082 15.2109 35.3053C13.9549 34.337 14.8692 31.6863 15.0666 31.2165C15.3542 30.5349 16.2144 29.2429 16.8608 27.6651C17.1656 26.9186 17.721 25.082 17.9725 25.082C18.2241 25.082 18.5459 26.9835 18.6938 27.593C18.8002 28.0438 18.9084 28.9923 18.0122 30.5349C19.196 29.7812 19.0166 28.8489 19.1599 28.7416C19.3033 28.6343 19.3033 30.3194 21.3833 30.6422C19.4466 29.9967 19.2266 26.8555 19.1599 26.4101C18.9444 24.9747 19.0382 23.0372 19.2501 22.3195C19.397 21.8317 21.8647 18.4426 22.7663 17.6005C22.8137 17.5571 22.8434 17.4979 22.8499 17.4341C22.8564 17.3702 22.8391 17.3062 22.8015 17.2542Z" fill="#4AB5DF"/>
<path opacity="0.9" d="M27.7155 15.6562C27.7245 15.6438 27.736 15.6335 27.7493 15.626C27.7627 15.6185 27.7774 15.614 27.7927 15.6127C27.8079 15.6114 27.8232 15.6134 27.8376 15.6186C27.852 15.6237 27.8651 15.6319 27.876 15.6426C29.1157 16.922 30.3879 19.0805 30.6665 19.2671C30.8756 19.4059 31.6465 18.1221 31.7304 17.4936C31.8142 16.8652 31.5104 15.4407 31.0496 14.8123C31.8043 15.3992 31.7709 15.9843 31.9819 15.9843C32.1929 15.9843 31.8566 14.8537 32.8619 14.0576C32.1911 15.273 32.3065 17.5252 32.4742 17.6929C32.6419 17.8606 33.0602 17.5378 33.7671 17.4936C34.1431 17.4702 34.8725 17.5766 35.5009 16.9067C35.1204 18.1347 33.5741 17.912 32.9872 18.2889C32.4003 18.6657 31.8151 19.7549 31.9395 20.1741C32.064 20.5934 33.0485 21.6509 33.9718 22.997C34.977 24.4631 35.4143 25.6622 35.921 26.3014C36.2889 26.7694 37.4132 27.3635 38.285 27.1823C38.9775 27.038 40.2172 25.884 39.8421 24.0961C40.5923 25.1059 39.715 26.5061 39.871 26.6053C40.0269 26.7045 40.6211 26.0859 41.6309 26.2014C40.448 26.5187 38.7647 27.6033 38.8044 27.7016C38.8882 27.9108 39.8133 27.817 40.1505 28.8458C39.4806 28.092 38.4104 28.2146 37.8469 28.1335C37.0093 28.0082 36.4503 27.6827 36.2402 27.8089C36.0301 27.9351 36.5107 28.5861 36.8803 30.2766C37.039 31.0132 37.2915 32.3323 37.7477 33.0175C38.0858 33.5242 38.89 34.662 40.2605 34.891C38.2048 35.2517 37.9001 33.8019 37.5656 33.8858C37.2311 33.9696 38.1137 36.4896 36.1032 37.769C37.4736 36.2615 36.8452 32.8218 36.554 32.6127C36.2627 32.4035 36.2835 33.8398 34.5975 34.0679C36.105 33.3376 36.2023 32.1078 36.1302 31.2729C36.0094 29.7744 35.5523 28.9522 34.913 27.5357C34.5614 26.7585 32.8457 24.1096 32.7203 24.1096C32.5698 24.1096 32.6734 26.6341 32.8105 27.2653C32.9115 27.7287 33.081 28.7727 33.6328 29.641C32.4607 28.9711 32.5229 27.5934 32.439 27.5096C32.3552 27.4257 32.0333 28.5014 31.0983 28.7241C31.4536 28.4969 32.009 27.8224 32.2298 27.011C32.3074 26.7216 32.3534 23.7977 31.8963 23.1584C31.7655 22.9781 30.1832 21.0947 29.5268 20.3698C28.8867 19.6638 27.5253 18.0139 26.9014 17.4287C26.8737 17.4026 26.8545 17.3688 26.8462 17.3317C26.838 17.2945 26.8412 17.2558 26.8554 17.2204C27.0683 16.6617 27.3578 16.1353 27.7155 15.6562Z" fill="#4AB5DF"/>
<path d="M22.2493 1.51424C21.9788 1.58276 22.2817 3.36614 22.3809 3.81875C22.4639 4.19652 22.6613 5.29558 22.9219 5.47319C23.2564 5.70401 24.1147 5.94383 24.7972 5.93482C25.4076 5.9267 26.6185 5.63729 26.8907 5.21984C27.163 4.8024 27.2685 0.0806854 26.8907 0.00134401C26.513 -0.0779974 25.8088 3.38147 24.6584 3.49597C22.9327 3.66638 22.8083 1.37449 22.2493 1.51424Z" fill="#6EACD6"/>
<path d="M22.7678 14.1118C22.565 14.1957 22.3342 15.0008 22.4748 15.3362C22.5379 15.4877 23.4513 17.0745 23.6848 17.1394C23.9183 17.2043 24.3312 16.9591 24.8154 16.9591C25.4411 16.9591 25.8261 17.1322 25.9974 17.0898C26.2273 17.0339 26.3382 16.3956 26.5726 15.9763C26.7529 15.6481 27.1235 15.2605 27.2858 15.0116C27.412 14.8187 27.1956 14.0884 26.9738 14.055C26.752 14.0217 26.1362 14.642 24.9001 14.6591C23.664 14.6762 22.9743 14.028 22.7678 14.1118Z" fill="#6EACD6"/>
<path d="M23.1632 11.7538C22.7819 11.8439 22.726 13.2811 23.0532 13.6084C23.6745 14.2287 26.0421 14.5001 26.8553 13.5083C27.0447 13.2784 26.9374 11.8268 26.7652 11.7475C26.547 11.6492 26.1611 12.0982 25.0034 12.0982C23.4067 12.0982 23.4067 11.6952 23.1632 11.7538Z" fill="#6EACD6"/>
<path d="M23.0867 9.12837C22.7793 9.25549 22.773 10.5709 23.0696 10.873C23.7224 11.5375 25.888 11.5465 26.6616 11.0253C27.0222 10.7837 26.979 9.41328 26.7996 9.17886C26.5769 8.88674 26.4308 9.58098 25.0045 9.54762C23.5781 9.51426 23.3708 9.01116 23.0867 9.12837Z" fill="#6EACD6"/>
<path d="M22.9862 6.4552C22.7825 6.53904 22.8059 7.83916 22.9447 8.01137C23.2378 8.38103 24.0898 8.64249 24.9157 8.65782C25.6036 8.67044 26.4087 8.52618 26.7757 8.15021C26.9362 7.98432 27.0966 6.59494 26.8875 6.4552C26.6576 6.30192 26.1238 6.94747 24.9157 6.93034C23.7075 6.91321 23.2044 6.36684 22.9862 6.4552Z" fill="#6EACD6"/>
<defs>
<filter id="filter0_d_25_568" x="0" y="11.3496" width="27.0312" height="43.7036" filterUnits="userSpaceOnUse" color-interpolation-filters="sRGB">
<feFlood flood-opacity="0" result="BackgroundImageFix"/>
<feColorMatrix in="SourceAlpha" type="matrix" values="0 0 0 0 0 0 0 0 0 0 0 0 0 0 0 0 0 0 127 0" result="hardAlpha"/>
<feOffset dy="4"/>
<feGaussianBlur stdDeviation="2"/>
<feComposite in2="hardAlpha" operator="out"/>
<feColorMatrix type="matrix" values="0 0 0 0 0.089323 0 0 0 0 0.489225 0 0 0 0 0.729167 0 0 0 0.6 0"/>
<feBlend mode="normal" in2="BackgroundImageFix" result="effect1_dropShadow_25_568"/>
<feBlend mode="normal" in="SourceGraphic" in2="effect1_dropShadow_25_568" result="shape"/>
</filter>
<filter id="filter1_d_25_568" x="21.9688" y="11.334" width="28.1514" height="44.1021" filterUnits="userSpaceOnUse" color-interpolation-filters="sRGB">
<feFlood flood-opacity="0" result="BackgroundImageFix"/>
<feColorMatrix in="SourceAlpha" type="matrix" values="0 0 0 0 0 0 0 0 0 0 0 0 0 0 0 0 0 0 127 0" result="hardAlpha"/>
<feOffset dy="4"/>
<feGaussianBlur stdDeviation="2"/>
<feComposite in2="hardAlpha" operator="out"/>
<feColorMatrix type="matrix" values="0 0 0 0 0.089323 0 0 0 0 0.489225 0 0 0 0 0.729167 0 0 0 0.6 0"/>
<feBlend mode="normal" in2="BackgroundImageFix" result="effect1_dropShadow_25_568"/>
<feBlend mode="normal" in="SourceGraphic" in2="effect1_dropShadow_25_568" result="shape"/>
</filter>
</defs>
</svg>
