<svg width="44" height="49" viewBox="0 0 44 49" fill="none" xmlns="http://www.w3.org/2000/svg">
<g filter="url(#filter0_d_40_1699)">
<path d="M16.5436 10.0038C13.7094 9.8266 8.66658 15.8003 6.14056 23.9748C3.61454 32.1493 3.61377 39.5801 4.65408 40.3238C5.69438 41.0674 11.4877 39.4322 13.7225 39.1347C15.9572 38.8373 18.3299 38.8373 19.0735 37.9457C19.8171 37.0541 20.2517 29.557 20.2641 27.0957C20.2918 21.3686 19.9651 15.8003 19.0735 14.1651C18.1819 12.5299 18.9217 10.1518 16.5436 10.0038Z" fill="white"/>
</g>
<g filter="url(#filter1_d_40_1699)">
<path d="M27.7231 9.70057C30.4757 9.33223 35.7373 16.5412 37.8403 22.3384C39.9432 28.1356 40.6737 39.3277 39.2975 40.2162C37.9212 41.1047 35.0075 39.9496 32.9015 39.5042C30.7955 39.0588 28.8273 39.1636 27.8834 38.2404C26.5918 36.9774 29.1787 34.2279 28.4505 31.4037C27.7223 28.5794 23.6204 25.8646 22.8922 21.1987C22.3004 17.4112 24.1252 14.7087 25.0006 13.4495C26.1079 11.859 25.8798 9.94639 27.7231 9.70057Z" fill="white"/>
</g>
<path d="M20.07 14.747C19.7921 14.378 19.5412 13.9894 19.3195 13.5842C19.3121 13.5694 19.3011 13.5568 19.2875 13.5474C19.274 13.538 19.2582 13.5321 19.2418 13.5304C19.2254 13.5286 19.2088 13.531 19.1936 13.5373C19.1783 13.5436 19.1649 13.5536 19.1546 13.5665C17.9894 15.0445 16.2702 17.582 15.9119 17.851C14.7621 18.7133 13.5515 18.5869 13.2448 18.2494C13.0291 18.0128 12.8765 16.5325 14.0725 15.0899C12.3864 16.3468 12.6931 17.9411 12.5706 18.0028C12.448 18.0644 11.5896 17.757 11.6813 16.4693C10.9107 18.6154 13.4537 18.9491 13.4899 19.2596C13.5207 19.5355 11.4663 20.8841 9.99523 20.5473C10.7312 21.099 11.5896 20.7014 11.6813 20.7924C11.773 20.8833 11.2521 21.5283 11.6196 22.08C11.4971 21.2524 12.4673 20.5388 13.0298 20.3015C13.6124 20.0564 14.9309 19.7806 14.9926 19.9647C15.0542 20.1489 13.1262 25.6109 12.3556 26.4639C11.4971 27.4141 10.4853 27.9358 9.84188 28.0275C9.54289 28.0706 8.49257 27.9358 8.27834 26.5564C7.9701 28.0275 9.25931 28.3342 9.16761 28.4259C9.07591 28.5176 8.33922 28.7634 7.84912 28.8551C8.83009 29.0092 9.78024 28.6717 10.1486 28.5469C10.5169 28.422 11.007 28.301 11.0679 28.4236C11.1288 28.5461 10.5778 29.5887 10.0869 29.9871C9.59606 30.3855 8.27834 31.4898 8.24751 33.0533C8.73838 31.5815 10.1501 30.6645 10.7003 30.0796C11.5896 29.1287 12.3556 27.7801 12.5706 27.8449C12.7678 27.9019 12.2331 29.4084 13.5824 30.1751C12.5089 29.3475 13.2903 27.082 13.4591 26.6805C13.7049 26.0979 14.44 24.9936 14.9926 23.6451C15.253 23.007 15.7277 21.4373 15.9427 21.4373C16.1577 21.4373 16.4328 23.0625 16.5592 23.5835C16.6501 23.9688 16.7426 24.7794 15.9766 26.0979C16.9884 25.4537 16.8351 24.6569 16.9576 24.5652C17.0801 24.4735 17.0801 25.9137 18.8579 26.1896C17.2026 25.6379 17.0146 22.9531 16.9576 22.5724C16.7734 21.3456 16.8535 19.6896 17.0346 19.0762C17.1602 18.6593 19.2694 15.7627 20.04 15.0429C20.0804 15.0059 20.1058 14.9553 20.1114 14.9007C20.1169 14.8461 20.1022 14.7914 20.07 14.747Z" fill="#E2755A"/>
<path d="M24.2702 13.3809C24.2779 13.3703 24.2877 13.3616 24.2991 13.3551C24.3105 13.3487 24.3231 13.3448 24.3361 13.3437C24.3492 13.3426 24.3622 13.3444 24.3745 13.3488C24.3868 13.3532 24.398 13.3602 24.4074 13.3694C25.4669 14.4628 26.5542 16.3076 26.7924 16.4672C26.9711 16.5858 27.63 15.4885 27.7017 14.9514C27.7733 14.4143 27.5136 13.1967 27.1199 12.6596C27.7649 13.1613 27.7363 13.6614 27.9167 13.6614C28.097 13.6614 27.8095 12.6951 28.6688 12.0146C28.0954 13.0534 28.1941 14.9784 28.3374 15.1217C28.4807 15.265 28.8383 14.9892 29.4424 14.9514C29.7638 14.9314 30.3872 15.0223 30.9243 14.4497C30.5991 15.4993 29.2775 15.309 28.7759 15.6311C28.2742 15.9532 27.7741 16.8841 27.8804 17.2424C27.9868 17.6007 28.8283 18.5046 29.6174 19.6551C30.4766 20.9081 30.8503 21.933 31.2834 22.4794C31.5978 22.8793 32.5587 23.3871 33.3039 23.2322C33.8957 23.1089 34.9553 22.1226 34.6347 20.5945C35.2759 21.4575 34.5261 22.6543 34.6594 22.739C34.7927 22.8238 35.3005 22.2952 36.1636 22.3938C35.1526 22.6651 33.7139 23.5921 33.7478 23.6761C33.8194 23.8549 34.6101 23.7747 34.8983 24.654C34.3257 24.0098 33.411 24.1146 32.9294 24.0452C32.2135 23.9381 31.7357 23.6599 31.5562 23.7678C31.3766 23.8757 31.7874 24.4321 32.1033 25.8769C32.2389 26.5065 32.4547 27.6339 32.8446 28.2195C33.1336 28.6526 33.821 29.6251 34.9923 29.8208C33.2353 30.1291 32.9749 28.89 32.689 28.9616C32.4031 29.0333 33.1575 31.1871 31.4391 32.2806C32.6104 30.9921 32.0733 28.0523 31.8244 27.8735C31.5755 27.6948 31.5932 28.9223 30.1522 29.1173C31.4406 28.4931 31.5238 27.442 31.4622 26.7284C31.3589 25.4477 30.9682 24.7449 30.4219 23.5343C30.1213 22.8701 28.6549 20.606 28.5478 20.606C28.4191 20.606 28.5077 22.7637 28.6248 23.3031C28.7111 23.6992 28.856 24.5916 29.3276 25.3336C28.3258 24.7611 28.379 23.5836 28.3074 23.512C28.2357 23.4403 27.9606 24.3596 27.1615 24.55C27.4651 24.3558 27.9398 23.7794 28.1286 23.0858C28.1948 22.8385 28.2341 20.3394 27.8435 19.7931C27.7317 19.6389 26.3793 18.0292 25.8183 17.4096C25.2712 16.8062 24.1076 15.396 23.5743 14.8959C23.5507 14.8736 23.5343 14.8447 23.5272 14.813C23.5202 14.7812 23.5229 14.7481 23.535 14.7179C23.717 14.2404 23.9645 13.7904 24.2702 13.3809Z" fill="#E2755A"/>
<path d="M19.5976 1.29421C19.3664 1.35278 19.6253 2.87702 19.7101 3.26386C19.781 3.58674 19.9498 4.5261 20.1725 4.6779C20.4584 4.87518 21.192 5.08016 21.7753 5.07245C22.297 5.06551 23.3319 4.81815 23.5646 4.46137C23.7974 4.10458 23.8875 0.0689613 23.5646 0.00114871C23.2418 -0.0666639 22.6399 2.89012 21.6566 2.98798C20.1817 3.13363 20.0754 1.17477 19.5976 1.29421Z" fill="#E2755A"/>
<path d="M20.0413 12.0614C19.8679 12.133 19.6706 12.8212 19.7908 13.1078C19.8448 13.2373 20.6254 14.5936 20.825 14.649C21.0245 14.7045 21.3775 14.4949 21.7913 14.4949C22.3261 14.4949 22.6551 14.6429 22.8015 14.6067C22.998 14.5589 23.0928 14.0133 23.2932 13.655C23.4473 13.3745 23.764 13.0431 23.9027 12.8304C24.0106 12.6655 23.8257 12.0413 23.6361 12.0128C23.4465 11.9843 22.9202 12.5145 21.8637 12.5291C20.8072 12.5438 20.2177 11.9897 20.0413 12.0614Z" fill="#E2755A"/>
<path d="M20.3793 10.0457C20.0533 10.1228 20.0056 11.3511 20.2853 11.6308C20.8162 12.161 22.8398 12.393 23.5349 11.5453C23.6967 11.3488 23.605 10.1082 23.4578 10.0403C23.2713 9.95634 22.9415 10.3401 21.9521 10.3401C20.5874 10.3401 20.5874 9.99565 20.3793 10.0457Z" fill="#E2755A"/>
<path d="M20.3143 7.80201C20.0515 7.91066 20.0461 9.03497 20.2996 9.29312C20.8576 9.86105 22.7085 9.86875 23.3697 9.42335C23.6779 9.21683 23.641 8.04552 23.4876 7.84517C23.2973 7.59549 23.1724 8.18885 21.9534 8.16034C20.7343 8.13183 20.557 7.70183 20.3143 7.80201Z" fill="#E2755A"/>
<path d="M20.2277 5.5172C20.0536 5.58887 20.0736 6.70007 20.1923 6.84725C20.4427 7.1632 21.1709 7.38667 21.8768 7.39977C22.4647 7.41056 23.1529 7.28726 23.4665 6.96592C23.6037 6.82413 23.7409 5.63665 23.5621 5.5172C23.3656 5.3862 22.9094 5.93795 21.8768 5.92331C20.8442 5.90867 20.4142 5.44168 20.2277 5.5172Z" fill="#E2755A"/>
<defs>
<filter id="filter0_d_40_1699" x="0" y="10" width="24.2656" height="38.5156" filterUnits="userSpaceOnUse" color-interpolation-filters="sRGB">
<feFlood flood-opacity="0" result="BackgroundImageFix"/>
<feColorMatrix in="SourceAlpha" type="matrix" values="0 0 0 0 0 0 0 0 0 0 0 0 0 0 0 0 0 0 127 0" result="hardAlpha"/>
<feOffset dy="4"/>
<feGaussianBlur stdDeviation="2"/>
<feComposite in2="hardAlpha" operator="out"/>
<feColorMatrix type="matrix" values="0 0 0 0 0.695833 0 0 0 0 0.377158 0 0 0 0 0.322983 0 0 0 0.5 0"/>
<feBlend mode="normal" in2="BackgroundImageFix" result="effect1_dropShadow_40_1699"/>
<feBlend mode="normal" in="SourceGraphic" in2="effect1_dropShadow_40_1699" result="shape"/>
</filter>
<filter id="filter1_d_40_1699" x="18.7764" y="9.68701" width="25.2236" height="38.8564" filterUnits="userSpaceOnUse" color-interpolation-filters="sRGB">
<feFlood flood-opacity="0" result="BackgroundImageFix"/>
<feColorMatrix in="SourceAlpha" type="matrix" values="0 0 0 0 0 0 0 0 0 0 0 0 0 0 0 0 0 0 127 0" result="hardAlpha"/>
<feOffset dy="4"/>
<feGaussianBlur stdDeviation="2"/>
<feComposite in2="hardAlpha" operator="out"/>
<feColorMatrix type="matrix" values="0 0 0 0 0.695833 0 0 0 0 0.377158 0 0 0 0 0.322983 0 0 0 0.5 0"/>
<feBlend mode="normal" in2="BackgroundImageFix" result="effect1_dropShadow_40_1699"/>
<feBlend mode="normal" in="SourceGraphic" in2="effect1_dropShadow_40_1699" result="shape"/>
</filter>
</defs>
</svg>
