<svg width="43" height="56" viewBox="0 0 43 56" fill="none" xmlns="http://www.w3.org/2000/svg">
<g filter="url(#filter0_d_25_580)">
<path d="M5.91074 23.9822L7.13433 24.7763C7.19144 24.4846 7.22413 24.1886 7.23207 23.8915C7.08426 21.9262 7.66222 20.2481 9.1219 18.883C9.2834 18.7332 9.29691 18.4238 9.37988 18.1884C9.10919 18.2668 8.76166 18.2653 8.58058 18.4372C7.89989 19.058 7.36046 19.8178 6.99878 20.6651C6.6371 21.5124 6.46159 22.4275 6.48413 23.3485C5.55812 22.7621 4.77775 22.2899 4.59697 21.1319C4.01231 17.3829 3.64089 13.6405 4.64986 9.91143C5.15231 8.05153 6.11679 6.51596 8.04349 5.79648C8.24186 5.71345 8.41843 5.58586 8.55956 5.42361C12.8768 0.712499 18.7416 -0.717921 24.7735 1.48557C25.3601 1.69293 25.9252 1.98274 26.52 2.17146C26.6958 2.228 26.9386 2.07508 27.1519 2.01757C27.0419 1.85166 26.9759 1.6078 26.814 1.53092C26.256 1.25646 25.6754 1.03984 25.1272 0.75058C29.0613 1.18799 32.2047 3.04177 34.6854 6.08738C34.8377 6.31672 35.0394 6.50897 35.2759 6.64999C37.325 7.56263 38.0964 9.33984 38.3969 11.3742C38.8828 14.6612 38.3469 17.8838 37.6304 21.0838C37.5271 21.5434 37.3542 21.995 37.3151 22.4566C37.2364 23.3986 36.6253 23.8478 35.7721 24.2497C35.8307 22.3872 35.3142 20.7937 34.1464 19.4271C34.0244 19.2835 33.9169 19.0969 33.7587 19.022C33.5678 18.9683 33.3695 18.9461 33.1714 18.9563C33.1995 19.1461 33.1715 19.3756 33.2687 19.526C33.5267 19.9119 33.8558 20.2585 34.1232 20.6447C34.9742 21.8748 35.1176 23.2582 34.9626 24.7022C34.9338 24.9563 34.9464 25.2154 34.9311 25.7042L36.6639 24.6632C35.5974 30.3984 34.4498 36.0121 31.5101 41.0688C29.4351 44.6378 26.5449 47.1044 22.3171 47.4757C17.1554 47.9309 12.8874 46.2174 10.1416 41.6334C7.6965 37.5823 6.31571 32.9785 6.12771 28.2504C6.06381 26.8601 5.98617 25.4862 5.91074 23.9822ZM25.5296 27.811C27.3934 30.2289 29.8625 30.4615 31.9081 28.5444C32.0678 28.3946 32.2019 28.0323 32.1339 27.8526C31.4267 26.0151 29.1099 25.2055 27.4302 26.2406C26.7523 26.6519 26.1876 27.2518 25.5299 27.8034L25.5296 27.811ZM12.6361 29.3601C14.3852 29.3604 15.3794 28.8005 16.2162 27.9617C16.3488 27.828 16.322 27.3605 16.1901 27.1694C14.2039 24.2602 11.9635 24.9831 10.1727 26.9667C10.0142 27.1412 10.0336 27.784 10.1871 27.889C11.0954 28.4956 12.0668 29.0211 12.6363 29.3526L12.6361 29.3601ZM16.314 40.037C17.1981 41.9537 19.0401 43.1451 20.7961 43.0455C22.2208 42.9713 24.1011 41.627 24.5227 40.2954L16.314 40.037ZM23.8388 2.9163C23.5252 3.15766 23.3225 3.23627 23.2575 3.37968C23.0555 3.79644 22.8039 4.22865 22.7653 4.67322C22.5802 6.77545 23.8899 8.01238 25.4433 9.07186C26.2699 9.63434 27.1677 10.0989 27.9492 10.7148C29.2653 11.7498 30.505 12.8731 30.5041 14.762C30.4994 14.9092 30.7215 15.0559 30.8378 15.2032C30.9485 15.0461 31.1809 14.8626 31.1528 14.7371C30.9685 13.9304 30.8811 13.0474 30.4722 12.3545C29.3972 10.5016 27.5831 9.44145 25.7752 8.42874C23.8022 7.31827 23.1591 5.72642 23.8766 3.69573C23.9504 3.51105 23.8632 3.27974 23.839 2.90875L23.8388 2.9163ZM11.6683 14.6772C12.7193 11.9562 13.195 11.3043 15.445 9.91692C16.0825 9.5252 16.8322 9.29379 17.4168 8.84563C18.3209 8.14685 19.2413 7.4108 19.9455 6.5225C20.6497 5.6342 20.7088 4.47814 20.1112 3.42042C20.0001 3.22803 19.7028 3.13177 19.49 2.99096C19.4823 3.23439 19.3942 3.51496 19.4862 3.71241C19.9182 4.62893 19.8836 5.54775 19.2449 6.27755C18.5743 7.00855 17.8217 7.65988 17.002 8.21866C15.6607 9.18325 14.141 9.93631 12.9241 11.0295C12.1912 11.6902 11.8481 12.809 11.4157 13.7606C11.3219 13.9806 11.5762 14.3626 11.6686 14.6696L11.6683 14.6772ZM15.4313 4.65201C15.3423 4.95711 15.2911 5.20295 15.2027 5.43251C14.7274 6.66991 13.7691 7.40854 12.6636 8.08398C11.1424 9.00387 9.67916 10.0163 8.28214 11.1157C7.86552 11.4558 7.53207 11.8865 7.30718 12.3751C7.0823 12.8636 6.97193 13.397 6.9845 13.9347C6.97892 14.1121 7.23026 14.2881 7.36072 14.4641C7.47711 14.3072 7.68786 14.1533 7.69291 13.9929C7.73449 12.6719 8.44083 11.7157 9.40995 10.9925C10.5068 10.1714 11.774 9.58035 12.8803 8.75949C13.8903 8.04176 14.8054 7.19914 15.6038 6.25171C16.3039 5.37461 16.2771 4.24607 15.68 3.23181C15.5742 3.05092 15.2625 2.99388 15.045 2.88125C15.023 3.09829 15.0269 3.31718 15.0566 3.5333C15.1542 3.91228 15.3084 4.29491 15.4315 4.64446L15.4313 4.65201ZM34.9303 15.2886L35.3038 15.4231C35.4191 15.1207 35.7023 14.767 35.621 14.5283C35.3313 13.6502 35.0921 12.668 34.5203 11.9908C33.6826 10.9992 32.5969 10.2056 31.5802 9.38027C30.637 8.61956 29.5452 8.01851 28.6857 7.17921C27.687 6.2033 27.6373 5.14016 28.2006 3.98675C28.2975 3.78957 28.2326 3.51363 28.242 3.27214C28.0092 3.36775 27.7899 3.49359 27.5899 3.6464C27.4565 3.82058 27.3613 4.021 27.3107 4.23452C26.7357 5.81824 27.8666 8.05823 29.6829 9.10521C30.7138 9.7043 31.7067 10.3664 32.656 11.0877C34.0083 12.1126 35.0336 13.3878 34.9135 15.2805L34.9303 15.2886ZM19.4007 32.2289C19.3865 31.7512 19.3473 31.2746 19.2832 30.801C19.2507 30.6318 19.0529 30.4953 18.9311 30.3441C18.8158 30.5293 18.618 30.6912 18.595 30.8813C18.4289 32.1983 18.2678 33.5344 18.1749 34.867C18.1422 35.3198 18.231 35.7732 18.432 36.1803C18.687 36.6606 20.741 37.1162 21.2646 36.9249C21.5405 36.8039 21.8335 36.7265 22.1332 36.6954C22.9879 36.6656 23.1569 36.0967 23.1744 35.421C23.1788 35.2833 22.9944 35.1396 22.9081 35.0008C22.7802 35.1045 22.5524 35.1993 22.5412 35.3142C22.4862 35.8621 22.214 35.9877 21.7085 35.9057C21.5338 35.8756 21.3258 36.0598 21.1364 36.0766C20.8346 36.1204 20.5284 36.1247 20.2255 36.0894C19.998 36.0558 19.784 35.8338 19.5667 35.8382C18.8277 35.8509 18.7333 35.4871 18.8698 34.8718C19.0695 33.928 19.245 32.9739 19.3915 32.2211L19.4007 32.2289ZM13.4529 22.7349L13.3453 22.9714C12.1079 22.9173 10.2786 23.5416 9.54029 24.3136C9.40162 24.4585 9.40049 24.7343 9.33133 24.9512C9.52039 24.9458 9.76751 25.0159 9.88376 24.9232C12.1098 23.1554 14.3116 23.4174 16.5307 24.9323C16.6897 25.0412 16.9577 24.9873 17.1742 25.0092C17.0776 24.7776 17.0435 24.4233 16.8724 24.3386C15.7419 23.7646 14.5888 23.2542 13.4437 22.727L13.4529 22.7349ZM28.9998 24.2047L29.1128 23.9759C30.1761 24.4608 31.2354 24.9532 32.3049 25.4213C32.5177 25.4832 32.7375 25.5174 32.959 25.5231C32.8775 25.2939 32.8645 24.9875 32.7044 24.8502C30.7 23.1192 27.5629 23.0449 25.4902 24.6835C25.2964 24.8399 25.2275 25.1664 25.1007 25.4136C25.3571 25.3688 25.6677 25.4031 25.861 25.2657C26.7518 24.563 27.856 24.1859 28.9906 24.1968L28.9998 24.2047ZM29.3428 38.8113C29.5382 38.8244 29.7342 38.7965 29.9183 38.7293C30.1023 38.6622 30.2702 38.5573 30.4113 38.4213C30.5524 38.2854 30.6635 38.1215 30.7374 37.9401C30.8114 37.7587 30.8466 37.5639 30.8408 37.3681C30.8479 37.1801 30.8179 36.9926 30.7524 36.8163C30.6868 36.64 30.5871 36.4785 30.4589 36.3408C30.3307 36.2032 30.1765 36.0923 30.0053 36.0144C29.8341 35.9366 29.6492 35.8933 29.4612 35.8872C29.2652 35.8795 29.0697 35.9118 28.8866 35.9822C28.7035 36.0526 28.5367 36.1596 28.3963 36.2965C28.2559 36.4335 28.1448 36.5977 28.0699 36.779C27.995 36.9603 27.9579 37.1549 27.9607 37.3511C27.9514 37.7254 28.0905 38.0882 28.3477 38.3603C28.605 38.6324 28.9593 38.7917 29.3336 38.8034L29.3428 38.8113ZM13.2431 36.8386C13.2466 36.4449 13.095 36.0657 12.8212 35.7828C12.5473 35.4999 12.1732 35.3361 11.7795 35.3268C11.5842 35.3249 11.3905 35.3623 11.2099 35.4369C11.0293 35.5114 10.8656 35.6216 10.7285 35.7607C10.5914 35.8999 10.4837 36.0652 10.4119 36.2469C10.34 36.4285 10.3054 36.6228 10.3102 36.8181C10.304 37.0057 10.3354 37.1926 10.4024 37.3679C10.4695 37.5432 10.5709 37.7033 10.7008 37.8389C10.8306 37.9744 10.9862 38.0827 11.1585 38.1572C11.3307 38.2318 11.5161 38.2711 11.7038 38.273C12.0977 38.2839 12.4799 38.1383 12.7667 37.868C13.0535 37.5976 13.2215 37.2247 13.2339 36.8308L13.2431 36.8386ZM15.9821 15.4174C16.2623 14.9767 16.4055 14.747 16.5562 14.5194C16.9533 13.9066 17.2649 13.1892 17.7917 12.7165C18.3185 12.2439 19.0949 12.002 19.7413 11.6275C19.9453 11.5074 20.083 11.2737 20.2531 11.0921C20.0074 11.0371 19.6844 10.8551 19.5265 10.9502C18.5159 11.5512 17.4702 12.1284 16.5812 12.8862C15.9724 13.3827 15.639 14.1939 15.9729 15.4096L15.9821 15.4174ZM27.1374 15.081C27.2079 13.5022 24.7545 10.9712 23.3168 10.9789C23.2468 10.979 23.1778 10.995 23.115 11.0258C23.0521 11.0565 22.9971 11.1012 22.9542 11.1563C22.9385 11.2267 22.9404 11.2998 22.9596 11.3692C22.9788 11.4387 23.0148 11.5023 23.0644 11.5546C23.2429 11.6797 23.4347 11.7845 23.6363 11.8673C24.9892 12.5748 26.2841 13.3239 26.4325 15.0909C26.4435 15.2197 26.7197 15.3267 26.8747 15.4449L27.1374 15.081ZM26.7143 35.0017C27.0454 34.9999 27.3643 34.876 27.6098 34.6537C27.8552 34.4313 28.0099 34.1262 28.0442 33.7968C28.0516 33.6249 28.025 33.4533 27.9659 33.2917C27.9068 33.1301 27.8163 32.9818 27.6997 32.8553C27.5831 32.7287 27.4427 32.6265 27.2865 32.5544C27.1303 32.4823 26.9613 32.4417 26.7894 32.4351C26.4583 32.4266 26.1365 32.5452 25.89 32.7664C25.6435 32.9877 25.491 33.2948 25.4637 33.6249C25.4507 33.9717 25.5746 34.3096 25.8086 34.5657C26.0427 34.8219 26.368 34.9758 26.7145 34.9941L26.7143 35.0017ZM15.907 33.4034C15.9225 33.0738 15.8108 32.7509 15.5952 32.5012C15.3795 32.2516 15.0762 32.0942 14.7479 32.0617C14.577 32.0431 14.4042 32.0597 14.24 32.1104C14.0758 32.161 13.9237 32.2447 13.793 32.3563C13.6623 32.4679 13.5558 32.605 13.48 32.7592C13.4042 32.9134 13.3607 33.0815 13.3522 33.2531C13.3314 33.5832 13.4403 33.9084 13.6558 34.1593C13.8712 34.4103 14.1762 34.5671 14.5056 34.5966C14.6769 34.6154 14.8503 34.599 15.015 34.5484C15.1798 34.4978 15.3325 34.414 15.4637 34.3023C15.5949 34.1906 15.7019 34.0532 15.7782 33.8986C15.8544 33.7441 15.8982 33.5755 15.907 33.4034ZM30.6098 32.1662C29.9503 32.2342 29.5857 32.5949 29.5664 33.2667C29.5471 33.9386 29.9647 34.356 30.5971 34.3683C31.284 34.3899 31.7053 33.9687 31.6869 33.2334C31.6709 32.5415 31.2632 32.2302 30.6041 32.166L30.6098 32.1662ZM9.56893 32.3444L9.55473 32.7954C9.94139 33.1136 10.2847 33.6099 10.7236 33.7087C11.3181 33.8426 11.8124 33.4445 11.8603 32.7603C11.9083 32.0762 11.548 31.5227 10.8468 31.5951C10.394 31.6375 9.99081 32.0838 9.56899 32.3425L9.56893 32.3444Z" fill="white"/>
</g>
<path d="M25.6465 27.659C26.2865 27.0926 26.8321 26.4695 27.4967 26.0296C29.1431 24.9422 31.4842 25.6785 32.2488 27.4928C32.3225 27.6703 32.1997 28.0366 32.0449 28.1914C30.0606 30.1719 27.5855 30.0171 25.6465 27.659ZM30.5553 26.6187C30.5005 27.7874 30.0229 28.4085 29.1298 28.4425C28.1858 28.4784 27.712 27.8119 27.5345 26.8169L26.6547 27.7062C28.5106 29.2525 30.2608 29.2166 31.454 27.608L30.5553 26.6187ZM30.1192 26.9434C29.6509 26.613 29.3432 26.2317 29.1204 26.277C28.9538 26.3298 28.8027 26.4227 28.6803 26.5474C28.5579 26.6722 28.4678 26.825 28.4181 26.9925C28.386 27.1983 28.8353 27.6835 29.0543 27.6741C29.3451 27.6609 29.6339 27.2984 30.1154 26.951L30.1192 26.9434Z" fill="white"/>
<path d="M13.9164 26.0274C14.072 26.0685 14.231 26.1291 14.3931 26.2123L14.349 26.5024C14.3358 26.4791 14.3226 26.4578 14.3102 26.4389C14.2352 26.324 14.1399 26.2191 14.0428 26.1315C14.0031 26.0956 13.9607 26.0606 13.9164 26.0274ZM12.1179 26.6768L12.0152 26.395C12.1725 26.2981 12.3298 26.2165 12.4866 26.1511C12.3923 26.2394 12.3003 26.344 12.2275 26.4572C12.1914 26.5136 12.1492 26.5885 12.1179 26.6768Z" fill="#7BC0EA" stroke="white"/>
<path d="M16.8193 40.167H25.0322C24.6546 41.5113 22.8156 42.914 21.394 43.033C19.6419 43.1878 17.7728 42.055 16.8193 40.167ZM18.2693 40.8467C19.7533 42.7819 22.2851 42.7781 23.7049 40.8467H18.2693Z" fill="white"/>
<path d="M23.1726 2.83008C23.2084 3.20768 23.2972 3.42858 23.2386 3.60982C22.5854 5.66208 23.2783 7.2329 25.2852 8.28074C27.1241 9.24174 28.9687 10.2443 30.1034 12.0567C30.5282 12.7364 30.6434 13.6162 30.8586 14.4168C30.8907 14.5414 30.6698 14.7321 30.5584 14.8925C30.4376 14.749 30.2148 14.6093 30.211 14.4621C30.1525 12.5741 28.8781 11.4828 27.5301 10.4973C26.7296 9.90632 25.8176 9.47019 24.9737 8.934C23.3878 7.92391 22.0397 6.72881 22.1587 4.6218C22.1832 4.17623 22.4249 3.73632 22.6099 3.31341C22.6666 3.16237 22.8667 3.08118 23.1726 2.83008Z" fill="#6DBFE4"/>
<path d="M11.3779 14.9679C11.2759 14.6639 11.0097 14.2901 11.1022 14.0673C11.5044 13.1025 11.8121 11.9735 12.5239 11.2901C13.7058 10.1573 15.2011 9.35863 16.5114 8.35233C17.311 7.76404 18.0402 7.08554 18.6844 6.33028C19.2999 5.57507 19.3056 4.66128 18.8449 3.75882C18.7467 3.57002 18.8279 3.28115 18.826 3.0376C19.0432 3.17165 19.3434 3.25472 19.4604 3.4473C20.091 4.4857 20.0797 5.62416 19.3924 6.55306C18.7052 7.48196 17.8216 8.22772 16.938 8.9546C16.3716 9.42471 15.6164 9.67959 15.001 10.0874C12.7977 11.5487 12.3521 12.2246 11.3779 14.9679Z" fill="#6DBFE4"/>
<path d="M14.8236 4.82922C14.6896 4.48371 14.5235 4.11366 14.4102 3.72851C14.3737 3.51343 14.3629 3.29477 14.3781 3.07715C14.599 3.18288 14.9124 3.23008 15.0238 3.40755C15.6525 4.39686 15.7148 5.524 15.0427 6.42835C14.2744 7.40044 13.3863 8.27143 12.3995 9.02058C11.3271 9.87585 10.0791 10.5064 9.00105 11.3617C8.05705 12.1169 7.37171 13.0987 7.37926 14.4146C7.37926 14.5751 7.17346 14.7356 7.06207 14.896C6.92613 14.7242 6.68448 14.5562 6.66937 14.3787C6.6399 13.8417 6.73342 13.3051 6.94282 12.8097C7.15223 12.3144 7.47198 11.8733 7.8777 11.5203C9.23988 10.3755 10.6712 9.31563 12.1635 8.34657C13.2434 7.63668 14.178 6.86826 14.6179 5.61652C14.7009 5.38429 14.7444 5.13696 14.8236 4.82922Z" fill="#6DBFE4"/>
<path d="M34.6309 14.8472C34.6838 12.9592 33.6189 11.7093 32.2124 10.7144C31.2408 10.0232 30.2276 9.39271 29.1784 8.82635C27.33 7.83704 26.1292 5.63373 26.6541 4.03271C26.698 3.8177 26.7867 3.6144 26.9146 3.4361C27.1098 3.27707 27.325 3.1444 27.5547 3.0415C27.5547 3.28317 27.6264 3.55693 27.5358 3.75706C27.009 4.92762 27.0921 5.99057 28.1211 6.93268C29.0103 7.74452 30.1167 8.31093 31.0833 9.04158C32.1312 9.83455 33.2413 10.5935 34.1042 11.5583C34.697 12.2172 34.967 13.1914 35.2842 14.0599C35.371 14.2959 35.0954 14.6584 34.9953 14.9643L34.6309 14.8472Z" fill="#6DBFE4"/>
<path d="M19.6501 32.2679C19.5236 33.0231 19.382 33.9841 19.2008 34.9356C19.0837 35.553 19.1895 35.9136 19.9277 35.8796C20.1448 35.8683 20.3657 36.0835 20.5941 36.11C20.898 36.1357 21.2039 36.1218 21.5041 36.0684C21.6929 36.0382 21.8968 35.8475 22.0705 35.8796C22.5784 35.9457 22.8465 35.8117 22.8843 35.2623C22.8843 35.1471 23.1165 35.0451 23.2411 34.9375C23.3393 35.0735 23.5205 35.2113 23.5205 35.3491C23.5205 36.025 23.3733 36.599 22.5199 36.6556C22.2214 36.6961 21.9309 36.7828 21.659 36.9124C21.1417 37.1201 19.0743 36.7236 18.8043 36.2572C18.5906 35.8566 18.4876 35.4063 18.506 34.9526C18.557 33.6178 18.6759 32.2849 18.8005 30.9557C18.8175 30.7669 19.0101 30.5895 19.1196 30.4082C19.2461 30.5555 19.4481 30.6857 19.4859 30.8538C19.5651 31.322 19.62 31.794 19.6501 32.2679Z" fill="#64AFE0"/>
<path d="M13.4054 22.9653C14.5665 23.4562 15.7352 23.9301 16.8774 24.4606C17.0511 24.5399 17.0964 24.893 17.2003 25.1214C16.9831 25.1063 16.7169 25.1686 16.5546 25.0648C14.2889 23.6205 12.08 23.4279 9.91066 25.2649C9.79738 25.3612 9.54629 25.2989 9.35938 25.3102C9.4179 25.0912 9.41035 24.8156 9.54818 24.6664C10.2618 23.8716 12.0705 23.19 13.3091 23.2051L13.4054 22.9653Z" fill="#64AFE0"/>
<path d="M28.9918 23.9449C27.8545 23.9651 26.7584 24.3742 25.8861 25.1042C25.6973 25.2477 25.3876 25.2231 25.1309 25.276C25.2498 25.0249 25.3045 24.6964 25.4971 24.534C27.5173 22.8348 30.6551 22.8065 32.7131 24.4736C32.8773 24.6057 32.9019 24.9116 32.9887 25.1382C32.7671 25.1394 32.5463 25.1122 32.3317 25.057C31.248 24.6227 30.1737 24.164 29.0957 23.7127L28.9918 23.9449Z" fill="#64AFE0"/>
<path d="M29.7941 38.5341C29.6066 38.5353 29.4208 38.4994 29.2473 38.4284C29.0738 38.3573 28.9161 38.2526 28.7834 38.1202C28.6506 37.9878 28.5455 37.8304 28.4739 37.6571C28.4024 37.4838 28.366 37.298 28.3667 37.1105C28.3578 36.9146 28.3888 36.7189 28.4579 36.5353C28.5271 36.3517 28.6329 36.1842 28.7689 36.0428C28.905 35.9015 29.0684 35.7894 29.2492 35.7132C29.43 35.6371 29.6244 35.5987 29.8205 35.6001C30.0086 35.6004 30.1948 35.6378 30.3684 35.7102C30.5419 35.7827 30.6995 35.8887 30.8319 36.0222C30.9644 36.1557 31.0692 36.3141 31.1402 36.4882C31.2113 36.6624 31.2472 36.8488 31.246 37.0369C31.259 37.233 31.2308 37.4297 31.1631 37.6143C31.0954 37.7988 30.9896 37.9671 30.8528 38.1082C30.716 38.2493 30.551 38.3601 30.3686 38.4335C30.1863 38.5069 29.9905 38.5411 29.7941 38.5341ZM29.8432 36.0042C29.4901 36.4894 29.1389 36.7594 29.1503 37.0161C29.1616 37.2729 29.5279 37.5372 29.7318 37.7978C30.0018 37.5599 30.419 37.3616 30.487 37.0728C30.5531 36.8557 30.1774 36.5215 29.8432 36.0136V36.0042Z" fill="white"/>
<path d="M13.6396 37.0686C13.6376 37.4621 13.4801 37.8387 13.2013 38.1164C12.9226 38.3941 12.5453 38.5502 12.1519 38.5507C11.9642 38.5547 11.7777 38.5212 11.6032 38.4521C11.4287 38.383 11.2697 38.2797 11.1357 38.1483C11.0017 38.017 10.8953 37.8601 10.8227 37.687C10.7502 37.5139 10.7129 37.328 10.7132 37.1404C10.7023 36.9453 10.7307 36.7501 10.7968 36.5662C10.8629 36.3824 10.9654 36.2137 11.098 36.0703C11.2307 35.9269 11.3909 35.8117 11.569 35.7315C11.7471 35.6513 11.9396 35.6078 12.1349 35.6035C12.5276 35.6019 12.9053 35.7545 13.1867 36.0285C13.4681 36.3025 13.6307 36.676 13.6396 37.0686ZM12.1519 38.1391C12.4974 37.6596 12.8504 37.3839 12.8372 37.1253C12.824 36.8666 12.4596 36.6061 12.2444 36.3493C11.9688 36.5928 11.5515 36.7948 11.4666 37.0932C11.408 37.2989 11.8045 37.6388 12.1519 38.1391Z" fill="white"/>
<path d="M26.8527 14.8849L26.6015 15.2625C26.443 15.1492 26.1635 15.0511 26.1484 14.9227C25.9445 13.1612 24.6267 12.4532 23.2522 11.7886C23.0481 11.7122 22.8531 11.6134 22.6707 11.4941C22.6183 11.4426 22.5797 11.3789 22.5582 11.3086C22.5368 11.2384 22.5333 11.1639 22.548 11.0919C22.5893 11.0354 22.6428 10.9891 22.7046 10.9564C22.7665 10.9236 22.8349 10.9054 22.9048 10.9031C24.3416 10.8521 26.8734 13.3047 26.8527 14.8849Z" fill="#6DBFE4"/>
<path d="M27.0561 34.8089C26.7079 34.8015 26.3767 34.6569 26.1345 34.4066C25.8923 34.1562 25.7587 33.8205 25.7628 33.4722C25.7797 33.1414 25.9224 32.8296 26.1618 32.6007C26.4013 32.3718 26.7192 32.2432 27.0504 32.2412C27.2224 32.2424 27.3926 32.2777 27.551 32.3448C27.7094 32.412 27.853 32.5097 27.9735 32.6325C28.094 32.7553 28.1891 32.9007 28.2533 33.0604C28.3174 33.22 28.3494 33.3908 28.3475 33.5628C28.3235 33.8931 28.1785 34.2029 27.9401 34.4329C27.7018 34.6629 27.387 34.7967 27.0561 34.8089ZM27.8434 33.5175C27.4884 33.2702 27.277 33.0096 27.0882 33.0228C26.8994 33.0361 26.6936 33.306 26.4972 33.4627C26.686 33.6667 26.8503 33.9706 27.0806 34.0292C27.2279 34.0801 27.479 33.7799 27.8434 33.5175Z" fill="white"/>
<path d="M16.2034 33.5593C16.2001 33.7316 16.1616 33.9014 16.0902 34.0583C16.0189 34.2152 15.9163 34.3559 15.7886 34.4717C15.661 34.5875 15.511 34.676 15.3479 34.7317C15.1849 34.7875 15.0121 34.8093 14.8403 34.7959C14.5101 34.7769 14.2004 34.6297 13.9771 34.3856C13.7539 34.1416 13.6348 33.82 13.6452 33.4894C13.6483 33.3176 13.6864 33.1483 13.7574 32.9917C13.8283 32.8352 13.9304 32.6948 14.0575 32.5792C14.1846 32.4636 14.334 32.3751 14.4966 32.3193C14.6591 32.2635 14.8313 32.2415 15.0026 32.2547C15.3318 32.2769 15.6399 32.4246 15.8634 32.6674C16.0868 32.9101 16.2085 33.2294 16.2034 33.5593ZM15.6899 33.4573C15.3444 33.2497 15.1235 33.0023 14.9347 33.025C14.7459 33.0476 14.5816 33.3441 14.406 33.5196C14.6043 33.7084 14.7836 34.0086 15.0083 34.0445C15.1574 34.0634 15.3727 33.7349 15.6899 33.4517V33.4573Z" fill="white"/>
<path d="M30.8549 31.8599C31.51 31.9052 31.9273 32.2035 31.965 32.8888C32.0066 33.6233 31.5988 34.0499 30.9115 34.0575C30.2791 34.0575 29.8505 33.6799 29.8467 32.9889C29.8429 32.2979 30.2035 31.9467 30.8549 31.8599Z" fill="#4D98C2"/>
<path d="M9.83568 32.6982C10.2492 32.4226 10.6381 31.9676 11.0818 31.909C11.7803 31.8146 12.1598 32.3338 12.1315 33.0418C12.1032 33.7498 11.6236 34.1407 11.0251 34.0255C10.5852 33.9405 10.2246 33.4591 9.82812 33.1495L9.83568 32.6982Z" fill="#4D98C2"/>
<path d="M30.551 26.6191L31.4497 27.6085C30.2565 29.2133 28.5063 29.2529 26.6504 27.7066L27.5302 26.8174C27.7077 27.8124 28.1816 28.4788 29.1256 28.443C30.0186 28.409 30.4963 27.7878 30.551 26.6191Z" fill="#4D98C2"/>
<path d="M30.1148 26.9517C29.6334 27.3066 29.3483 27.6691 29.05 27.6823C28.831 27.6918 28.3816 27.2066 28.4137 27.0008C28.4635 26.8332 28.5535 26.6804 28.676 26.5557C28.7984 26.4309 28.9495 26.3381 29.1161 26.2852C29.3445 26.2323 29.6466 26.6137 30.1148 26.9517Z" fill="#4D98C2"/>
<path d="M10.8779 27.6499L11.669 26.9061C11.9938 27.7972 12.4242 28.5599 13.4362 28.441C14.299 28.3391 14.6766 27.6764 14.8201 26.7305L15.6772 27.6386C14.2405 29.2377 12.4091 29.2491 10.8779 27.6499Z" fill="#4D98C2"/>
<path d="M13.285 28.0842C12.9206 27.5329 12.5657 27.2289 12.5714 26.9306C12.5714 26.6909 13.0131 26.283 13.2661 26.2755C13.5191 26.2679 13.9572 26.6757 13.9666 26.9136C13.9779 27.2119 13.6343 27.5178 13.285 28.0842Z" fill="#4D98C2"/>
<path d="M18.2695 40.8486H23.7051C22.2853 42.7801 19.7535 42.7838 18.2695 40.8486Z" fill="#5DA9DC"/>
<path d="M25.6839 36.3984C26.0181 36.9158 26.3938 37.2499 26.3372 37.467C26.2598 37.7559 25.8425 37.9542 25.582 38.192C25.3743 37.9315 25.0156 37.6785 25.0005 37.4104C24.9854 37.1423 25.3309 36.8742 25.6839 36.3984Z" fill="#4D98C2"/>
<path d="M12.1522 38.1394C11.8048 37.6391 11.397 37.2993 11.4669 37.0935C11.5518 36.7952 11.9691 36.5932 12.2447 36.3496C12.4581 36.6064 12.8243 36.8575 12.8375 37.1256C12.8508 37.3937 12.4977 37.6599 12.1522 38.1394Z" fill="#4D98C2"/>
<path d="M27.8435 33.5179C27.4791 33.7803 27.228 34.0843 27.0883 34.0371C26.858 33.971 26.6956 33.6595 26.5049 33.4707C26.6937 33.314 26.8825 33.044 27.0958 33.0308C27.3092 33.0176 27.4885 33.2705 27.8435 33.5179Z" fill="#4D98C2"/>
<path d="M15.6898 33.4516C15.3745 33.7348 15.1574 34.0633 14.9988 34.0388C14.776 34.0029 14.5947 33.7027 14.3965 33.5139C14.5721 33.3383 14.7307 33.0438 14.9251 33.0193C15.1196 32.9947 15.3443 33.2439 15.6898 33.4516Z" fill="#4D98C2"/>
<defs>
<filter id="filter0_d_25_580" x="0.0200195" y="0.473633" width="42.5635" height="55.0728" filterUnits="userSpaceOnUse" color-interpolation-filters="sRGB">
<feFlood flood-opacity="0" result="BackgroundImageFix"/>
<feColorMatrix in="SourceAlpha" type="matrix" values="0 0 0 0 0 0 0 0 0 0 0 0 0 0 0 0 0 0 127 0" result="hardAlpha"/>
<feOffset dy="4"/>
<feGaussianBlur stdDeviation="2"/>
<feComposite in2="hardAlpha" operator="out"/>
<feColorMatrix type="matrix" values="0 0 0 0 0.089323 0 0 0 0 0.489225 0 0 0 0 0.729167 0 0 0 0.6 0"/>
<feBlend mode="normal" in2="BackgroundImageFix" result="effect1_dropShadow_25_580"/>
<feBlend mode="normal" in="SourceGraphic" in2="effect1_dropShadow_25_580" result="shape"/>
</filter>
</defs>
</svg>
