<svg width="56" height="51" viewBox="0 0 56 51" fill="none" xmlns="http://www.w3.org/2000/svg">
<g filter="url(#filter0_d_25_642)">
<path d="M33.0006 37.071C22.7903 37.0619 14.4644 28.7505 14.4727 18.5745C14.4805 8.23738 22.7289 -0.0412799 33.04 0.000154858C43.7235 0.0415896 51.6976 8.80711 51.5373 18.7858C51.3724 29.026 43.0336 37.0552 33.0006 37.071ZM49.2845 18.5397C49.282 9.63704 42.0247 2.15227 32.7644 2.25089C24.2252 2.34163 16.5883 9.35114 16.7226 18.8389C16.8423 27.3073 23.7188 34.7879 32.9994 34.8149C41.9609 34.8405 49.2816 27.5066 49.2853 18.5397H49.2845Z" fill="white"/>
</g>
<g filter="url(#filter1_d_25_642)">
<path d="M15.8929 27.3516C16.7614 29.0244 17.8666 30.5633 19.1745 31.9206L17.6456 33.0745L8.57716 39.9266C8.51086 39.9767 8.44001 40.0206 8.37828 40.0753C7.69833 40.6757 6.94049 40.7056 6.135 40.3836C4.85467 39.8723 3.92445 38.4275 4.00484 37.0527C4.0384 36.4825 4.26878 36.0048 4.74072 35.6538C8.124 33.1368 11.506 30.6181 14.8868 28.0978C15.2129 27.855 15.5403 27.6134 15.8929 27.3516Z" fill="white"/>
</g>
<path d="M54.0821 50.4395L54.4517 50.4867C54.4517 50.5079 54.4484 50.5282 54.4471 50.5505H53.8645C53.8991 50.4852 53.9376 50.422 53.9797 50.3612C54.0626 50.2535 54.1683 50.1582 54.2387 50.0421C54.2644 50.0007 54.2163 49.9133 54.2018 49.847C54.1401 49.8588 54.0799 49.8776 54.0224 49.9029C53.954 49.9419 53.9027 50.0198 53.8318 50.0442C53.6574 50.103 53.6147 50.1685 53.7792 50.2514L53.5256 50.5961C53.5194 50.4946 53.5148 50.4192 53.5107 50.3442L53.4647 50.3235L53.3222 50.6056C53.2774 50.4706 53.2426 50.3649 53.2012 50.2406C53.3151 50.2029 53.461 50.1441 53.2426 50.0401L53.5032 49.6899C53.5119 49.7989 53.5181 49.8793 53.5244 49.9593L53.5658 49.9717L53.7063 49.709L53.7593 49.7334C53.7527 49.8039 53.746 49.8743 53.734 50.0057C53.8086 49.9427 53.8546 49.9178 53.8811 49.8814C53.9955 49.7156 54.1786 49.6663 54.3207 49.7707C54.445 49.8619 54.445 49.999 54.3207 50.1681C54.2486 50.2522 54.1736 50.3322 54.0821 50.4395Z" fill="black"/>
<path d="M55.677 49.7469L55.3397 49.9893C55.6783 50.0183 55.7789 50.0929 55.745 50.3017C55.7296 50.3966 55.641 50.5284 55.5602 50.5503C55.4794 50.5723 55.2904 50.4948 55.2788 50.4355C55.2413 50.2539 55.2446 50.0663 55.2884 49.8861C55.3227 49.7585 55.4686 49.6897 55.677 49.7469ZM55.6878 50.2773C55.5908 50.2081 55.5324 50.1347 55.4752 50.1356C55.4305 50.1356 55.3455 50.2358 55.3509 50.2789C55.3617 50.344 55.4379 50.3974 55.4864 50.4558L55.6878 50.2773Z" fill="black"/>
<path d="M54.4941 49.9331C54.577 49.861 54.6516 49.7495 54.7461 49.7288C54.8318 49.7102 54.9893 49.7644 55.0241 49.8328C55.0655 49.9119 55.027 50.0524 54.9827 50.1469C54.935 50.248 54.8401 50.3271 54.7465 50.4394L55.1115 50.4779V50.5413H54.543C54.567 50.4822 54.5967 50.4256 54.6317 50.3723C54.7121 50.2695 54.8165 50.1825 54.8828 50.0723C54.9147 50.0193 54.8828 49.9277 54.8778 49.8535C54.8099 49.8767 54.7398 49.895 54.6748 49.9244C54.631 49.9482 54.5893 49.9759 54.5505 50.0073C54.5323 49.9836 54.5132 49.9588 54.4941 49.9331Z" fill="black"/>
<path d="M49.286 18.5398C49.2823 27.5067 41.9616 34.8406 33.0022 34.8149C23.7208 34.788 16.8451 27.3074 16.7254 18.8389C16.5911 9.35039 24.228 2.34171 32.7672 2.25096C42.0263 2.15235 49.2835 9.63712 49.286 18.5398ZM32.9943 34.0907C41.522 34.1217 48.5261 27.1449 48.5568 18.5891C48.5862 10.1986 41.8754 3.10369 33.1899 2.97731C24.6523 2.85301 17.303 9.80327 17.4492 18.8505C17.5785 26.8499 24.0697 34.0438 32.9943 34.0907Z" fill="#8BD3F3"/>
<path d="M55.6872 50.2775L55.4875 50.456C55.439 50.3976 55.3632 50.3442 55.352 50.2791C55.3449 50.2377 55.4299 50.1366 55.4763 50.1357C55.5318 50.1349 55.5902 50.2083 55.6872 50.2775Z" fill="white"/>
<path d="M32.9945 34.0906C24.0699 34.0437 17.5808 26.8498 17.4494 18.8505C17.3031 9.80318 24.6524 2.85292 33.1901 2.97723C41.8756 3.1036 48.5864 10.1972 48.5569 18.589C48.5263 27.144 41.5222 34.1216 32.9945 34.0906ZM34.9005 29.8456L34.9983 29.9736C35.8046 31.0509 37.198 31.4325 38.4208 30.9154C39.5971 30.4182 40.2986 29.1449 40.1005 27.8439C40.0384 27.4349 39.9456 27.0305 39.8685 26.624C39.8084 26.3079 39.7508 25.9913 39.6907 25.6656C39.8151 25.6333 39.9137 25.6089 40.0123 25.5828C41.0834 25.2861 42.0803 24.8502 42.8775 24.0439C43.7418 23.1692 43.9113 22.055 43.3486 20.9661C42.8982 20.096 42.215 19.4446 41.4032 18.9192C41.1207 18.7365 40.8211 18.5786 40.5178 18.403C40.5766 18.3615 40.6359 18.3275 40.6864 18.2836C41.1575 17.8693 41.6771 17.5009 42.0886 17.0348C43.2425 15.7267 43.5052 14.2388 42.8323 12.6079C42.4308 11.6338 41.8151 10.8059 41.0618 10.0829C39.2515 8.3451 37.0841 7.2939 34.6262 6.85635C31.1871 6.24394 27.98 6.88162 25.0461 8.78596C23.665 9.68219 22.514 10.8129 21.7843 12.3166C21.3149 13.2841 21.133 14.2947 21.4487 15.3505C21.7218 16.2645 22.2799 16.9934 22.9818 17.6194C24.0939 18.6118 25.4057 19.2428 26.8079 19.7015C27.2773 19.8552 27.7567 19.9771 28.2311 20.113C28.2337 20.1499 28.2337 20.187 28.2311 20.224C28.0091 21.7811 27.7513 23.3345 27.5719 24.8966C27.3515 26.8138 27.9291 28.467 29.4394 29.7155C30.5001 30.5922 31.7353 30.9133 33.1035 30.6556C33.7585 30.5313 34.3415 30.2438 34.8996 29.8456H34.9005Z" fill="#4DB7E0"/>
<path d="M34.8994 29.8454C34.3413 30.2436 33.7583 30.5312 33.1016 30.6546C31.7342 30.9124 30.4982 30.5912 29.4375 29.7145C27.9272 28.4661 27.3496 26.8141 27.57 24.8956C27.7494 23.3335 28.0072 21.7802 28.2292 20.223C28.2318 20.1861 28.2318 20.149 28.2292 20.112C27.7548 19.9761 27.2762 19.8543 26.806 19.7005C25.4038 19.2419 24.092 18.6108 22.9799 17.6184C22.278 16.9924 21.7198 16.2635 21.4468 15.3495C21.1311 14.2937 21.313 13.2831 21.7824 12.3156C22.5121 10.812 23.6631 9.68121 25.0442 8.78498C27.9781 6.87898 31.1848 6.24296 34.6243 6.85536C37.0814 7.29291 39.2496 8.34411 41.0599 10.0819C41.8132 10.8049 42.4273 11.6328 42.8304 12.6069C43.5033 14.2378 43.2406 15.7257 42.0867 17.0338C41.6752 17.4999 41.1556 17.87 40.6845 18.2826C40.634 18.3266 40.5747 18.3605 40.5159 18.402C40.8192 18.5777 41.1188 18.7355 41.4013 18.9183C42.2131 19.4436 42.8963 20.0942 43.3467 20.9651C43.9094 22.052 43.7399 23.1682 42.8756 24.0429C42.0784 24.8492 41.0815 25.2859 40.0104 25.5818C39.9118 25.6087 39.8127 25.6332 39.6888 25.6647C39.7489 25.9903 39.8065 26.3069 39.8666 26.623C39.9437 27.0295 40.0365 27.4339 40.0986 27.8429C40.2967 29.1439 39.5952 30.4168 38.4189 30.9144C37.1961 31.4315 35.8027 31.0479 34.9964 29.9726L34.8994 29.8454ZM32.311 7.34885C29.5398 7.39567 27.0815 8.17754 24.9012 9.78521C23.9134 10.5124 23.0719 11.3821 22.5017 12.4851C21.7008 14.0339 21.903 15.4837 23.0893 16.7529C23.7547 17.4639 24.5561 17.9839 25.4287 18.3987C27.3347 19.3053 29.365 19.6773 31.457 19.7946C31.8908 19.8186 32.2555 19.7652 32.5343 19.4076C32.558 19.3824 32.5847 19.3602 32.6139 19.3417C34.6889 17.7548 36.9881 17.3462 39.4974 18.0282C39.5931 18.0517 39.6941 18.0402 39.7821 17.9959C40.3895 17.647 40.9505 17.2335 41.425 16.7156C42.4894 15.5554 42.7674 14.2465 42.1248 12.7793C41.6541 11.7045 40.9037 10.8447 40.0058 10.1142C37.7447 8.27533 35.1368 7.4052 32.311 7.34885ZM37.1112 25.1915C38.6472 25.1915 39.833 24.9603 40.9518 24.4701C41.5041 24.2273 42.0125 23.912 42.4211 23.4562C43.0161 22.7974 43.1064 22.0681 42.6945 21.2792C42.3872 20.6882 41.9424 20.1796 41.3976 19.7963C39.0864 18.1596 36.6422 17.9926 34.108 19.2162C33.1861 19.662 32.4216 20.3175 31.9223 21.2353C31.4616 22.0826 31.5552 22.8425 32.241 23.5179C32.536 23.8074 32.869 24.0554 33.2308 24.255C34.4967 24.9512 35.8764 25.1819 37.1095 25.1915H37.1112ZM28.9635 20.2732C28.9568 20.3047 28.9469 20.344 28.9411 20.3842C28.7643 21.6063 28.5881 22.8283 28.4124 24.0504C28.3187 24.7054 28.2052 25.3589 28.2765 26.0268C28.4298 27.4236 29.0103 28.5759 30.197 29.3747C31.5229 30.2676 33.2172 30.2183 34.4561 29.2674C34.5505 29.1953 34.5804 29.134 34.5518 29.0101C34.502 28.7963 34.4486 28.5717 34.4656 28.3571C34.5049 27.8636 34.582 27.3726 34.6516 26.8816C34.7092 26.4743 34.7759 26.0686 34.8414 25.6613C34.7925 25.6427 34.7681 25.6319 34.7424 25.6245C34.6628 25.6013 34.5828 25.5797 34.5033 25.5573C33.5644 25.293 32.6868 24.9072 31.9422 24.2588C30.9287 23.3775 30.659 22.2546 31.1873 21.0944C31.2743 20.9026 31.3833 20.7215 31.4773 20.54L28.9635 20.2732ZM35.5723 25.7898C35.5566 25.8544 35.5425 25.8996 35.535 25.9456C35.4269 26.6193 35.3026 27.291 35.216 27.9676C35.1029 28.8497 35.3937 29.5732 36.1516 30.0717C36.8696 30.5436 37.8011 30.5415 38.4889 30.0468C39.221 29.5197 39.5119 28.7884 39.3773 27.8955C39.3358 27.6096 39.2712 27.327 39.2152 27.0432C39.1324 26.6326 39.052 26.2224 38.9666 25.8001C37.8404 25.9657 36.6958 25.9622 35.5706 25.7898H35.5723Z" fill="#8BD3F3"/>
<g filter="url(#filter2_d_25_642)">
<path d="M32.3109 7.34912C35.1384 7.40547 37.7463 8.2756 40.0045 10.1136C40.9024 10.8441 41.6527 11.7039 42.1234 12.7787C42.7661 14.2455 42.4881 15.5549 41.4236 16.715C40.9492 17.233 40.3877 17.6465 39.7807 17.9954C39.6927 18.0396 39.5918 18.0511 39.4961 18.0277C36.9868 17.3457 34.6896 17.7542 32.6125 19.3412C32.5833 19.3597 32.5566 19.3818 32.533 19.407C32.2553 19.7646 31.8907 19.8181 31.4557 19.794C29.3632 19.6768 27.3337 19.3047 25.4273 18.3981C24.5547 17.9838 23.7534 17.4633 23.0879 16.7523C21.9016 15.4844 21.6994 14.0346 22.5004 12.4845C23.0705 11.3815 23.9121 10.5118 24.8999 9.78465C27.0797 8.17947 29.5381 7.39594 32.3109 7.34912ZM32.2176 17.6063C34.7323 17.6262 37.1612 17.1919 39.4832 16.2137C40.0542 15.9733 40.602 15.675 41.1572 15.3999C41.3047 15.3265 41.4083 15.1952 41.3644 15.0328C41.3345 14.9213 41.2421 14.78 41.1443 14.7427C41.0362 14.7038 40.8717 14.7369 40.7623 14.7958C37.339 16.6471 33.689 17.204 29.8583 16.6951C29.1419 16.5998 28.4351 16.4291 27.7257 16.2858C27.5388 16.2481 27.381 16.263 27.2699 16.432C27.1183 16.6628 27.2542 16.9164 27.5691 16.9955C29.0885 17.3819 30.6483 17.5869 32.216 17.6063H32.2176ZM23.7451 15.1426C23.5379 15.1616 23.4107 15.259 23.3722 15.4409C23.3336 15.6228 23.4206 15.7724 23.588 15.8424C24.3198 16.1412 25.0536 16.4353 25.7919 16.7179C25.8382 16.7384 25.8883 16.7487 25.9389 16.7481C25.9895 16.7476 26.0393 16.7363 26.0852 16.7149C26.131 16.6935 26.1718 16.6626 26.2046 16.6241C26.2375 16.5857 26.2618 16.5407 26.2759 16.4921C26.341 16.2982 26.2303 16.1122 26.0107 16.0264C25.313 15.7537 24.6169 15.4765 23.9199 15.2018C23.8545 15.177 23.789 15.1583 23.7434 15.1426H23.7451Z" fill="white"/>
</g>
<g filter="url(#filter3_d_25_642)">
<path d="M37.1098 25.1918C35.8767 25.1823 34.4969 24.9515 33.2327 24.257C32.8709 24.0573 32.5378 23.8094 32.2428 23.5199C31.5571 22.8445 31.4634 22.0846 31.9242 21.2373C32.4235 20.3195 33.188 19.6628 34.1099 19.2182C36.644 17.9942 39.0883 18.1612 41.3995 19.7982C41.9443 20.1816 42.3891 20.6902 42.6964 21.2812C43.1083 22.0685 43.0179 22.7994 42.4229 23.4582C42.0127 23.914 41.5043 24.228 40.9503 24.4708C39.8316 24.9606 38.6457 25.1906 37.1098 25.1918Z" fill="white"/>
</g>
<g filter="url(#filter4_d_25_642)">
<path d="M28.9614 20.2734L31.4786 20.5394C31.3828 20.7201 31.2739 20.902 31.1885 21.0938C30.6602 22.254 30.93 23.3777 31.9418 24.259C32.6876 24.9075 33.564 25.2949 34.5029 25.5576C34.5824 25.58 34.6624 25.6015 34.742 25.6247C34.7677 25.6322 34.7921 25.643 34.841 25.6616C34.7772 26.0689 34.7088 26.4746 34.6512 26.8819C34.5816 27.3729 34.5045 27.8639 34.4652 28.3574C34.4482 28.572 34.5016 28.7966 34.5514 29.0104C34.58 29.1347 34.5514 29.1956 34.4557 29.2677C33.2168 30.2207 31.5221 30.2679 30.1966 29.375C29.0099 28.5761 28.4294 27.4238 28.2761 26.0271C28.2031 25.3591 28.3175 24.7057 28.412 24.0506C28.586 22.8283 28.7622 21.6063 28.9407 20.3845C28.9448 20.3443 28.9544 20.3049 28.9614 20.2734Z" fill="white"/>
</g>
<g filter="url(#filter5_d_25_642)">
<path d="M35.5705 25.79C36.6955 25.9618 37.8398 25.9647 38.9657 25.7987C39.0485 26.2226 39.1314 26.6328 39.2143 27.0418C39.2702 27.3256 39.3336 27.6082 39.3763 27.8941C39.5109 28.787 39.2201 29.5183 38.4879 30.0454C37.8001 30.5401 36.8686 30.5426 36.1506 30.0702C35.3927 29.573 35.1019 28.8483 35.215 27.9662C35.3016 27.2896 35.4259 26.6179 35.534 25.9442C35.5427 25.9011 35.5548 25.8547 35.5705 25.79Z" fill="white"/>
</g>
<path d="M32.2155 17.6059C30.6475 17.5877 29.0872 17.3835 27.5674 16.9977C27.2524 16.9185 27.1165 16.6662 27.2682 16.4342C27.3792 16.2651 27.5371 16.2502 27.724 16.2879C28.4333 16.4313 29.1402 16.602 29.8566 16.6973C33.6873 17.2061 37.3372 16.6492 40.7606 14.7979C40.87 14.7391 41.0345 14.7059 41.1426 14.7449C41.2404 14.7801 41.3328 14.9214 41.3626 15.0349C41.4066 15.1973 41.303 15.3287 41.1555 15.402C40.5994 15.6776 40.0525 15.9755 39.4815 16.2158C37.1587 17.1903 34.7306 17.6262 32.2155 17.6059Z" fill="#4C89A4"/>
<path d="M23.7441 15.1426C23.7897 15.1583 23.8552 15.177 23.9186 15.2018C24.6155 15.4765 25.3116 15.7537 26.0094 16.0264C26.229 16.1122 26.3409 16.2982 26.2746 16.4921C26.2605 16.5407 26.2362 16.5857 26.2033 16.6241C26.1704 16.6626 26.1297 16.6935 26.0839 16.7149C26.038 16.7363 25.9881 16.7476 25.9376 16.7481C25.887 16.7487 25.8369 16.7384 25.7906 16.7179C25.0522 16.4353 24.3184 16.1412 23.5867 15.8424C23.421 15.774 23.3306 15.6282 23.3708 15.4409C23.411 15.2536 23.5353 15.1616 23.7441 15.1426Z" fill="#4C89A4"/>
<defs>
<filter id="filter0_d_25_642" x="10.4727" y="0" width="45.0669" height="45.0708" filterUnits="userSpaceOnUse" color-interpolation-filters="sRGB">
<feFlood flood-opacity="0" result="BackgroundImageFix"/>
<feColorMatrix in="SourceAlpha" type="matrix" values="0 0 0 0 0 0 0 0 0 0 0 0 0 0 0 0 0 0 127 0" result="hardAlpha"/>
<feOffset dy="4"/>
<feGaussianBlur stdDeviation="2"/>
<feComposite in2="hardAlpha" operator="out"/>
<feColorMatrix type="matrix" values="0 0 0 0 0.089323 0 0 0 0 0.489225 0 0 0 0 0.729167 0 0 0 0.6 0"/>
<feBlend mode="normal" in2="BackgroundImageFix" result="effect1_dropShadow_25_642"/>
<feBlend mode="normal" in="SourceGraphic" in2="effect1_dropShadow_25_642" result="shape"/>
</filter>
<filter id="filter1_d_25_642" x="0" y="27.3516" width="23.1743" height="21.2354" filterUnits="userSpaceOnUse" color-interpolation-filters="sRGB">
<feFlood flood-opacity="0" result="BackgroundImageFix"/>
<feColorMatrix in="SourceAlpha" type="matrix" values="0 0 0 0 0 0 0 0 0 0 0 0 0 0 0 0 0 0 127 0" result="hardAlpha"/>
<feOffset dy="4"/>
<feGaussianBlur stdDeviation="2"/>
<feComposite in2="hardAlpha" operator="out"/>
<feColorMatrix type="matrix" values="0 0 0 0 0.089323 0 0 0 0 0.489225 0 0 0 0 0.729167 0 0 0 0.6 0"/>
<feBlend mode="normal" in2="BackgroundImageFix" result="effect1_dropShadow_25_642"/>
<feBlend mode="normal" in="SourceGraphic" in2="effect1_dropShadow_25_642" result="shape"/>
</filter>
<filter id="filter2_d_25_642" x="18.0195" y="7.34912" width="28.4463" height="20.4497" filterUnits="userSpaceOnUse" color-interpolation-filters="sRGB">
<feFlood flood-opacity="0" result="BackgroundImageFix"/>
<feColorMatrix in="SourceAlpha" type="matrix" values="0 0 0 0 0 0 0 0 0 0 0 0 0 0 0 0 0 0 127 0" result="hardAlpha"/>
<feOffset dy="4"/>
<feGaussianBlur stdDeviation="2"/>
<feComposite in2="hardAlpha" operator="out"/>
<feColorMatrix type="matrix" values="0 0 0 0 0.089323 0 0 0 0 0.489225 0 0 0 0 0.729167 0 0 0 0.6 0"/>
<feBlend mode="normal" in2="BackgroundImageFix" result="effect1_dropShadow_25_642"/>
<feBlend mode="normal" in="SourceGraphic" in2="effect1_dropShadow_25_642" result="shape"/>
</filter>
<filter id="filter3_d_25_642" x="27.6396" y="18.417" width="19.3101" height="14.7749" filterUnits="userSpaceOnUse" color-interpolation-filters="sRGB">
<feFlood flood-opacity="0" result="BackgroundImageFix"/>
<feColorMatrix in="SourceAlpha" type="matrix" values="0 0 0 0 0 0 0 0 0 0 0 0 0 0 0 0 0 0 127 0" result="hardAlpha"/>
<feOffset dy="4"/>
<feGaussianBlur stdDeviation="2"/>
<feComposite in2="hardAlpha" operator="out"/>
<feColorMatrix type="matrix" values="0 0 0 0 0.089323 0 0 0 0 0.489225 0 0 0 0 0.729167 0 0 0 0.6 0"/>
<feBlend mode="normal" in2="BackgroundImageFix" result="effect1_dropShadow_25_642"/>
<feBlend mode="normal" in="SourceGraphic" in2="effect1_dropShadow_25_642" result="shape"/>
</filter>
<filter id="filter4_d_25_642" x="24.2529" y="20.2734" width="14.5879" height="17.7412" filterUnits="userSpaceOnUse" color-interpolation-filters="sRGB">
<feFlood flood-opacity="0" result="BackgroundImageFix"/>
<feColorMatrix in="SourceAlpha" type="matrix" values="0 0 0 0 0 0 0 0 0 0 0 0 0 0 0 0 0 0 127 0" result="hardAlpha"/>
<feOffset dy="4"/>
<feGaussianBlur stdDeviation="2"/>
<feComposite in2="hardAlpha" operator="out"/>
<feColorMatrix type="matrix" values="0 0 0 0 0.089323 0 0 0 0 0.489225 0 0 0 0 0.729167 0 0 0 0.6 0"/>
<feBlend mode="normal" in2="BackgroundImageFix" result="effect1_dropShadow_25_642"/>
<feBlend mode="normal" in="SourceGraphic" in2="effect1_dropShadow_25_642" result="shape"/>
</filter>
<filter id="filter5_d_25_642" x="31.1914" y="25.79" width="12.2168" height="12.6304" filterUnits="userSpaceOnUse" color-interpolation-filters="sRGB">
<feFlood flood-opacity="0" result="BackgroundImageFix"/>
<feColorMatrix in="SourceAlpha" type="matrix" values="0 0 0 0 0 0 0 0 0 0 0 0 0 0 0 0 0 0 127 0" result="hardAlpha"/>
<feOffset dy="4"/>
<feGaussianBlur stdDeviation="2"/>
<feComposite in2="hardAlpha" operator="out"/>
<feColorMatrix type="matrix" values="0 0 0 0 0.089323 0 0 0 0 0.489225 0 0 0 0 0.729167 0 0 0 0.6 0"/>
<feBlend mode="normal" in2="BackgroundImageFix" result="effect1_dropShadow_25_642"/>
<feBlend mode="normal" in="SourceGraphic" in2="effect1_dropShadow_25_642" result="shape"/>
</filter>
</defs>
</svg>
