<svg width="51" height="50" viewBox="0 0 51 50" fill="none" xmlns="http://www.w3.org/2000/svg">
<g filter="url(#filter0_d_40_2100)">
<path d="M27.27 29.7455C19.0773 29.7382 12.3967 23.0692 12.4033 14.9041C12.4096 6.60962 19.0281 -0.0331227 27.3016 0.000124257C35.874 0.0333712 42.2724 7.06677 42.1437 15.0736C42.0114 23.2903 35.3205 29.7329 27.27 29.7455ZM40.3361 14.8761C40.3341 7.7327 34.5109 1.72697 27.0805 1.8061C20.2287 1.87891 14.1009 7.5033 14.2086 15.1162C14.3047 21.9112 19.8224 27.9136 27.269 27.9352C34.4597 27.9558 40.3338 22.0711 40.3368 14.8761H40.3361Z" fill="white"/>
</g>
<g filter="url(#filter1_d_40_2100)">
<path d="M13.5428 21.9468C14.2396 23.2891 15.1265 24.5239 16.1759 25.6129L14.9491 26.5388L7.67268 32.0369C7.61949 32.0771 7.56264 32.1124 7.5131 32.1563C6.96752 32.638 6.35943 32.6619 5.71311 32.4036C4.68578 31.9933 3.93938 30.834 4.00388 29.7309C4.03081 29.2734 4.21567 28.8901 4.59435 28.6085C7.30907 26.5888 10.0228 24.5679 12.7355 22.5456C12.9972 22.3507 13.2598 22.1569 13.5428 21.9468Z" fill="white"/>
</g>
<path d="M44.1853 40.4725L44.4819 40.5104C44.4819 40.5274 44.4792 40.5437 44.4783 40.5616H44.0108C44.0386 40.5092 44.0694 40.4585 44.1032 40.4097C44.1697 40.3233 44.2545 40.2468 44.311 40.1537C44.3316 40.1204 44.2931 40.0503 44.2814 39.9971C44.2319 40.0066 44.1836 40.0217 44.1375 40.042C44.0826 40.0732 44.0414 40.1357 43.9845 40.1554C43.8446 40.2026 43.8103 40.2551 43.9423 40.3216L43.7388 40.5982C43.7339 40.5167 43.7302 40.4562 43.7269 40.3961L43.69 40.3794L43.5756 40.6059C43.5397 40.4975 43.5118 40.4127 43.4785 40.3129C43.5699 40.2827 43.687 40.2355 43.5118 40.152L43.7209 39.8711C43.7279 39.9585 43.7329 40.023 43.7378 40.0872L43.7711 40.0972L43.8838 39.8864L43.9264 39.906C43.921 39.9625 43.9157 40.019 43.9061 40.1244C43.9659 40.0739 44.0028 40.054 44.0241 40.0247C44.1159 39.8917 44.2628 39.8521 44.3768 39.9359C44.4766 40.0091 44.4766 40.1191 44.3768 40.2548C44.319 40.3223 44.2588 40.3864 44.1853 40.4725Z" fill="black"/>
<path d="M45.4653 39.9167L45.1946 40.1112C45.4663 40.1345 45.5471 40.1943 45.5198 40.3619C45.5075 40.438 45.4364 40.5437 45.3715 40.5614C45.3067 40.579 45.1551 40.5168 45.1458 40.4693C45.1157 40.3236 45.1183 40.173 45.1534 40.0284C45.181 39.926 45.298 39.8708 45.4653 39.9167ZM45.4739 40.3423C45.3961 40.2867 45.3492 40.2279 45.3034 40.2286C45.2675 40.2286 45.1993 40.309 45.2036 40.3436C45.2123 40.3958 45.2734 40.4387 45.3123 40.4856L45.4739 40.3423Z" fill="black"/>
<path d="M44.5161 40.0658C44.5826 40.008 44.6425 39.9185 44.7183 39.9019C44.7871 39.8869 44.9134 39.9305 44.9413 39.9854C44.9746 40.0489 44.9437 40.1616 44.9081 40.2374C44.8699 40.3185 44.7937 40.382 44.7186 40.4721L45.0115 40.503V40.5539H44.5553C44.5745 40.5064 44.5984 40.461 44.6265 40.4182C44.691 40.3358 44.7748 40.266 44.828 40.1775C44.8536 40.135 44.828 40.0615 44.824 40.002C44.7695 40.0206 44.7133 40.0352 44.6611 40.0588C44.6259 40.0779 44.5925 40.1002 44.5613 40.1253C44.5467 40.1064 44.5314 40.0864 44.5161 40.0658Z" fill="black"/>
<path d="M40.3368 14.876C40.3339 22.071 34.4598 27.9557 27.2708 27.9351C19.8235 27.9135 14.3065 21.9111 14.2104 15.116C14.1027 7.50248 20.2304 1.87876 27.0823 1.80595C34.5116 1.72682 40.3348 7.73255 40.3368 14.876ZM27.2645 27.3539C34.107 27.3788 39.7271 21.7807 39.7517 14.9156C39.7753 8.18305 34.3906 2.49017 27.4214 2.38877C20.5709 2.28903 14.6738 7.86587 14.7912 15.1253C14.8949 21.544 20.1034 27.3163 27.2645 27.3539Z" fill="#F28A7B"/>
<g filter="url(#filter2_d_40_2100)">
<path d="M45.3818 40.2687C45.4285 40.3068 45.4307 40.3804 45.3858 40.4205C45.3461 40.456 45.2818 40.4543 45.246 40.4148C45.2255 40.3923 45.2088 40.369 45.2044 40.3436C45.1988 40.3103 45.2669 40.2292 45.3042 40.2285C45.3279 40.2282 45.3524 40.2447 45.3818 40.2687Z" fill="url(#paint0_linear_40_2100)"/>
</g>
<path d="M27.265 27.3542C20.104 27.3166 14.8972 21.5442 14.7918 15.1256C14.6744 7.86612 20.5714 2.28927 27.422 2.38901C34.3912 2.49042 39.7759 8.1823 39.7523 14.9158C39.7276 21.7803 34.1076 27.3791 27.265 27.3542ZM28.7944 23.948L28.8728 24.0507C29.5198 24.9152 30.6379 25.2214 31.619 24.8064C32.5629 24.4075 33.1258 23.3858 32.9669 22.3418C32.917 22.0137 32.8425 21.6892 32.7807 21.3631C32.7325 21.1094 32.6863 20.8554 32.6381 20.5941C32.7378 20.5681 32.8169 20.5485 32.8961 20.5276C33.7555 20.2895 34.5554 19.9398 35.1951 19.2928C35.8886 18.5909 36.0246 17.6969 35.5731 16.8232C35.2117 16.125 34.6635 15.6024 34.0122 15.1808C33.7854 15.0342 33.545 14.9075 33.3017 14.7665C33.3489 14.7333 33.3964 14.706 33.437 14.6708C33.815 14.3383 34.2319 14.0427 34.5621 13.6687C35.488 12.6191 35.6988 11.4252 35.1589 10.1166C34.8367 9.33497 34.3426 8.67069 33.7382 8.09053C32.2857 6.69616 30.5465 5.85268 28.5743 5.50159C25.8148 5.0102 23.2415 5.52187 20.8873 7.0499C19.7791 7.76904 18.8555 8.67635 18.2701 9.88288C17.8934 10.6592 17.7474 11.4701 18.0008 12.3172C18.2199 13.0506 18.6677 13.6355 19.2309 14.1378C20.1232 14.9341 21.1758 15.4404 22.3009 15.8085C22.6776 15.9318 23.0623 16.0296 23.443 16.1386C23.445 16.1683 23.445 16.1981 23.443 16.2277C23.2648 17.4771 23.058 18.7236 22.914 19.977C22.7371 21.5153 23.2006 22.8419 24.4124 23.8436C25.2636 24.5471 26.2547 24.8048 27.3525 24.598C27.8781 24.4982 28.3459 24.2675 28.7937 23.948H28.7944Z" fill="#FA7A86"/>
<path d="M28.7934 23.9479C28.3456 24.2674 27.8778 24.4982 27.3508 24.5972C26.2537 24.804 25.2619 24.5464 24.4108 23.8429C23.1989 22.8411 22.7355 21.5156 22.9124 19.9762C23.0563 18.7228 23.2631 17.4764 23.4413 16.227C23.4433 16.1973 23.4433 16.1675 23.4413 16.1379C23.0606 16.0288 22.6766 15.9311 22.2993 15.8077C21.1742 15.4397 20.1216 14.9333 19.2293 14.1371C18.6661 13.6347 18.2182 13.0499 17.9991 12.3165C17.7458 11.4693 17.8917 10.6584 18.2684 9.88213C18.8539 8.6756 19.7775 7.76829 20.8856 7.04915C23.2398 5.51979 25.8128 5.00945 28.5727 5.50084C30.5442 5.85193 32.284 6.69541 33.7366 8.08978C34.341 8.66994 34.8337 9.33422 35.1572 10.1159C35.6971 11.4245 35.4864 12.6184 34.5604 13.668C34.2303 14.042 33.8134 14.3389 33.4354 14.67C33.3948 14.7053 33.3472 14.7325 33.3 14.7658C33.5434 14.9067 33.7838 15.0334 34.0105 15.18C34.6618 15.6016 35.2101 16.1236 35.5715 16.8224C36.023 17.6945 35.887 18.5902 35.1935 19.292C34.5538 19.939 33.7539 20.2894 32.8944 20.5268C32.8153 20.5484 32.7358 20.568 32.6364 20.5933C32.6846 20.8546 32.7309 21.1086 32.7791 21.3623C32.8409 21.6885 32.9154 22.0129 32.9652 22.3411C33.1242 23.385 32.5613 24.4064 31.6174 24.8057C30.6363 25.2206 29.5182 24.9127 28.8712 24.05L28.7934 23.9479ZM26.7165 5.89682C24.4929 5.93438 22.5204 6.56175 20.7709 7.85174C19.9783 8.43522 19.3031 9.13307 18.8456 10.0181C18.2029 11.2609 18.3652 12.4242 19.317 13.4425C19.851 14.0131 20.494 14.4303 21.1942 14.7631C22.7235 15.4906 24.3526 15.7891 26.0313 15.8832C26.3794 15.9025 26.6719 15.8596 26.8957 15.5727C26.9146 15.5524 26.9361 15.5347 26.9595 15.5198C28.6245 14.2465 30.4694 13.9186 32.4828 14.4659C32.5596 14.4847 32.6406 14.4755 32.7112 14.44C33.1986 14.16 33.6488 13.8282 34.0295 13.4126C34.8836 12.4817 35.1067 11.4314 34.591 10.2542C34.2133 9.39174 33.6112 8.70186 32.8908 8.11572C31.0765 6.64022 28.9839 5.94203 26.7165 5.89682ZM30.5681 20.2136C31.8006 20.2136 32.7521 20.0281 33.6498 19.6348C34.093 19.44 34.5009 19.187 34.8287 18.8212C35.3062 18.2926 35.3786 17.7075 35.0482 17.0744C34.8016 16.6002 34.4447 16.1921 34.0075 15.8845C32.153 14.5713 30.1918 14.4373 28.1584 15.4191C27.4186 15.7768 26.8052 16.3028 26.4046 17.0392C26.0349 17.7191 26.11 18.3289 26.6603 18.8708C26.897 19.103 27.1642 19.302 27.4546 19.4622C28.4703 20.0208 29.5774 20.206 30.5668 20.2136H30.5681ZM24.0305 16.2672C24.0251 16.2925 24.0172 16.3241 24.0125 16.3563C23.8706 17.3369 23.7292 18.3174 23.5883 19.298C23.5131 19.8236 23.422 20.3479 23.4792 20.8839C23.6022 22.0046 24.068 22.9292 25.0202 23.5702C26.0841 24.2867 27.4436 24.2471 28.4377 23.4841C28.5135 23.4263 28.5374 23.3771 28.5145 23.2777C28.4746 23.1061 28.4317 22.9259 28.4453 22.7537C28.4769 22.3577 28.5387 21.9637 28.5946 21.5698C28.6408 21.2429 28.6943 20.9175 28.7469 20.5906C28.7076 20.5757 28.688 20.567 28.6674 20.5611C28.6036 20.5424 28.5394 20.5251 28.4756 20.5072C27.7222 20.2951 27.018 19.9855 26.4206 19.4652C25.6074 18.7581 25.3909 17.8571 25.8148 16.9262C25.8846 16.7722 25.9721 16.6269 26.0475 16.4813L24.0305 16.2672ZM29.3333 20.6937C29.3207 20.7456 29.3094 20.7818 29.3034 20.8187C29.2166 21.3593 29.1169 21.8982 29.0474 22.4412C28.9567 23.149 29.19 23.7295 29.7981 24.1294C30.3743 24.5081 31.1217 24.5065 31.6736 24.1095C32.2611 23.6866 32.4945 23.0998 32.3864 22.3833C32.3532 22.1539 32.3013 21.9272 32.2564 21.6994C32.1899 21.3699 32.1254 21.0408 32.0569 20.702C31.1533 20.8348 30.2348 20.832 29.332 20.6937H29.3333Z" fill="#F49684"/>
<g filter="url(#filter3_d_40_2100)">
<path d="M26.7162 5.89697C28.985 5.94219 31.0775 6.64037 32.8895 8.11521C33.61 8.70135 34.2121 9.39123 34.5897 10.2537C35.1054 11.4306 34.8823 12.4812 34.0282 13.4121C33.6475 13.8277 33.197 14.1595 32.71 14.4394C32.6393 14.475 32.5583 14.4842 32.4816 14.4654C30.4681 13.9181 28.6249 14.2459 26.9582 15.5193C26.9348 15.5342 26.9134 15.5519 26.8944 15.5722C26.6716 15.8591 26.3791 15.902 26.03 15.8827C24.351 15.7886 22.7226 15.49 21.1929 14.7626C20.4927 14.4301 19.8497 14.0126 19.3158 13.442C18.3639 12.4247 18.2017 11.2614 18.8443 10.0176C19.3018 9.13257 19.977 8.43471 20.7696 7.85123C22.5188 6.56324 24.4913 5.93454 26.7162 5.89697ZM26.6414 14.1273C28.6592 14.1432 30.6081 13.7948 32.4712 13.0098C32.9294 12.817 33.3689 12.5776 33.8144 12.3569C33.9328 12.298 34.0159 12.1926 33.9807 12.0623C33.9567 11.9729 33.8826 11.8595 33.8041 11.8296C33.7173 11.7983 33.5854 11.8249 33.4976 11.8721C30.7507 13.3576 27.822 13.8044 24.7483 13.3962C24.1735 13.3197 23.6063 13.1827 23.0371 13.0677C22.8871 13.0374 22.7605 13.0494 22.6714 13.185C22.5497 13.3702 22.6587 13.5737 22.9114 13.6372C24.1306 13.9472 25.3822 14.1117 26.6401 14.1273H26.6414ZM19.8431 12.1504C19.6768 12.1657 19.5748 12.2438 19.5438 12.3898C19.5129 12.5357 19.5827 12.6557 19.717 12.7119C20.3042 12.9516 20.893 13.1877 21.4855 13.4144C21.5226 13.4308 21.5628 13.4391 21.6034 13.4387C21.6439 13.4383 21.684 13.4292 21.7208 13.412C21.7575 13.3948 21.7902 13.37 21.8166 13.3392C21.843 13.3084 21.8625 13.2722 21.8738 13.2332C21.926 13.0777 21.8372 12.9284 21.661 12.8596C21.1011 12.6408 20.5426 12.4184 19.9834 12.1979C19.9308 12.178 19.8783 12.163 19.8417 12.1504H19.8431Z" fill="white"/>
</g>
<g filter="url(#filter4_d_40_2100)">
<path d="M30.5669 20.2139C29.5775 20.2062 28.4704 20.0211 27.456 19.4638C27.1656 19.3036 26.8984 19.1046 26.6617 18.8724C26.1115 18.3305 26.0363 17.7207 26.4061 17.0408C26.8067 16.3044 27.4201 15.7774 28.1598 15.4207C30.1932 14.4386 32.1545 14.5726 34.009 15.8861C34.4461 16.1937 34.803 16.6018 35.0496 17.076C35.3801 17.7077 35.3076 18.2942 34.8302 18.8228C34.501 19.1886 34.0931 19.4406 33.6486 19.6354C32.7509 20.0284 31.7994 20.2129 30.5669 20.2139Z" fill="white"/>
</g>
<g filter="url(#filter5_d_40_2100)">
<path d="M24.0294 16.2671L26.0492 16.4805C25.9724 16.6255 25.8849 16.7714 25.8164 16.9254C25.3925 17.8563 25.609 18.758 26.4209 19.4651C27.0193 19.9854 27.7225 20.2963 28.4759 20.5071C28.5397 20.525 28.6039 20.5423 28.6677 20.5609C28.6883 20.5669 28.7079 20.5756 28.7472 20.5905C28.696 20.9173 28.6411 21.2428 28.5949 21.5696C28.539 21.9636 28.4772 22.3576 28.4456 22.7536C28.432 22.9258 28.4749 23.106 28.5148 23.2775C28.5377 23.3773 28.5148 23.4262 28.438 23.484C27.4439 24.2487 26.0841 24.2866 25.0205 23.5701C24.0683 22.9291 23.6025 22.0045 23.4795 20.8838C23.421 20.3478 23.5128 19.8235 23.5886 19.2979C23.7282 18.3171 23.8696 17.3365 24.0128 16.3562C24.0161 16.3239 24.0238 16.2924 24.0294 16.2671Z" fill="white"/>
</g>
<g filter="url(#filter6_d_40_2100)">
<path d="M29.332 20.6938C30.2347 20.8317 31.1529 20.834 32.0563 20.7008C32.1228 21.0409 32.1893 21.3701 32.2558 21.6982C32.3006 21.926 32.3515 22.1527 32.3857 22.3821C32.4938 23.0986 32.2604 23.6854 31.6729 24.1083C31.121 24.5053 30.3736 24.5073 29.7975 24.1283C29.1894 23.7293 28.956 23.1478 29.0468 22.44C29.1162 21.8971 29.216 21.3581 29.3028 20.8175C29.3097 20.7829 29.3194 20.7457 29.332 20.6938Z" fill="white"/>
</g>
<path d="M26.6397 14.1271C25.3815 14.1124 24.1296 13.9486 22.91 13.639C22.6573 13.5755 22.5483 13.373 22.67 13.1869C22.7591 13.0512 22.8857 13.0392 23.0357 13.0695C23.6049 13.1845 24.1721 13.3215 24.7469 13.398C27.8206 13.8063 30.7493 13.3594 33.4962 11.8739C33.584 11.8267 33.7159 11.8001 33.8027 11.8314C33.8812 11.8596 33.9553 11.973 33.9793 12.0641C34.0145 12.1944 33.9314 12.2998 33.813 12.3587C33.3669 12.5798 32.928 12.8188 32.4699 13.0117C30.606 13.7936 28.6578 14.1434 26.6397 14.1271Z" fill="#F49684"/>
<path d="M19.8423 12.1504C19.8789 12.163 19.9314 12.178 19.9823 12.1979C20.5415 12.4184 21.1001 12.6408 21.6599 12.8595C21.8362 12.9284 21.9259 13.0776 21.8727 13.2332C21.8614 13.2722 21.8419 13.3083 21.8155 13.3392C21.7892 13.37 21.7565 13.3948 21.7197 13.412C21.6829 13.4292 21.6429 13.4383 21.6023 13.4387C21.5617 13.4391 21.5215 13.4308 21.4844 13.4144C20.8919 13.1877 20.3031 12.9516 19.716 12.7119C19.583 12.6571 19.5105 12.54 19.5428 12.3898C19.575 12.2395 19.6748 12.1657 19.8423 12.1504Z" fill="#F49684"/>
<defs>
<filter id="filter0_d_40_2100" x="8.40332" y="0" width="37.7422" height="37.7456" filterUnits="userSpaceOnUse" color-interpolation-filters="sRGB">
<feFlood flood-opacity="0" result="BackgroundImageFix"/>
<feColorMatrix in="SourceAlpha" type="matrix" values="0 0 0 0 0 0 0 0 0 0 0 0 0 0 0 0 0 0 127 0" result="hardAlpha"/>
<feOffset dy="4"/>
<feGaussianBlur stdDeviation="2"/>
<feComposite in2="hardAlpha" operator="out"/>
<feColorMatrix type="matrix" values="0 0 0 0 0.695833 0 0 0 0 0.377158 0 0 0 0 0.322983 0 0 0 0.5 0"/>
<feBlend mode="normal" in2="BackgroundImageFix" result="effect1_dropShadow_40_2100"/>
<feBlend mode="normal" in="SourceGraphic" in2="effect1_dropShadow_40_2100" result="shape"/>
</filter>
<filter id="filter1_d_40_2100" x="0" y="21.9468" width="20.1758" height="18.6201" filterUnits="userSpaceOnUse" color-interpolation-filters="sRGB">
<feFlood flood-opacity="0" result="BackgroundImageFix"/>
<feColorMatrix in="SourceAlpha" type="matrix" values="0 0 0 0 0 0 0 0 0 0 0 0 0 0 0 0 0 0 127 0" result="hardAlpha"/>
<feOffset dy="4"/>
<feGaussianBlur stdDeviation="2"/>
<feComposite in2="hardAlpha" operator="out"/>
<feColorMatrix type="matrix" values="0 0 0 0 0.695833 0 0 0 0 0.377158 0 0 0 0 0.322983 0 0 0 0.5 0"/>
<feBlend mode="normal" in2="BackgroundImageFix" result="effect1_dropShadow_40_2100"/>
<feBlend mode="normal" in="SourceGraphic" in2="effect1_dropShadow_40_2100" result="shape"/>
</filter>
<filter id="filter2_d_40_2100" x="40.2041" y="39.2285" width="10.2139" height="10.2173" filterUnits="userSpaceOnUse" color-interpolation-filters="sRGB">
<feFlood flood-opacity="0" result="BackgroundImageFix"/>
<feColorMatrix in="SourceAlpha" type="matrix" values="0 0 0 0 0 0 0 0 0 0 0 0 0 0 0 0 0 0 127 0" result="hardAlpha"/>
<feOffset dy="4"/>
<feGaussianBlur stdDeviation="2.5"/>
<feComposite in2="hardAlpha" operator="out"/>
<feColorMatrix type="matrix" values="0 0 0 0 0.0238889 0 0 0 0 0.147522 0 0 0 0 0.358333 0 0 0 0.15 0"/>
<feBlend mode="normal" in2="BackgroundImageFix" result="effect1_dropShadow_40_2100"/>
<feBlend mode="normal" in="SourceGraphic" in2="effect1_dropShadow_40_2100" result="shape"/>
</filter>
<filter id="filter3_d_40_2100" x="14.4585" y="5.89697" width="24.4058" height="17.9897" filterUnits="userSpaceOnUse" color-interpolation-filters="sRGB">
<feFlood flood-opacity="0" result="BackgroundImageFix"/>
<feColorMatrix in="SourceAlpha" type="matrix" values="0 0 0 0 0 0 0 0 0 0 0 0 0 0 0 0 0 0 127 0" result="hardAlpha"/>
<feOffset dy="4"/>
<feGaussianBlur stdDeviation="2"/>
<feComposite in2="hardAlpha" operator="out"/>
<feColorMatrix type="matrix" values="0 0 0 0 0.695833 0 0 0 0 0.377158 0 0 0 0 0.322983 0 0 0 0.5 0"/>
<feBlend mode="normal" in2="BackgroundImageFix" result="effect1_dropShadow_40_2100"/>
<feBlend mode="normal" in="SourceGraphic" in2="effect1_dropShadow_40_2100" result="shape"/>
</filter>
<filter id="filter4_d_40_2100" x="22.1777" y="14.7778" width="17.0752" height="13.436" filterUnits="userSpaceOnUse" color-interpolation-filters="sRGB">
<feFlood flood-opacity="0" result="BackgroundImageFix"/>
<feColorMatrix in="SourceAlpha" type="matrix" values="0 0 0 0 0 0 0 0 0 0 0 0 0 0 0 0 0 0 127 0" result="hardAlpha"/>
<feOffset dy="4"/>
<feGaussianBlur stdDeviation="2"/>
<feComposite in2="hardAlpha" operator="out"/>
<feColorMatrix type="matrix" values="0 0 0 0 0.695833 0 0 0 0 0.377158 0 0 0 0 0.322983 0 0 0 0.5 0"/>
<feBlend mode="normal" in2="BackgroundImageFix" result="effect1_dropShadow_40_2100"/>
<feBlend mode="normal" in="SourceGraphic" in2="effect1_dropShadow_40_2100" result="shape"/>
</filter>
<filter id="filter5_d_40_2100" x="19.4609" y="16.2671" width="13.2861" height="15.8164" filterUnits="userSpaceOnUse" color-interpolation-filters="sRGB">
<feFlood flood-opacity="0" result="BackgroundImageFix"/>
<feColorMatrix in="SourceAlpha" type="matrix" values="0 0 0 0 0 0 0 0 0 0 0 0 0 0 0 0 0 0 127 0" result="hardAlpha"/>
<feOffset dy="4"/>
<feGaussianBlur stdDeviation="2"/>
<feComposite in2="hardAlpha" operator="out"/>
<feColorMatrix type="matrix" values="0 0 0 0 0.695833 0 0 0 0 0.377158 0 0 0 0 0.322983 0 0 0 0.5 0"/>
<feBlend mode="normal" in2="BackgroundImageFix" result="effect1_dropShadow_40_2100"/>
<feBlend mode="normal" in="SourceGraphic" in2="effect1_dropShadow_40_2100" result="shape"/>
</filter>
<filter id="filter6_d_40_2100" x="25.0278" y="20.6938" width="11.3833" height="11.7153" filterUnits="userSpaceOnUse" color-interpolation-filters="sRGB">
<feFlood flood-opacity="0" result="BackgroundImageFix"/>
<feColorMatrix in="SourceAlpha" type="matrix" values="0 0 0 0 0 0 0 0 0 0 0 0 0 0 0 0 0 0 127 0" result="hardAlpha"/>
<feOffset dy="4"/>
<feGaussianBlur stdDeviation="2"/>
<feComposite in2="hardAlpha" operator="out"/>
<feColorMatrix type="matrix" values="0 0 0 0 0.695833 0 0 0 0 0.377158 0 0 0 0 0.322983 0 0 0 0.5 0"/>
<feBlend mode="normal" in2="BackgroundImageFix" result="effect1_dropShadow_40_2100"/>
<feBlend mode="normal" in="SourceGraphic" in2="effect1_dropShadow_40_2100" result="shape"/>
</filter>
<linearGradient id="paint0_linear_40_2100" x1="45.3558" y1="40.1776" x2="45.208" y2="40.494" gradientUnits="userSpaceOnUse">
<stop stop-color="#ED766C"/>
<stop offset="0.492708" stop-color="#F78E87"/>
<stop offset="1" stop-color="#D5615A"/>
</linearGradient>
</defs>
</svg>
