<svg width="49" height="51" viewBox="0 0 49 51" fill="none" xmlns="http://www.w3.org/2000/svg">
<g filter="url(#filter0_d_25_867)">
<path d="M12.0367 42.6015C11.1259 41.9928 10.2295 41.452 9.39687 40.8265C7.34272 39.2821 5.67981 37.3963 4.77544 34.9544C3.43444 31.3263 3.7691 27.8873 6.27901 24.8359C7.58018 23.2532 9.29966 22.3869 11.3905 22.4116C12.6749 22.4267 13.8279 22.8767 14.8892 23.5843C16.0995 24.3916 17.3489 25.1662 18.8039 25.3848C22.0325 25.8682 25.0276 25.2683 27.1814 22.6573C29.2196 20.1843 29.5375 17.3284 28.0841 14.4111C27.4164 13.0709 26.579 11.8161 25.8244 10.5197C23.9288 7.26498 23.5663 3.82435 24.587 0.218579C24.6134 0.144177 24.6438 0.0712174 24.6778 0L28.5941 1.12879C28.457 1.9034 28.2977 2.64449 28.1957 3.38878C27.9216 5.47087 28.4467 7.34316 29.7598 8.98171C30.4132 9.7962 31.3183 10.1943 32.3271 10.2581C33.1534 10.3075 34.0107 10.3099 34.8179 10.1496C37.6752 9.58081 40.0241 10.4495 41.9819 12.5269C43.6631 14.3106 44.5778 16.4621 44.8703 18.8736C45.5675 24.6277 43.4217 29.2825 39.2289 33.0781C36.5772 35.4785 33.4514 36.9751 29.9016 37.4984C26.1838 38.0464 22.6827 37.4186 19.4971 35.3557C17.8668 34.2995 16.7186 32.7917 15.725 31.15C15.2103 30.298 14.6892 29.446 14.1402 28.618C13.6766 27.8995 13.0426 27.307 12.2948 26.8933C11.4359 26.4274 10.647 26.4769 9.89327 27.1119C8.61839 28.1856 8.16023 29.6215 8.19529 31.2361C8.23513 33.0917 9.02078 34.6441 10.2303 36.0058C11.157 37.0501 12.2637 37.8685 13.4645 38.5665C13.635 38.6663 13.8048 38.7676 14.0143 38.892C13.3681 40.111 12.7267 41.31 12.0367 42.6015ZM42.4058 20.9031C42.3412 19.2661 42.1588 17.6922 41.3906 16.2411C39.7827 13.2025 37.0457 11.9557 33.8012 12.8196C32.1853 13.2504 30.8458 14.3584 31.2928 16.569C31.8562 19.3523 31.2403 21.9441 29.3399 24.1267C27.3136 26.4529 24.6507 27.5283 21.6564 27.8849C20.9329 27.971 20.1966 27.9423 19.4747 28.0324C18.5648 28.1465 18.2158 28.6706 18.3935 29.5745C18.6501 30.8812 19.419 31.8711 20.4158 32.6856C22.9113 34.7223 25.8188 35.3261 28.9415 34.9688C32.2928 34.585 35.1948 33.1563 37.6664 30.882C40.5891 28.1952 42.2974 24.9085 42.4058 20.9063V20.9031Z" fill="white"/>
</g>
<path d="M42.4051 20.9063C42.2967 24.9093 40.5884 28.1952 37.6673 30.8836C35.1972 33.1579 32.2937 34.5867 28.9424 34.9704C25.8182 35.3278 22.9106 34.7239 20.4167 32.6873C19.4199 31.8744 18.651 30.8844 18.3944 29.5761C18.2167 28.6762 18.5657 28.1481 19.4757 28.0341C20.1976 27.9439 20.9338 27.9726 21.6573 27.8865C24.6516 27.5299 27.3145 26.4545 29.3408 24.1283C31.2412 21.9457 31.8571 19.3539 31.2937 16.5706C30.8467 14.3601 32.1862 13.252 33.8021 12.8212C37.0466 11.9573 39.7836 13.2041 41.3915 16.2427C42.1581 17.6954 42.3405 19.2693 42.4051 20.9063ZM40.2537 26.0046C39.6314 25.4582 39.0274 25.3912 38.3788 25.873C38.1119 26.0716 37.8211 25.9935 37.5653 25.8084C37.0769 25.4598 36.5805 25.4398 36.0897 25.7932C35.7534 26.0325 35.4395 26.0325 35.1032 25.7876C34.6451 25.4558 34.1574 25.4422 33.6969 25.7725C33.3303 26.0349 33.0053 26.0317 32.6427 25.7677C32.2268 25.4646 31.7551 25.4358 31.3392 25.7302C30.9232 26.0246 30.5623 26.0302 30.144 25.7302C29.7456 25.4438 29.3376 25.4749 29.0093 25.7549C27.0635 27.4126 24.7975 28.3516 22.2876 28.7066C21.4629 28.8246 20.6222 28.8326 19.7888 28.8924C19.2677 28.9299 19.1944 29.0201 19.298 29.4979C19.4772 30.3212 19.9354 30.9897 20.5282 31.5529C22.882 33.7786 25.7401 34.4112 28.8555 34.0634C32.0483 33.7076 34.7877 32.3203 37.1382 30.1544C38.4269 28.9791 39.483 27.5713 40.2513 26.0046H40.2537ZM34.7893 18.9127C34.9484 18.915 35.1063 18.8858 35.2541 18.8268C35.4019 18.7678 35.5366 18.6803 35.6506 18.5691C35.7646 18.458 35.8555 18.3255 35.9183 18.1791C35.9811 18.0327 36.0144 17.8754 36.0164 17.7161C36.0114 17.3953 35.8819 17.089 35.6552 16.8622C35.4285 16.6354 35.1225 16.5059 34.802 16.5012C34.4815 16.508 34.1762 16.6393 33.9507 16.8674C33.7251 17.0955 33.5969 17.4024 33.5933 17.7233C33.6016 18.0371 33.7302 18.3357 33.9524 18.5571C34.1746 18.7785 34.4734 18.9059 34.7869 18.9127H34.7893ZM36.6912 21.3706C36.6954 21.6321 36.8019 21.8816 36.9879 22.0654C37.1738 22.2492 37.4244 22.3526 37.6856 22.3534C37.9467 22.3492 38.1957 22.2424 38.3788 22.0559C38.5619 21.8695 38.6643 21.6184 38.6641 21.357C38.664 21.2274 38.6381 21.0992 38.588 20.9797C38.5378 20.8603 38.4643 20.752 38.3719 20.6614C38.2795 20.5707 38.1699 20.4993 38.0496 20.4515C37.9293 20.4037 37.8007 20.3804 37.6713 20.383C37.5417 20.3821 37.4132 20.4071 37.2934 20.4565C37.1736 20.5059 37.0647 20.5786 36.9733 20.6706C36.8818 20.7625 36.8096 20.8717 36.7607 20.9919C36.7119 21.1121 36.6875 21.2408 36.6888 21.3706H36.6912ZM34.7853 22.828C34.7809 22.5936 34.6853 22.3702 34.5187 22.2053C34.3522 22.0405 34.1279 21.9474 33.8937 21.9457C33.6597 21.9497 33.4367 22.0456 33.2727 22.2128C33.1087 22.3799 33.017 22.6049 33.0172 22.8392C33.0154 22.9587 33.0378 23.0773 33.083 23.1879C33.1283 23.2985 33.1953 23.3989 33.2803 23.4829C33.3652 23.5668 33.4662 23.6328 33.5772 23.6766C33.6883 23.7205 33.807 23.7415 33.9263 23.7383C34.16 23.7299 34.381 23.6297 34.5414 23.4593C34.7017 23.2889 34.7885 23.0621 34.7829 22.828H34.7853Z" fill="white"/>
<path d="M40.2523 26.0047C39.4836 27.5709 38.4272 28.9782 37.1384 30.153C34.7878 32.3196 32.0484 33.7069 28.8557 34.0619C25.7402 34.4097 22.8797 33.7771 20.5284 31.5514C19.9324 30.9882 19.4774 30.3197 19.2981 29.4964C19.1945 29.0178 19.2678 28.9284 19.7889 28.8909C20.6224 28.8311 21.4622 28.8231 22.2877 28.7051C24.7976 28.3469 27.0637 27.4079 29.0095 25.7534C29.3377 25.4734 29.7457 25.4423 30.1441 25.7287C30.5608 26.0295 30.9146 26.0287 31.3393 25.7287C31.764 25.4288 32.2269 25.4631 32.6429 25.7662C33.0054 26.0303 33.3305 26.0335 33.697 25.771C34.1576 25.4407 34.6452 25.4519 35.1034 25.7862C35.4396 26.0303 35.7535 26.0334 36.0898 25.7917C36.5806 25.4383 37.077 25.4583 37.5655 25.8069C37.8244 25.992 38.1121 26.0701 38.379 25.8715C39.026 25.3913 39.63 25.4583 40.2523 26.0047ZM28.9625 29.9934C29.0849 29.9944 29.2064 29.971 29.3198 29.9248C29.4333 29.8786 29.5365 29.8104 29.6235 29.7241C29.7105 29.6378 29.7796 29.5351 29.8268 29.422C29.8741 29.3088 29.8985 29.1875 29.8987 29.0648C29.894 28.8177 29.794 28.5819 29.6197 28.4069C29.4453 28.2319 29.2101 28.1312 28.9633 28.1259C28.7097 28.1259 28.4665 28.2268 28.2871 28.4063C28.1078 28.5858 28.0071 28.8293 28.0071 29.0832C28.0094 29.206 28.036 29.3271 28.0853 29.4396C28.1347 29.552 28.2059 29.6535 28.2948 29.7382C28.3837 29.8228 28.4884 29.889 28.6031 29.9328C28.7177 29.9766 28.8398 29.9972 28.9625 29.9934ZM36.4611 27.8698C36.4627 27.7607 36.4426 27.6523 36.4021 27.5509C36.3616 27.4496 36.3013 27.3573 36.2249 27.2794C36.1485 27.2015 36.0575 27.1395 35.957 27.0971C35.8565 27.0547 35.7487 27.0326 35.6396 27.0322C35.4261 27.0355 35.2221 27.1217 35.0708 27.2726C34.9194 27.4235 34.8326 27.6273 34.8285 27.8411C34.8236 27.9504 34.8406 28.0596 34.8785 28.1622C34.9164 28.2648 34.9745 28.3588 35.0493 28.4386C35.124 28.5184 35.214 28.5824 35.3139 28.6268C35.4138 28.6712 35.5216 28.6951 35.6308 28.6971C35.7399 28.6986 35.8483 28.6782 35.9494 28.6372C36.0505 28.5962 36.1425 28.5354 36.2198 28.4584C36.2972 28.3813 36.3584 28.2895 36.3998 28.1885C36.4412 28.0874 36.4621 27.9791 36.4611 27.8698ZM32.0118 30.5159C31.922 30.5153 31.8329 30.5326 31.7499 30.5671C31.6669 30.6015 31.5916 30.6522 31.5286 30.7162C31.4655 30.7803 31.4159 30.8563 31.3827 30.9399C31.3495 31.0235 31.3334 31.1129 31.3353 31.2028C31.3392 31.3841 31.4136 31.5567 31.5426 31.6841C31.6715 31.8114 31.845 31.8834 32.0261 31.8848C32.2075 31.88 32.3797 31.8043 32.5059 31.6738C32.6321 31.5433 32.7021 31.3684 32.701 31.1868C32.7016 31.0967 32.684 31.0074 32.6492 30.9243C32.6143 30.8412 32.5631 30.7661 32.4984 30.7034C32.4338 30.6407 32.3571 30.5917 32.2731 30.5595C32.189 30.5273 32.0993 30.5125 32.0094 30.5159H32.0118ZM25.396 31.2108C25.4016 31.1315 25.3908 31.052 25.3642 30.9772C25.3376 30.9024 25.2958 30.8339 25.2414 30.776C25.1871 30.7182 25.1214 30.6722 25.0484 30.641C24.9755 30.6099 24.8968 30.5942 24.8175 30.5949C24.7383 30.5901 24.6589 30.6009 24.5839 30.627C24.5089 30.653 24.4398 30.6936 24.3805 30.7464C24.3213 30.7993 24.2731 30.8634 24.2387 30.935C24.2043 31.0066 24.1843 31.0843 24.1801 31.1637C24.1749 31.3302 24.2359 31.492 24.3498 31.6136C24.4636 31.7352 24.6209 31.8066 24.7872 31.8122C24.8668 31.8133 24.9458 31.7985 25.0196 31.7688C25.0934 31.739 25.1606 31.6949 25.2172 31.6389C25.2739 31.583 25.3188 31.5163 25.3495 31.4428C25.3802 31.3693 25.396 31.2904 25.396 31.2108Z" fill="#73D5EC"/>
<path d="M34.788 18.9129C34.4745 18.9065 34.1755 18.7795 33.953 18.5584C33.7305 18.3372 33.6015 18.0388 33.5928 17.7251C33.5964 17.4041 33.7246 17.0972 33.9501 16.8691C34.1757 16.6411 34.481 16.5097 34.8015 16.5029C35.122 16.5077 35.428 16.6372 35.6547 16.864C35.8813 17.0908 36.0109 17.3971 36.0158 17.7179C36.0137 17.8771 35.9802 18.0343 35.9173 18.1805C35.8544 18.3268 35.7633 18.4592 35.6493 18.5701C35.5352 18.6811 35.4005 18.7685 35.2527 18.8273C35.1049 18.8861 34.947 18.9152 34.788 18.9129Z" fill="#8AC7F2"/>
<path d="M36.6895 21.3706C36.6881 21.2411 36.7125 21.1125 36.7612 20.9925C36.8099 20.8725 36.8819 20.7634 36.9731 20.6715C37.0643 20.5796 37.1728 20.5067 37.2924 20.4572C37.412 20.4077 37.5402 20.3825 37.6696 20.383C37.799 20.3805 37.9276 20.4038 38.0479 20.4516C38.1682 20.4994 38.2777 20.5707 38.3702 20.6614C38.4626 20.7521 38.5361 20.8603 38.5862 20.9798C38.6364 21.0992 38.6623 21.2275 38.6624 21.357C38.6626 21.6185 38.5601 21.8695 38.3771 22.056C38.194 22.2424 37.945 22.3492 37.6839 22.3534C37.4226 22.3526 37.1721 22.2492 36.9861 22.0654C36.8002 21.8817 36.6937 21.6322 36.6895 21.3706Z" fill="#8AC7F2"/>
<path d="M34.7836 22.8281C34.7892 23.0627 34.702 23.29 34.541 23.4605C34.3799 23.6309 34.1581 23.7308 33.9239 23.7383C33.8046 23.7416 33.6858 23.7206 33.5748 23.6767C33.4638 23.6328 33.3627 23.5669 33.2778 23.4829C33.1929 23.3989 33.1258 23.2986 33.0806 23.188C33.0354 23.0774 33.013 22.9588 33.0147 22.8393C33.0145 22.605 33.1063 22.38 33.2702 22.2128C33.4342 22.0457 33.6572 21.9498 33.8912 21.9458C34.1256 21.9472 34.35 22.0403 34.5168 22.2051C34.6835 22.37 34.7793 22.5935 34.7836 22.8281Z" fill="#8AC7F2"/>
<path d="M28.962 29.9932C28.8394 29.9971 28.7172 29.9766 28.6026 29.9329C28.4879 29.8892 28.3831 29.8231 28.2941 29.7385C28.2052 29.6539 28.1339 29.5525 28.0844 29.4401C28.0349 29.3277 28.0082 29.2066 28.0059 29.0837C28.0059 28.8299 28.1066 28.5864 28.2859 28.4069C28.4652 28.2273 28.7084 28.1265 28.962 28.1265C29.2089 28.1318 29.4441 28.2325 29.6184 28.4075C29.7928 28.5825 29.8928 28.8183 29.8975 29.0654C29.8971 29.1879 29.8727 29.3091 29.8254 29.4221C29.7782 29.5351 29.7092 29.6376 29.6222 29.7238C29.5353 29.8101 29.4323 29.8782 29.319 29.9244C29.2057 29.9706 29.0844 29.994 28.962 29.9932Z" fill="white"/>
<path d="M36.4606 27.8698C36.4616 27.9791 36.4407 28.0874 36.3993 28.1885C36.3579 28.2896 36.2967 28.3813 36.2193 28.4584C36.142 28.5354 36.0501 28.5962 35.9489 28.6372C35.8478 28.6782 35.7395 28.6986 35.6303 28.6971C35.5211 28.6951 35.4133 28.6712 35.3134 28.6268C35.2135 28.5824 35.1236 28.5184 35.0488 28.4386C34.974 28.3588 34.9159 28.2649 34.878 28.1622C34.8401 28.0596 34.8231 27.9504 34.828 27.8411C34.8321 27.6273 34.919 27.4235 35.0703 27.2726C35.2216 27.1217 35.4256 27.0355 35.6391 27.0322C35.7482 27.0326 35.856 27.0547 35.9565 27.0971C36.057 27.1395 36.1481 27.2015 36.2245 27.2794C36.3009 27.3573 36.3611 27.4496 36.4016 27.5509C36.4421 27.6523 36.4622 27.7607 36.4606 27.8698Z" fill="white"/>
<path d="M32.0087 30.516C32.0984 30.5129 32.1878 30.528 32.2716 30.5603C32.3554 30.5927 32.4317 30.6417 32.4961 30.7044C32.5605 30.767 32.6116 30.8421 32.6462 30.925C32.6809 31.0079 32.6985 31.097 32.6979 31.1869C32.699 31.3685 32.6289 31.5434 32.5028 31.6739C32.3766 31.8044 32.2044 31.8801 32.023 31.8849C31.8419 31.8835 31.6684 31.8115 31.5394 31.6842C31.4105 31.5568 31.3361 31.3842 31.3322 31.2029C31.3303 31.113 31.3464 31.0236 31.3796 30.94C31.4128 30.8564 31.4624 30.7804 31.5254 30.7163C31.5885 30.6523 31.6638 30.6016 31.7468 30.5672C31.8298 30.5327 31.9188 30.5154 32.0087 30.516Z" fill="white"/>
<path d="M25.3956 31.2107C25.3956 31.2901 25.3799 31.3687 25.3495 31.442C25.319 31.5153 25.2743 31.5818 25.218 31.6377C25.1617 31.6937 25.0949 31.7379 25.0215 31.7678C24.948 31.7978 24.8694 31.8129 24.7901 31.8122C24.6237 31.8066 24.4664 31.7352 24.3526 31.6136C24.2388 31.492 24.1778 31.3302 24.1829 31.1637C24.1872 31.0843 24.2071 31.0066 24.2415 30.935C24.2759 30.8634 24.3241 30.7993 24.3834 30.7464C24.4426 30.6935 24.5117 30.6529 24.5867 30.6269C24.6617 30.6009 24.7411 30.59 24.8204 30.5949C24.8994 30.5946 24.9777 30.6106 25.0503 30.642C25.1228 30.6733 25.1882 30.7194 25.2422 30.7772C25.2962 30.835 25.3377 30.9033 25.3641 30.9779C25.3905 31.0525 25.4012 31.1318 25.3956 31.2107Z" fill="white"/>
<defs>
<filter id="filter0_d_25_867" x="0" y="0" width="49" height="50.6016" filterUnits="userSpaceOnUse" color-interpolation-filters="sRGB">
<feFlood flood-opacity="0" result="BackgroundImageFix"/>
<feColorMatrix in="SourceAlpha" type="matrix" values="0 0 0 0 0 0 0 0 0 0 0 0 0 0 0 0 0 0 127 0" result="hardAlpha"/>
<feOffset dy="4"/>
<feGaussianBlur stdDeviation="2"/>
<feComposite in2="hardAlpha" operator="out"/>
<feColorMatrix type="matrix" values="0 0 0 0 0.089323 0 0 0 0 0.489225 0 0 0 0 0.729167 0 0 0 0.6 0"/>
<feBlend mode="normal" in2="BackgroundImageFix" result="effect1_dropShadow_25_867"/>
<feBlend mode="normal" in="SourceGraphic" in2="effect1_dropShadow_25_867" result="shape"/>
</filter>
</defs>
</svg>
