<svg width="46" height="47" viewBox="0 0 46 47" fill="none" xmlns="http://www.w3.org/2000/svg">
<g filter="url(#filter0_d_40_2035)">
<path d="M11.2821 38.6015C10.4568 38.05 9.64461 37.5599 8.89014 36.9932C7.02886 35.5938 5.52209 33.885 4.70264 31.6724C3.48754 28.385 3.79078 25.2688 6.06503 22.504C7.24402 21.0699 8.80206 20.2849 10.6965 20.3073C11.8604 20.321 12.9051 20.7287 13.8668 21.3699C14.9635 22.1014 16.0955 22.8032 17.4139 23.0013C20.3393 23.4393 23.0533 22.8958 25.0048 20.5299C26.8516 18.2891 27.1397 15.7014 25.8228 13.058C25.2178 11.8436 24.459 10.7066 23.7753 9.53201C22.0577 6.58285 21.7292 3.46527 22.654 0.198056C22.678 0.13064 22.7054 0.0645306 22.7363 0L26.2849 1.02281C26.1607 1.72468 26.0163 2.39619 25.9239 3.0706C25.6755 4.95719 26.1513 6.65368 27.3411 8.13838C27.9332 8.8764 28.7533 9.23709 29.6674 9.29492C30.4161 9.33974 31.1929 9.3419 31.9243 9.19662C34.5133 8.68123 36.6417 9.4684 38.4156 11.3507C39.939 12.9669 40.7678 14.9164 41.0328 17.1015C41.6646 22.3153 39.7202 26.5331 35.9212 29.9723C33.5184 32.1473 30.6861 33.5033 27.4696 33.9775C24.1009 34.4741 20.9285 33.9052 18.042 32.036C16.5648 31.079 15.5244 29.7128 14.6241 28.2252C14.1577 27.4532 13.6855 26.6812 13.1881 25.9309C12.768 25.2799 12.1936 24.743 11.516 24.3682C10.7377 23.946 10.0229 23.9909 9.33993 24.5662C8.18476 25.5392 7.76961 26.8403 7.80138 28.3033C7.83748 29.9846 8.54937 31.3912 9.64534 32.6251C10.485 33.5713 11.4878 34.3129 12.5759 34.9454C12.7304 35.0358 12.8841 35.1276 13.074 35.2403C12.4885 36.3448 11.9073 37.4312 11.2821 38.6015ZM38.7997 18.9404C38.7412 17.4572 38.5759 16.031 37.8799 14.7162C36.423 11.9629 33.9429 10.8331 31.003 11.6159C29.5388 12.0063 28.3252 13.0103 28.7302 15.0133C29.2407 17.5352 28.6826 19.8837 26.9606 21.8614C25.1246 23.9692 22.7118 24.9436 19.9986 25.2667C19.343 25.3447 18.6759 25.3187 18.0218 25.4004C17.1973 25.5038 16.881 25.9787 17.042 26.7976C17.2745 27.9816 17.9712 28.8787 18.8744 29.6167C21.1357 31.4621 23.7702 32.0093 26.5997 31.6854C29.6363 31.3377 32.2658 30.0431 34.5054 27.9823C37.1536 25.5478 38.7015 22.5698 38.7997 18.9433V18.9404Z" fill="white"/>
</g>
<path d="M38.7997 18.9433C38.7015 22.5705 37.1536 25.5478 34.5068 27.9838C32.2687 30.0446 29.6378 31.3392 26.6011 31.6868C23.7702 32.0107 21.1357 31.4635 18.8759 29.6181C17.9727 28.8815 17.276 27.9845 17.0435 26.799C16.8825 25.9837 17.1987 25.5052 18.0232 25.4018C18.6774 25.3201 19.3445 25.3461 20 25.2681C22.7132 24.945 25.1261 23.9706 26.9621 21.8628C28.684 19.8851 29.2421 17.5366 28.7317 15.0147C28.3267 13.0117 29.5403 12.0077 31.0045 11.6174C33.9444 10.8345 36.4244 11.9643 37.8814 14.7176C38.5759 16.0339 38.7412 17.46 38.7997 18.9433ZM36.8504 23.5629C36.2865 23.0678 35.7392 23.0071 35.1516 23.4436C34.9097 23.6236 34.6462 23.5528 34.4144 23.3851C33.9718 23.0692 33.522 23.0511 33.0773 23.3714C32.7726 23.5882 32.4882 23.5882 32.1835 23.3663C31.7683 23.0656 31.3265 23.0533 30.9092 23.3526C30.5771 23.5904 30.2825 23.5875 29.954 23.3482C29.5771 23.0736 29.1497 23.0475 28.7728 23.3143C28.396 23.581 28.0689 23.586 27.6899 23.3143C27.3289 23.0548 26.9592 23.0829 26.6618 23.3367C24.8987 24.8387 22.8454 25.6895 20.5711 26.0112C19.8239 26.1181 19.0622 26.1254 18.307 26.1796C17.8348 26.2135 17.7684 26.2952 17.8622 26.7282C18.0247 27.4742 18.4398 28.0799 18.977 28.5902C21.1097 30.6069 23.6995 31.1801 26.5224 30.865C29.4154 30.5426 31.8976 29.2856 34.0274 27.3231C35.1951 26.2581 36.1521 24.9825 36.8482 23.5629H36.8504ZM31.899 17.1369C32.0432 17.1389 32.1863 17.1125 32.3202 17.059C32.4541 17.0056 32.5762 16.9263 32.6795 16.8256C32.7827 16.7249 32.8652 16.6048 32.922 16.4722C32.9789 16.3395 33.0091 16.197 33.0109 16.0527C33.0064 15.762 32.889 15.4844 32.6836 15.2789C32.4782 15.0734 32.2009 14.9561 31.9106 14.9518C31.6202 14.958 31.3435 15.077 31.1391 15.2836C30.9348 15.4903 30.8186 15.7684 30.8153 16.0592C30.8229 16.3435 30.9394 16.614 31.1407 16.8147C31.3421 17.0153 31.6128 17.1307 31.8969 17.1369H31.899ZM33.6224 19.364C33.6262 19.601 33.7227 19.827 33.8912 19.9936C34.0597 20.1601 34.2867 20.2538 34.5234 20.2545C34.76 20.2507 34.9856 20.1539 35.1515 19.985C35.3174 19.816 35.4102 19.5886 35.41 19.3517C35.41 19.2343 35.3865 19.1181 35.341 19.0098C35.2956 18.9016 35.229 18.8035 35.1453 18.7213C35.0615 18.6392 34.9622 18.5745 34.8532 18.5312C34.7442 18.4879 34.6277 18.4668 34.5104 18.4691C34.393 18.4683 34.2766 18.491 34.168 18.5357C34.0594 18.5805 33.9608 18.6464 33.878 18.7297C33.7951 18.813 33.7296 18.912 33.6854 19.0209C33.6411 19.1298 33.619 19.2464 33.6202 19.364H33.6224ZM31.8954 20.6846C31.8915 20.4722 31.8048 20.2697 31.6539 20.1204C31.5029 19.971 31.2997 19.8866 31.0875 19.8851C30.8755 19.8887 30.6734 19.9756 30.5248 20.1271C30.3763 20.2786 30.2931 20.4824 30.2933 20.6947C30.2917 20.803 30.312 20.9105 30.353 21.0107C30.394 21.1109 30.4547 21.2018 30.5317 21.2779C30.6086 21.354 30.7002 21.4137 30.8008 21.4535C30.9014 21.4933 31.009 21.5123 31.1171 21.5093C31.3289 21.5018 31.5291 21.411 31.6744 21.2566C31.8197 21.1022 31.8983 20.8967 31.8932 20.6846H31.8954Z" fill="white"/>
<path d="M36.8479 23.5633C36.1514 24.9824 35.1942 26.2575 34.0264 27.322C31.8966 29.2852 29.4144 30.5422 26.5214 30.8639C23.6985 31.179 21.1065 30.6058 18.976 28.5891C18.4359 28.0788 18.0237 27.4731 17.8612 26.7271C17.7674 26.2934 17.8338 26.2125 18.306 26.1785C19.0612 26.1243 19.8221 26.117 20.5701 26.0101C22.8443 25.6855 24.8977 24.8347 26.6607 23.3356C26.9582 23.0819 27.3279 23.0537 27.6888 23.3132C28.0664 23.5857 28.387 23.585 28.7718 23.3132C29.1566 23.0414 29.5761 23.0725 29.953 23.3471C30.2815 23.5864 30.5761 23.5893 30.9082 23.3515C31.3255 23.0522 31.7673 23.0623 32.1825 23.3652C32.4871 23.5864 32.7716 23.5893 33.0763 23.3703C33.521 23.0501 33.9708 23.0681 34.4134 23.384C34.648 23.5517 34.9087 23.6225 35.1505 23.4426C35.7368 23.0074 36.284 23.0681 36.8479 23.5633ZM26.6181 27.1774C26.7291 27.1783 26.8392 27.1572 26.942 27.1153C27.0448 27.0734 27.1383 27.0116 27.2171 26.9334C27.2959 26.8552 27.3586 26.7622 27.4014 26.6597C27.4442 26.5571 27.4663 26.4472 27.4665 26.3361C27.4622 26.1121 27.3716 25.8985 27.2137 25.7399C27.0557 25.5813 26.8425 25.4901 26.6189 25.4853C26.3891 25.4853 26.1687 25.5767 26.0062 25.7393C25.8438 25.902 25.7525 26.1226 25.7525 26.3527C25.7545 26.464 25.7786 26.5737 25.8234 26.6756C25.8681 26.7775 25.9326 26.8694 26.0132 26.9462C26.0937 27.0229 26.1886 27.0828 26.2925 27.1225C26.3963 27.1622 26.507 27.1809 26.6181 27.1774ZM33.4127 25.2533C33.4142 25.1543 33.396 25.0561 33.3593 24.9643C33.3225 24.8725 33.268 24.7888 33.1987 24.7183C33.1295 24.6477 33.047 24.5915 32.956 24.5531C32.8649 24.5146 32.7672 24.4947 32.6684 24.4943C32.4749 24.4972 32.2901 24.5753 32.1529 24.7121C32.0158 24.8488 31.9371 25.0335 31.9334 25.2272C31.9289 25.3263 31.9443 25.4252 31.9787 25.5182C32.0131 25.6112 32.0657 25.6963 32.1334 25.7686C32.2012 25.8409 32.2828 25.8989 32.3733 25.9391C32.4638 25.9793 32.5614 26.001 32.6604 26.0028C32.7593 26.0042 32.8574 25.9857 32.9491 25.9486C33.0407 25.9115 33.124 25.8563 33.1941 25.7865C33.2642 25.7167 33.3196 25.6336 33.3572 25.542C33.3947 25.4504 33.4136 25.3522 33.4127 25.2533ZM29.3812 27.6509C29.2998 27.6503 29.2191 27.666 29.1439 27.6972C29.0687 27.7284 29.0005 27.7744 28.9433 27.8324C28.8862 27.8904 28.8412 27.9593 28.8112 28.0351C28.7811 28.1108 28.7665 28.1918 28.7682 28.2733C28.7718 28.4375 28.8391 28.594 28.956 28.7094C29.0729 28.8247 29.23 28.89 29.3942 28.8913C29.5585 28.8869 29.7146 28.8183 29.8289 28.7C29.9432 28.5818 30.0067 28.4234 30.0057 28.2588C30.0062 28.1771 29.9902 28.0962 29.9587 28.021C29.9271 27.9457 29.8807 27.8776 29.8221 27.8207C29.7636 27.7639 29.6941 27.7196 29.6179 27.6904C29.5418 27.6612 29.4605 27.6478 29.379 27.6509H29.3812ZM23.3866 28.2805C23.3916 28.2087 23.3818 28.1366 23.3577 28.0688C23.3336 28.001 23.2958 27.939 23.2465 27.8866C23.1973 27.8341 23.1377 27.7925 23.0716 27.7642C23.0055 27.736 22.9343 27.7218 22.8624 27.7225C22.7906 27.7181 22.7187 27.7279 22.6507 27.7515C22.5828 27.7751 22.5201 27.8119 22.4664 27.8598C22.4128 27.9077 22.3691 27.9657 22.3379 28.0306C22.3067 28.0955 22.2887 28.1659 22.2848 28.2378C22.2801 28.3887 22.3354 28.5354 22.4386 28.6455C22.5417 28.7557 22.6842 28.8204 22.835 28.8255C22.9071 28.8265 22.9786 28.8131 23.0455 28.7861C23.1124 28.7591 23.1732 28.7192 23.2246 28.6684C23.2759 28.6177 23.3166 28.5573 23.3444 28.4907C23.3722 28.4241 23.3866 28.3527 23.3866 28.2805Z" fill="#F9757E"/>
<path d="M31.8964 17.1373C31.6124 17.1315 31.3415 17.0164 31.1399 16.8161C30.9383 16.6157 30.8214 16.3453 30.8135 16.061C30.8168 15.7702 30.9329 15.4921 31.1373 15.2854C31.3417 15.0788 31.6183 14.9598 31.9087 14.9536C32.1991 14.9579 32.4764 15.0752 32.6818 15.2808C32.8872 15.4863 33.0046 15.7638 33.009 16.0545C33.007 16.1987 32.9767 16.3412 32.9197 16.4737C32.8627 16.6062 32.7802 16.7262 32.6769 16.8267C32.5735 16.9273 32.4514 17.0065 32.3175 17.0598C32.1836 17.1131 32.0405 17.1394 31.8964 17.1373Z" fill="#F39180"/>
<path d="M33.6202 19.3643C33.6189 19.2469 33.641 19.1304 33.6851 19.0217C33.7292 18.9129 33.7945 18.8141 33.8771 18.7308C33.9598 18.6475 34.0581 18.5815 34.1665 18.5367C34.2748 18.4918 34.391 18.4689 34.5082 18.4694C34.6255 18.4671 34.742 18.4882 34.851 18.5315C34.96 18.5748 35.0593 18.6395 35.143 18.7217C35.2268 18.8038 35.2933 18.9019 35.3388 19.0101C35.3843 19.1184 35.4077 19.2346 35.4078 19.352C35.408 19.5889 35.3152 19.8164 35.1493 19.9853C34.9834 20.1542 34.7578 20.251 34.5212 20.2548C34.2844 20.2541 34.0574 20.1604 33.8889 19.9939C33.7205 19.8273 33.6239 19.6013 33.6202 19.3643Z" fill="#F39180"/>
<path d="M31.8934 20.6847C31.8985 20.8973 31.8195 21.1032 31.6735 21.2577C31.5276 21.4122 31.3267 21.5027 31.1144 21.5095C31.0063 21.5124 30.8987 21.4934 30.7981 21.4537C30.6975 21.4139 30.6059 21.3542 30.529 21.2781C30.452 21.202 30.3912 21.1111 30.3503 21.0108C30.3093 20.9106 30.289 20.8031 30.2906 20.6948C30.2904 20.4825 30.3735 20.2787 30.5221 20.1272C30.6707 19.9758 30.8728 19.8889 31.0848 19.8853C31.2971 19.8865 31.5005 19.9709 31.6516 20.1202C31.8027 20.2696 31.8895 20.4722 31.8934 20.6847Z" fill="#F39180"/>
<path d="M26.6183 27.1768C26.5072 27.1803 26.3965 27.1618 26.2926 27.1222C26.1887 27.0826 26.0937 27.0227 26.0131 26.946C25.9325 26.8694 25.868 26.7775 25.8231 26.6756C25.7783 26.5738 25.7541 26.464 25.752 26.3528C25.752 26.1227 25.8432 25.9021 26.0057 25.7394C26.1682 25.5767 26.3886 25.4854 26.6183 25.4854C26.842 25.4902 27.0551 25.5814 27.2131 25.74C27.3711 25.8986 27.4617 26.1122 27.4659 26.3361C27.4657 26.4471 27.4435 26.557 27.4007 26.6593C27.3579 26.7617 27.2953 26.8546 27.2166 26.9328C27.1378 27.0109 27.0444 27.0726 26.9418 27.1145C26.8391 27.1564 26.7292 27.1775 26.6183 27.1768Z" fill="white"/>
<path d="M33.4127 25.2531C33.4136 25.3521 33.3947 25.4503 33.3572 25.5418C33.3196 25.6334 33.2642 25.7165 33.1941 25.7864C33.124 25.8562 33.0407 25.9113 32.9491 25.9485C32.8574 25.9856 32.7593 26.004 32.6604 26.0027C32.5614 26.0009 32.4638 25.9792 32.3732 25.939C32.2827 25.8987 32.2012 25.8408 32.1334 25.7685C32.0657 25.6962 32.013 25.611 31.9787 25.518C31.9443 25.4251 31.9289 25.3261 31.9334 25.2271C31.9371 25.0334 32.0158 24.8487 32.1529 24.7119C32.29 24.5752 32.4748 24.4971 32.6683 24.4941C32.7672 24.4945 32.8649 24.5145 32.9559 24.5529C33.047 24.5914 33.1295 24.6475 33.1987 24.7181C33.2679 24.7887 33.3225 24.8723 33.3592 24.9642C33.396 25.056 33.4141 25.1542 33.4127 25.2531Z" fill="white"/>
<path d="M29.3792 27.6508C29.4605 27.6479 29.5416 27.6616 29.6175 27.6909C29.6934 27.7202 29.7626 27.7646 29.8209 27.8214C29.8792 27.8782 29.9255 27.9462 29.9569 28.0213C29.9883 28.0965 30.0043 28.1772 30.0037 28.2586C30.0047 28.4232 29.9413 28.5816 29.8269 28.6999C29.7126 28.8181 29.5565 28.8868 29.3922 28.8911C29.2281 28.8898 29.0709 28.8246 28.954 28.7092C28.8372 28.5938 28.7698 28.4374 28.7663 28.2731C28.7645 28.1916 28.7791 28.1106 28.8092 28.0349C28.8393 27.9592 28.8842 27.8903 28.9414 27.8322C28.9985 27.7742 29.0667 27.7283 29.1419 27.6971C29.2171 27.6659 29.2978 27.6502 29.3792 27.6508Z" fill="white"/>
<path d="M23.3867 28.2802C23.3867 28.3522 23.3725 28.4234 23.3449 28.4898C23.3173 28.5562 23.2768 28.6165 23.2258 28.6672C23.1747 28.7178 23.1142 28.7579 23.0477 28.785C22.9811 28.8122 22.9099 28.8258 22.838 28.8253C22.6873 28.8202 22.5447 28.7554 22.4416 28.6453C22.3385 28.5351 22.2832 28.3885 22.2879 28.2376C22.2917 28.1657 22.3098 28.0953 22.3409 28.0304C22.3721 27.9655 22.4158 27.9074 22.4695 27.8595C22.5232 27.8116 22.5858 27.7748 22.6538 27.7512C22.7217 27.7277 22.7937 27.7178 22.8655 27.7222C22.9371 27.7219 23.008 27.7365 23.0738 27.7649C23.1395 27.7933 23.1987 27.835 23.2477 27.8874C23.2966 27.9398 23.3342 28.0017 23.3581 28.0693C23.3821 28.1369 23.3918 28.2087 23.3867 28.2802Z" fill="white"/>
<defs>
<filter id="filter0_d_40_2035" x="0" y="0" width="45.1504" height="46.6016" filterUnits="userSpaceOnUse" color-interpolation-filters="sRGB">
<feFlood flood-opacity="0" result="BackgroundImageFix"/>
<feColorMatrix in="SourceAlpha" type="matrix" values="0 0 0 0 0 0 0 0 0 0 0 0 0 0 0 0 0 0 127 0" result="hardAlpha"/>
<feOffset dy="4"/>
<feGaussianBlur stdDeviation="2"/>
<feComposite in2="hardAlpha" operator="out"/>
<feColorMatrix type="matrix" values="0 0 0 0 0.695833 0 0 0 0 0.377158 0 0 0 0 0.322983 0 0 0 0.5 0"/>
<feBlend mode="normal" in2="BackgroundImageFix" result="effect1_dropShadow_40_2035"/>
<feBlend mode="normal" in="SourceGraphic" in2="effect1_dropShadow_40_2035" result="shape"/>
</filter>
</defs>
</svg>
