<svg width="43" height="56" viewBox="0 0 43 56" fill="none" xmlns="http://www.w3.org/2000/svg">
<path d="M19.3451 47.7684V44.0672H23.7777V40.8081H19.3429C19.3429 39.0337 19.3755 37.3704 19.3298 35.707C19.308 34.9603 19.517 34.6707 20.3052 34.5009C29.2684 32.5807 33.8448 23.084 29.7779 14.9066C29.3991 14.1425 28.9353 13.4197 28.5848 12.8079L35.2055 6.21551C35.3253 7.60234 35.445 9.02184 35.5713 10.4892L38.7891 10.3063C38.6105 7.64589 38.4385 5.08122 38.2644 2.52526C38.1359 0.65074 38.1338 0.65074 36.2397 0.530998C35.9501 0.513581 35.6627 0.467861 35.3688 0.450444C33.1046 0.300221 30.8382 0.154353 28.4869 0.00195312L28.2256 3.17622L32.7366 3.59205L25.8917 10.2214C23.4312 8.42009 20.4499 7.47141 17.4009 7.51961C8.62918 7.6067 2.12388 16.1258 4.49042 24.5818C6.01442 29.9833 9.63938 33.2425 15.0692 34.5575C15.411 34.6402 15.94 34.9929 15.94 35.2389C16.014 37.0764 15.9814 38.9161 15.9814 40.8581H11.5509V44.1217H16.0402V47.8533C16.911 47.8533 17.6752 47.8533 18.435 47.8533C18.6788 47.8555 18.9249 47.8228 19.3451 47.7684Z" fill="white"/>
<g filter="url(#filter0_d_25_686)">
<path d="M19.3452 47.7686C18.925 47.8121 18.679 47.8557 18.4329 47.86C17.6796 47.86 16.9264 47.86 16.0381 47.86V44.1219H11.551V40.8562H15.9815C15.9815 38.9142 16.0141 37.0745 15.9401 35.237C15.9401 34.9931 15.4045 34.6383 15.0693 34.5555C9.63949 33.2493 6.00365 29.9835 4.49054 24.5799C2.12399 16.1239 8.62711 7.59821 17.401 7.51766C20.45 7.46945 23.4313 8.41814 25.8918 10.2195L32.7368 3.5901L28.2257 3.17427L28.487 0C30.8383 0.1524 33.1047 0.298268 35.3689 0.44849C35.6585 0.465908 35.9458 0.511627 36.2398 0.529045C38.1339 0.648787 38.136 0.648787 38.2645 2.5233C38.4387 5.08362 38.6107 7.64393 38.7892 10.3044L35.5714 10.4873C35.4451 9.01988 35.3254 7.60039 35.2056 6.21355L28.5849 12.8059C28.9355 13.4177 29.3992 14.1405 29.778 14.9047C33.8449 23.0907 29.2685 32.5874 20.3053 34.4989C19.5171 34.6688 19.3081 34.9583 19.3299 35.7051C19.3756 37.3684 19.343 39.0317 19.343 40.8061H23.7778V44.0609H19.3452V47.7686ZM17.6035 10.7681C11.6904 10.8617 7.26421 15.4446 7.34694 21.386C7.42749 27.1642 12.067 31.5424 18.0149 31.4618C23.5405 31.3856 28.0907 26.6068 28.0015 20.9702C27.9122 15.3336 23.2052 10.6789 17.6078 10.7681H17.6035Z" fill="white"/>
</g>
<g filter="url(#filter1_d_25_686)">
<path d="M17.6074 10.7679C23.2048 10.6786 27.9271 15.3072 28.0163 20.9699C28.1056 26.6327 23.5554 31.3854 18.0298 31.4616C12.071 31.5421 7.43148 27.1639 7.36181 21.3858C7.26819 15.4444 11.6943 10.8615 17.6074 10.7679Z" fill="url(#paint0_linear_25_686)"/>
</g>
<defs>
<filter id="filter0_d_25_686" x="0" y="0" width="42.7891" height="55.8599" filterUnits="userSpaceOnUse" color-interpolation-filters="sRGB">
<feFlood flood-opacity="0" result="BackgroundImageFix"/>
<feColorMatrix in="SourceAlpha" type="matrix" values="0 0 0 0 0 0 0 0 0 0 0 0 0 0 0 0 0 0 127 0" result="hardAlpha"/>
<feOffset dy="4"/>
<feGaussianBlur stdDeviation="2"/>
<feComposite in2="hardAlpha" operator="out"/>
<feColorMatrix type="matrix" values="0 0 0 0 0.089323 0 0 0 0 0.489225 0 0 0 0 0.729167 0 0 0 0.6 0"/>
<feBlend mode="normal" in2="BackgroundImageFix" result="effect1_dropShadow_25_686"/>
<feBlend mode="normal" in="SourceGraphic" in2="effect1_dropShadow_25_686" result="shape"/>
</filter>
<filter id="filter1_d_25_686" x="2.36035" y="9.7666" width="30.6572" height="30.6963" filterUnits="userSpaceOnUse" color-interpolation-filters="sRGB">
<feFlood flood-opacity="0" result="BackgroundImageFix"/>
<feColorMatrix in="SourceAlpha" type="matrix" values="0 0 0 0 0 0 0 0 0 0 0 0 0 0 0 0 0 0 127 0" result="hardAlpha"/>
<feOffset dy="4"/>
<feGaussianBlur stdDeviation="2.5"/>
<feComposite in2="hardAlpha" operator="out"/>
<feColorMatrix type="matrix" values="0 0 0 0 0.0238889 0 0 0 0 0.147522 0 0 0 0 0.358333 0 0 0 0.15 0"/>
<feBlend mode="normal" in2="BackgroundImageFix" result="effect1_dropShadow_25_686"/>
<feBlend mode="normal" in="SourceGraphic" in2="effect1_dropShadow_25_686" result="shape"/>
</filter>
<linearGradient id="paint0_linear_25_686" x1="17.689" y1="2.31015" x2="4.54148" y2="42.2466" gradientUnits="userSpaceOnUse">
<stop stop-color="#1792CD"/>
<stop offset="0.523958" stop-color="#69C9EA"/>
<stop offset="1" stop-color="#DBF4FF"/>
</linearGradient>
</defs>
</svg>
